<svg width="20" height="20" viewBox="0 0 20 20" fill="none" xmlns="http://www.w3.org/2000/svg">
<path fill-rule="evenodd" clip-rule="evenodd" d="M6.46817 2.21967C6.60882 2.07902 6.79959 2 6.9985 2H13.0015C13.2004 2 13.3912 2.07902 13.5318 2.21967L17.7803 6.46817C17.921 6.60882 18 6.79959 18 6.9985V13.0015C18 13.2004 17.921 13.3912 17.7803 13.5318L13.5318 17.7803C13.3912 17.921 13.2004 18 13.0015 18H6.9985C6.79959 18 6.60882 17.921 6.46817 17.7803L2.21967 13.5318C2.07902 13.3912 2 13.2004 2 13.0015V6.9985C2 6.79959 2.07902 6.60882 2.21967 6.46817L6.46817 2.21967ZM7.30916 3.5L3.5 7.30916V12.6908L7.30916 16.5H12.6908L16.5 12.6908V7.30916L12.6908 3.5H7.30916ZM10 6.35001C10.4142 6.35001 10.75 6.68579 10.75 7.10001V10C10.75 10.4142 10.4142 10.75 10 10.75C9.58579 10.75 9.25 10.4142 9.25 10V7.10001C9.25 6.68579 9.58579 6.35001 10 6.35001ZM10 12.15C9.58579 12.15 9.25 12.4858 9.25 12.9C9.25 13.3142 9.58579 13.65 10 13.65H10.0072C10.4215 13.65 10.7572 13.3142 10.7572 12.9C10.7572 12.4858 10.4215 12.15 10.0072 12.15H10Z" fill="#3F434A"/>
</svg>
