<svg width="40" height="40" viewBox="0 0 40 40" fill="none" xmlns="http://www.w3.org/2000/svg">
  <path d="M20 39.9998C31.0155 39.9998 40 31.0155 40 20C40 8.9843 31.0157 0 20 0C8.9843 0 0 8.9843 0 19.9999C0 31.0154 8.9843 39.9998 20 39.9998Z" fill="#FFD240" />
  <path d="M25.5163 30.0348V25.9316H14.9652V30.0348L20.2407 34.7242L25.5163 30.0348Z" fill="#FFD7A3" />
  <path fill-rule="evenodd" clip-rule="evenodd" d="M35.1493 33.0341C31.4767 37.2951 26.0441 39.9999 20.0001 39.9999C14.1234 39.9999 8.82488 37.4429 5.16016 33.3846C5.43432 32.6823 6.03928 32.1352 6.80779 31.9543L14.0612 30.2476C14.2673 30.1991 14.4487 30.0968 14.5949 29.9592L20.2406 33.552L26.1155 30.125C26.2098 30.178 26.3105 30.2218 26.4201 30.2476L33.6735 31.9543C34.3086 32.1037 34.832 32.5034 35.1493 33.0341Z" fill="#8B63E7" />
  <path d="M14.9652 25.9317V30.2609C21.611 32.6553 25.5163 26.6627 25.5163 26.6627V25.9316H14.9652V25.9317Z" fill="#F0C290" />
  <path d="M12.6205 12.4497L13.1313 23.6874C13.179 24.7372 13.6937 25.7108 14.5344 26.3413L16.9581 28.1591C17.5669 28.6156 18.3073 28.8625 19.0683 28.8625H21.4131C22.1741 28.8625 22.9145 28.6157 23.5233 28.1591L25.947 26.3413C26.7877 25.7107 27.3025 24.7373 27.3501 23.6874L27.8609 12.4497C27.8609 12.4497 12.6205 12.4497 12.6205 12.4497Z" fill="#FFE1B2" />
  <path fill-rule="evenodd" clip-rule="evenodd" d="M19.9689 39.9997H20.0311C20.5934 39.9989 21.1505 39.9746 21.7013 39.9278L21.3399 34.7241H19.1417L18.778 39.9627C19.172 39.9867 19.5691 39.9991 19.9689 39.9997Z" fill="#5B5D6E" />
  <path d="M21.7062 33.5518H18.7753V34.655C18.7753 35.0169 19.0686 35.3103 19.4306 35.3103H21.0507C21.4127 35.3103 21.7061 35.0169 21.7061 34.655V33.5518H21.7062Z" fill="#515262" />
  <path d="M14.8829 28.7299L20.2408 33.5519C20.2408 33.5519 18.7403 34.3094 16.8887 35.8361C16.5067 36.151 15.9289 36.0235 15.724 35.5728L13.2068 30.0349L14.0031 28.8405C14.2013 28.543 14.6172 28.4908 14.8829 28.7299Z" fill="white" />
  <path d="M25.5987 28.7299L20.2408 33.5519C20.2408 33.5519 21.7413 34.3094 23.593 35.8361C23.975 36.151 24.5528 36.0235 24.7576 35.5728L27.2749 30.0349L26.4785 28.8405C26.2803 28.543 25.8643 28.4908 25.5987 28.7299Z" fill="white" />
  <path d="M23.7943 8.56631L24.3438 12.4497C26.8523 12.9514 27.2138 16.8881 27.2659 18.0125C27.2753 18.2165 27.3404 18.4135 27.4511 18.5852L28.4082 20.0699C28.4082 20.0699 28.0807 17.6153 29.5806 15.9667C29.5806 15.9667 30.0957 6.22159 23.7943 8.56631Z" fill="#4E1E30" />
  <path d="M28.9963 19.8199L28.3346 22.4669C28.2561 22.7807 27.9743 23.0007 27.6509 23.0007C27.2954 23.0007 26.9956 22.736 26.9515 22.3833L26.6131 19.676C26.5225 18.9513 27.0875 18.3113 27.8178 18.3113H27.8183C28.6083 18.3113 29.1879 19.0536 28.9963 19.8199Z" fill="#FFE1B2" />
  <path d="M13.1823 7.51605L14.0493 8.10832C10.1293 11.0025 10.862 15.9667 10.862 15.9667C12.0343 17.139 12.0343 20.0699 12.0343 20.0699L13.2066 18.8976C13.2066 18.8976 12.7542 15.511 14.9651 14.2082C17.0167 12.9992 18.8119 13.6221 20.6437 13.6221C25.5529 13.6221 26.9267 11.7719 26.6886 9.51885C26.5653 8.35303 24.7829 5.92457 20.2407 6.0018C18.4077 6.03294 14.9653 6.58796 13.1823 7.51605Z" fill="#66273F" />
  <path d="M12.8403 13.1091C12.8403 13.1091 12.2175 10.6545 14.0493 8.1084C10.1293 11.0026 10.862 15.9668 10.862 15.9668C12.0343 17.1391 12.0343 20.07 12.0343 20.07L13.2066 18.8977C13.2066 18.8977 12.7542 15.5111 14.9651 14.2083C17.0167 12.9993 18.8119 13.6221 20.6437 13.6221C21.4421 13.6221 22.1378 13.5687 22.7575 13.477C18.9769 13.6037 16.7483 10.74 12.8403 13.1091Z" fill="#4E1E30" />
  <path d="M11.4852 19.8199L12.1469 22.4669C12.2254 22.7807 12.5072 23.0007 12.8307 23.0007C13.1861 23.0007 13.4859 22.736 13.53 22.3833L13.8685 19.676C13.959 18.9513 13.394 18.3113 12.6637 18.3113H12.6632C11.8732 18.3113 11.2936 19.0536 11.4852 19.8199Z" fill="#FFE1B2" />
</svg>
