<svg width="16" height="17" viewBox="0 0 16 17" fill="none" xmlns="http://www.w3.org/2000/svg">
<path fill-rule="evenodd" clip-rule="evenodd" d="M9.3002 2.22959C9.3002 1.49051 8.71817 0.891357 8.0002 0.891357C7.28222 0.891357 6.70019 1.49051 6.70019 2.22959V7.58253H1.5002C0.782225 7.58253 0.200195 8.18168 0.200195 8.92077C0.200195 9.65986 0.782225 10.259 1.5002 10.259H6.70019V15.6119C6.70019 16.351 7.28222 16.9502 8.0002 16.9502C8.71817 16.9502 9.3002 16.351 9.3002 15.6119V10.259H14.5002C15.2182 10.259 15.8002 9.65986 15.8002 8.92077C15.8002 8.18168 15.2182 7.58253 14.5002 7.58253H9.3002V2.22959Z" fill="#3F434A"/>
</svg>
