<svg width="20" height="20" viewBox="0 0 20 20" fill="none" xmlns="http://www.w3.org/2000/svg">
  <g id="&#229;&#155;&#190;&#229;&#177;&#130; 2">
    <g id="Discord Logos">
      <g id="Discord Logo - Large - White">
        <path id="Vector"
          d="M16.7265 1.67497C15.4292 0.881212 14.0597 0.318094 12.6528 0C12.4603 0.459917 12.2861 0.933111 12.131 1.4176C10.6325 1.11582 9.10856 1.11582 7.61003 1.4176C7.45481 0.933161 7.28063 0.459973 7.08819 0C5.68047 0.32078 4.31001 0.885235 3.01139 1.67912C0.433291 6.77667 -0.26559 11.7476 0.0838509 16.648C1.59365 18.1388 3.28354 19.2725 5.08008 20C5.4846 19.2729 5.84256 18.5015 6.15014 17.6941C5.56593 17.4025 5.00206 17.0427 4.46506 16.6189C4.60639 16.4819 4.74461 16.3408 4.87818 16.2038C6.44072 17.1859 8.14615 17.695 9.87285 17.695C11.5996 17.695 13.305 17.1859 14.8675 16.2038C15.0026 16.3512 15.1409 16.4923 15.2806 16.6189C14.7426 17.0434 14.1777 17.4038 13.5924 17.6961C13.8997 18.5032 14.2576 19.2739 14.6625 20C16.4606 19.2755 18.1518 18.1422 19.6618 16.6501C20.0719 10.9672 18.9614 6.04193 16.7265 1.67497ZM6.59277 13.6343C5.61899 13.6343 4.8145 12.4533 4.8145 11.0004C4.8145 9.54753 5.59104 8.35616 6.58966 8.35616C7.58828 8.35616 8.38656 9.54753 8.36948 11.0004C8.35239 12.4533 7.58518 13.6343 6.59277 13.6343ZM13.1529 13.6343C12.1776 13.6343 11.3762 12.4533 11.3762 11.0004C11.3762 9.54753 12.1528 8.35616 13.1529 8.35616C14.1531 8.35616 14.9452 9.54753 14.9281 11.0004C14.911 12.4533 14.1453 13.6343 13.1529 13.6343Z"
          fill="#5865F2" />
      </g>
    </g>
  </g>
</svg>