<svg width="59" height="46" viewBox="0 0 59 46" fill="none" xmlns="http://www.w3.org/2000/svg">
  <g id="Hand-drawn arrow">
    <path id="Vector"
      d="M8.71934 42.4487C8.56199 43.262 9.09378 44.0489 9.90713 44.2063C10.7205 44.3636 11.5074 43.8318 11.6647 43.0185L8.71934 42.4487ZM50.0829 3.79132C50.9038 3.68035 51.4794 2.92487 51.3684 2.10391C51.2574 1.28295 50.5019 0.707389 49.681 0.818364L50.0829 3.79132ZM4.28603 32.3309C3.85916 31.6209 2.93756 31.3914 2.22758 31.8183C1.5176 32.2452 1.28809 33.1668 1.71496 33.8768L4.28603 32.3309ZM8.47548 42.21L7.18995 42.9829L7.19067 42.9841L8.47548 42.21ZM12.092 43.2607L11.4791 41.8917L11.4778 41.8922L12.092 43.2607ZM23.0111 40.0157C23.7672 39.6772 24.1057 38.7898 23.7672 38.0337C23.4287 37.2776 22.5413 36.939 21.7852 37.2776L23.0111 40.0157ZM10.192 42.7336C11.6647 43.0185 11.6647 43.0188 11.6646 43.0191C11.6646 43.0191 11.6646 43.0193 11.6646 43.0193C11.6646 43.0193 11.6646 43.019 11.6647 43.0185C11.6649 43.0174 11.6654 43.0153 11.666 43.0122C11.6672 43.0059 11.6693 42.9954 11.6722 42.9809C11.6781 42.9518 11.6875 42.9065 11.7004 42.8457C11.7262 42.7241 11.7663 42.5405 11.8221 42.3009C11.9337 41.8218 12.1076 41.1194 12.3539 40.2422C12.8469 38.4864 13.6279 36.0372 14.7761 33.2783C17.0821 27.7376 20.8224 21.0616 26.5826 16.2003L24.6477 13.9077C18.3751 19.2014 14.4038 26.3652 12.0064 32.1256C10.803 35.0172 9.98434 37.5838 9.46562 39.4312C9.20608 40.3556 9.02112 41.1017 8.9003 41.6205C8.83987 41.88 8.79545 42.0828 8.76573 42.2229C8.75087 42.2929 8.73968 42.3472 8.73201 42.3851C8.72817 42.404 8.72521 42.4189 8.7231 42.4295C8.72205 42.4348 8.72121 42.4391 8.72059 42.4423C8.72027 42.4439 8.72001 42.4452 8.71981 42.4463C8.7197 42.4468 8.71959 42.4474 8.71953 42.4477C8.71943 42.4482 8.71934 42.4487 10.192 42.7336ZM26.5826 16.2003C38.3951 6.23119 47.7836 4.10213 50.0829 3.79132L49.681 0.818364C46.8224 1.20477 36.9008 3.56674 24.6477 13.9077L26.5826 16.2003ZM1.71496 33.8768L7.18995 42.9829L9.76102 41.437L4.28603 32.3309L1.71496 33.8768ZM7.19067 42.9841C8.33293 44.8799 10.7192 45.521 12.7062 44.6292L11.4778 41.8922C10.7767 42.2069 10.0649 41.9414 9.76029 41.4358L7.19067 42.9841ZM12.7049 44.6298L23.0111 40.0157L21.7852 37.2776L11.4791 41.8917L12.7049 44.6298Z"
      fill="#0068FF" />
  </g>
</svg>