<svg width="682" height="384" viewBox="0 0 682 384" fill="none" xmlns="http://www.w3.org/2000/svg">
<path d="M71.6162 39.6653L71.6162 182.114L70.2783 183.451L55.6611 198.068L71.6162 214.023L71.6162 344.26L128.445 344.26L128.445 383.925L29.6035 383.925L29.6035 227.671L0.000967905 198.069L29.6035 168.466L29.6035 0.00023982L128.445 0.000244141L128.445 39.6653L71.6162 39.6653Z" fill="#000626" fill-opacity="0.9"/>
<path d="M223.602 199.291C223.601 217.313 208.875 232.039 190.854 232.039C172.263 232.039 158.106 216.744 158.105 199.291C158.105 181.269 172.832 166.543 190.854 166.543C207.736 166.543 223.602 180.135 223.602 199.291ZM162.683 199.995L162.708 200.673C162.708 200.675 162.709 200.677 162.709 200.679C162.698 200.451 162.688 200.223 162.683 199.995Z" fill="#000626" fill-opacity="0.9"/>
<path d="M509.155 198.825C509.155 216.796 494.948 231.573 476.407 231.573C458.385 231.573 443.659 216.846 443.659 198.825C443.659 180.803 458.385 166.077 476.407 166.077C494.948 166.077 509.155 180.853 509.155 198.825ZM459.574 221.386L459.574 221.387C459.755 221.523 459.938 221.656 460.122 221.787L460.122 221.786C459.938 221.655 459.755 221.522 459.574 221.386ZM503.146 207.837C503.216 207.627 503.283 207.417 503.348 207.204C503.283 207.417 503.216 207.627 503.146 207.837ZM503.544 206.528C503.607 206.301 503.667 206.074 503.725 205.845L503.547 206.516C503.546 206.52 503.545 206.524 503.544 206.528ZM503.368 207.135C503.429 206.934 503.488 206.731 503.544 206.528C503.487 206.731 503.429 206.934 503.368 207.135Z" fill="#000626" fill-opacity="0.9"/>
<path d="M367.318 199.291C367.318 217.313 352.592 232.039 334.57 232.039C316.548 232.039 301.822 217.313 301.822 199.291C301.822 180.701 317.118 166.543 334.57 166.543C351.452 166.544 367.318 180.135 367.318 199.291ZM362.74 198.534C362.747 198.785 362.749 199.038 362.749 199.291C362.749 199.534 362.746 199.775 362.74 200.016L362.75 199.291C362.75 199.038 362.747 198.785 362.74 198.534Z" fill="#000626" fill-opacity="0.9"/>
<path d="M651.969 227.671L651.969 383.925L553.127 383.925L553.127 344.26L609.955 344.26L609.955 214.023L611.294 212.685L625.91 198.068L611.294 183.451L609.955 182.114L609.955 39.6653L553.127 39.6653L553.127 0.000238526L651.969 0.000242847L651.969 168.466L681.571 198.069L651.969 227.671Z" fill="#000626" fill-opacity="0.9"/>
</svg>
