<svg width="129" height="22" viewBox="0 0 129 22" fill="none" xmlns="http://www.w3.org/2000/svg">
<g clip-path="url(#clip0_480_777)">
<path d="M9.67652 10.6423C9.67701 11.0608 9.51189 11.4625 9.21718 11.7598C8.92248 12.057 8.52212 12.2258 8.10348 12.229C7.6825 12.2307 7.27811 12.065 6.97928 11.7687C6.68043 11.4723 6.51162 11.0693 6.50996 10.6485C6.50831 10.2277 6.67396 9.82344 6.97047 9.52471C7.26697 9.22597 7.67005 9.05722 8.09102 9.05557C8.29817 9.05268 8.50378 9.09133 8.69573 9.16925C8.88767 9.24716 9.06204 9.36274 9.20853 9.50917C9.35797 9.65746 9.47634 9.83405 9.5567 10.0286C9.63706 10.2232 9.67779 10.4318 9.67652 10.6423Z" fill="#0068FF"/>
<mask id="mask0_480_777" style="mask-type:luminance" maskUnits="userSpaceOnUse" x="6" y="9" width="4" height="4">
<path d="M9.67652 10.6423C9.67701 11.0608 9.51189 11.4625 9.21718 11.7598C8.92248 12.057 8.52212 12.2258 8.10348 12.229C7.6825 12.2307 7.27811 12.065 6.97928 11.7687C6.68043 11.4723 6.51162 11.0693 6.50996 10.6485C6.50831 10.2277 6.67396 9.82344 6.97047 9.52471C7.26697 9.22597 7.67005 9.05722 8.09102 9.05557C8.29817 9.05268 8.50378 9.09133 8.69573 9.16925C8.88767 9.24716 9.06204 9.36274 9.20853 9.50917C9.35797 9.65746 9.47634 9.83405 9.5567 10.0286C9.63706 10.2232 9.67779 10.4318 9.67652 10.6423Z" fill="white"/>
</mask>
<g mask="url(#mask0_480_777)">
<path d="M6.51083 9.05557H6.50549V12.2344H6.51083V9.05557Z" fill="#0068FF"/>
<path d="M6.57137 9.05557H6.51086V12.2344H6.57137V9.05557Z" fill="#0068FF"/>
<path d="M6.63008 9.05557H6.56958V12.2344H6.63008V9.05557Z" fill="#0068FF"/>
<path d="M6.69057 9.05557H6.63007V12.2344H6.69057V9.05557Z" fill="#0068FF"/>
<path d="M6.75105 9.05557H6.69055V12.2344H6.75105V9.05557Z" fill="#0068FF"/>
<path d="M6.80976 9.05557H6.74927V12.2344H6.80976V9.05557Z" fill="#0068FF"/>
<path d="M6.87026 9.05557H6.80975V12.2344H6.87026V9.05557Z" fill="#0068FF"/>
<path d="M6.92903 9.05557H6.86853V12.2344H6.92903V9.05557Z" fill="#0068FF"/>
<path d="M6.98952 9.05557H6.92902V12.2344H6.98952V9.05557Z" fill="#0068FF"/>
<path d="M7.04823 9.05557H6.98773V12.2344H7.04823V9.05557Z" fill="#0068FF"/>
<path d="M7.10872 9.05557H7.04822V12.2344H7.10872V9.05557Z" fill="#0068FF"/>
<path d="M7.16744 9.05557H7.10693V12.2344H7.16744V9.05557Z" fill="#0068FF"/>
<path d="M7.22798 9.05557H7.16748V12.2344H7.22798V9.05557Z" fill="#0068FF"/>
<path d="M7.28847 9.05557H7.22797V12.2344H7.28847V9.05557Z" fill="#0068FF"/>
<path d="M7.34718 9.05557H7.28668V12.2344H7.34718V9.05557Z" fill="#0068FF"/>
<path d="M7.40767 9.05557H7.34717V12.2344H7.40767V9.05557Z" fill="#0068FF"/>
<path d="M7.46639 9.05557H7.40588V12.2344H7.46639V9.05557Z" fill="#0068FF"/>
<path d="M7.52692 9.05557H7.46643V12.2344H7.52692V9.05557Z" fill="#0068FF"/>
<path d="M7.58565 9.05557H7.52515V12.2344H7.58565V9.05557Z" fill="#0068FF"/>
<path d="M7.64614 9.05557H7.58563V12.2344H7.64614V9.05557Z" fill="#0068FF"/>
<path d="M7.70662 9.05557H7.64612V12.2344H7.70662V9.05557Z" fill="#0068FF"/>
<path d="M7.76534 9.05557H7.70483V12.2344H7.76534V9.05557Z" fill="#0068FF"/>
<path d="M7.82588 9.05557H7.76538V12.2344H7.82588V9.05557Z" fill="#0068FF"/>
<path d="M7.8846 9.05557H7.8241V12.2344H7.8846V9.05557Z" fill="#0068FF"/>
<path d="M7.94508 9.05557H7.88458V12.2344H7.94508V9.05557Z" fill="#0068FF"/>
<path d="M8.0038 9.05557H7.9433V12.2344H8.0038V9.05557Z" fill="#0068FF"/>
<path d="M8.06429 9.05557H8.00378V12.2344H8.06429V9.05557Z" fill="#0068FF"/>
<path d="M8.123 9.05557H8.0625V12.2344H8.123V9.05557Z" fill="#0068FF"/>
<path d="M8.18355 9.05557H8.12305V12.2344H8.18355V9.05557Z" fill="#0068FF"/>
<path d="M8.24402 9.05557H8.18353V12.2344H8.24402V9.05557Z" fill="#0068FF"/>
<path d="M8.30275 9.05557H8.24225V12.2344H8.30275V9.05557Z" fill="#0068FF"/>
<path d="M8.36324 9.05557H8.30273V12.2344H8.36324V9.05557Z" fill="#0068FF"/>
<path d="M8.42195 9.05557H8.36145V12.2344H8.42195V9.05557Z" fill="#0068FF"/>
<path d="M8.4825 9.05557H8.422V12.2344H8.4825V9.05557Z" fill="#0068FF"/>
<path d="M8.54121 9.05557H8.48071V12.2344H8.54121V9.05557Z" fill="#0068FF"/>
<path d="M8.6017 9.05557H8.5412V12.2344H8.6017V9.05557Z" fill="#0068FF"/>
<path d="M8.66042 9.05557H8.59991V12.2344H8.66042V9.05557Z" fill="#0068FF"/>
<path d="M8.7209 9.05557H8.6604V12.2344H8.7209V9.05557Z" fill="#0068FF"/>
<path d="M8.78145 9.05557H8.72095V12.2344H8.78145V9.05557Z" fill="#0068FF"/>
<path d="M8.84017 9.05557H8.77966V12.2344H8.84017V9.05557Z" fill="#0068FF"/>
<path d="M8.90065 9.05557H8.84015V12.2344H8.90065V9.05557Z" fill="#0068FF"/>
<path d="M8.95936 9.05557H8.89886V12.2344H8.95936V9.05557Z" fill="#0068FF"/>
<path d="M9.01985 9.05557H8.95935V12.2344H9.01985V9.05557Z" fill="#0068FF"/>
<path d="M9.07857 9.05557H9.01807V12.2344H9.07857V9.05557Z" fill="#0068FF"/>
<path d="M9.13912 9.05557H9.07861V12.2344H9.13912V9.05557Z" fill="#0068FF"/>
<path d="M9.1996 9.05557H9.1391V12.2344H9.1996V9.05557Z" fill="#0068FF"/>
<path d="M9.25832 9.05557H9.19781V12.2344H9.25832V9.05557Z" fill="#0068FF"/>
<path d="M9.3188 9.05557H9.2583V12.2344H9.3188V9.05557Z" fill="#0068FF"/>
<path d="M9.37758 9.05557H9.31708V12.2344H9.37758V9.05557Z" fill="#0068FF"/>
<path d="M9.43807 9.05557H9.37756V12.2344H9.43807V9.05557Z" fill="#0068FF"/>
<path d="M9.49678 9.05557H9.43628V12.2344H9.49678V9.05557Z" fill="#0068FF"/>
<path d="M9.55727 9.05557H9.49677V12.2344H9.55727V9.05557Z" fill="#0068FF"/>
<path d="M9.61598 9.05557H9.55548V12.2344H9.61598V9.05557Z" fill="#0068FF"/>
<path d="M9.67652 9.05557H9.61603V12.2344H9.67652V9.05557Z" fill="#0068FF"/>
</g>
<path d="M23.3927 13.0081C23.2325 13.1753 23.0581 13.339 22.9175 13.4671C22.7769 13.5951 22.6114 13.7517 22.4674 13.8993C22.4674 13.8993 22.4674 13.9154 22.4584 13.9242C22.4496 14.5593 22.4496 15.2103 22.4496 15.8418V16.13C22.4496 16.4378 22.4496 16.7455 22.4496 17.0568C22.4629 17.6347 22.3577 18.2092 22.1404 18.745C21.9231 19.2807 21.5984 19.7661 21.1861 20.1715C20.3938 20.8988 19.3521 21.2937 18.2767 21.2744C18.1913 21.2744 18.0987 21.2744 18.0186 21.2656C17.8175 21.2632 17.6188 21.2213 17.434 21.1422C17.249 21.0629 17.0816 20.9481 16.9411 20.8043C16.8006 20.6604 16.6899 20.4902 16.6152 20.3035C16.5406 20.1168 16.5035 19.9172 16.5062 19.7161C16.5221 18.8836 17.1699 18.2629 18.0489 18.2379H18.371C19.0098 18.2201 19.3906 17.8466 19.4119 17.2115C19.4209 16.9679 19.4119 16.717 19.4119 16.4805V16.1496C19.4119 15.8917 19.4119 15.6373 19.4119 15.3811C19.4119 14.7745 19.4119 14.1359 19.4031 13.4991C19.3859 13.209 19.4377 12.9187 19.5539 12.6524C19.6702 12.3859 19.8477 12.1506 20.0722 11.9657C20.2911 11.7879 20.5099 11.5691 20.7216 11.3698L20.8729 11.224L21.0776 11.0283C21.2947 10.8237 21.3196 10.6992 21.3196 10.6547C21.3196 10.6103 21.2947 10.4769 21.0704 10.2723L20.8124 10.0268C20.5455 9.77245 20.2697 9.50918 19.9938 9.26547C19.803 9.09953 19.6513 8.89332 19.5498 8.66169C19.4482 8.43006 19.3993 8.17881 19.4067 7.92602C19.4067 6.56876 19.4067 5.37338 19.4067 4.16021C19.4067 3.58742 19.1237 3.2032 18.6361 3.09291C18.5083 3.07402 18.3791 3.06687 18.25 3.07156H18.0721C17.1663 3.05021 16.4936 2.38493 16.5062 1.5293C16.5186 0.673686 17.1769 0.0653211 18.0703 0.0368597C19.9742 -0.0236207 21.316 0.769745 22.0652 2.39204C22.2782 2.92688 22.4026 3.49286 22.4335 4.0677C22.465 4.43386 22.4727 4.80167 22.4566 5.16881V5.19905C22.4566 5.35026 22.4566 5.50145 22.4566 5.65265V6.22366C22.4566 6.60434 22.4566 6.99568 22.4656 7.37457C22.4683 7.38688 22.4738 7.39842 22.4816 7.40836C22.6239 7.55779 22.7894 7.71078 22.9353 7.84597L22.9762 7.88331C23.1079 8.00606 23.2449 8.13414 23.3784 8.27111C24.0014 8.90127 24.352 9.75074 24.3546 10.6367C24.3573 11.5227 24.0118 12.3742 23.3927 13.0081Z" fill="#0068FF"/>
<path d="M7.95576 19.6859C7.97675 20.0645 7.852 20.4367 7.60712 20.726C7.36224 21.0155 7.01581 21.2003 6.63894 21.2424C6.46587 21.2624 6.29179 21.2726 6.11756 21.2726C5.14552 21.2875 4.1997 20.9572 3.44836 20.3405C3.05265 20.0155 2.72586 19.6147 2.48722 19.1617C2.24856 18.7087 2.10283 18.2126 2.0586 17.7025C1.98854 16.5719 1.97607 15.4386 2.02123 14.3067V14.2907C2.03012 13.935 1.94116 13.7944 1.76321 13.6538C1.42035 13.3859 1.10983 13.0791 0.837886 12.7395C0.328558 12.1017 0.0695823 11.2999 0.109553 10.4848C0.149522 9.66961 0.485692 8.89704 1.05498 8.31203C1.2098 8.15193 1.37172 8.00251 1.51409 7.87088C1.69203 7.71433 1.83439 7.57381 1.97319 7.42617C1.98503 7.41102 1.99462 7.39424 2.00165 7.37636C2.01055 6.92631 2.00165 6.4727 2.00165 6.03156C2.00165 5.25598 2.00166 4.4555 2.04436 3.65502C2.16181 1.71787 3.87365 0.0973461 5.86311 0.0493174C6.07664 0.0493174 6.26526 0.0404232 6.45032 0.0493174C6.85148 0.0349282 7.24191 0.180429 7.53575 0.453813C7.82959 0.727195 8.00275 1.10607 8.01714 1.50708C8.03154 1.90809 7.88598 2.29839 7.61251 2.59213C7.33903 2.88586 6.96002 3.05895 6.55887 3.07334C6.43111 3.08524 6.30277 3.08939 6.17451 3.0858H6.02147C5.77925 3.07789 5.54343 3.16438 5.3638 3.32701C5.18418 3.48965 5.07481 3.71569 5.05878 3.95743C5.03031 4.3292 5.03387 4.72054 5.03742 5.09766C5.03742 5.24886 5.03742 5.40184 5.03742 5.55304V6.08669C5.03742 6.69506 5.03742 7.33188 5.03742 7.93847C5.04494 8.18654 4.99746 8.4332 4.8984 8.66078C4.79934 8.88835 4.65114 9.09121 4.46444 9.2548C4.07651 9.61057 3.69749 9.96634 3.33092 10.3221L3.30245 10.3488C3.20577 10.4278 3.14227 10.5401 3.1245 10.6636C3.15048 10.7902 3.22364 10.9021 3.32913 10.9767L3.43591 11.0781C3.78112 11.4037 4.13879 11.7434 4.49291 12.0672C4.67602 12.2271 4.82118 12.4259 4.91783 12.6489C5.01447 12.8721 5.06019 13.1138 5.05166 13.3568C5.05166 13.7215 5.05166 14.0879 5.05166 14.4543V15.8774C5.05166 16.299 5.05166 16.7224 5.05166 17.1458C5.05166 17.8413 5.44848 18.2291 6.15137 18.2361H6.32932C6.4005 18.2361 6.47346 18.2361 6.54463 18.2361C6.91785 18.2598 7.26896 18.4212 7.52975 18.6891C7.79053 18.957 7.94237 19.3123 7.95576 19.6859Z" fill="#0068FF"/>
<path d="M18.2767 10.6565C18.2748 11.1637 18.0722 11.6496 17.7131 12.0079C17.3539 12.3662 16.8676 12.5679 16.3602 12.5687C15.8541 12.5665 15.3694 12.3641 15.012 12.0058C14.6547 11.6475 14.4535 11.1625 14.4527 10.6565C14.4517 10.4038 14.5013 10.1534 14.5985 9.92001C14.6956 9.68664 14.8385 9.475 15.0184 9.2975C15.1944 9.12051 15.4039 8.98017 15.6344 8.8846C15.8651 8.78903 16.1123 8.74013 16.362 8.74073C16.8694 8.74307 17.3553 8.94572 17.7139 9.30454C18.0725 9.66337 18.2748 10.1493 18.2767 10.6565Z" fill="#0068FF"/>
<path d="M10.0075 10.6423C10.0068 11.0202 9.89422 11.3894 9.68394 11.7034C9.47367 12.0174 9.17512 12.2622 8.82592 12.4069C8.47672 12.5515 8.09249 12.5897 7.72165 12.5165C7.35081 12.4432 7.00995 12.2618 6.74205 11.9952C6.47413 11.7287 6.29116 11.3888 6.21617 11.0184C6.14116 10.6481 6.17751 10.2638 6.32063 9.91404C6.46375 9.5643 6.70722 9.26472 7.02038 9.05307C7.33354 8.84142 7.70235 8.72718 8.08035 8.72472C8.33132 8.72148 8.58042 8.76842 8.81297 8.86281C9.04553 8.95722 9.25685 9.09714 9.43452 9.27437C9.61625 9.45281 9.76055 9.66573 9.85893 9.90061C9.95732 10.1355 10.0078 10.3877 10.0075 10.6423Z" fill="#0068FF"/>
<path d="M14.1502 10.6565C14.1484 11.0356 14.0344 11.4057 13.8225 11.7201C13.6107 12.0345 13.3104 12.2792 12.9596 12.4233C12.6088 12.5672 12.2232 12.6042 11.8514 12.5295C11.4796 12.4546 11.1383 12.2716 10.8706 12.0031C10.6493 11.7794 10.4866 11.5046 10.3968 11.2031C10.307 10.9016 10.2929 10.5826 10.3556 10.2743C10.4184 9.96607 10.5561 9.678 10.7566 9.43555C10.9572 9.19311 11.2144 9.00376 11.5055 8.88424C11.7966 8.76471 12.1127 8.71868 12.4258 8.75022C12.7389 8.78176 13.0394 8.88989 13.3007 9.06506C13.5622 9.24023 13.7764 9.47706 13.9245 9.75462C14.0727 10.0322 14.1502 10.3419 14.1502 10.6565Z" fill="#0068FF"/>
<path d="M32.258 11.1546C32.8768 8.89379 33.6594 6.68099 34.5997 4.53375H38.9309C39.8813 6.68595 40.6711 8.90548 41.2941 11.1742C41.9212 13.3784 42.3851 15.6258 42.682 17.8982H39.7815C39.6427 16.9589 39.4766 16.0469 39.2833 15.1623H34.2474C34.0825 15.9924 33.9164 16.9044 33.7492 17.8982H30.8486C31.1585 15.6199 31.6296 13.3664 32.258 11.1546ZM38.8277 12.7804C38.4025 10.8391 37.8205 8.93546 37.0874 7.08817H36.4432C35.7107 8.93374 35.1356 10.838 34.7242 12.7804H38.8277Z" fill="#020617"/>
<path d="M43.6146 8.34403L43.8636 7.09885L42.5789 7.24293L42.5575 5.89635L42.5789 4.52843H48.5063C50.0484 4.52843 51.2573 4.92926 52.1329 5.73092C53.0083 6.53258 53.4437 7.65147 53.439 9.08759C53.439 10.4407 53.0172 11.5211 52.1738 12.3286C51.3303 13.1363 50.1357 13.5957 48.5899 13.7073L46.4546 13.8727V17.8928H43.6074L43.6146 8.34403ZM48.4031 11.3076C49.1077 11.253 49.6499 11.0319 50.0295 10.6441C50.2236 10.4365 50.374 10.1921 50.4718 9.92535C50.5696 9.65859 50.6129 9.37493 50.5989 9.09115C50.5989 8.42706 50.4091 7.91238 50.0295 7.54712C49.6487 7.18068 49.1149 6.99746 48.428 6.99746H46.4546V11.4445L48.4031 11.3076Z" fill="#020617"/>
<path d="M53.9977 15.4114L56.8786 15.5145V6.92096L53.9977 7.02413L54.0813 4.53375H62.5587L62.6406 7.02413L59.7382 6.92096V15.5181L62.6388 15.415L62.5569 17.9053H54.0813L53.9977 15.4114Z" fill="#020617"/>
<path d="M65.9468 17.1422C65.3038 16.4306 64.9823 15.2946 64.9823 13.7339V10.0873L63.0143 10.3008V7.70366H65.1496L64.9716 4.69919H67.9771L67.6462 7.70366H71.8956C71.9535 8.1227 71.9808 8.54539 71.9775 8.96841C71.9803 9.41149 71.9529 9.85427 71.8956 10.2936L67.7903 10.025V13.5827C67.7903 14.3275 67.9464 14.8765 68.2583 15.2299C68.5704 15.5833 69.0366 15.7611 69.657 15.7635C70.496 15.7404 71.3271 15.5936 72.1233 15.3277C72.2747 15.9838 72.3853 16.6485 72.4543 17.3182C71.8779 17.5977 71.2737 17.816 70.6517 17.9693C70.0488 18.1247 69.429 18.2047 68.8064 18.2077C67.543 18.2077 66.5898 17.8525 65.9468 17.1422Z" fill="#020617"/>
<path d="M75.2196 17.5459C74.4387 17.1113 73.804 16.4552 73.3956 15.6604C72.9726 14.763 72.7532 13.7832 72.7532 12.7912C72.7532 11.7991 72.9726 10.8193 73.3956 9.92187C73.8016 9.12762 74.4372 8.47375 75.2196 8.04519C76.0757 7.61649 77.0201 7.39328 77.9778 7.39328C78.9353 7.39328 79.8797 7.61649 80.736 8.04519C81.516 8.47341 82.1482 9.12766 82.5492 9.92187C82.9654 10.8212 83.1809 11.8002 83.1809 12.7912C83.1809 13.782 82.9654 14.761 82.5492 15.6604C82.1459 16.4553 81.5146 17.1118 80.736 17.5459C79.8818 17.9815 78.9366 18.2086 77.9778 18.2086C77.0189 18.2086 76.0737 17.9815 75.2196 17.5459ZM76.1733 15.0555C76.3881 15.3163 76.6609 15.5233 76.9698 15.6601C77.2787 15.797 77.6154 15.8597 77.9528 15.8436C78.7264 15.8436 79.3308 15.5774 79.7661 15.0449C80.2015 14.5124 80.4192 13.7493 80.4192 12.7556C80.4192 11.7748 80.2015 11.0253 79.7661 10.5071C79.3308 9.98886 78.7264 9.73034 77.9528 9.73153C77.1936 9.73153 76.6004 9.99361 76.1733 10.5178C75.7464 11.0419 75.5316 11.8015 75.5292 12.7964C75.5304 13.7808 75.7458 14.535 76.1751 15.0591L76.1733 15.0555Z" fill="#020617"/>
<path d="M86.206 17.5459C85.4251 17.1113 84.7905 16.4552 84.3821 15.6604C83.9591 14.763 83.7397 13.7832 83.7397 12.7912C83.7397 11.7991 83.9591 10.8193 84.3821 9.92187C84.7881 9.12762 85.4235 8.47375 86.206 8.04519C87.0622 7.61649 88.0066 7.39328 88.9642 7.39328C89.9218 7.39328 90.8663 7.61649 91.7224 8.04519C92.5024 8.47341 93.1347 9.12766 93.5356 9.92187C93.9519 10.8212 94.1674 11.8002 94.1674 12.7912C94.1674 13.782 93.9519 14.761 93.5356 15.6604C93.1324 16.4553 92.501 17.1118 91.7224 17.5459C90.8683 17.9815 89.923 18.2086 88.9642 18.2086C88.0053 18.2086 87.0602 17.9815 86.206 17.5459ZM87.1581 15.0555C87.3731 15.316 87.6459 15.5227 87.9547 15.6596C88.2636 15.7964 88.6001 15.8594 88.9376 15.8436C89.711 15.8436 90.3154 15.5774 90.7509 15.0449C91.1862 14.5124 91.4068 13.7505 91.4128 12.7591C91.4128 11.7784 91.1951 11.0289 90.7597 10.5107C90.3244 9.99243 89.7199 9.73391 88.9464 9.73509C88.6092 9.71903 88.2726 9.7817 87.9638 9.91817C87.655 10.0547 87.3822 10.2612 87.167 10.5213C86.7399 11.0467 86.5257 11.8062 86.5245 12.8C86.5234 13.7938 86.7345 14.5468 87.1581 15.0591V15.0555Z" fill="#020617"/>
<path d="M94.4948 15.39L96.7138 15.5679V6.03154C95.7873 6.18333 95.0683 6.31438 94.5571 6.42466C94.5304 5.81808 94.5162 5.36803 94.5162 5.07808C94.5162 4.76145 94.5304 4.3114 94.5571 3.73149C95.3175 3.67695 96.2985 3.64908 97.5004 3.64789C98.3841 3.64789 99.0336 3.65501 99.4488 3.66924V15.6035L101.584 15.3954L101.563 17.9035H94.5162L94.4948 15.39Z" fill="#020617"/>
<path d="M107.407 14.1058C106.816 14.5325 106.176 14.8873 105.501 15.1623V17.8982H102.764V6.04756L101.541 6.19164C101.514 5.33544 101.501 4.74248 101.501 4.41281V3.71906C102.164 3.66451 102.944 3.63663 103.842 3.63545C104.602 3.63545 105.154 3.64968 105.501 3.67814V12.5723C106.368 11.955 107.125 11.1954 107.739 10.3257C108.299 9.53395 108.707 8.64473 108.941 7.70367C109.549 7.67639 110.024 7.66275 110.364 7.66275C110.72 7.66275 111.206 7.67698 111.814 7.70367C111.613 8.56106 111.296 9.38695 110.871 10.1585C110.419 10.9998 109.865 11.7829 109.223 12.4906C110.384 14.2345 111.45 16.0397 112.416 17.8982H109.207C108.518 16.3791 107.918 15.1148 107.407 14.1058Z" fill="#020617"/>
<path d="M112.67 15.39L114.743 15.568V10.0535L112.775 10.4271C112.733 9.9699 112.713 9.52163 112.713 9.08048C112.713 8.63933 112.733 8.18216 112.775 7.75346C113.521 7.6835 114.426 7.64911 115.489 7.65029C115.933 7.65029 116.596 7.66393 117.48 7.69121V15.5857L119.351 15.39L119.329 17.8982H112.692L112.67 15.39ZM114.412 5.88035C114.248 5.73659 114.118 5.55775 114.031 5.35703C113.945 5.15631 113.905 4.9388 113.914 4.72054C113.904 4.49899 113.943 4.27792 114.029 4.07355C114.116 3.86918 114.247 3.68667 114.412 3.53939C114.743 3.25004 115.2 3.10536 115.781 3.10536C116.265 3.07764 116.742 3.23252 117.117 3.53939C117.28 3.6887 117.408 3.87188 117.491 4.07597C117.575 4.28007 117.613 4.50012 117.603 4.72054C117.612 4.93766 117.573 5.15413 117.489 5.35458C117.405 5.55503 117.278 5.73454 117.117 5.88035C116.742 6.18786 116.265 6.34338 115.781 6.31616C115.195 6.31616 114.739 6.17089 114.412 5.88035Z" fill="#020617"/>
<path d="M122.484 17.1422C121.841 16.4306 121.52 15.2946 121.521 13.7339V10.0873L119.551 10.3008V7.70366H121.687L121.509 4.69919H124.511L124.18 7.70366H128.426C128.484 8.12265 128.512 8.54535 128.51 8.96841C128.512 9.41392 128.484 9.85907 128.426 10.3008L124.322 10.0322V13.5899C124.322 14.3345 124.477 14.8837 124.789 15.237C125.099 15.5904 125.566 15.7683 126.187 15.7707C127.026 15.7475 127.857 15.6006 128.654 15.3349C128.804 15.991 128.915 16.6558 128.986 17.3254C128.408 17.6022 127.803 17.818 127.18 17.9693C126.578 18.1247 125.958 18.2047 125.336 18.2077C124.074 18.2077 123.124 17.8525 122.484 17.1422Z" fill="#020617"/>
</g>
<defs>
<clipPath id="clip0_480_777">
<rect width="129" height="21.3608" fill="white"/>
</clipPath>
</defs>
</svg>
