<svg width="682" height="384" viewBox="0 0 682 384" fill="none" xmlns="http://www.w3.org/2000/svg">
<path d="M71.6143 39.6653L71.6142 182.114L70.2764 183.451L55.6592 198.068L71.6142 214.023L71.6142 344.26L128.443 344.26L128.443 383.925L29.6015 383.925L29.6016 227.671L-0.00098522 198.069L29.6016 168.466L29.6016 0.00023982L128.443 0.000244141L128.443 39.6653L71.6143 39.6653Z" fill="#FBFCFD"/>
<path d="M223.6 199.291C223.6 217.313 208.873 232.039 190.852 232.039C172.262 232.039 158.104 216.744 158.104 199.291C158.104 181.269 172.83 166.543 190.852 166.543C207.734 166.543 223.6 180.135 223.6 199.291ZM162.681 199.995L162.706 200.673C162.706 200.675 162.707 200.677 162.707 200.679C162.696 200.451 162.686 200.223 162.681 199.995Z" fill="#FBFCFD"/>
<path d="M509.154 198.825C509.154 216.796 494.947 231.573 476.406 231.573C458.384 231.573 443.658 216.846 443.658 198.825C443.658 180.803 458.384 166.077 476.406 166.077C494.947 166.077 509.154 180.853 509.154 198.825ZM459.573 221.386L459.573 221.387C459.754 221.523 459.937 221.656 460.121 221.787L460.121 221.786C459.937 221.655 459.754 221.522 459.573 221.386ZM503.146 207.837C503.215 207.627 503.282 207.417 503.347 207.204C503.282 207.417 503.215 207.627 503.146 207.837ZM503.543 206.528C503.606 206.301 503.666 206.074 503.724 205.845L503.546 206.516C503.545 206.52 503.544 206.524 503.543 206.528ZM503.367 207.135C503.428 206.934 503.487 206.731 503.543 206.528C503.486 206.731 503.428 206.934 503.367 207.135Z" fill="#FBFCFD"/>
<path d="M367.318 199.291C367.318 217.313 352.592 232.039 334.57 232.039C316.548 232.039 301.822 217.313 301.822 199.291C301.822 180.701 317.118 166.543 334.57 166.543C351.452 166.544 367.318 180.135 367.318 199.291ZM362.74 198.534C362.747 198.785 362.749 199.038 362.749 199.291C362.749 199.534 362.746 199.775 362.74 200.016L362.75 199.291C362.75 199.038 362.747 198.785 362.74 198.534Z" fill="#FBFCFD"/>
<path d="M651.968 227.671L651.968 383.925L553.126 383.925L553.126 344.26L609.954 344.26L609.954 214.023L611.293 212.685L625.909 198.068L611.293 183.451L609.954 182.114L609.954 39.6653L553.126 39.6653L553.126 0.000238526L651.968 0.000242847L651.968 168.466L681.57 198.069L651.968 227.671Z" fill="#FBFCFD"/>
</svg>
