<svg width="35" height="31" viewBox="0 0 35 31" fill="none" xmlns="http://www.w3.org/2000/svg">
<g id="Logo" clip-path="url(#clip0_518_3871)">
<path id="Vector" d="M32.7498 18.7562C32.5256 18.9972 32.2813 19.2333 32.0845 19.4179C31.8877 19.6026 31.656 19.8283 31.4543 20.0412C31.4543 20.0412 31.4543 20.0644 31.4418 20.0771C31.4294 20.9929 31.4294 21.9315 31.4294 22.8421V23.2576C31.4294 23.7014 31.4294 24.1451 31.4294 24.5939C31.4481 25.4272 31.3008 26.2555 30.9966 27.0281C30.6923 27.8005 30.2377 28.5005 29.6605 29.085C28.5514 30.1338 27.093 30.7031 25.5874 30.6753C25.4678 30.6753 25.3382 30.6753 25.2261 30.6625C24.9445 30.6591 24.6664 30.5987 24.4076 30.4846C24.1486 30.3704 23.9142 30.2048 23.7176 29.9975C23.5208 29.79 23.3659 29.5446 23.2613 29.2753C23.1569 29.0062 23.105 28.7183 23.1086 28.4284C23.131 27.2281 24.0379 26.333 25.2685 26.297H25.7194C26.6137 26.2714 27.1468 25.7328 27.1767 24.8171C27.1893 24.4657 27.1767 24.104 27.1767 23.763V23.2858C27.1767 22.914 27.1767 22.5472 27.1767 22.1777C27.1767 21.3031 27.1767 20.3824 27.1644 19.4641C27.1403 19.0458 27.2128 18.6273 27.3755 18.2432C27.5383 17.859 27.7869 17.5197 28.1011 17.2532C28.4075 16.9967 28.7139 16.6812 29.0103 16.3939L29.2221 16.1836L29.5087 15.9015C29.8126 15.6065 29.8475 15.427 29.8475 15.3629C29.8475 15.2987 29.8126 15.1064 29.4986 14.8114L29.1374 14.4575C28.7637 14.0907 28.3776 13.7111 27.9914 13.3597C27.7242 13.1204 27.5119 12.8231 27.3697 12.4891C27.2275 12.1551 27.159 11.7928 27.1694 11.4283C27.1694 9.4713 27.1694 7.74768 27.1694 5.99841C27.1694 5.17251 26.7733 4.61851 26.0906 4.45948C25.9117 4.43224 25.7308 4.42194 25.55 4.4287H25.3009C24.0329 4.39792 23.0911 3.43864 23.1086 2.20492C23.126 0.971211 24.0477 0.0940126 25.2984 0.0529743C27.964 -0.0342322 29.8425 1.10972 30.8913 3.4489C31.1895 4.22008 31.3636 5.03616 31.4069 5.86503C31.451 6.39298 31.4618 6.92333 31.4393 7.45271V7.49631C31.4393 7.71434 31.4393 7.93235 31.4393 8.15035V8.97369C31.4393 9.52259 31.4393 10.0869 31.4518 10.6332C31.4557 10.6509 31.4634 10.6676 31.4742 10.6819C31.6735 10.8974 31.9052 11.118 32.1094 11.3129L32.1667 11.3667C32.3512 11.5437 32.5429 11.7284 32.7297 11.9259C33.602 12.8345 34.0928 14.0594 34.0965 15.3369C34.1002 16.6143 33.6165 17.8421 32.7498 18.7562Z" fill="#0068FF"/>
<path id="Vector_2" d="M11.1381 28.3851C11.1675 28.9309 10.9929 29.4675 10.6501 29.8848C10.3072 30.3022 9.82222 30.5686 9.29461 30.6293C9.05231 30.6582 8.80859 30.6729 8.56467 30.6729C7.20381 30.6944 5.87966 30.2181 4.82779 29.3289C4.27379 28.8603 3.8163 28.2823 3.48219 27.6292C3.14808 26.976 2.94405 26.2607 2.88212 25.5251C2.78404 23.895 2.76658 22.2609 2.82981 20.6288V20.6057C2.84226 20.0928 2.71771 19.8901 2.46858 19.6874C1.98858 19.3011 1.55384 18.8587 1.17313 18.369C0.460066 17.4493 0.0975006 16.2934 0.153459 15.118C0.209417 13.9426 0.680054 12.8286 1.47706 11.9851C1.6938 11.7543 1.9205 11.5388 2.11981 11.349C2.36892 11.1233 2.56823 10.9207 2.76255 10.7078C2.77912 10.6859 2.79256 10.6617 2.8024 10.636C2.81486 9.98703 2.8024 9.33297 2.8024 8.69689C2.8024 7.5786 2.80241 6.42439 2.86219 5.27018C3.02662 2.47701 5.4232 0.140382 8.20843 0.0711295C8.50739 0.0711295 8.77145 0.058305 9.03054 0.0711295C9.59215 0.0503818 10.1388 0.260179 10.5501 0.654369C10.9615 1.04856 11.2039 1.59485 11.2241 2.17307C11.2442 2.75129 11.0405 3.31405 10.6576 3.73759C10.2747 4.16112 9.74412 4.4107 9.1825 4.43145C9.00364 4.44861 8.82396 4.4546 8.6444 4.44942H8.43015C8.09104 4.43801 7.76089 4.56272 7.50941 4.79722C7.25794 5.03173 7.10482 5.35766 7.08238 5.70621C7.04252 6.24227 7.0475 6.80655 7.05248 7.35031C7.05248 7.56832 7.05248 7.78891 7.05248 8.00692V8.77639C7.05248 9.65359 7.05248 10.5718 7.05248 11.4465C7.063 11.8041 6.99653 12.1598 6.85784 12.488C6.71916 12.8161 6.51168 13.1086 6.2503 13.3445C5.7072 13.8575 5.17658 14.3704 4.66338 14.8834L4.62352 14.9219C4.48816 15.0358 4.39926 15.1978 4.37438 15.3759C4.41076 15.5583 4.51318 15.7197 4.66087 15.8273L4.81036 15.9735C5.29366 16.4429 5.79439 16.9328 6.29017 17.3996C6.54651 17.6302 6.74973 17.9168 6.88504 18.2384C7.02035 18.5602 7.08435 18.9088 7.07241 19.2591C7.07241 19.785 7.07241 20.3132 7.07241 20.8416V22.8935C7.07241 23.5015 7.07241 24.112 7.07241 24.7224C7.07241 25.7253 7.62796 26.2845 8.612 26.2946H8.86113C8.96079 26.2946 9.06293 26.2946 9.16257 26.2946C9.68508 26.3287 10.1766 26.5615 10.5417 26.9478C10.9068 27.3341 11.1194 27.8463 11.1381 28.3851Z" fill="#0068FF"/>
<path id="Vector_3" d="M25.5873 15.3654C25.5847 16.0968 25.301 16.7973 24.7983 17.3139C24.2954 17.8306 23.6146 18.1214 22.9042 18.1226C22.1957 18.1193 21.5171 17.8275 21.0167 17.311C20.5165 16.7943 20.2348 16.095 20.2337 15.3654C20.2323 15.001 20.3018 14.6399 20.4378 14.3034C20.5738 13.9669 20.7738 13.6618 21.0257 13.4058C21.2722 13.1506 21.5654 12.9483 21.8881 12.8105C22.2111 12.6727 22.5572 12.6022 22.9067 12.603C23.6171 12.6064 24.2974 12.8986 24.7995 13.416C25.3015 13.9334 25.5847 14.6341 25.5873 15.3654Z" fill="#0068FF"/>
<path id="Vector_4" d="M14.0105 15.3453C14.0095 15.8901 13.8519 16.4225 13.5575 16.8753C13.2631 17.328 12.8451 17.6809 12.3562 17.8896C11.8674 18.0982 11.3294 18.1532 10.8103 18.0476C10.2911 17.9419 9.81388 17.6804 9.43882 17.296C9.06373 16.9117 8.80757 16.4216 8.70258 15.8876C8.59758 15.3536 8.64847 14.7995 8.84883 14.2952C9.0492 13.7909 9.39007 13.3589 9.82848 13.0537C10.2669 12.7486 10.7832 12.5838 11.3124 12.5803C11.6638 12.5756 12.0125 12.6433 12.3381 12.7794C12.6637 12.9155 12.9595 13.1173 13.2083 13.3728C13.4627 13.6301 13.6647 13.9371 13.8025 14.2758C13.9402 14.6145 14.0109 14.9781 14.0105 15.3453Z" fill="#0068FF"/>
<path id="Vector_5" d="M19.8102 15.3656C19.8077 15.9122 19.6481 16.4459 19.3514 16.8992C19.0549 17.3525 18.6345 17.7054 18.1434 17.9131C17.6524 18.1206 17.1124 18.1739 16.592 18.0662C16.0715 17.9583 15.5936 17.6944 15.2187 17.3072C14.909 16.9846 14.6813 16.5885 14.5555 16.1537C14.4298 15.719 14.41 15.2591 14.4979 14.8146C14.5857 14.3701 14.7785 13.9547 15.0593 13.6051C15.34 13.2555 15.7001 12.9825 16.1076 12.8102C16.5152 12.6378 16.9577 12.5715 17.3961 12.6169C17.8345 12.6624 18.2551 12.8183 18.621 13.0709C18.9871 13.3235 19.2869 13.665 19.4943 14.0652C19.7018 14.4654 19.8102 14.912 19.8102 15.3656Z" fill="#0068FF"/>
</g>
<defs>
<clipPath id="clip0_518_3871">
<rect width="35" height="30.8" fill="white"/>
</clipPath>
</defs>
</svg>
