<svg width="16" height="18" viewBox="0 0 16 18" fill="none" xmlns="http://www.w3.org/2000/svg">
  <path d="M14.8751 12.6537C14.2584 11.94 13.1045 10.8665 13.1045 7.34995C13.1045 4.67901 11.3656 2.54089 9.02076 2.01633V1.29995C9.02076 0.692545 8.56367 0.199951 7.99997 0.199951C7.43628 0.199951 6.97919 0.692545 6.97919 1.29995V2.01633C4.63438 2.54089 2.8954 4.67901 2.8954 7.34995C2.8954 10.8665 1.74151 11.94 1.12482 12.6537C0.933308 12.8754 0.848402 13.1404 0.849998 13.4C0.853509 13.9637 1.26431 14.5 1.87461 14.5H14.1253C14.7356 14.5 15.1468 13.9637 15.15 13.4C15.1515 13.1404 15.0666 12.875 14.8751 12.6537ZM3.00552 12.85C3.68286 11.8885 4.42339 10.2949 4.4269 7.36989C4.4269 7.36301 4.42499 7.35683 4.42499 7.34995C4.42499 5.22351 6.02543 3.49995 7.99997 3.49995C9.97452 3.49995 11.575 5.22351 11.575 7.34995C11.575 7.35683 11.573 7.36301 11.573 7.36989C11.5766 10.2952 12.3171 11.8888 12.9944 12.85H3.00552ZM7.99997 17.7999C9.12737 17.7999 10.0419 16.8151 10.0419 15.5999H5.95808C5.95808 16.8151 6.87258 17.7999 7.99997 17.7999Z" fill="#3F434A" />
</svg>
