<svg width="16" height="16" viewBox="0 0 16 16" fill="none" xmlns="http://www.w3.org/2000/svg">
  <g id="Group 2666">
    <path id="Vector"
      d="M3.36002 10.1048C3.36002 11.0303 2.61196 11.7785 1.6863 11.7785C1.46645 11.7787 1.24871 11.7355 1.04556 11.6515C0.842406 11.5675 0.657821 11.4442 0.502369 11.2887C0.346918 11.1333 0.223652 10.9487 0.139627 10.7455C0.0556029 10.5423 0.0124695 10.3246 0.0126962 10.1048C0.0126962 9.17921 0.760758 8.43115 1.6863 8.43115H3.36002V10.1048ZM4.19682 10.1048C4.19682 9.17921 4.94488 8.43115 5.87042 8.43115C6.79596 8.43115 7.54414 9.17921 7.54414 10.1048V14.2889C7.54414 15.2144 6.79608 15.9626 5.87042 15.9626C5.65058 15.9628 5.43286 15.9196 5.22972 15.8356C5.02658 15.7515 4.84201 15.6283 4.68657 15.4728C4.53113 15.3173 4.40788 15.1327 4.32386 14.9296C4.23985 14.7264 4.19672 14.5087 4.19694 14.2889L4.19682 10.1048Z"
      fill="#E01E5A" />
    <path id="Vector_2"
      d="M5.8704 3.38492C5.65056 3.38512 5.43284 3.34195 5.2297 3.25791C5.02656 3.17386 4.84199 3.05058 4.68655 2.89512C4.53112 2.73966 4.40786 2.55507 4.32384 2.35191C4.23983 2.14876 4.1967 1.93104 4.19692 1.7112C4.1968 0.785659 4.94486 0.0375977 5.8704 0.0375977C6.79594 0.0375977 7.54412 0.785659 7.54412 1.7112V3.38492H5.8704ZM5.8704 4.2344C6.79594 4.2344 7.54412 4.98246 7.54412 5.908C7.54412 6.83354 6.79606 7.58172 5.8704 7.58172H1.6736C1.45375 7.58193 1.23602 7.53878 1.03286 7.45474C0.829711 7.3707 0.645126 7.24742 0.489674 7.09196C0.334222 6.9365 0.210957 6.7519 0.126932 6.54874C0.0429076 6.34558 -0.000225778 6.12785 8.88729e-07 5.908C8.88729e-07 4.98246 0.748062 4.23452 1.6736 4.23452L5.8704 4.2344Z"
      fill="#36C5F0" />
    <path id="Vector_3"
      d="M12.5777 5.908C12.5777 4.98246 13.3257 4.2344 14.2513 4.2344C15.1768 4.2344 15.925 4.98246 15.925 5.908C15.925 6.83354 15.1769 7.58172 14.2513 7.58172H12.5777V5.908ZM11.7408 5.908C11.7408 6.83354 10.9928 7.58172 10.0672 7.58172C9.84731 7.58193 9.62957 7.53878 9.42642 7.45474C9.22327 7.3707 9.03868 7.24742 8.88323 7.09196C8.72778 6.9365 8.60451 6.7519 8.52049 6.54874C8.43646 6.34558 8.39333 6.12785 8.39356 5.908V1.7112C8.39356 0.785659 9.14162 0.0375977 10.0672 0.0375977C10.9927 0.0375977 11.7409 0.785659 11.7409 1.7112L11.7408 5.908Z"
      fill="#2EB67D" />
    <path id="Vector_4"
      d="M10.0672 12.6153C10.9927 12.6153 11.7409 13.3633 11.7409 14.2889C11.7409 15.2144 10.9928 15.9626 10.0672 15.9626C9.84731 15.9628 9.62957 15.9197 9.42642 15.8356C9.22327 15.7516 9.03868 15.6283 8.88323 15.4728C8.72778 15.3174 8.60451 15.1328 8.52049 14.9296C8.43646 14.7265 8.39333 14.5087 8.39356 14.2889V12.6153H10.0672ZM10.0672 11.7784C9.84732 11.7786 9.62959 11.7354 9.42645 11.6514C9.2233 11.5674 9.03872 11.4441 8.88327 11.2886C8.72782 11.1332 8.60455 10.9486 8.52052 10.7455C8.43649 10.5423 8.39335 10.3246 8.39356 10.1048C8.39356 9.17921 9.14162 8.43115 10.0672 8.43115H14.2641C15.1896 8.43115 15.9377 9.17921 15.9377 10.1048C15.9377 11.0303 15.1896 11.7785 14.264 11.7785L10.0672 11.7784Z"
      fill="#ECB22E" />
  </g>
</svg>