<svg aria-hidden="true" style="position: absolute; width: 0; height: 0; overflow: hidden;" version="1.1" xmlns="http://www.w3.org/2000/svg" xmlns:xlink="http://www.w3.org/1999/xlink">
<defs>
<symbol id="icon-sort-alphabetically-outline" viewBox="0 0 24 24">
<path d="M5.618 14h2.764l-1.382-2.764z"></path>
<path d="M21 14l2.4-3.2c0.686-0.915 0.795-2.119 0.284-3.142s-1.54-1.658-2.684-1.658h-6c-1.654 0-3 1.346-3 3 0 0.77 0.295 1.469 0.774 2h-0.274c-0.368 0-0.708 0.107-1.005 0.281l-1.811-3.623c-0.498-0.995-1.527-1.614-2.684-1.614s-2.186 0.619-2.684 1.614l-4 8c-0.358 0.717-0.416 1.53-0.163 2.291s0.788 1.376 1.504 1.735c0.414 0.207 0.879 0.316 1.342 0.316 1.143 0 2.171-0.635 2.684-1.657l0.171-0.343h2.291l0.171 0.342c0.512 1.023 1.54 1.658 2.684 1.658 0.464 0 0.928-0.109 1.342-0.316 0.243-0.122 0.455-0.282 0.652-0.458 0.54 0.488 1.246 0.774 2.006 0.774h6c1.654 0 3-1.346 3-3s-1.346-3-3-3zM11.447 17.895c-0.143 0.071-0.296 0.105-0.446 0.105-0.368 0-0.721-0.203-0.896-0.553l-0.723-1.447h-4.764l-0.724 1.447c-0.175 0.35-0.528 0.553-0.895 0.553-0.15 0-0.303-0.034-0.446-0.106-0.494-0.247-0.694-0.848-0.447-1.342l4-8c0.169-0.338 0.532-0.508 0.894-0.508s0.725 0.169 0.895 0.508l4 8c0.247 0.495 0.046 1.095-0.448 1.343zM12.5 14c-0.552 0-1-0.448-1-1s0.448-1 1-1h1c0.552 0 1 0.448 1 1s-0.448 1-1 1h-1zM21 18h-6c-0.379 0-0.725-0.214-0.895-0.553s-0.132-0.744 0.095-1.047l4.8-6.4h-4c-0.552 0-1-0.448-1-1s0.448-1 1-1h6c0.379 0 0.725 0.214 0.895 0.553s0.132 0.744-0.095 1.047l-4.8 6.4h4c0.552 0 1 0.448 1 1s-0.448 1-1 1z"></path>
</symbol>
<symbol id="icon-sort-numerically-outline" viewBox="0 0 24 24">
<path d="M23.292 12.134c0.138-0.445 0.208-0.91 0.208-1.384 0-2.619-2.131-4.75-4.75-4.75-1.396 0-2.685 0.61-3.573 1.632-0.021-0.021-0.035-0.046-0.056-0.067-0.973-0.974-2.349-1.533-3.776-1.533-1.422 0-2.794 0.556-3.77 1.525-0.264-0.431-0.644-0.813-1.122-1.108-0.474-0.294-1.032-0.449-1.613-0.449-0.482 0-0.955 0.109-1.369 0.316l-1.406 0.747c-1.442 0.721-2.051 2.526-1.313 4.002 0.272 0.543 0.714 0.982 1.248 1.272v4.663c0 1.654 1.346 3 3 3 0.766 0 1.458-0.297 1.989-0.771 0.54 0.487 1.25 0.771 2.011 0.771h5c0.778 0 1.479-0.305 2.010-0.795 0.796 0.5 1.731 0.795 2.74 0.795 2.895 0 5.25-2.355 5.25-5.25 0-0.922-0.25-1.825-0.708-2.616zM6 17c0 0.552-0.448 1-1 1s-1-0.448-1-1v-6.382c-0.144 0.072-0.306 0.106-0.471 0.106-0.401 0-0.813-0.203-0.988-0.553-0.247-0.494-0.031-1.095 0.463-1.342l1.361-0.724c0.141-0.070 0.307-0.105 0.475-0.105 0.199 0 0.4 0.050 0.561 0.149 0.294 0.183 0.599 0.504 0.599 0.851v8zM14 18h-5c-0.404 0-0.769-0.244-0.924-0.617-0.155-0.374-0.069-0.804 0.217-1.090l4-4c0.254-0.254 0.394-0.591 0.394-0.95s-0.14-0.695-0.394-0.949-0.601-0.381-0.949-0.381-0.696 0.127-0.952 0.382c-0.252 0.252-0.392 0.589-0.392 0.948 0 0.552-0.448 1-1 1s-1-0.448-1-1c0-0.894 0.348-1.733 0.98-2.364s1.498-0.947 2.364-0.947 1.731 0.316 2.363 0.948c0.632 0.631 0.979 1.471 0.979 2.363 0 0.893-0.348 1.733-0.979 2.364l-2.293 2.293h2.586c0.552 0 1 0.448 1 1s-0.448 1-1 1zM18.75 18c-1.792 0-3.25-1.458-3.25-3.25 0-0.552 0.448-1 1-1s1 0.448 1 1c0 0.689 0.561 1.25 1.25 1.25s1.25-0.561 1.25-1.25-0.561-1.25-1.25-1.25c-0.552 0-1-0.448-1-1s0.448-1 1-1c0.414 0 0.75-0.336 0.75-0.75s-0.336-0.75-0.75-0.75c-0.281 0-0.536 0.155-0.665 0.404-0.178 0.343-0.527 0.54-0.889 0.54-0.155 0-0.312-0.036-0.459-0.112-0.491-0.254-0.682-0.857-0.428-1.348 0.475-0.915 1.41-1.484 2.441-1.484 1.516 0 2.75 1.233 2.75 2.75 0 0.611-0.207 1.17-0.545 1.627 0.639 0.594 1.045 1.434 1.045 2.373 0 1.792-1.458 3.25-3.25 3.25z"></path>
</symbol>
<symbol id="icon-sort-alphabetically" viewBox="0 0 24 24">
<path d="M10.895 16.553l-4-8c-0.339-0.678-1.45-0.678-1.789 0l-4 8c-0.247 0.494-0.047 1.095 0.447 1.342 0.495 0.248 1.095 0.046 1.342-0.447l0.723-1.448h4.764l0.724 1.447c0.175 0.351 0.528 0.553 0.895 0.553 0.15 0 0.303-0.034 0.446-0.105 0.494-0.248 0.695-0.848 0.448-1.342zM4.618 14l1.382-2.764 1.382 2.764h-2.764z"></path>
<path d="M22 18h-6c-0.379 0-0.725-0.214-0.895-0.553s-0.132-0.744 0.095-1.047l4.8-6.4h-4c-0.552 0-1-0.448-1-1s0.448-1 1-1h6c0.379 0 0.725 0.214 0.895 0.553s0.132 0.744-0.095 1.047l-4.8 6.4h4c0.552 0 1 0.448 1 1s-0.448 1-1 1z"></path>
<path d="M14 14h-2c-0.552 0-1-0.448-1-1s0.448-1 1-1h2c0.552 0 1 0.448 1 1s-0.448 1-1 1z"></path>
</symbol>
<symbol id="icon-sort-numerically" viewBox="0 0 24 24">
<path d="M4 18c-0.552 0-1-0.448-1-1v-6.382l-0.553 0.276c-0.495 0.248-1.095 0.046-1.342-0.447s-0.046-1.094 0.448-1.342l2-1c0.31-0.155 0.678-0.139 0.973 0.044 0.294 0.183 0.474 0.504 0.474 0.851v8c0 0.552-0.448 1-1 1z"></path>
<path d="M13 18h-5c-0.404 0-0.769-0.244-0.924-0.617-0.155-0.374-0.069-0.804 0.217-1.090l4-4c0.254-0.254 0.394-0.591 0.394-0.95s-0.14-0.695-0.394-0.949c-0.508-0.508-1.39-0.508-1.9 0.001-0.253 0.252-0.393 0.589-0.393 0.948 0 0.552-0.448 1-1 1s-1-0.448-1-1c0-0.894 0.348-1.733 0.98-2.364 1.265-1.263 3.464-1.263 4.727 0.001 0.632 0.631 0.979 1.471 0.979 2.363 0 0.893-0.348 1.733-0.979 2.364l-2.293 2.293h2.586c0.552 0 1 0.448 1 1s-0.448 1-1 1z"></path>
<path d="M20.955 12.377c0.338-0.457 0.545-1.016 0.545-1.627 0-1.517-1.234-2.75-2.75-2.75-1.031 0-1.966 0.569-2.44 1.484-0.254 0.49-0.063 1.094 0.428 1.348s1.094 0.062 1.348-0.428c0.128-0.249 0.383-0.404 0.664-0.404 0.414 0 0.75 0.336 0.75 0.75s-0.336 0.75-0.75 0.75c-0.552 0-1 0.448-1 1s0.448 1 1 1c0.689 0 1.25 0.561 1.25 1.25s-0.561 1.25-1.25 1.25-1.25-0.561-1.25-1.25c0-0.552-0.448-1-1-1s-1 0.448-1 1c0 1.792 1.458 3.25 3.25 3.25s3.25-1.458 3.25-3.25c0-0.939-0.406-1.779-1.045-2.373z"></path>
</symbol>
<symbol id="icon-share" viewBox="0 0 24 24" fill="#000000" stroke="#000000">
<path d="M381.6,309.4c-27.7,0-52.4,13.2-68.2,33.6l-132.3-73.9c3.1-8.9,4.8-18.5,4.8-28.4c0-10-1.7-19.5-4.9-28.5l132.2-73.8 c15.7,20.5,40.5,33.8,68.3,33.8c47.4,0,86.1-38.6,86.1-86.1S429,0,381.5,0s-86.1,38.6-86.1,86.1c0,10,1.7,19.6,4.9,28.5 l-132.1,73.8c-15.7-20.6-40.5-33.8-68.3-33.8c-47.4,0-86.1,38.6-86.1,86.1s38.7,86.1,86.2,86.1c27.8,0,52.6-13.3,68.4-33.9 l132.2,73.9c-3.2,9-5,18.7-5,28.7c0,47.4,38.6,86.1,86.1,86.1s86.1-38.6,86.1-86.1S429.1,309.4,381.6,309.4z M381.6,27.1 c32.6,0,59.1,26.5,59.1,59.1s-26.5,59.1-59.1,59.1s-59.1-26.5-59.1-59.1S349.1,27.1,381.6,27.1z M100,299.8 c-32.6,0-59.1-26.5-59.1-59.1s26.5-59.1,59.1-59.1s59.1,26.5,59.1,59.1S132.5,299.8,100,299.8z M381.6,454.5 c-32.6,0-59.1-26.5-59.1-59.1c0-32.6,26.5-59.1,59.1-59.1s59.1,26.5,59.1,59.1C440.7,428,414.2,454.5,381.6,454.5z"></path>
</symbol>
<symbol id="icon-format_shapes" viewBox="0 0 24 24">
<path d="M10.688 12.75h2.625l-1.313-3.844zM13.734 14.016h-3.516l-0.703 1.969h-1.641l3.422-9h1.406l3.375 9h-1.594zM18.984 5.016h2.016v-2.016h-2.016v2.016zM21 21v-2.016h-2.016v2.016h2.016zM17.016 18.984v-1.969h1.969v-10.031h-1.969v-1.969h-10.031v1.969h-1.969v10.031h1.969v1.969h10.031zM5.016 21v-2.016h-2.016v2.016h2.016zM3 3v2.016h2.016v-2.016h-2.016zM23.016 6.984h-2.016v10.031h2.016v6h-6v-2.016h-10.031v2.016h-6v-6h2.016v-10.031h-2.016v-6h6v2.016h10.031v-2.016h6v6z"></path>
</symbol>
<symbol id="icon-segment" viewBox="0 0 24 24">
<path d="M9 12.984v-1.969h12v1.969h-12zM3 6h18v2.016h-18v-2.016zM9 18v-2.016h12v2.016h-12z"></path>
</symbol>
<symbol id="icon-account_tree" viewBox="0 0 24 24">
<path d="M21.984 11.016h-6.984v-3h-2.016v7.969h2.016v-3h6.984v8.016h-6.984v-3h-3.984v-9.984h-2.016v3h-6.984v-8.016h6.984v3h6v-3h6.984v8.016z"></path>
</symbol>
<symbol id="icon-add_chart" viewBox="0 0 24 24">
<path d="M18 18.984v-4.969h2.016v4.969q0 0.797-0.609 1.406t-1.406 0.609h-14.016q-0.797 0-1.383-0.609t-0.586-1.406v-13.969q0-0.797 0.586-1.406t1.383-0.609h12v2.016h-12v13.969h14.016zM20.016 6.984h3v2.016h-3v3h-2.016v-3h-3v-2.016h3v-3h2.016v3zM9.984 6.984h2.016v9.984h-2.016v-9.984zM14.016 12.984h1.969v3.984h-1.969v-3.984zM6 9.984h2.016v6.984h-2.016v-6.984z"></path>
</symbol>
<symbol id="icon-insights" viewBox="0 0 24 24">
<path d="M21 8.016q-0.703 0-1.195 0.398t-0.703 0.984-0.023 1.102l-3.563 3.563q-0.516-0.141-1.031 0l-2.531-2.531q0.141-0.563-0.047-1.148t-0.68-0.984-1.242-0.398q-0.703 0-1.195 0.398t-0.68 0.984-0.047 1.148l-4.547 4.547q-0.563-0.188-1.125 0.023t-0.984 0.703-0.422 1.195q0 0.844 0.586 1.43t1.43 0.586q0.703 0 1.195-0.422t0.703-0.984 0.023-1.125l4.547-4.547q0.516 0.141 1.031 0l2.578 2.531q-0.188 0.563 0 1.148t0.68 0.984 1.242 0.398q0.703 0 1.195-0.398t0.703-0.984 0.023-1.148l3.563-3.516q0.563 0.141 1.125-0.047t0.984-0.68 0.422-1.242q0-0.797-0.586-1.383t-1.43-0.586zM15 9l0.938-2.063 2.063-0.938-2.063-0.938-0.938-2.063-0.938 2.063-2.063 0.938 2.063 0.938zM3.516 11.016l0.469-2.016 2.016-0.516-2.016-0.469-0.469-2.016-0.516 2.016-2.016 0.469 2.016 0.516z"></path>
</symbol>
<symbol id="icon-legend_toggle" viewBox="0 0 24 24">
<path d="M20.016 15h-16.031v-2.016h16.031v2.016zM20.016 17.016h-16.031v1.969h16.031v-1.969zM15 11.016l5.016-3.563v-2.438l-5.016 3.516-5.016-3.516-6 3.656v2.344l5.953-3.609z"></path>
</symbol>
<symbol id="icon-online_prediction" viewBox="0 0 24 24">
<path d="M15.516 11.484q0 0.75-0.375 1.43t-0.891 1.289-0.891 1.172-0.375 1.125h-1.969q0-0.563-0.375-1.125t-0.891-1.172-0.891-1.289-0.375-1.43q0-0.938 0.492-1.734t1.266-1.266 1.758-0.469 1.758 0.469 1.266 1.266 0.492 1.734zM12.984 17.484h-1.969v1.5h1.969v-1.5zM21.984 12q0-2.063-0.773-3.891t-2.133-3.188l-1.078 1.078q1.172 1.125 1.828 2.695t0.656 3.305-0.656 3.305-1.828 2.695l1.078 1.078q1.359-1.359 2.133-3.188t0.773-3.891zM3.516 12q0-1.734 0.656-3.305t1.828-2.695l-1.078-1.078q-1.359 1.359-2.133 3.188t-0.773 3.891 0.773 3.891 2.133 3.188l1.078-1.078q-1.172-1.125-1.828-2.695t-0.656-3.305zM17.484 12q0 1.125-0.422 2.133t-1.172 1.758l1.078 1.078q0.938-0.984 1.477-2.25t0.539-2.719-0.539-2.719-1.477-2.25l-1.078 1.078q0.75 0.75 1.172 1.758t0.422 2.133zM7.031 16.969l1.078-1.078q-0.75-0.75-1.172-1.758t-0.422-2.133 0.422-2.133 1.172-1.758l-1.078-1.078q-0.938 0.984-1.477 2.25t-0.539 2.719 0.539 2.719 1.477 2.25z"></path>
</symbol>
<symbol id="icon-stacked_line_chart" viewBox="0 0 24 24">
<path d="M2.016 19.969l7.5-7.5 3.984 4.031 7.078-7.969 1.406 1.406-8.484 9.563-3.984-4.031-6 6zM3.516 15.469l6-6 3.984 4.031 8.484-9.563-1.406-1.406-7.078 7.969-3.984-4.031-7.5 7.5z"></path>
</symbol>
<symbol id="icon-add_user" viewBox="0 0 32 32">
<path d="M14.4 12.902c2.027 0 3.631-1.544 3.631-3.403s-1.604-3.403-3.631-3.403c-2.027 0-3.631 1.544-3.631 3.403s1.604 3.403 3.631 3.403zM14.4 15.187c3.331 0 6.031-2.547 6.031-5.689s-2.7-5.689-6.031-5.689c-3.331 0-6.031 2.547-6.031 5.689s2.7 5.689 6.031 5.689zM16.432 19.098h-4.491c-3.412 0-6.341 2.77-6.341 6.383 0 0.147 0.058 0.26 0.131 0.332 0.071 0.071 0.141 0.091 0.201 0.091h10.628c0 0 1.040 0.149 1.040 1.143s-1.040 1.143-1.040 1.143h-10.628c-1.509 0-2.732-1.213-2.732-2.709 0-4.788 3.914-8.669 8.741-8.669h4.491c0.804 0 1.168 0.67 1.168 1.168 0 0.457-0.36 1.117-1.168 1.117zM24.8 18.667c0-0.631-0.537-1.143-1.2-1.143s-1.2 0.512-1.2 1.143v2.667h-2.8c-0.663 0-1.2 0.512-1.2 1.143s0.537 1.143 1.2 1.143h2.8v2.667c0 0.631 0.537 1.143 1.2 1.143s1.2-0.512 1.2-1.143v-2.667h2.8c0.663 0 1.2-0.512 1.2-1.143s-0.537-1.143-1.2-1.143h-2.8v-2.667z"></path>
</symbol>
<symbol id="icon-alert-dark" viewBox="0 0 32 32">
<path d="M10.349 3.551c0.225-0.225 0.53-0.351 0.849-0.351h9.605c0.318 0 0.624 0.126 0.848 0.351l6.798 6.798c0.225 0.225 0.352 0.53 0.352 0.849v9.605c0 0.318-0.126 0.624-0.352 0.848l-6.798 6.798c-0.225 0.225-0.53 0.352-0.848 0.352h-9.605c-0.318 0-0.623-0.126-0.849-0.352l-6.798-6.798c-0.225-0.225-0.351-0.53-0.351-0.848v-9.605c0-0.318 0.126-0.623 0.351-0.849l6.798-6.798zM11.695 5.6l-6.095 6.095v8.611l6.095 6.095h8.611l6.095-6.095v-8.611l-6.095-6.095h-8.611zM16 10.16c0.663 0 1.2 0.537 1.2 1.2v4.64c0 0.663-0.537 1.2-1.2 1.2s-1.2-0.537-1.2-1.2v-4.64c0-0.663 0.537-1.2 1.2-1.2zM16 19.44c-0.663 0-1.2 0.537-1.2 1.2s0.537 1.2 1.2 1.2h0.012c0.663 0 1.2-0.537 1.2-1.2s-0.537-1.2-1.2-1.2h-0.012z"></path>
</symbol>
<symbol id="icon-alert-red" viewBox="0 0 32 32">
<path fill="#fd7972" style="fill: var(--color1, #fd7972)" d="M10.349 3.551c0.225-0.225 0.53-0.351 0.849-0.351h9.605c0.318 0 0.624 0.126 0.848 0.351l6.798 6.798c0.225 0.225 0.352 0.53 0.352 0.849v9.605c0 0.318-0.126 0.624-0.352 0.848l-6.798 6.798c-0.225 0.225-0.53 0.352-0.848 0.352h-9.605c-0.318 0-0.623-0.126-0.849-0.352l-6.798-6.798c-0.225-0.225-0.351-0.53-0.351-0.848v-9.605c0-0.318 0.126-0.623 0.351-0.849l6.798-6.798zM11.695 5.6l-6.095 6.095v8.611l6.095 6.095h8.611l6.095-6.095v-8.611l-6.095-6.095h-8.611zM16 10.16c0.663 0 1.2 0.537 1.2 1.2v4.64c0 0.663-0.537 1.2-1.2 1.2s-1.2-0.537-1.2-1.2v-4.64c0-0.663 0.537-1.2 1.2-1.2zM16 19.44c-0.663 0-1.2 0.537-1.2 1.2s0.537 1.2 1.2 1.2h0.012c0.663 0 1.2-0.537 1.2-1.2s-0.537-1.2-1.2-1.2h-0.012z"></path>
</symbol>
<symbol id="icon-anomalies" viewBox="0 0 32 32">
<path fill="#8a9099" style="fill: var(--color2, #8a9099)" d="M10.349 3.551c0.225-0.225 0.53-0.351 0.849-0.351h9.605c0.318 0 0.624 0.126 0.848 0.351l6.798 6.798c0.225 0.225 0.352 0.53 0.352 0.849v9.605c0 0.318-0.126 0.624-0.352 0.848l-6.798 6.798c-0.225 0.225-0.53 0.352-0.848 0.352h-9.605c-0.318 0-0.623-0.126-0.849-0.352l-6.798-6.798c-0.225-0.225-0.351-0.53-0.351-0.848v-9.605c0-0.318 0.126-0.623 0.351-0.849l6.798-6.798zM11.695 5.6l-6.095 6.095v8.611l6.095 6.095h8.611l6.095-6.095v-8.611l-6.095-6.095h-8.611zM16 10.16c0.663 0 1.2 0.537 1.2 1.2v4.64c0 0.663-0.537 1.2-1.2 1.2s-1.2-0.537-1.2-1.2v-4.64c0-0.663 0.537-1.2 1.2-1.2zM16 19.44c-0.663 0-1.2 0.537-1.2 1.2s0.537 1.2 1.2 1.2h0.012c0.663 0 1.2-0.537 1.2-1.2s-0.537-1.2-1.2-1.2h-0.012z"></path>
</symbol>
<symbol id="icon-api" viewBox="0 0 32 32">
<path fill="none" stroke="#8a9099" style="stroke: var(--color2, #8a9099)" stroke-linejoin="round" stroke-linecap="round" stroke-miterlimit="4" stroke-width="2.6667" d="M20.741 8.099c1.745 0 3.16 1.415 3.16 3.16M30.222 11.259c0 5.236-4.245 9.482-9.481 9.482-0.958 0-1.883-0.142-2.754-0.406l-3.567 3.567h-3.16v3.161h-3.16v3.161h-4.741c-0.873 0-1.58-0.708-1.58-1.58v-4.086c0-0.419 0.167-0.821 0.463-1.117l9.425-9.425c-0.264-0.872-0.406-1.796-0.406-2.754 0-5.236 4.245-9.481 9.482-9.481s9.481 4.245 9.481 9.481z"></path>
</symbol>
<symbol id="icon-arrowleft1" viewBox="0 0 32 32">
<path fill="#8a9099" style="fill: var(--color2, #8a9099)" d="M20.048 24.849c-0.469 0.469-1.228 0.469-1.697 0l-8.849-8.849 8.849-8.849c0.469-0.469 1.228-0.469 1.697 0s0.469 1.228 0 1.697l-7.151 7.151 7.151 7.151c0.469 0.469 0.469 1.228 0 1.697z"></path>
</symbol>
<symbol id="icon-arrowright1" viewBox="0 0 32 32">
<path fill="#304ffd" style="fill: var(--color3, #304ffd)" d="M11.952 7.151c0.469-0.469 1.228-0.469 1.697 0l8.849 8.849-8.849 8.849c-0.469 0.469-1.228 0.469-1.697 0s-0.469-1.228 0-1.697l7.151-7.151-7.151-7.151c-0.469-0.469-0.469-1.228 0-1.697z"></path>
</symbol>
<symbol id="icon-blue-plus" viewBox="0 0 32 32">
<path fill="#304ffd" style="fill: var(--color3, #304ffd)" d="M18.667 2.667c0-1.473-1.194-2.667-2.667-2.667s-2.667 1.194-2.667 2.667v10.667h-10.667c-1.473 0-2.667 1.194-2.667 2.667s1.194 2.667 2.667 2.667h10.667v10.667c0 1.473 1.194 2.667 2.667 2.667s2.667-1.194 2.667-2.667v-10.667h10.667c1.473 0 2.667-1.194 2.667-2.667s-1.194-2.667-2.667-2.667h-10.667v-10.667z"></path>
</symbol>
<symbol id="icon-calender" viewBox="0 0 32 32">
<path fill="#8a9099" style="fill: var(--color2, #8a9099)" d="M8.281 0c0.78 0 1.412 0.632 1.412 1.412v0.949h4.895v-0.949c0-0.78 0.632-1.412 1.412-1.412s1.412 0.632 1.412 1.412v0.949h4.706v-0.949c0-0.78 0.632-1.412 1.412-1.412s1.412 0.632 1.412 1.412v0.949h0.941c2.859 0 5.176 2.318 5.176 5.176v5.824c0 0.78-0.632 1.412-1.412 1.412s-1.412-0.632-1.412-1.412v-5.824c0-1.3-1.053-2.353-2.353-2.353h-0.941v0.936c0 0.78-0.632 1.412-1.412 1.412s-1.412-0.632-1.412-1.412v-0.936h-4.706v0.936c0 0.78-0.632 1.412-1.412 1.412s-1.412-0.632-1.412-1.412v-0.936h-4.895v0.936c0 0.78-0.632 1.412-1.412 1.412s-1.412-0.632-1.412-1.412v-0.936h-0.752c-1.3 0-2.353 1.053-2.353 2.353v17.412c0 1.3 1.053 2.353 2.353 2.353h8.176c0.78 0 1.412 0.632 1.412 1.412s-0.632 1.412-1.412 1.412h-8.176c-2.859 0-5.176-2.318-5.176-5.176v-17.412c0-2.859 2.318-5.176 5.176-5.176h0.752v-0.949c0-0.78 0.632-1.412 1.412-1.412zM9.638 12.337c0 0.728-0.59 1.318-1.318 1.318s-1.318-0.59-1.318-1.318c0-0.728 0.59-1.318 1.318-1.318s1.318 0.59 1.318 1.318zM13.402 13.654c0.728 0 1.318-0.59 1.318-1.318s-0.59-1.318-1.318-1.318c-0.728 0-1.318 0.59-1.318 1.318s0.59 1.318 1.318 1.318zM9.638 17.476c0 0.728-0.59 1.318-1.318 1.318s-1.318-0.59-1.318-1.318c0-0.728 0.59-1.318 1.318-1.318s1.318 0.59 1.318 1.318zM13.402 18.793c0.728 0 1.318-0.59 1.318-1.318s-0.59-1.318-1.318-1.318c-0.728 0-1.318 0.59-1.318 1.318s0.59 1.318 1.318 1.318zM9.638 22.577c0 0.728-0.59 1.318-1.318 1.318s-1.318-0.59-1.318-1.318c0-0.728 0.59-1.318 1.318-1.318s1.318 0.59 1.318 1.318zM13.402 23.894c0.728 0 1.318-0.59 1.318-1.318s-0.59-1.318-1.318-1.318c-0.728 0-1.318 0.59-1.318 1.318s0.59 1.318 1.318 1.318zM19.859 12.337c0 0.728-0.59 1.318-1.318 1.318s-1.318-0.59-1.318-1.318c0-0.728 0.59-1.318 1.318-1.318s1.318 0.59 1.318 1.318zM23.624 13.654c0.728 0 1.318-0.59 1.318-1.318s-0.59-1.318-1.318-1.318c-0.728 0-1.318 0.59-1.318 1.318s0.59 1.318 1.318 1.318z"></path>
<path fill="#8a9099" style="fill: var(--color2, #8a9099)" d="M28.235 22.596c0-2.599-2.107-4.706-4.706-4.706s-4.706 2.107-4.706 4.706c0 2.599 2.107 4.706 4.706 4.706s4.706-2.107 4.706-4.706zM31.059 22.596c0 4.158-3.371 7.529-7.529 7.529s-7.529-3.371-7.529-7.529c0-4.158 3.371-7.529 7.529-7.529s7.529 3.371 7.529 7.529zM23.906 20.713v1.882h1.318c0.52 0 0.941 0.421 0.941 0.941s-0.421 0.941-0.941 0.941h-2.259c-0.52 0-0.941-0.421-0.941-0.941v-2.824c0-0.52 0.421-0.941 0.941-0.941s0.941 0.421 0.941 0.941z"></path>
</symbol>
<symbol id="icon-check_circle" viewBox="0 0 32 32">
<path d="M16 28.8c7.069 0 12.8-5.731 12.8-12.8s-5.731-12.8-12.8-12.8v0c-7.069 0-12.8 5.731-12.8 12.8s5.731 12.8 12.8 12.8v0zM21.931 13.931c0.278-0.287 0.449-0.68 0.449-1.112 0-0.884-0.716-1.6-1.6-1.6-0.432 0-0.824 0.171-1.112 0.45l-5.268 5.268-2.069-2.069c-0.287-0.278-0.68-0.449-1.112-0.449-0.884 0-1.6 0.716-1.6 1.6 0 0.432 0.171 0.824 0.45 1.112l3.2 3.2c0.29 0.289 0.689 0.468 1.131 0.468s0.842-0.179 1.131-0.468l6.4-6.4z"></path>
</symbol>
<symbol id="icon-checkmark_blue" viewBox="0 0 32 32">
<path fill="#304ffd" style="fill: var(--color3, #304ffd)" d="M27.129 8.939c0.521-0.551 0.521-1.446 0-1.997-0.52-0.552-1.364-0.552-1.885 0l-14.072 14.906-4.415-4.675c-0.52-0.552-1.365-0.552-1.885 0-0.521 0.552-0.521 1.446 0 1.997l5.291 5.606c0.021 0.024 0.041 0.048 0.064 0.071 0.26 0.277 0.601 0.414 0.943 0.414 0.064 0 0.128-0.004 0.192-0.014 0.276-0.041 0.543-0.174 0.755-0.4 0.023-0.023 0.044-0.047 0.064-0.072l14.95-15.835z"></path>
</symbol>
<symbol id="icon-cheveron-down" viewBox="0 0 32 32">
<path fill="none" stroke="#8a9099" style="stroke: var(--color2, #8a9099)" stroke-linejoin="round" stroke-linecap="round" stroke-miterlimit="4" stroke-width="2.6667" d="M25.333 12l-9.333 9.333-9.333-9.333"></path>
</symbol>
<symbol id="icon-cheveron-right" viewBox="0 0 32 32">
<path d="M6.586 1.252c0.781-0.781 2.047-0.781 2.828 0l14.748 14.748-14.748 14.747c-0.781 0.781-2.047 0.781-2.828 0s-0.781-2.047 0-2.828l11.919-11.919-11.919-11.919c-0.781-0.781-0.781-2.047 0-2.828z"></path>
</symbol>
<symbol id="icon-close" viewBox="0 0 32 32">
<path stroke-linejoin="round" stroke-linecap="round" stroke-miterlimit="4" stroke-width="2.6667" d="M8 24l16-16M8 8l16 16"></path>
</symbol>
<symbol id="icon-copy" viewBox="0 0 32 32">
<path fill="none" stroke="#4d64e7" style="stroke: var(--color4, #4d64e7)" stroke-linejoin="round" stroke-linecap="round" stroke-miterlimit="4" stroke-width="2.4" d="M9.6 8v12.8c0 1.767 1.433 3.2 3.2 3.2h9.6M9.6 8v-3.2c0-1.767 1.433-3.2 3.2-3.2h7.337c0.424 0 0.831 0.169 1.131 0.469l7.063 7.063c0.3 0.3 0.469 0.707 0.469 1.131v10.537c0 1.767-1.433 3.2-3.2 3.2h-3.2M9.6 8h-3.2c-1.767 0-3.2 1.433-3.2 3.2v16c0 1.767 1.433 3.2 3.2 3.2h12.8c1.767 0 3.2-1.433 3.2-3.2v-3.2"></path>
</symbol>
<symbol id="icon-cube-transparent" viewBox="0 0 32 32">
<path d="M15.206 1.811c0.228-0.133 0.502-0.211 0.794-0.211s0.566 0.078 0.801 0.215l-0.008-0.004 2.8 1.6c0.504 0.276 0.839 0.803 0.839 1.408 0 0.884-0.716 1.6-1.6 1.6-0.305 0-0.591-0.086-0.834-0.234l-1.999-1.142-2.006 1.146c-0.236 0.144-0.521 0.23-0.826 0.23-0.884 0-1.6-0.716-1.6-1.6 0-0.605 0.336-1.131 0.831-1.403l0.008-0.004 2.8-1.6zM8.989 7.206c0.132 0.228 0.211 0.502 0.211 0.793 0 0.591-0.321 1.108-0.798 1.385l-0.008 0.004-0.368 0.211 0.368 0.211c0.504 0.276 0.839 0.803 0.839 1.408 0 0.884-0.716 1.6-1.6 1.6-0.305 0-0.591-0.086-0.833-0.234l-0.399-0.228v0.443c0 0.884-0.716 1.6-1.6 1.6s-1.6-0.716-1.6-1.6v0-3.2c0-0.001 0-0.003 0-0.005 0-0.601 0.333-1.124 0.824-1.396l0.008-0.004 2.774-1.584c0.228-0.132 0.502-0.211 0.793-0.211 0.591 0 1.108 0.321 1.385 0.798l0.004 0.008zM23.011 7.206c0.281-0.485 0.797-0.806 1.389-0.806 0.292 0 0.566 0.078 0.801 0.215l-0.008-0.004 2.773 1.584c0.5 0.278 0.833 0.802 0.834 1.405v3.2c0 0.884-0.716 1.6-1.6 1.6s-1.6-0.716-1.6-1.6v0-0.443l-0.406 0.232c-0.236 0.144-0.521 0.23-0.826 0.23-0.884 0-1.6-0.716-1.6-1.6 0-0.605 0.336-1.131 0.831-1.403l0.008-0.004 0.368-0.211-0.368-0.211c-0.485-0.281-0.806-0.797-0.806-1.389 0-0.292 0.078-0.566 0.215-0.801l-0.004 0.008zM11.811 13.606c0.281-0.485 0.797-0.806 1.389-0.806 0.292 0 0.566 0.078 0.801 0.215l-0.008-0.004 2.006 1.146 2.006-1.146c0.236-0.144 0.521-0.23 0.826-0.23 0.884 0 1.6 0.716 1.6 1.6 0 0.605-0.336 1.131-0.831 1.403l-0.008 0.004-1.994 1.139v2.272c0 0.884-0.716 1.6-1.6 1.6s-1.6-0.716-1.6-1.6v0-2.272l-1.994-1.139c-0.485-0.281-0.806-0.797-0.806-1.389 0-0.292 0.078-0.566 0.215-0.801l-0.004 0.008zM4.8 17.6c0.884 0 1.6 0.716 1.6 1.6v0 2.272l1.994 1.139c0.504 0.276 0.839 0.803 0.839 1.408 0 0.884-0.716 1.6-1.6 1.6-0.305 0-0.591-0.086-0.833-0.234l-2.793-1.596c-0.485-0.281-0.806-0.797-0.806-1.389v-3.2c0-0.884 0.716-1.6 1.6-1.6v0zM27.2 17.6c0.884 0 1.6 0.716 1.6 1.6v0 3.2c-0 0.591-0.321 1.108-0.799 1.385l-0.008 0.004-2.8 1.6c-0.236 0.144-0.521 0.23-0.826 0.23-0.884 0-1.6-0.716-1.6-1.6 0-0.605 0.336-1.131 0.831-1.403l0.008-0.004 1.994-1.139v-2.272c0-0.884 0.716-1.6 1.6-1.6v0zM11.811 26.406c0.281-0.485 0.797-0.806 1.389-0.806 0.292 0 0.566 0.078 0.801 0.215l-0.008-0.004 0.406 0.232v-0.443c0-0.884 0.716-1.6 1.6-1.6s1.6 0.716 1.6 1.6v0 0.443l0.406-0.232c0.236-0.144 0.521-0.23 0.826-0.23 0.884 0 1.6 0.716 1.6 1.6 0 0.605-0.336 1.131-0.831 1.403l-0.008 0.004-2.776 1.587c-0.233 0.142-0.516 0.226-0.818 0.226s-0.584-0.084-0.825-0.23l0.007 0.004-2.776-1.587c-0.485-0.281-0.806-0.797-0.806-1.389 0-0.292 0.078-0.566 0.215-0.801l-0.004 0.008z"></path>
</symbol>
<symbol id="icon-darkminus" viewBox="0 0 32 32">
<path d="M0.4 15.842c0-1.478 1.164-2.676 2.6-2.676h26c1.436 0 2.6 1.198 2.6 2.676s-1.164 2.676-2.6 2.676h-26c-1.436 0-2.6-1.198-2.6-2.676z"></path>
</symbol>
<symbol id="icon-darkplus" viewBox="0 0 32 32">
<path d="M18.447 4.197c0-1.391-1.096-2.519-2.447-2.519s-2.447 1.128-2.447 2.519v10.076h-9.788c-1.351 0-2.447 1.128-2.447 2.519s1.096 2.519 2.447 2.519h9.788v10.076c0 1.391 1.096 2.519 2.447 2.519s2.447-1.128 2.447-2.519v-10.076h9.788c1.352 0 2.447-1.128 2.447-2.519s-1.096-2.519-2.447-2.519h-9.788v-10.076z"></path>
</symbol>
<symbol id="icon-dashboard" viewBox="0 0 32 32">
<path fill="#8a9099" style="fill: var(--color2, #8a9099)" d="M26.4 20h-6.4v6.4h6.4v-6.4zM20 17.6h6.4c1.325 0 2.4 1.075 2.4 2.4v6.4c0 1.325-1.075 2.4-2.4 2.4h-6.4c-1.325 0-2.4-1.075-2.4-2.4v-6.4c0-1.325 1.075-2.4 2.4-2.4z"></path>
<path fill="#8a9099" style="fill: var(--color2, #8a9099)" d="M12 5.6v6.4h-6.4v-6.4h6.4zM26.4 5.6v6.4h-6.4v-6.4h6.4zM12 20h-6.4v6.4h6.4v-6.4zM12 3.2h-6.4c-1.325 0-2.4 1.074-2.4 2.4v6.4c0 1.325 1.075 2.4 2.4 2.4h6.4c1.325 0 2.4-1.075 2.4-2.4v-6.4c0-1.325-1.075-2.4-2.4-2.4zM26.4 3.2h-6.4c-1.325 0-2.4 1.074-2.4 2.4v6.4c0 1.325 1.075 2.4 2.4 2.4h6.4c1.325 0 2.4-1.075 2.4-2.4v-6.4c0-1.325-1.075-2.4-2.4-2.4zM5.6 17.6h6.4c1.325 0 2.4 1.075 2.4 2.4v6.4c0 1.325-1.075 2.4-2.4 2.4h-6.4c-1.325 0-2.4-1.075-2.4-2.4v-6.4c0-1.325 1.075-2.4 2.4-2.4z"></path>
</symbol>
<symbol id="icon-dots-vertical" viewBox="0 0 32 32">
<path fill="none" stroke="#8a9099" style="stroke: var(--color2, #8a9099)" stroke-linejoin="round" stroke-linecap="round" stroke-miterlimit="4" stroke-width="2.6667" d="M16 6.667v0.013M16 16v0.013M16 25.333v0.013M16 8c-0.736 0-1.333-0.597-1.333-1.333s0.597-1.333 1.333-1.333c0.736 0 1.333 0.597 1.333 1.333s-0.597 1.333-1.333 1.333zM16 17.333c-0.736 0-1.333-0.597-1.333-1.333s0.597-1.333 1.333-1.333c0.736 0 1.333 0.597 1.333 1.333s-0.597 1.333-1.333 1.333zM16 26.667c-0.736 0-1.333-0.597-1.333-1.333s0.597-1.333 1.333-1.333c0.736 0 1.333 0.597 1.333 1.333s-0.597 1.333-1.333 1.333z"></path>
</symbol>
<symbol id="icon-down_caret" viewBox="0 0 32 32">
<path d="M14.909 20.305c0.607 0.659 1.575 0.659 2.182 0l5.633-6.115c1.005-1.091 0.312-2.99-1.091-2.99h-11.267c-1.403 0-2.096 1.899-1.091 2.99l5.633 6.115z"></path>
</symbol>
<symbol id="icon-down_chevron" viewBox="0 0 32 32">
<path d="M24.848 11.951c0.469 0.469 0.469 1.228 0 1.697l-8.848 8.849-8.849-8.849c-0.469-0.469-0.469-1.228 0-1.697s1.228-0.469 1.697 0l7.151 7.151 7.152-7.151c0.469-0.469 1.228-0.469 1.697 0z"></path>
</symbol>
<symbol id="icon-ellipsis" viewBox="0 0 32 32">
<path fill="#595f69" style="fill: var(--color5, #595f69)" d="M7 16c0 1.657-1.343 3-3 3s-3-1.343-3-3c0-1.657 1.343-3 3-3s3 1.343 3 3zM19 16c0 1.657-1.343 3-3 3s-3-1.343-3-3c0-1.657 1.343-3 3-3s3 1.343 3 3zM28 19c1.657 0 3-1.343 3-3s-1.343-3-3-3c-1.657 0-3 1.343-3 3s1.343 3 3 3z"></path>
</symbol>
<symbol id="icon-endpoint" viewBox="0 0 32 32">
<path fill="none" stroke="#8a9099" style="stroke: var(--color2, #8a9099)" stroke-linejoin="round" stroke-linecap="round" stroke-miterlimit="4" stroke-width="2.6667" d="M8.099 22.519v-18.963M8.099 3.556l-6.321 6.321M8.099 3.556l6.321 6.321M23.901 9.877v18.963M23.901 28.839l6.321-6.321M23.901 28.839l-6.321-6.321"></path>
</symbol>
<symbol id="icon-filter" viewBox="0 0 32 32">
<path d="M5.788 20.024c-0.583 0-1.056 0.547-1.056 1.221s0.473 1.221 1.056 1.221h7.94c0.583 0 1.056-0.547 1.056-1.221s-0.473-1.221-1.056-1.221h-7.94zM26.204 22.466h-6.884v2.713c0 0.674-0.473 1.221-1.056 1.221s-1.056-0.547-1.056-1.221v-3.895c-0-0.013-0-0.026-0-0.039s0-0.026 0-0.039v-3.895c0-0.674 0.473-1.221 1.056-1.221s1.056 0.547 1.056 1.221v2.713h6.884c0.583 0 1.056 0.547 1.056 1.221s-0.473 1.221-1.056 1.221zM14.94 10.755c0-0.674 0.473-1.221 1.056-1.221h10.209c0.583 0 1.056 0.547 1.056 1.221s-0.473 1.221-1.056 1.221h-10.209c-0.583 0-1.056-0.547-1.056-1.221zM5.788 9.534c-0.583 0-1.056 0.547-1.056 1.221s0.473 1.221 1.056 1.221h4.615v2.713c0 0.674 0.473 1.221 1.056 1.221s1.056-0.547 1.056-1.221v-3.892c0-0.014 0.001-0.028 0.001-0.042s-0-0.028-0.001-0.042v-3.892c0-0.674-0.473-1.221-1.056-1.221s-1.056 0.547-1.056 1.221v2.713h-4.615z"></path>
</symbol>
<symbol id="icon-funnel" viewBox="0 0 32 32">
<path stroke-linejoin="round" stroke-linecap="round" stroke-miterlimit="4" stroke-width="3.2" d="M1.6 3.2c0-0.884 0.716-1.6 1.6-1.6h25.6c0.884 0 1.6 0.716 1.6 1.6v4.137c0 0.424-0.169 0.831-0.469 1.131l-10.263 10.263c-0.3 0.3-0.469 0.707-0.469 1.131v4.137l-6.4 6.4v-10.537c0-0.424-0.169-0.831-0.469-1.131l-10.263-10.263c-0.3-0.3-0.469-0.707-0.469-1.131v-4.137z"></path>
</symbol>
<symbol id="icon-hamburger_menu" viewBox="0 0 32 32">
<path d="M0 6c0-1.105 0.895-2 2-2h28c1.105 0 2 0.895 2 2s-0.895 2-2 2h-28c-1.105 0-2-0.895-2-2zM0 26c0-1.105 0.895-2 2-2h18c1.105 0 2 0.895 2 2s-0.895 2-2 2h-18c-1.105 0-2-0.895-2-2zM2 14c-1.105 0-2 0.895-2 2s0.895 2 2 2h28c1.105 0 2-0.895 2-2s-0.895-2-2-2h-28z"></path>
</symbol>
<symbol id="icon-leftarrow" viewBox="0 0 32 32">
<path d="M10.34 24.212c0.678-0.617 0.727-1.667 0.11-2.345l-4.447-4.884h24.338c0.917 0 1.66-0.743 1.66-1.66s-0.743-1.66-1.66-1.66h-24.338l4.447-4.884c0.617-0.678 0.568-1.728-0.11-2.345s-1.728-0.568-2.345 0.11l-7.994 8.78 7.994 8.78c0.617 0.678 1.667 0.727 2.345 0.11z"></path>
</symbol>
<symbol id="icon-logs" viewBox="0 0 32 32">
<path fill="none" stroke="#8a9099" style="stroke: var(--color2, #8a9099)" stroke-linejoin="round" stroke-linecap="round" stroke-miterlimit="4" stroke-width="2.6667" d="M5.333 8h21.333M5.333 13.333h21.333M5.333 18.667h21.333M5.333 24h21.333"></path>
</symbol>
<symbol id="icon-mail" viewBox="0 0 32 32">
<path fill="#8a9099" style="fill: var(--color2, #8a9099)" d="M5.736 8.59c0.191-0.35 0.562-0.59 0.985-0.59h18.56c0.422 0 0.794 0.24 0.984 0.59l-10.264 7.185-10.265-7.185zM3.2 9.1c-0 0.012-0 0.023-0 0.035v13.906c0 1.939 1.581 3.52 3.52 3.52h18.56c1.939 0 3.52-1.581 3.52-3.52 0-1.548 0.005-3.097 0.010-4.645 0.010-3.094 0.019-6.188-0.010-9.28 0-0.005 0-0.009-0-0.014s0-0.009 0-0.013c-0.018-1.89-1.592-3.488-3.52-3.488h-18.56c-1.932 0-3.509 1.57-3.52 3.5zM26.4 11.425v11.615c0 0.613-0.507 1.12-1.12 1.12h-18.56c-0.613 0-1.12-0.507-1.12-1.12v-11.615l9.712 6.798c0.413 0.289 0.963 0.289 1.376 0l9.712-6.798z"></path>
</symbol>
<symbol id="icon-merge" viewBox="0 0 32 32">
<path fill="#304ffd" style="fill: var(--color3, #304ffd)" d="M11.613 10.28c-0.124-0.123-0.222-0.27-0.289-0.431s-0.101-0.334-0.101-0.509c0-0.175 0.034-0.348 0.101-0.509s0.165-0.308 0.289-0.431l3.453-3.453c0.123-0.124 0.27-0.222 0.431-0.289s0.334-0.101 0.509-0.101c0.175 0 0.348 0.034 0.509 0.101s0.308 0.165 0.431 0.289l3.453 3.453c0.124 0.123 0.221 0.27 0.288 0.431s0.101 0.334 0.101 0.509-0.034 0.347-0.101 0.509c-0.067 0.161-0.165 0.308-0.288 0.431s-0.27 0.221-0.431 0.288-0.334 0.101-0.509 0.101c-0.175 0-0.347-0.034-0.509-0.101s-0.308-0.165-0.431-0.288l-1.187-1.173v6.8c0 1.413 0.56 2.773 1.56 3.773l5.493 5.493c0.124 0.124 0.221 0.27 0.288 0.431s0.101 0.334 0.101 0.509c0 0.175-0.034 0.348-0.101 0.509s-0.165 0.308-0.288 0.431c-0.124 0.124-0.27 0.221-0.431 0.288s-0.334 0.101-0.509 0.101-0.348-0.034-0.509-0.101c-0.161-0.067-0.308-0.165-0.431-0.288l-6.507-6.507-6.507 6.507c-0.249 0.249-0.587 0.389-0.94 0.389s-0.691-0.14-0.94-0.389c-0.249-0.249-0.389-0.587-0.389-0.94s0.14-0.691 0.389-0.94l5.493-5.493c1-1 1.56-2.36 1.56-3.773v-6.8l-1.173 1.173c-0.123 0.124-0.27 0.222-0.431 0.289s-0.334 0.101-0.509 0.101c-0.175 0-0.348-0.034-0.509-0.101s-0.308-0.165-0.431-0.289v0z"></path>
</symbol>
<symbol id="icon-notifications_active" viewBox="0 0 32 32">
<path fill="#3f434a" style="fill: var(--color6, #3f434a)" d="M26 21.314c-0.897-1.038-2.575-2.6-2.575-7.715 0-3.885-2.529-6.995-5.94-7.758v-1.042c0-0.883-0.665-1.6-1.485-1.6s-1.485 0.716-1.485 1.6v1.042c-3.411 0.763-5.94 3.873-5.94 7.758 0 5.115-1.678 6.676-2.575 7.715-0.279 0.322-0.402 0.708-0.4 1.086 0.005 0.82 0.603 1.6 1.49 1.6h17.819c0.888 0 1.486-0.78 1.49-1.6 0.002-0.378-0.121-0.764-0.4-1.086zM8.735 21.6c0.985-1.399 2.062-3.716 2.067-7.971 0-0.010-0.003-0.019-0.003-0.029 0-3.093 2.328-5.6 5.2-5.6s5.2 2.507 5.2 5.6c0 0.010-0.003 0.019-0.003 0.029 0.005 4.255 1.082 6.573 2.067 7.971h-14.529zM16 28.8c1.64 0 2.97-1.433 2.97-3.2h-5.94c0 1.767 1.33 3.2 2.97 3.2z"></path>
<path fill="#fd7972" style="fill: var(--color1, #fd7972); stroke: var(--color7, #fff)" stroke="#fff" stroke-linejoin="miter" stroke-linecap="butt" stroke-miterlimit="4" stroke-width="1.4545" d="M23.2 11.927c2.611 0 4.727-2.116 4.727-4.727s-2.116-4.727-4.727-4.727c-2.611 0-4.727 2.116-4.727 4.727s2.116 4.727 4.727 4.727z"></path>
</symbol>
<symbol id="icon-notifications" viewBox="0 0 32 32">
<path d="M28.222 22.495c-1.096-1.269-3.148-3.177-3.148-9.429 0-4.748-3.091-8.549-7.26-9.482v-1.274c0-1.080-0.813-1.956-1.815-1.956s-1.815 0.876-1.815 1.956v1.274c-4.169 0.933-7.26 4.734-7.26 9.482 0 6.252-2.051 8.16-3.148 9.429-0.34 0.394-0.491 0.865-0.489 1.327 0.006 1.002 0.737 1.956 1.822 1.956h21.779c1.085 0 1.816-0.953 1.822-1.956 0.003-0.462-0.148-0.933-0.489-1.327zM7.121 22.844c1.204-1.709 2.521-4.542 2.527-9.742 0-0.012-0.003-0.023-0.003-0.035 0-3.78 2.845-6.844 6.356-6.844s6.356 3.064 6.356 6.844c0 0.012-0.004 0.023-0.004 0.035 0.006 5.201 1.323 8.034 2.527 9.742h-17.758zM16 31.644c2.004 0 3.63-1.751 3.63-3.911h-7.26c0 2.16 1.626 3.911 3.63 3.911z"></path>
</symbol>
<symbol id="icon-plus" viewBox="0 0 32 32">
<path fill="#fff" style="fill: var(--color7, #fff)" d="M18.561 3.201c0-1.414-1.146-2.56-2.56-2.56s-2.56 1.146-2.56 2.56v10.24h-10.24c-1.414 0-2.56 1.146-2.56 2.56s1.146 2.56 2.56 2.56h10.24v10.24c0 1.414 1.146 2.56 2.56 2.56s2.56-1.146 2.56-2.56v-10.24h10.24c1.414 0 2.56-1.146 2.56-2.56s-1.146-2.56-2.56-2.56h-10.24v-10.24z"></path>
</symbol>
<symbol id="icon-projects" viewBox="0 0 32 32">
<path fill="#8a9099" style="fill: var(--color2, #8a9099)" d="M15.512 3.204c0.307-0.163 0.669-0.163 0.976 0l10.545 5.585c0.37 0.196 0.603 0.596 0.603 1.034s-0.233 0.838-0.603 1.034l-10.545 5.585c-0.307 0.163-0.669 0.163-0.976 0l-10.545-5.585c-0.37-0.196-0.603-0.596-0.603-1.034s0.233-0.838 0.603-1.034l10.545-5.585zM7.894 9.822l8.106 4.293 8.106-4.293-8.106-4.293-8.106 4.293zM4.479 20.476c0.269-0.571 0.925-0.802 1.464-0.517l10.058 5.327 10.058-5.327c0.539-0.285 1.194-0.054 1.464 0.517s0.051 1.265-0.488 1.55l-10.545 5.585c-0.307 0.163-0.669 0.163-0.976 0l-10.545-5.585c-0.539-0.285-0.757-0.98-0.488-1.55zM5.943 14.374c-0.539-0.285-1.194-0.054-1.464 0.517s-0.051 1.265 0.488 1.55l10.545 5.585c0.307 0.163 0.669 0.163 0.976 0l10.545-5.585c0.539-0.285 0.757-0.979 0.488-1.55s-0.925-0.802-1.464-0.517l-10.058 5.327-10.058-5.327z"></path>
</symbol>
<symbol id="icon-refresh" viewBox="0 0 32 32">
<path d="M6.4 3.2c0.884 0 1.6 0.716 1.6 1.6v0 3.362c2.035-2.075 4.867-3.36 8-3.36 4.848 0 8.976 3.079 10.537 7.388l0.025 0.078c0.068 0.171 0.107 0.369 0.107 0.576 0 0.884-0.716 1.6-1.6 1.6-0.709 0-1.31-0.461-1.52-1.099l-0.003-0.011c-1.132-3.134-4.082-5.334-7.545-5.334-2.609 0-4.927 1.249-6.388 3.181l-0.015 0.020h4.802c0.884 0 1.6 0.716 1.6 1.6s-0.716 1.6-1.6 1.6v0h-8c-0.884 0-1.6-0.716-1.6-1.6v0-8c0-0.884 0.716-1.6 1.6-1.6v0zM6.413 17.691c0.159-0.058 0.342-0.091 0.533-0.091 0.693 0 1.283 0.44 1.505 1.056l0.004 0.011c1.132 3.134 4.082 5.334 7.545 5.334 2.609 0 4.927-1.249 6.388-3.181l0.015-0.020h-4.802c-0.884 0-1.6-0.716-1.6-1.6s0.716-1.6 1.6-1.6v0h8c0.884 0 1.6 0.716 1.6 1.6v0 8c0 0.884-0.716 1.6-1.6 1.6s-1.6-0.716-1.6-1.6v0-3.362c-2.035 2.075-4.867 3.36-8 3.36-4.848 0-8.976-3.079-10.537-7.388l-0.025-0.078c-0.058-0.159-0.091-0.342-0.091-0.533 0-0.693 0.44-1.283 1.056-1.505l0.011-0.004z"></path>
</symbol>
<symbol id="icon-revoke" viewBox="0 0 32 32">
<path fill="none" stroke="#f00" style="stroke: var(--color8, #f00)" stroke-linejoin="round" stroke-linecap="round" stroke-miterlimit="4" stroke-width="3.4286" d="M2.286 29.714l27.429-27.429M2.286 2.286l27.429 27.429"></path>
</symbol>
<symbol id="icon-right_chevron" viewBox="0 0 32 32">
<path d="M11.669 23.531c-0.289-0.29-0.468-0.689-0.468-1.131s0.179-0.842 0.468-1.131l5.269-5.269-5.269-5.269c-0.278-0.287-0.449-0.68-0.449-1.112 0-0.884 0.716-1.6 1.6-1.6 0.432 0 0.824 0.171 1.112 0.45l6.4 6.4c0.289 0.29 0.468 0.689 0.468 1.131s-0.179 0.842-0.468 1.131l-6.4 6.4c-0.29 0.289-0.689 0.468-1.131 0.468s-0.842-0.179-1.131-0.468v0z"></path>
</symbol>
<symbol id="icon-rightarrow" viewBox="0 0 32 32">
<path d="M21.66 6.433c-0.678 0.617-0.727 1.667-0.11 2.345l4.447 4.884h-24.338c-0.917 0-1.66 0.743-1.66 1.66s0.743 1.66 1.66 1.66h24.338l-4.447 4.884c-0.617 0.678-0.568 1.728 0.11 2.345s1.728 0.568 2.345-0.11l7.994-8.78-7.994-8.78c-0.617-0.678-1.667-0.727-2.345-0.11z"></path>
</symbol>
<symbol id="icon-search" viewBox="0 0 32 32">
<path fill="#8a9099" style="fill: var(--color2, #8a9099)" d="M6 14.4c0-4.639 3.761-8.4 8.4-8.4s8.4 3.761 8.4 8.4c0 4.639-3.761 8.4-8.4 8.4s-8.4-3.761-8.4-8.4zM14.4 3.6c-5.965 0-10.8 4.835-10.8 10.8s4.835 10.8 10.8 10.8c2.55 0 4.894-0.884 6.741-2.362l5.609 5.61c0.469 0.469 1.228 0.469 1.697 0s0.469-1.228 0-1.697l-5.61-5.609c1.478-1.848 2.362-4.191 2.362-6.741 0-5.965-4.835-10.8-10.8-10.8z"></path>
</symbol>
<symbol id="icon-settings" viewBox="0 0 32 32">
<path d="M3.695 11.081l1.574-2.463c1.101-1.722 3.246-1.797 4.557-1.115l0.253 0.133c0.316-0.195 0.644-0.377 0.98-0.545v-0.046c0-1.655 1.372-3.236 3.366-3.236h3.149c1.994 0 3.366 1.581 3.366 3.236v0.046c0.336 0.168 0.664 0.349 0.98 0.545l0.253-0.133c1.311-0.683 3.456-0.607 4.557 1.115l1.574 2.463c1.179 1.846 0.053 3.753-1.306 4.462l-0.279 0.145c0.004 0.106 0.007 0.211 0.009 0.313-0.001 0.102-0.004 0.207-0.009 0.313l0.279 0.145c1.358 0.708 2.485 2.616 1.306 4.462l-1.574 2.462c-1.101 1.722-3.246 1.799-4.557 1.115l-0.253-0.133c-0.316 0.195-0.644 0.377-0.98 0.545v0.046c0 1.655-1.372 3.236-3.366 3.236h-3.149c-1.994 0-3.366-1.581-3.366-3.236v-0.046c-0.336-0.168-0.664-0.349-0.98-0.545l-0.253 0.133c-1.311 0.684-3.456 0.607-4.557-1.115l-1.574-2.462c-1.179-1.846-0.053-3.753 1.306-4.462l0.279-0.145c-0.004-0.106-0.007-0.211-0.009-0.313 0.001-0.102 0.004-0.207 0.009-0.313l-0.279-0.145c-1.358-0.708-2.485-2.616-1.306-4.462zM10.342 10.861l-1.879-0.981c-0.279-0.145-0.623-0.080-0.768 0.148l-1.574 2.463c-0.145 0.228-0.037 0.528 0.242 0.675l1.985 1.035c-0.154 0.576-0.236 1.18-0.236 1.8s0.082 1.225 0.236 1.8l-1.985 1.035c-0.279 0.146-0.387 0.447-0.242 0.674l1.574 2.463c0.145 0.227 0.489 0.293 0.768 0.148l1.879-0.981c0.964 0.928 2.186 1.619 3.558 1.972v1.843c0 0.291 0.235 0.527 0.525 0.527h3.149c0.29 0 0.525-0.236 0.525-0.527v-1.843c1.372-0.354 2.594-1.044 3.558-1.972l1.879 0.981c0.279 0.145 0.623 0.080 0.768-0.148l1.574-2.463c0.145-0.227 0.037-0.528-0.242-0.674l-1.985-1.035c0.154-0.576 0.236-1.18 0.236-1.8s-0.082-1.224-0.236-1.8l1.985-1.035c0.279-0.146 0.387-0.447 0.242-0.675l-1.574-2.463c-0.145-0.228-0.489-0.293-0.768-0.148l-1.879 0.981c-0.964-0.928-2.186-1.619-3.558-1.971v-1.845c0-0.291-0.235-0.527-0.525-0.527h-3.149c-0.29 0-0.525 0.236-0.525 0.527v1.845c-1.372 0.352-2.594 1.043-3.558 1.971zM15.995 20.064c2.354 0 4.261-1.819 4.261-4.064s-1.907-4.064-4.261-4.064c-2.354 0-4.261 1.819-4.261 4.064s1.907 4.064 4.261 4.064zM17.6 16c0 0.841-0.716 1.524-1.6 1.524s-1.6-0.683-1.6-1.524c0-0.841 0.716-1.524 1.6-1.524s1.6 0.683 1.6 1.524z"></path>
</symbol>
<symbol id="icon-sparkles" viewBox="0 0 32 32">
<path d="M8 3.2c0.884 0 1.6 0.716 1.6 1.6v0 1.6h1.6c0.884 0 1.6 0.716 1.6 1.6s-0.716 1.6-1.6 1.6v0h-1.6v1.6c0 0.884-0.716 1.6-1.6 1.6s-1.6-0.716-1.6-1.6v0-1.6h-1.6c-0.884 0-1.6-0.716-1.6-1.6s0.716-1.6 1.6-1.6v0h1.6v-1.6c0-0.884 0.716-1.6 1.6-1.6v0zM8 19.2c0.884 0 1.6 0.716 1.6 1.6v0 1.6h1.6c0.884 0 1.6 0.716 1.6 1.6s-0.716 1.6-1.6 1.6v0h-1.6v1.6c0 0.884-0.716 1.6-1.6 1.6s-1.6-0.716-1.6-1.6v0-1.6h-1.6c-0.884 0-1.6-0.716-1.6-1.6s0.716-1.6 1.6-1.6v0h1.6v-1.6c0-0.884 0.716-1.6 1.6-1.6v0zM19.2 3.2c0 0 0 0 0.001 0 0.738 0 1.359 0.5 1.544 1.179l0.003 0.011 1.886 7.13 5.366 3.094c0.482 0.282 0.8 0.797 0.8 1.386s-0.318 1.104-0.792 1.381l-0.008 0.004-5.366 3.096-1.888 7.128c-0.188 0.69-0.809 1.189-1.546 1.189s-1.359-0.499-1.544-1.178l-0.003-0.011-1.886-7.13-5.366-3.094c-0.482-0.282-0.8-0.797-0.8-1.386s0.318-1.104 0.792-1.382l0.008-0.004 5.366-3.096 1.888-7.128c0.187-0.69 0.808-1.19 1.546-1.19h0z"></path>
</symbol>
<symbol id="icon-tasks" viewBox="0 0 32 32">
<path fill="#8a9099" style="fill: var(--color2, #8a9099)" d="M12.599 6.667c0.001 0.018 0.001 0.035 0.001 0.053s-0 0.035-0.001 0.053v1.067h6.801v-2.241h-6.801v1.067zM10.2 5.52c0.021-1.276 1.055-2.32 2.35-2.32h6.901c1.294 0 2.329 1.045 2.35 2.32h1.102c0.932 0 1.823 0.373 2.479 1.035s1.021 1.555 1.021 2.486v16.243c0 0.93-0.366 1.824-1.021 2.486s-1.547 1.035-2.479 1.035h-13.802c-0.932 0-1.823-0.373-2.479-1.035s-1.022-1.555-1.022-2.486v-16.243c0-0.93 0.366-1.825 1.022-2.486s1.547-1.035 2.479-1.035h1.099zM21.8 7.92c-0.021 1.276-1.056 2.32-2.35 2.32h-6.901c-1.294 0-2.329-1.045-2.35-2.32h-1.099c-0.288 0-0.567 0.115-0.774 0.324s-0.326 0.495-0.326 0.796v16.243c0 0.3 0.118 0.587 0.326 0.796s0.486 0.324 0.774 0.324h13.802c0.288 0 0.567-0.116 0.774-0.324s0.326-0.495 0.326-0.796v-16.243c0-0.3-0.118-0.587-0.326-0.796s-0.486-0.324-0.774-0.324h-1.102z"></path>
</symbol>
<symbol id="icon-up_chevron" viewBox="0 0 32 32">
<path d="M7.151 20.048c-0.469-0.469-0.469-1.228 0-1.697l8.849-8.849 8.848 8.849c0.469 0.469 0.469 1.228 0 1.697s-1.228 0.469-1.697 0l-7.152-7.151-7.151 7.151c-0.469 0.469-1.228 0.469-1.697 0z"></path>
</symbol>
<symbol id="icon-warning" viewBox="0 0 32 32">
<path fill="#ffe89f" style="fill: var(--color9, #ffe89f)" d="M16 0c8.837 0 16 7.163 16 16s-7.163 16-16 16c-8.837 0-16-7.163-16-16s7.163-16 16-16z"></path>
<path fill="#e6b823" style="fill: var(--color10, #e6b823)" d="M11.964 7.108c0.161-0.161 0.379-0.251 0.606-0.251h6.861c0.227 0 0.445 0.090 0.606 0.251l4.855 4.855c0.161 0.161 0.251 0.379 0.251 0.606v6.861c0 0.227-0.090 0.445-0.251 0.606l-4.855 4.855c-0.161 0.161-0.379 0.251-0.606 0.251h-6.861c-0.227 0-0.445-0.090-0.606-0.251l-4.855-4.855c-0.161-0.161-0.251-0.379-0.251-0.606v-6.861c0-0.227 0.090-0.445 0.251-0.606l4.855-4.855zM12.925 8.571l-4.353 4.353v6.151l4.353 4.353h6.151l4.353-4.353v-6.151l-4.353-4.353h-6.151zM16 11.829c0.473 0 0.857 0.384 0.857 0.857v3.314c0 0.473-0.384 0.857-0.857 0.857s-0.857-0.384-0.857-0.857v-3.314c0-0.473 0.384-0.857 0.857-0.857zM16 18.457c-0.473 0-0.857 0.384-0.857 0.857s0.384 0.857 0.857 0.857h0.008c0.473 0 0.857-0.384 0.857-0.857s-0.384-0.857-0.857-0.857h-0.008z"></path>
</symbol>
<symbol id="icon-white-plus" viewBox="0 0 32 32">
<path fill="none" stroke="#fff" style="stroke: var(--color7, #fff)" stroke-linejoin="round" stroke-linecap="round" stroke-miterlimit="4" stroke-width="2.6667" d="M16 5.333v21.333M26.667 16h-21.333"></path>
</symbol>
<symbol id="icon-whitedown" viewBox="0 0 32 32">
<path fill="#fff" style="fill: var(--color7, #fff)" d="M28.428 2.202c0.675 1.311 0.675 3.436 0 4.746l-12.743 24.747-12.743-24.747c-0.675-1.311-0.675-3.436 0-4.746s1.769-1.311 2.444 0l10.299 20.001 10.299-20.001c0.675-1.311 1.769-1.311 2.444 0z"></path>
</symbol>
<symbol id="icon-key" viewBox="0 0 32 32">
<path d="M22.004 0c-5.523 0-10 4.478-10 10 0 1.285 0.269 2.501 0.713 3.629l-12.149 12.148c-0.351 0.352-0.568 0.686-0.568 1.223v3c0 1.070 0.929 2 2 2h3c0.536 0 0.875-0.215 1.226-0.564l1.435-1.436h2.343c1.104 0 2-0.896 2-2v-2h2c1.104 0 2-0.896 2-2v-2.344l2.369-2.371c1.129 0.445 2.344 0.715 3.631 0.715 5.521 0 10-4.478 10-10s-4.479-10-10-10zM22.004 18c-1.48 0-2.852-0.43-4.041-1.132l-0.344 0.343-3.030 3.031c-0.375 0.375-0.586 0.883-0.586 1.414v2.344h-2c-1.104 0-2 0.895-2 2v2h-2.342c-0.53 0-1.039 0.211-1.414 0.586l-1.418 1.418-2.826-0.004-0.003-2.85 11.665-11.644c0 0 0 0.001 0.001 0.002l1.469-1.469c-0.702-1.189-1.132-2.56-1.132-4.040 0-4.418 3.583-8 8-8s8 3.582 8 8-3.581 8.001-7.999 8.001zM27.82 8.239c-1.121-1.562-2.486-2.925-4.055-4.054-0.255-0.185-0.585-0.231-0.882-0.127-1.389 0.489-2.34 1.439-2.826 2.828-0.037 0.104-0.055 0.212-0.055 0.319 0 0.199 0.062 0.396 0.182 0.563 1.125 1.564 2.488 2.928 4.053 4.053 0.256 0.184 0.584 0.231 0.881 0.128 1.391-0.486 2.342-1.438 2.83-2.828 0.037-0.104 0.055-0.212 0.055-0.319-0.001-0.199-0.064-0.396-0.183-0.563zM24.82 11.010c-1.478-1.063-2.765-2.35-3.82-3.793 0.387-1.103 1.111-1.827 2.182-2.221 1.479 1.065 2.764 2.349 3.816 3.811-0.391 1.095-1.113 1.815-2.178 2.203z"></path>
</symbol>
<symbol id="icon-clock" viewBox="0 0 16 16">
<path d="M10.293 11.707l-3.293-3.293v-4.414h2v3.586l2.707 2.707zM8 0c-4.418 0-8 3.582-8 8s3.582 8 8 8 8-3.582 8-8-3.582-8-8-8zM8 14c-3.314 0-6-2.686-6-6s2.686-6 6-6c3.314 0 6 2.686 6 6s-2.686 6-6 6z"></path>
</symbol>
<symbol id="icon-clock2" viewBox="0 0 16 16">
<path d="M8 0c-4.418 0-8 3.582-8 8s3.582 8 8 8 8-3.582 8-8-3.582-8-8-8zM10.293 11.707l-3.293-3.293v-4.414h2v3.586l2.707 2.707-1.414 1.414z"></path>
</symbol>
<symbol id="icon-clock3" viewBox="0 0 16 16">
<path d="M12 7v2h-5v-6h2v4zM8 0c-4.418 0-8 3.582-8 8s3.582 8 8 8 8-3.582 8-8-3.582-8-8-8zM8 14c-3.314 0-6-2.686-6-6s2.686-6 6-6c3.314 0 6 2.686 6 6s-2.686 6-6 6z"></path>
</symbol>
<symbol id="icon-clock4" viewBox="0 0 16 16">
<path d="M8 0c-4.418 0-8 3.582-8 8s3.582 8 8 8 8-3.582 8-8-3.582-8-8-8zM12 9h-5v-6h2v4h3v2z"></path>
</symbol>
<symbol id="icon-enlarge" viewBox="0 0 16 16">
<path d="M2 5h-2v-4c0-0.552 0.448-1 1-1h4v2h-3v3z"></path>
<path d="M16 5h-2v-3h-3v-2h4c0.552 0 1 0.448 1 1v4z"></path>
<path d="M15 16h-4v-2h3v-3h2v4c0 0.552-0.448 1-1 1z"></path>
<path d="M5 16h-4c-0.552 0-1-0.448-1-1v-4h2v3h3v2z"></path>
</symbol>
<symbol id="icon-shrink" viewBox="0 0 16 16">
<path d="M3 0h2v4c0 0.552-0.448 1-1 1h-4v-2h3v-3z"></path>
<path d="M11 0h2v3h3v2h-4c-0.552 0-1-0.448-1-1v-4z"></path>
<path d="M12 11h4v2h-3v3h-2v-4c0-0.552 0.448-1 1-1z"></path>
<path d="M0 11h4c0.552 0 1 0.448 1 1v4h-2v-3h-3v-2z"></path>
</symbol>
<symbol id="icon-enlarge2" viewBox="0 0 16 16">
<path d="M16 0h-6.5l2.5 2.5-3 3 1.5 1.5 3-3 2.5 2.5z"></path>
<path d="M16 16v-6.5l-2.5 2.5-3-3-1.5 1.5 3 3-2.5 2.5z"></path>
<path d="M0 16h6.5l-2.5-2.5 3-3-1.5-1.5-3 3-2.5-2.5z"></path>
<path d="M0 0v6.5l2.5-2.5 3 3 1.5-1.5-3-3 2.5-2.5z"></path>
</symbol>
<symbol id="icon-shrink2" viewBox="0 0 16 16">
<path d="M9 7h6.5l-2.5-2.5 3-3-1.5-1.5-3 3-2.5-2.5z"></path>
<path d="M9 9v6.5l2.5-2.5 3 3 1.5-1.5-3-3 2.5-2.5z"></path>
<path d="M7 9h-6.5l2.5 2.5-3 3 1.5 1.5 3-3 2.5 2.5z"></path>
<path d="M7 7v-6.5l-2.5 2.5-3-3-1.5 1.5 3 3-2.5 2.5z"></path>
</symbol>
<symbol id="icon-pie-chart7" viewBox="0 0 16 16">
<path d="M7 9v-8.938c-3.946 0.492-7 3.858-7 7.938 0 4.418 3.582 8 8 8 4.080 0 7.446-3.054 7.938-7h-8.938z"></path>
<path d="M8 8h8c0-4.418-3.582-8-8-8v8z"></path>
</symbol>
<symbol id="icon-stats-dots" viewBox="0 0 16 16">
<path d="M2 14h14v2h-16v-16h2zM4.5 13c-0.828 0-1.5-0.672-1.5-1.5s0.672-1.5 1.5-1.5c0.044 0 0.088 0.002 0.131 0.006l1.612-2.687c-0.154-0.235-0.243-0.517-0.243-0.819 0-0.828 0.672-1.5 1.5-1.5s1.5 0.672 1.5 1.5c0 0.302-0.090 0.583-0.243 0.819l1.612 2.687c0.043-0.004 0.087-0.006 0.131-0.006 0.033 0 0.066 0.001 0.099 0.004l2.662-4.658c-0.165-0.241-0.261-0.532-0.261-0.845 0-0.828 0.672-1.5 1.5-1.5s1.5 0.672 1.5 1.5c0 0.828-0.672 1.5-1.5 1.5-0.033 0-0.066-0.001-0.099-0.004l-2.662 4.658c0.165 0.241 0.261 0.532 0.261 0.845 0 0.828-0.672 1.5-1.5 1.5s-1.5-0.672-1.5-1.5c0-0.302 0.090-0.583 0.243-0.819l-1.612-2.687c-0.043 0.004-0.087 0.006-0.131 0.006s-0.088-0.002-0.131-0.006l-1.612 2.687c0.154 0.235 0.243 0.517 0.243 0.819 0 0.828-0.672 1.5-1.5 1.5z"></path>
</symbol>
<symbol id="icon-stats-bars" viewBox="0 0 16 16">
<path d="M15.25 3c0.412 0 0.75-0.337 0.75-0.75v-1.5c0-0.412-0.338-0.75-0.75-0.75h-1.5c-0.412 0-0.75 0.338-0.75 0.75v0.25h-10v-0.25c0-0.412-0.337-0.75-0.75-0.75h-1.5c-0.412 0-0.75 0.338-0.75 0.75v1.5c0 0.413 0.338 0.75 0.75 0.75h0.25v10h-0.25c-0.412 0-0.75 0.338-0.75 0.75v1.5c0 0.412 0.338 0.75 0.75 0.75h1.5c0.413 0 0.75-0.338 0.75-0.75v-0.25h10v0.25c0 0.412 0.338 0.75 0.75 0.75h1.5c0.412 0 0.75-0.338 0.75-0.75v-1.5c0-0.412-0.338-0.75-0.75-0.75h-0.25v-10h0.25zM14 1h1v1h-1v-1zM1 1h1v1h-1v-1zM2 15h-1v-1h1v1zM15 15h-1v-1h1v1zM14 13h-0.25c-0.412 0-0.75 0.338-0.75 0.75v0.25h-10v-0.25c0-0.412-0.337-0.75-0.75-0.75h-0.25v-10h0.25c0.413 0 0.75-0.337 0.75-0.75v-0.25h10v0.25c0 0.413 0.338 0.75 0.75 0.75h0.25v10zM4 4h2v8h-2zM7 8h2v4h-2zM10 6h2v6h-2z"></path>
</symbol>
<symbol id="icon-pie-chart8" viewBox="0 0 16 16">
<path d="M15.25 3c0.412 0 0.75-0.337 0.75-0.75v-1.5c0-0.412-0.338-0.75-0.75-0.75h-1.5c-0.412 0-0.75 0.338-0.75 0.75v0.25h-10v-0.25c0-0.412-0.337-0.75-0.75-0.75h-1.5c-0.412 0-0.75 0.338-0.75 0.75v1.5c0 0.413 0.338 0.75 0.75 0.75h0.25v10h-0.25c-0.412 0-0.75 0.338-0.75 0.75v1.5c0 0.412 0.338 0.75 0.75 0.75h1.5c0.413 0 0.75-0.338 0.75-0.75v-0.25h10v0.25c0 0.412 0.338 0.75 0.75 0.75h1.5c0.412 0 0.75-0.338 0.75-0.75v-1.5c0-0.412-0.338-0.75-0.75-0.75h-0.25v-10h0.25zM14 1h1v1h-1v-1zM1 1h1v1h-1v-1zM2 15h-1v-1h1v1zM15 15h-1v-1h1v1zM14 13h-0.25c-0.412 0-0.75 0.338-0.75 0.75v0.25h-10v-0.25c0-0.412-0.337-0.75-0.75-0.75h-0.25v-10h0.25c0.413 0 0.75-0.337 0.75-0.75v-0.25h10v0.25c0 0.413 0.338 0.75 0.75 0.75h0.25v10zM8 4v4h4c0-2.209-1.791-4-4-4zM7 9v-4.874c-1.725 0.444-3 2.010-3 3.874 0 2.209 1.791 4 4 4 1.864 0 3.43-1.275 3.874-3h-4.874z"></path>
</symbol>
<symbol id="icon-stats-bars2" viewBox="0 0 16 16">
<path d="M0 13h16v2h-16zM2 9h2v3h-2zM5 5h2v7h-2zM8 8h2v4h-2zM11 2h2v10h-2z"></path>
</symbol>
<symbol id="icon-stats-bars3" viewBox="0 0 16 16">
<path d="M10 4h-4v12h4v-12zM7 5.125v-0.125h2v0.125h-2zM7 5.625v-0.25h2v0.25h-2zM7 6.125v-0.25h2v0.25h-2zM7 6.625v-0.25h2v0.25h-2zM7 7.125v-0.25h2v0.25h-2zM7 7.625v-0.25h2v0.25h-2zM7 8.125v-0.25h2v0.25h-2zM7 8.625v-0.25h2v0.25h-2zM7 9.125v-0.25h2v0.25h-2zM7 9.625v-0.25h2v0.25h-2zM7 10.125v-0.25h2v0.25h-2zM7 10.625v-0.25h2v0.25h-2zM7 11.125v-0.25h2v0.25h-2zM7 11.625v-0.25h2v0.25h-2zM7 12.125v-0.25h2v0.25h-2zM7 12.625v-0.25h2v0.25h-2zM7 13.125v-0.25h2v0.25h-2zM7 13.625v-0.25h2v0.25h-2zM7 14.125v-0.25h2v0.25h-2zM7 14.625v-0.25h2v0.25h-2zM7 15v-0.125h2v0.125h-2zM0 9h4v7h-4zM12 0h4v16h-4z"></path>
</symbol>
<symbol id="icon-stats-bars4" viewBox="0 0 16 16">
<path d="M4.5 6h-3c-0.275 0-0.5 0.225-0.5 0.5v9c0 0.275 0.225 0.5 0.5 0.5h3c0.275 0 0.5-0.225 0.5-0.5v-9c0-0.275-0.225-0.5-0.5-0.5zM4.5 15h-3v-4h3v4zM9.5 4h-3c-0.275 0-0.5 0.225-0.5 0.5v11c0 0.275 0.225 0.5 0.5 0.5h3c0.275 0 0.5-0.225 0.5-0.5v-11c0-0.275-0.225-0.5-0.5-0.5zM9.5 15h-3v-5h3v5zM14.5 2h-3c-0.275 0-0.5 0.225-0.5 0.5v13c0 0.275 0.225 0.5 0.5 0.5h3c0.275 0 0.5-0.225 0.5-0.5v-13c0-0.275-0.225-0.5-0.5-0.5zM14.5 15h-3v-6h3v6z"></path>
</symbol>
<symbol id="icon-chart" viewBox="0 0 16 16">
<path d="M15.5 15h-3.5v-0.5h-0.5v0.5h-5v-0.5h-0.5v0.5h-3.5v-0.5h-0.5v0.5h-1v-4.5h0.5v-0.5h-0.5v-3.5h0.5v-0.5h-0.5v-3.5h0.5v-0.5h-0.5v-2h-1v16h16v-1.5h-0.5zM6.875 6.125l-0.25 0.25v3.939l0.25-0.25zM6.375 6.625l-0.25 0.25v3.939l0.25-0.25zM5.875 11.064v-4.127l-0.25-0.125v4.161l0.227 0.113zM8.375 4.625l-0.25 0.25v3.939l0.25-0.25zM7.375 5.625l-0.25 0.25v3.939l0.25-0.25zM5.375 6.688l-0.25-0.125v4.161l0.25 0.125zM7.875 5.125l-0.25 0.25v3.939l0.25-0.25zM3.875 5.938l-0.25-0.125v4.161l0.25 0.125zM2.875 5.438l-0.25-0.125v4.161l0.25 0.125zM4.875 6.438l-0.25-0.125v4.161l0.25 0.125zM3.375 5.688l-0.25-0.125v4.161l0.25 0.125zM2.375 5.188l-0.25-0.125v4.161l0.25 0.125zM8.875 4.125l-0.25 0.25v3.939l0.25-0.25zM4.375 6.188l-0.25-0.125v4.161l0.25 0.125zM12.875 5.125l-0.25 0.25v5.335l0.25-0.375zM13.375 4.625l-0.25 0.25v5.085l0.25-0.375zM13.875 4.125l-0.25 0.25v4.835l0.25-0.375zM14.875 3.125l-0.25 0.25v4.335l0.25-0.375zM14.375 3.625l-0.25 0.25v4.585l0.25-0.375zM15.875 2.125l-0.25 0.25v3.835l0.25-0.375zM15.375 2.625l-0.25 0.25v4.085l0.25-0.375zM10.875 5.25l-0.25-0.167v4.833l0.25 0.333zM10.375 4.917l-0.25-0.167v4.5l0.25 0.333zM9.375 4.25l-0.25-0.167v3.833l0.25 0.333zM9.875 4.583l-0.25-0.167v4.167l0.25 0.333zM11.375 5.583l-0.25-0.167v5.167l0.25 0.333zM12.375 5.625l-0.25 0.25v5.585l0.25-0.375zM11.875 5.917l-0.25-0.167v5.5l0.25 0.333zM12 13l-3-4-3 3-4-2v4h14v-7z"></path>
</symbol>
<symbol id="icon-stats-growth" viewBox="0 0 16 16">
<path d="M11.5 0l1.72 1.72-4.22 4.22-3-3-5.5 5.5 1.061 1.061 4.439-4.439 3 3 5.28-5.28 1.72 1.72v-4.5z"></path>
<path d="M13 6.561v9.439h2v-11.439z"></path>
<path d="M10 9.561v6.439h2v-8.439z"></path>
<path d="M7 16h2v-5.439l-2-2z"></path>
<path d="M4 16h2v-8.439l-2 2z"></path>
<path d="M1 12.561v3.439h2v-5.439z"></path>
</symbol>
<symbol id="icon-stats-decline" viewBox="0 0 16 16">
<path d="M3 6.561v9.439h-2v-11.439l2 2z"></path>
<path d="M6 9.561v6.439h-2v-8.439l2 2z"></path>
<path d="M9 16h-2v-5.439l2-2v7.439z"></path>
<path d="M14.28 7.22l-4.28-4.28-3 3-4.22-4.22-1.061 1.061 5.28 5.28 3-3 3.22 3.22-1.72 1.72h4.5v-4.5z"></path>
<path d="M13 11h2v5h-2v-5z"></path>
<path d="M10 11h2v5h-2v-5z"></path>
</symbol>
<symbol id="icon-lamp7" viewBox="0 0 16 16">
<path d="M5 10c-0.004 1.657 1.343 2 3 2s2.996-0.343 3-2 1.996-2.239 2-5-2.239-5-5-5c-2.761 0-4.996 2.239-5 5s2.004 3.343 2 5z"></path>
<path d="M8 13c-1.234 0-2.259-0.274-2.463-1.516-0.024 0.168-0.037 0.34-0.037 0.516 0 1.657 1.119 2 2.5 2s2.5-0.343 2.5-2c0-0.176-0.013-0.348-0.037-0.516-0.204 1.241-1.229 1.516-2.463 1.516z"></path>
<path d="M8 15c-0.987 0-1.807-0.274-1.97-1.516-0.019 0.168-0.030 0.34-0.030 0.516 0 1.657 0.895 2 2 2s2-0.343 2-2c0-0.176-0.010-0.348-0.030-0.516-0.163 1.241-0.983 1.516-1.97 1.516z"></path>
</symbol>
<symbol id="icon-lamp8" viewBox="0 0 16 16">
<path d="M8 1c1.070 0 2.076 0.417 2.833 1.175 0.754 0.755 1.169 1.758 1.167 2.824-0.002 1.23-0.485 1.888-0.996 2.585-0.47 0.64-1.002 1.365-1.004 2.414-0.001 0.51-0.176 0.647-0.355 0.744-0.318 0.172-0.871 0.259-1.645 0.259-1.189 0-1.645-0.208-1.819-0.382-0.045-0.045-0.182-0.182-0.181-0.616 0.003-1.053-0.533-1.78-1.005-2.422-0.512-0.696-0.996-1.353-0.995-2.579 0.002-1.070 0.418-2.075 1.173-2.83s1.759-1.171 2.827-1.171zM8 0c-2.761 0-4.996 2.239-5 5s2.004 3.343 2 5 1.343 2 3 2c1.657 0 2.996-0.343 3-2s1.996-2.239 2-5-2.239-5-5-5v0z"></path>
<path d="M8 13c-1.234 0-2.259-0.274-2.463-1.516-0.024 0.168-0.037 0.34-0.037 0.516 0 1.657 1.119 2 2.5 2s2.5-0.343 2.5-2c0-0.176-0.013-0.348-0.037-0.516-0.204 1.241-1.229 1.516-2.463 1.516z"></path>
<path d="M8 15c-0.987 0-1.807-0.274-1.97-1.516-0.019 0.168-0.030 0.34-0.030 0.516 0 1.657 0.895 2 2 2s2-0.343 2-2c0-0.176-0.010-0.348-0.030-0.516-0.163 1.241-0.983 1.516-1.97 1.516z"></path>
</symbol>
<symbol id="icon-cube2" viewBox="0 0 16 16">
<path d="M7.5 1l-7.5 3v7l7.5 4 7.5-4v-7l-7.5-3zM7 13.6l-6-3.2v-4.867l6 3.2v4.867zM1.297 4.558l6.203-2.481 6.203 2.481-6.203 3.308-6.203-3.308zM14 10.4l-6 3.2v-4.867l6-3.2v4.867z"></path>
</symbol>
<symbol id="icon-cube3" viewBox="0 0 16 16">
<path d="M7.625 0h-0.251l-7.375 3.951v7.129l7.348 4.921h0.304l7.348-4.921v-7.129l-7.375-3.951zM13.441 4.25l-2.391 1.281-2.657-1.423 2.391-1.281 2.657 1.423zM7.5 1.067l2.391 1.281-2.391 1.281-2.391-1.281 2.391-1.281zM4.215 2.827l2.391 1.281-2.657 1.423-2.391-1.281 2.657-1.423zM3.079 11.938l-2.079-1.393v-2.424l2.079 1.3v2.517zM3.079 8.426l-2.079-1.3v-2.042l2.079 1.114v2.227zM7 14.563l-3.077-2.060v-2.554l3.077 1.923v2.692zM7 10.877l-3.077-1.923v-2.303l3.077 1.648v2.577zM7.5 7.433l-2.657-1.423 2.657-1.423 2.657 1.423-2.657 1.423zM11.077 12.503l-3.077 2.060v-2.692l3.077-1.923v2.554zM11.077 8.954l-3.077 1.923v-2.577l3.077-1.648v2.303zM14 10.546l-2.079 1.392v-2.517l2.079-1.3v2.424zM14 7.127l-2.079 1.3v-2.227l2.079-1.114v2.042z"></path>
</symbol>
<symbol id="icon-puzzle3" viewBox="0 0 16 16">
<path d="M15.692 7.254l-1.694-1.694c-1.304-1.305 0.365-1.201 1.335-2.070 0.005-0.004 0.010-0.009 0.014-0.013 0.022-0.021 0.045-0.041 0.066-0.063 0.781-0.781 0.781-2.047 0-2.828s-2.047-0.781-2.828 0c-0.022 0.022-0.043 0.044-0.063 0.066-0.004 0.005-0.009 0.010-0.013 0.014-0.87 0.969-0.765 2.639-2.071 1.334l-1.693-1.693c-0.41-0.41-1.081-0.41-1.492 0l-1.692 1.692c-0 0-0 0-0 0-1.306 1.306-1.202-0.364-2.071-1.333-0.004-0.005-0.009-0.010-0.013-0.014-0.021-0.022-0.041-0.045-0.063-0.066-0.781-0.781-2.047-0.781-2.828 0s-0.781 2.047 0 2.828c0.022 0.022 0.044 0.043 0.066 0.063 0.005 0.004 0.010 0.009 0.014 0.013 0.97 0.87 2.64 0.765 1.333 2.071-0 0-0 0-0 0l-1.692 1.692c-0.41 0.41-0.41 1.081 0 1.492l1.692 1.692c0 0 0 0 0 0 1.306 1.306-0.364 1.202-1.333 2.071-0.005 0.004-0.010 0.009-0.014 0.013-0.022 0.021-0.045 0.041-0.066 0.063-0.781 0.781-0.781 2.047 0 2.828s2.047 0.781 2.828 0c0.022-0.022 0.043-0.044 0.063-0.066 0.004-0.005 0.009-0.010 0.013-0.014 0.87-0.969 0.765-2.639 2.071-1.334l1.693 1.693c0.41 0.41 1.081 0.41 1.492 0l1.966-1.966c0.783-1.007-0.701-0.983-1.592-1.783-0.005-0.004-0.010-0.009-0.014-0.013-0.023-0.021-0.045-0.041-0.066-0.063-0.781-0.781-0.781-2.047 0-2.828s2.047-0.781 2.828 0c0.022 0.022 0.043 0.044 0.063 0.066 0.004 0.005 0.009 0.010 0.013 0.014 0.8 0.892 0.776 2.376 1.783 1.592l1.966-1.966c0.41-0.41 0.41-1.081 0-1.492z"></path>
</symbol>
<symbol id="icon-puzzle4" viewBox="0 0 16 16">
<path d="M8 16c0.42 0 0.815-0.163 1.11-0.459l1.846-1.846 0.023-0.029c0.104-0.134 0.422-0.543 0.304-1.037-0.123-0.513-0.596-0.736-1.054-0.952-0.283-0.133-0.576-0.271-0.795-0.467l-0.011-0.010c-0.014-0.013-0.028-0.026-0.042-0.040-0.49-0.49-0.49-1.288 0-1.779 0.238-0.238 0.553-0.368 0.889-0.368s0.652 0.131 0.889 0.368c0.014 0.014 0.027 0.028 0.043 0.045l0.006 0.007c0.197 0.22 0.335 0.513 0.469 0.797 0.226 0.481 0.508 1.079 1.17 1.079 0 0 0 0 0 0 0.265 0 0.533-0.108 0.818-0.33l0.029-0.023 1.846-1.846c0.612-0.612 0.612-1.608-0-2.221l-1.568-1.568c-0.1-0.1-0.164-0.176-0.205-0.23 0.095-0.053 0.227-0.115 0.333-0.165 0.327-0.154 0.735-0.346 1.082-0.658 0.006-0.005 0.012-0.011 0.018-0.017 0.030-0.028 0.057-0.053 0.081-0.077 0.462-0.462 0.716-1.076 0.716-1.729s-0.254-1.267-0.716-1.729c-0.462-0.462-1.076-0.716-1.729-0.716s-1.267 0.254-1.729 0.716c-0.024 0.024-0.048 0.050-0.074 0.078l-0.018 0.020c-0.313 0.349-0.505 0.756-0.659 1.084-0.050 0.106-0.112 0.238-0.165 0.333-0.055-0.041-0.131-0.105-0.231-0.206l-1.567-1.567c-0.296-0.296-0.69-0.459-1.11-0.459s-0.814 0.163-1.11 0.459l-1.567 1.567c-0.1 0.1-0.177 0.165-0.231 0.206-0.053-0.095-0.115-0.227-0.165-0.333-0.154-0.327-0.346-0.735-0.659-1.084-0.006-0.006-0.011-0.013-0.016-0.017-0.028-0.031-0.053-0.057-0.077-0.081-0.462-0.462-1.076-0.716-1.729-0.716s-1.267 0.254-1.729 0.716c-0.953 0.953-0.953 2.505-0 3.458 0.024 0.024 0.049 0.048 0.079 0.076 0.006 0.006 0.012 0.011 0.019 0.018 0.349 0.313 0.756 0.505 1.084 0.659 0.106 0.050 0.238 0.112 0.333 0.165-0.041 0.055-0.106 0.131-0.206 0.231l-1.567 1.567c-0.296 0.296-0.459 0.69-0.459 1.11s0.163 0.815 0.459 1.11l1.567 1.567c0.1 0.1 0.165 0.177 0.206 0.231-0.095 0.053-0.227 0.115-0.333 0.165-0.327 0.154-0.735 0.346-1.084 0.659l-0.018 0.016c-0.031 0.028-0.057 0.053-0.080 0.077-0.953 0.953-0.953 2.505 0 3.458 0.462 0.462 1.076 0.716 1.729 0.716s1.267-0.254 1.729-0.716c0.024-0.024 0.048-0.049 0.075-0.079 0.005-0.005 0.010-0.010 0.016-0.017l0.002-0.002c0.313-0.349 0.505-0.756 0.659-1.084 0.050-0.106 0.112-0.238 0.165-0.333 0.055 0.041 0.131 0.105 0.231 0.206l1.567 1.567c0.296 0.296 0.69 0.459 1.11 0.459zM5.022 12.517c-0.662 0-0.944 0.599-1.17 1.079-0.133 0.283-0.271 0.576-0.468 0.796l-0.009 0.010c-0.013 0.014-0.026 0.028-0.040 0.042-0.238 0.238-0.553 0.368-0.889 0.368s-0.652-0.131-0.889-0.368c-0.49-0.49-0.49-1.288 0-1.779 0.014-0.014 0.028-0.027 0.041-0.039l0.012-0.011c0.219-0.196 0.512-0.334 0.795-0.467 0.454-0.214 0.969-0.456 1.065-1.008 0.092-0.527-0.275-0.973-0.604-1.303l-1.567-1.567c-0.072-0.072-0.111-0.168-0.111-0.271s0.039-0.199 0.111-0.271l1.526-1.526 0.026-0.017 0.037-0.046c0.324-0.327 0.672-0.765 0.582-1.281-0.096-0.552-0.611-0.794-1.065-1.008-0.284-0.134-0.577-0.272-0.796-0.468l-0.010-0.009c-0.014-0.013-0.028-0.026-0.042-0.040-0.49-0.49-0.49-1.288-0-1.779 0.238-0.238 0.553-0.368 0.889-0.368s0.652 0.131 0.889 0.369c0.014 0.014 0.027 0.028 0.041 0.044l0.007 0.008c0.197 0.22 0.335 0.513 0.469 0.797 0.226 0.481 0.508 1.079 1.17 1.079 0 0 0 0 0 0 0.359-0 0.708-0.188 1.131-0.609l1.576-1.576c0.072-0.072 0.168-0.111 0.271-0.111s0.199 0.039 0.271 0.111l1.567 1.567c0.427 0.427 0.779 0.618 1.14 0.618 0 0 0 0 0 0 0.662-0 0.944-0.599 1.17-1.079 0.134-0.284 0.272-0.577 0.467-0.795l0.010-0.011c0.013-0.014 0.027-0.029 0.040-0.042 0.238-0.238 0.553-0.368 0.889-0.368s0.652 0.131 0.889 0.368c0.238 0.238 0.368 0.553 0.368 0.889s-0.131 0.652-0.369 0.89c-0.013 0.014-0.027 0.026-0.041 0.039l-0.010 0.009c-0.22 0.197-0.513 0.335-0.797 0.469-0.454 0.214-0.969 0.456-1.065 1.008-0.092 0.527 0.274 0.972 0.603 1.302l1.568 1.568c0.147 0.147 0.147 0.395 0 0.541l-1.785 1.785c-0.053-0.095-0.115-0.226-0.165-0.332-0.154-0.327-0.346-0.734-0.661-1.085l-0.014-0.016c-0.027-0.030-0.052-0.056-0.077-0.081-0.462-0.462-1.076-0.716-1.729-0.716s-1.267 0.254-1.729 0.716c-0.953 0.953-0.953 2.505-0.001 3.457 0.024 0.025 0.050 0.049 0.082 0.078l0.017 0.016c0.349 0.313 0.756 0.505 1.084 0.659 0.106 0.050 0.237 0.112 0.332 0.165l-1.785 1.785c-0.072 0.072-0.168 0.111-0.271 0.111s-0.199-0.039-0.271-0.111l-1.567-1.567c-0.427-0.427-0.779-0.618-1.14-0.618z"></path>
</symbol>
<symbol id="icon-more" viewBox="0 0 16 16">
<path d="M6 1h4v4h-4zM6 6h4v4h-4zM6 11h4v4h-4z"></path>
</symbol>
<symbol id="icon-more2" viewBox="0 0 16 16">
<path d="M6 3c0-1.105 0.895-2 2-2s2 0.895 2 2c0 1.105-0.895 2-2 2s-2-0.895-2-2zM6 8c0-1.105 0.895-2 2-2s2 0.895 2 2c0 1.105-0.895 2-2 2s-2-0.895-2-2zM6 13c0-1.105 0.895-2 2-2s2 0.895 2 2c0 1.105-0.895 2-2 2s-2-0.895-2-2z"></path>
</symbol>
<symbol id="icon-grid" viewBox="0 0 16 16">
<path d="M0 0h4v4h-4zM6 0h4v4h-4zM12 0h4v4h-4zM0 6h4v4h-4zM6 6h4v4h-4zM12 6h4v4h-4zM0 12h4v4h-4zM6 12h4v4h-4zM12 12h4v4h-4z"></path>
</symbol>
<symbol id="icon-grid3" viewBox="0 0 16 16">
<path d="M1 1h4v4h-4zM6 1h4v4h-4zM11 1h4v4h-4zM1 6h4v4h-4zM6 6h4v4h-4zM11 6h4v4h-4zM1 11h4v4h-4zM6 11h4v4h-4zM11 11h4v4h-4z"></path>
</symbol>
<symbol id="icon-grid5" viewBox="0 0 16 16">
<path d="M14 6h-2c-0.55 0-1 0.45-1 1v2c0 0.55 0.45 1 1 1h2c0.55 0 1-0.45 1-1v-2c0-0.55-0.45-1-1-1zM14 9h-2v-2h2v2z"></path>
<path d="M9 6h-2c-0.55 0-1 0.45-1 1v2c0 0.55 0.45 1 1 1h2c0.55 0 1-0.45 1-1v-2c0-0.55-0.45-1-1-1zM9 9h-2v-2h2v2z"></path>
<path d="M4 6h-2c-0.55 0-1 0.45-1 1v2c0 0.55 0.45 1 1 1h2c0.55 0 1-0.45 1-1v-2c0-0.55-0.45-1-1-1zM4 9h-2v-2h2v2z"></path>
<path d="M14 1h-2c-0.55 0-1 0.45-1 1v2c0 0.55 0.45 1 1 1h2c0.55 0 1-0.45 1-1v-2c0-0.55-0.45-1-1-1zM14 4h-2v-2h2v2z"></path>
<path d="M9 1h-2c-0.55 0-1 0.45-1 1v2c0 0.55 0.45 1 1 1h2c0.55 0 1-0.45 1-1v-2c0-0.55-0.45-1-1-1zM9 4h-2v-2h2v2z"></path>
<path d="M4 1h-2c-0.55 0-1 0.45-1 1v2c0 0.55 0.45 1 1 1h2c0.55 0 1-0.45 1-1v-2c0-0.55-0.45-1-1-1zM4 4h-2v-2h2v2z"></path>
<path d="M14 11h-2c-0.55 0-1 0.45-1 1v2c0 0.55 0.45 1 1 1h2c0.55 0 1-0.45 1-1v-2c0-0.55-0.45-1-1-1zM14 14h-2v-2h2v2z"></path>
<path d="M9 11h-2c-0.55 0-1 0.45-1 1v2c0 0.55 0.45 1 1 1h2c0.55 0 1-0.45 1-1v-2c0-0.55-0.45-1-1-1zM9 14h-2v-2h2v2z"></path>
<path d="M4 11h-2c-0.55 0-1 0.45-1 1v2c0 0.55 0.45 1 1 1h2c0.55 0 1-0.45 1-1v-2c0-0.55-0.45-1-1-1zM4 14h-2v-2h2v2z"></path>
</symbol>
<symbol id="icon-grid6" viewBox="0 0 16 16">
<path d="M0 0h7v7h-7zM9 0h7v7h-7zM0 9h7v7h-7zM9 9h7v7h-7z"></path>
</symbol>
<symbol id="icon-lan3" viewBox="0 0 20 16">
<path d="M13 11.5l1.5 1.5 5-5-5-5-1.5 1.5 3.5 3.5-3.5 3.5z"></path>
<path d="M7 4.5l-1.5-1.5-5 5 5 5 1.5-1.5-3.5-3.5 3.5-3.5z"></path>
<path d="M8 8c0 0.552-0.448 1-1 1s-1-0.448-1-1c0-0.552 0.448-1 1-1s1 0.448 1 1z"></path>
<path d="M11 8c0 0.552-0.448 1-1 1s-1-0.448-1-1c0-0.552 0.448-1 1-1s1 0.448 1 1z"></path>
<path d="M14 8c0 0.552-0.448 1-1 1s-1-0.448-1-1c0-0.552 0.448-1 1-1s1 0.448 1 1z"></path>
</symbol>
<symbol id="icon-menu" viewBox="0 0 16 16">
<path d="M13 7c1.105 0 2 0.895 2 2s-0.895 2-2 2c-1.105 0-2-0.895-2-2s0.895-2 2-2zM8 7c1.105 0 2 0.895 2 2s-0.895 2-2 2c-1.105 0-2-0.895-2-2s0.895-2 2-2zM3 7c1.105 0 2 0.895 2 2s-0.895 2-2 2c-1.105 0-2-0.895-2-2s0.895-2 2-2z"></path>
</symbol>
<symbol id="icon-circle-small" viewBox="0 0 16 16">
<path d="M5 8c0-1.657 1.343-3 3-3s3 1.343 3 3c0 1.657-1.343 3-3 3s-3-1.343-3-3z"></path>
</symbol>
<symbol id="icon-menu3" viewBox="0 0 16 16">
<path d="M1 3h14v3h-14zM1 7h14v3h-14zM1 11h14v3h-14z"></path>
</symbol>
<symbol id="icon-menu7" viewBox="0 0 16 16">
<path d="M1 3h14v2h-14v-2z"></path>
<path d="M1 7h14v2h-14v-2z"></path>
<path d="M1 11h14v2h-14v-2z"></path>
</symbol>
<symbol id="icon-download4" viewBox="0 0 16 16">
<path d="M14 11v2h-12v-2h-2v4h16v-4zM12 6h-3v-5h-2v5h-3l4 6z"></path>
</symbol>
<symbol id="icon-download7" viewBox="0 0 16 16">
<path d="M14 8h-2.5l-3.5 3.5-3.5-3.5h-2.5l-2 4v1h16v-1l-2-4zM0 14h16v1h-16v-1zM9 5v-4h-2v4h-3.5l4.5 4.5 4.5-4.5h-3.5z"></path>
</symbol>
<symbol id="icon-sun" viewBox="0 0 16 16">
<path d="M8 4c-2.209 0-4 1.791-4 4s1.791 4 4 4c2.209 0 4-1.791 4-4s-1.791-4-4-4zM8 13c0.552 0 1 0.448 1 1v1c0 0.552-0.448 1-1 1s-1-0.448-1-1v-1c0-0.552 0.448-1 1-1zM8 3c-0.552 0-1-0.448-1-1v-1c0-0.552 0.448-1 1-1s1 0.448 1 1v1c0 0.552-0.448 1-1 1zM15 7c0.552 0 1 0.448 1 1s-0.448 1-1 1h-1c-0.552 0-1-0.448-1-1s0.448-1 1-1h1zM3 8c0 0.552-0.448 1-1 1h-1c-0.552 0-1-0.448-1-1s0.448-1 1-1h1c0.552 0 1 0.448 1 1zM12.95 11.536l0.707 0.707c0.39 0.39 0.39 1.024 0 1.414s-1.024 0.39-1.414 0l-0.707-0.707c-0.39-0.39-0.39-1.024 0-1.414s1.024-0.39 1.414 0zM3.050 4.464l-0.707-0.707c-0.391-0.391-0.391-1.024 0-1.414s1.024-0.391 1.414 0l0.707 0.707c0.391 0.391 0.391 1.024 0 1.414s-1.024 0.391-1.414 0zM12.95 4.464c-0.39 0.391-1.024 0.391-1.414 0s-0.39-1.024 0-1.414l0.707-0.707c0.39-0.391 1.024-0.391 1.414 0s0.39 1.024 0 1.414l-0.707 0.707zM3.050 11.536c0.39-0.39 1.024-0.39 1.414 0s0.391 1.024 0 1.414l-0.707 0.707c-0.391 0.39-1.024 0.39-1.414 0s-0.391-1.024 0-1.414l0.707-0.707z"></path>
</symbol>
<symbol id="icon-sun2" viewBox="0 0 16 16">
<path d="M8 13c0.552 0 1 0.448 1 1v1c0 0.552-0.448 1-1 1s-1-0.448-1-1v-1c0-0.552 0.448-1 1-1zM8 3c-0.552 0-1-0.448-1-1v-1c0-0.552 0.448-1 1-1s1 0.448 1 1v1c0 0.552-0.448 1-1 1zM15 7c0.552 0 1 0.448 1 1s-0.448 1-1 1h-1c-0.552 0-1-0.448-1-1s0.448-1 1-1h1zM3 8c0 0.552-0.448 1-1 1h-1c-0.552 0-1-0.448-1-1s0.448-1 1-1h1c0.552 0 1 0.448 1 1zM12.95 11.536l0.707 0.707c0.39 0.39 0.39 1.024 0 1.414s-1.024 0.39-1.414 0l-0.707-0.707c-0.39-0.39-0.39-1.024 0-1.414s1.024-0.39 1.414 0zM3.050 4.464l-0.707-0.707c-0.391-0.391-0.391-1.024 0-1.414s1.024-0.391 1.414 0l0.707 0.707c0.391 0.391 0.391 1.024 0 1.414s-1.024 0.391-1.414 0zM12.95 4.464c-0.39 0.391-1.024 0.391-1.414 0s-0.39-1.024 0-1.414l0.707-0.707c0.39-0.391 1.024-0.391 1.414 0s0.39 1.024 0 1.414l-0.707 0.707zM3.050 11.536c0.39-0.39 1.024-0.39 1.414 0s0.391 1.024 0 1.414l-0.707 0.707c-0.391 0.39-1.024 0.39-1.414 0s-0.391-1.024 0-1.414l0.707-0.707z"></path>
<path d="M8 4c-2.209 0-4 1.791-4 4s1.791 4 4 4c2.209 0 4-1.791 4-4s-1.791-4-4-4zM8 10.5c-1.381 0-2.5-1.119-2.5-2.5s1.119-2.5 2.5-2.5 2.5 1.119 2.5 2.5-1.119 2.5-2.5 2.5z"></path>
</symbol>
<symbol id="icon-day-night" viewBox="0 0 16 16">
<path d="M6.5 7c1.378 0 2.5 1.121 2.5 2.5s-1.122 2.5-2.5 2.5-2.5-1.121-2.5-2.5 1.122-2.5 2.5-2.5zM6.5 6c-1.933 0-3.5 1.567-3.5 3.5s1.567 3.5 3.5 3.5c1.933 0 3.5-1.567 3.5-3.5s-1.567-3.5-3.5-3.5v0z"></path>
<path d="M6.5 5c-0.276 0-0.5-0.224-0.5-0.5v-1c0-0.276 0.224-0.5 0.5-0.5s0.5 0.224 0.5 0.5v1c0 0.276-0.224 0.5-0.5 0.5z"></path>
<path d="M6.5 16c-0.276 0-0.5-0.224-0.5-0.5v-1c0-0.276 0.224-0.5 0.5-0.5s0.5 0.224 0.5 0.5v1c0 0.276-0.224 0.5-0.5 0.5z"></path>
<path d="M2 9.5c0 0.276-0.224 0.5-0.5 0.5h-1c-0.276 0-0.5-0.224-0.5-0.5s0.224-0.5 0.5-0.5h1c0.276 0 0.5 0.224 0.5 0.5z"></path>
<path d="M13 9.5c0 0.276-0.224 0.5-0.5 0.5h-1c-0.276 0-0.5-0.224-0.5-0.5s0.224-0.5 0.5-0.5h1c0.276 0 0.5 0.224 0.5 0.5z"></path>
<path d="M3.318 6.318c-0.195 0.195-0.512 0.195-0.707 0l-0.707-0.707c-0.195-0.195-0.195-0.512 0-0.707s0.512-0.195 0.707 0l0.707 0.707c0.195 0.195 0.195 0.512 0 0.707z"></path>
<path d="M11.096 14.096c-0.195 0.195-0.512 0.195-0.707 0l-0.707-0.707c-0.195-0.195-0.195-0.512 0-0.707s0.512-0.195 0.707 0l0.707 0.707c0.195 0.195 0.195 0.512 0 0.707z"></path>
<path d="M3.318 12.682c0.195 0.195 0.195 0.512 0 0.707l-0.707 0.707c-0.195 0.195-0.512 0.195-0.707 0s-0.195-0.512 0-0.707l0.707-0.707c0.195-0.195 0.512-0.195 0.707 0z"></path>
<path d="M12.702 4.798c-0.997-0.997-1.308-2.402-0.912-3.583-1.336 0.493-2.29 1.777-2.29 3.285 0 1.933 1.567 3.5 3.5 3.5 1.507 0 2.792-0.953 3.285-2.29-1.181 0.396-2.586 0.084-3.583-0.912z"></path>
</symbol>
<symbol id="icon-day-night2" viewBox="0 0 16 16">
<path d="M11.5 4c-0.278 0-0.55 0.025-0.815 0.074 1.374 0.99 2.268 2.604 2.268 4.426s-0.894 3.436-2.268 4.426c0.264 0.048 0.537 0.074 0.815 0.074 2.485 0 4.5-2.015 4.5-4.5s-2.015-4.5-4.5-4.5z"></path>
<path d="M7.5 16c-0.276 0-0.5-0.224-0.5-0.5v-1c0-0.276 0.224-0.5 0.5-0.5s0.5 0.224 0.5 0.5v1c0 0.276-0.224 0.5-0.5 0.5z"></path>
<path d="M7.5 3c-0.276 0-0.5-0.224-0.5-0.5v-1c0-0.276 0.224-0.5 0.5-0.5s0.5 0.224 0.5 0.5v1c0 0.276-0.224 0.5-0.5 0.5z"></path>
<path d="M2.5 14c-0.128 0-0.256-0.049-0.354-0.146-0.195-0.195-0.195-0.512 0-0.707l1-1c0.195-0.195 0.512-0.195 0.707 0s0.195 0.512 0 0.707l-1 1c-0.098 0.098-0.226 0.146-0.354 0.146z"></path>
<path d="M3.5 5c-0.128 0-0.256-0.049-0.354-0.146l-1-1c-0.195-0.195-0.195-0.512 0-0.707s0.512-0.195 0.707 0l1 1c0.195 0.195 0.195 0.512 0 0.707-0.098 0.098-0.226 0.146-0.354 0.146z"></path>
<path d="M1.5 9h-1c-0.276 0-0.5-0.224-0.5-0.5s0.224-0.5 0.5-0.5h1c0.276 0 0.5 0.224 0.5 0.5s-0.224 0.5-0.5 0.5z"></path>
<path d="M7.5 13c-2.481 0-4.5-2.019-4.5-4.5s2.019-4.5 4.5-4.5c2.481 0 4.5 2.019 4.5 4.5s-2.019 4.5-4.5 4.5zM7.5 5c-1.93 0-3.5 1.57-3.5 3.5s1.57 3.5 3.5 3.5 3.5-1.57 3.5-3.5-1.57-3.5-3.5-3.5z"></path>
</symbol>
<symbol id="icon-brightness-medium" viewBox="0 0 16 16">
<path d="M8 6.594c-0.775 0-1.406 0.631-1.406 1.406s0.631 1.406 1.406 1.406c0.775 0 1.406-0.631 1.406-1.406s-0.631-1.406-1.406-1.406zM8 5v0c1.657 0 3 1.343 3 3s-1.343 3-3 3c-1.657 0-3-1.343-3-3s1.343-3 3-3zM13.707 12.293c0.391 0.391 0.391 1.024 0 1.414s-1.024 0.391-1.414 0l-1-1c-0.391-0.391-0.391-1.024 0-1.414s1.024-0.391 1.414 0l1 1zM4.707 3.293c0.391 0.391 0.391 1.024 0 1.414s-1.024 0.391-1.414 0l-1-1c-0.391-0.391-0.391-1.024 0-1.414s1.024-0.391 1.414 0l1 1zM12.293 2.293c0.391-0.391 1.024-0.391 1.414 0s0.391 1.024 0 1.414l-1 1c-0.391 0.391-1.024 0.391-1.414 0s-0.391-1.024 0-1.414l1-1zM3.293 11.293c0.391-0.391 1.024-0.391 1.414 0s0.391 1.024 0 1.414l-1 1c-0.391 0.391-1.024 0.391-1.414 0s-0.391-1.024 0-1.414l1-1zM8 1c0.552 0 1 0.448 1 1v1c0 0.552-0.448 1-1 1s-1-0.448-1-1v-1c0-0.552 0.448-1 1-1zM8 12c0.552 0 1 0.448 1 1v1c0 0.552-0.448 1-1 1s-1-0.448-1-1v-1c0-0.552 0.448-1 1-1zM1 8c0-0.552 0.448-1 1-1h1c0.552 0 1 0.448 1 1s-0.448 1-1 1h-1c-0.552 0-1-0.448-1-1zM12 8c0-0.552 0.448-1 1-1h1c0.552 0 1 0.448 1 1s-0.448 1-1 1h-1c-0.552 0-1-0.448-1-1z"></path>
</symbol>
<symbol id="icon-brightness-low" viewBox="0 0 16 16">
<path d="M7 3c0-0.552 0.448-1 1-1s1 0.448 1 1c0 0.552-0.448 1-1 1s-1-0.448-1-1zM3 4c0-0.552 0.448-1 1-1s1 0.448 1 1c0 0.552-0.448 1-1 1s-1-0.448-1-1zM7 13c0-0.552 0.448-1 1-1s1 0.448 1 1c0 0.552-0.448 1-1 1s-1-0.448-1-1zM11 12c0-0.552 0.448-1 1-1s1 0.448 1 1c0 0.552-0.448 1-1 1s-1-0.448-1-1zM2 8c0-0.552 0.448-1 1-1s1 0.448 1 1c0 0.552-0.448 1-1 1s-1-0.448-1-1zM12 8c0-0.552 0.448-1 1-1s1 0.448 1 1c0 0.552-0.448 1-1 1s-1-0.448-1-1zM11 4c0-0.552 0.448-1 1-1s1 0.448 1 1c0 0.552-0.448 1-1 1s-1-0.448-1-1zM3 12c0-0.552 0.448-1 1-1s1 0.448 1 1c0 0.552-0.448 1-1 1s-1-0.448-1-1zM8 5c-1.657 0-3 1.343-3 3s1.343 3 3 3 3-1.343 3-3-1.343-3-3-3zM8 9.406c-0.775 0-1.406-0.631-1.406-1.406s0.631-1.406 1.406-1.406c0.775 0 1.406 0.631 1.406 1.406s-0.631 1.406-1.406 1.406z"></path>
</symbol>
<symbol id="icon-move" viewBox="0 0 16 16">
<path d="M16 8l-4-3v2h-3v-3h2l-3-4-3 4h2v3h-3v-2l-4 3 4 3v-2h3v3h-2l3 4 3-4h-2v-3h3v2z"></path>
</symbol>
<symbol id="icon-notification" viewBox="0 0 16 16">
<path d="M8 1.5c-1.736 0-3.369 0.676-4.596 1.904s-1.904 2.86-1.904 4.596c0 1.736 0.676 3.369 1.904 4.596s2.86 1.904 4.596 1.904c1.736 0 3.369-0.676 4.596-1.904s1.904-2.86 1.904-4.596c0-1.736-0.676-3.369-1.904-4.596s-2.86-1.904-4.596-1.904zM8 0v0c4.418 0 8 3.582 8 8s-3.582 8-8 8c-4.418 0-8-3.582-8-8s3.582-8 8-8zM7 11h2v2h-2zM7 3h2v6h-2z"></path>
</symbol>
<symbol id="icon-notification2" viewBox="0 0 16 16">
<path d="M8 0c-4.418 0-8 3.582-8 8s3.582 8 8 8 8-3.582 8-8-3.582-8-8-8zM9 13h-2v-2h2v2zM9 9h-2v-6h2v6z"></path>
</symbol>
<symbol id="icon-question2" viewBox="0 0 16 16">
<path d="M8 0c-4.418 0-8 3.582-8 8s3.582 8 8 8c4.418 0 8-3.582 8-8s-3.582-8-8-8zM9 13h-2v-2h2v2zM12 8l-3 2h-2v-1l3-2v-1h-5v-2h6c0.552 0 1 0.448 1 1v3z"></path>
</symbol>
<symbol id="icon-question3" viewBox="0 0 16 16">
<path d="M9 12c0 0.552-0.448 1-1 1s-1-0.448-1-1 0.448-1 1-1 1 0.448 1 1z"></path>
<path d="M8 0c-4.418 0-8 3.582-8 8s3.582 8 8 8 8-3.582 8-8-3.582-8-8-8zM8 14.5c-3.59 0-6.5-2.91-6.5-6.5s2.91-6.5 6.5-6.5 6.5 2.91 6.5 6.5-2.91 6.5-6.5 6.5z"></path>
<path d="M8 10.004c-0.414 0-0.75-0.336-0.75-0.75v-0.5c0-0.525 0.203-0.998 0.602-1.404 0.295-0.3 0.653-0.525 0.999-0.742 0.712-0.447 1.024-0.687 1.024-1.107 0-0.457-0.264-0.762-0.485-0.938-0.355-0.282-0.849-0.437-1.39-0.437-0.821 0-1.559 0.548-1.796 1.333-0.12 0.397-0.538 0.621-0.934 0.502s-0.621-0.538-0.502-0.934c0.205-0.68 0.631-1.291 1.2-1.721 0.589-0.445 1.292-0.68 2.031-0.68 0.878 0 1.703 0.271 2.322 0.762 0.679 0.539 1.053 1.289 1.053 2.113 0 1.293-0.998 1.92-1.726 2.377-0.611 0.384-0.899 0.596-0.899 0.876v0.5c0 0.414-0.336 0.75-0.75 0.75z"></path>
</symbol>
<symbol id="icon-question4" viewBox="0 0 16 16">
<path d="M8 0c-4.418 0-8 3.582-8 8s3.582 8 8 8 8-3.582 8-8-3.582-8-8-8zM8 13c-0.552 0-1-0.448-1-1s0.448-1 1-1 1 0.448 1 1-0.448 1-1 1zM9.649 7.877c-0.611 0.384-0.899 0.596-0.899 0.876v0.5c0 0.414-0.336 0.75-0.75 0.75s-0.75-0.336-0.75-0.75v-0.5c0-0.525 0.203-0.998 0.602-1.404 0.295-0.3 0.653-0.525 0.999-0.742 0.712-0.447 1.024-0.687 1.024-1.107 0-0.457-0.264-0.762-0.485-0.938-0.355-0.282-0.849-0.437-1.39-0.437-0.821 0-1.559 0.548-1.796 1.333-0.12 0.397-0.538 0.621-0.934 0.502s-0.621-0.538-0.502-0.934c0.205-0.68 0.631-1.291 1.2-1.721 0.589-0.445 1.292-0.68 2.031-0.68 0.878 0 1.703 0.271 2.322 0.762 0.679 0.539 1.053 1.289 1.053 2.113 0 1.293-0.998 1.92-1.726 2.377z"></path>
</symbol>
<symbol id="icon-question5" viewBox="0 0 16 16">
<path d="M6 13h3v3h-3zM12.5 1c0.828 0 1.5 0.672 1.5 1.5v4.5l-5 3v2h-3v-3l5-3v-2h-8v-3h9.5z"></path>
</symbol>
<symbol id="icon-question6" viewBox="0 0 16 16">
<path d="M8 13c-0.552 0-1-0.448-1-1v-1.027c0-1.41 1.124-2.477 2.212-3.509 0.879-0.834 1.788-1.697 1.788-2.464 0-1.493-1.082-3-3.5-3-1.787 0-3.283 1.337-3.479 3.11-0.061 0.549-0.555 0.945-1.104 0.884s-0.945-0.555-0.884-1.104c0.148-1.338 0.782-2.572 1.785-3.477 1.011-0.911 2.319-1.413 3.681-1.413 1.475 0 2.834 0.463 3.828 1.305 1.078 0.913 1.672 2.225 1.672 3.695 0 1.626-1.281 2.842-2.411 3.915-0.745 0.707-1.589 1.508-1.589 2.058l0 1.027c0 0.552-0.448 1-1 1z"></path>
<path d="M9 15c0 0.552-0.448 1-1 1s-1-0.448-1-1c0-0.552 0.448-1 1-1s1 0.448 1 1z"></path>
</symbol>
<symbol id="icon-info" viewBox="0 0 16 16">
<path d="M7 4.75c0-0.412 0.338-0.75 0.75-0.75h0.5c0.412 0 0.75 0.338 0.75 0.75v0.5c0 0.412-0.338 0.75-0.75 0.75h-0.5c-0.412 0-0.75-0.338-0.75-0.75v-0.5z"></path>
<path d="M10 12h-4v-1h1v-3h-1v-1h3v4h1z"></path>
<path d="M8 0c-4.418 0-8 3.582-8 8s3.582 8 8 8 8-3.582 8-8-3.582-8-8-8zM8 14.5c-3.59 0-6.5-2.91-6.5-6.5s2.91-6.5 6.5-6.5 6.5 2.91 6.5 6.5-2.91 6.5-6.5 6.5z"></path>
</symbol>
<symbol id="icon-info2" viewBox="0 0 16 16">
<path d="M8 0c-4.418 0-8 3.582-8 8s3.582 8 8 8 8-3.582 8-8-3.582-8-8-8zM7 3.75c0-0.413 0.338-0.75 0.75-0.75h0.5c0.412 0 0.75 0.337 0.75 0.75v0.5c0 0.412-0.338 0.75-0.75 0.75h-0.5c-0.412 0-0.75-0.338-0.75-0.75v-0.5zM10 13h-4v-1h1v-4h-1v-1h3v5h1v1z"></path>
</symbol>
<symbol id="icon-checkmark4" viewBox="0 0 16 16">
<path d="M15.36 1c-5.227 3.956-10.239 9.247-10.239 9.247l-3.612-3.247-1.509 1.537c1.485 1.395 4.924 5.081 6.088 6.463 3.275-5.472 6.679-9.552 9.912-13.284l-0.64-0.716z"></path>
</symbol>
<symbol id="icon-arrow-right" viewBox="0 0 16 16">
<path d="M5.5 0l-3 3 5 5-5 5 3 3 8-8z"></path>
</symbol>
<symbol id="icon-arrow-right2" viewBox="0 0 16 16">
<path d="M5.5 0l-2 2 6 6-6 6 2 2 8-8-8-8z"></path>
</symbol>
<symbol id="icon-arrow-down" viewBox="0 0 16 16">
<path d="M16 5.5l-3-3-5 5-5-5-3 3 8 8z"></path>
</symbol>
<symbol id="icon-arrow-down2" viewBox="0 0 16 16">
<path d="M16 5.5l-2-2-6 6-6-6-2 2 8 8 8-8z"></path>
</symbol>
<symbol id="icon-arrow-up5" viewBox="0 0 16 16">
<path d="M12.5 10l-4.5-4.5-4.5 4.5h9z"></path>
</symbol>
<symbol id="icon-arrow-right5" viewBox="0 0 16 16">
<path d="M6 12.5l4.5-4.5-4.5-4.5v9z"></path>
</symbol>
<symbol id="icon-arrow-down5" viewBox="0 0 16 16">
<path d="M3.5 6l4.5 4.5 4.5-4.5h-9z"></path>
</symbol>
<symbol id="icon-arrow-left5" viewBox="0 0 16 16">
<path d="M10 3.5l-4.5 4.5 4.5 4.5v-9z"></path>
</symbol>
<symbol id="icon-sort" viewBox="0 0 16 16">
<path d="M6 4v11h-2v-11h-2.5l3.5-3.5 3.5 3.5zM10 12v-11h2v11h2.5l-3.5 3.5-3.5-3.5z"></path>
</symbol>
<symbol id="icon-superscript" viewBox="0 0 16 16">
<path d="M12 3.219v0.781h2v1h-3v-2.281l2-0.938v-0.781h-2v-1h3v2.281zM10.563 4h-2.125l-2.938 2.938-2.938-2.938h-2.125l4 4-4 4h2.125l2.938-2.938 2.938 2.938h2.125l-4-4z"></path>
</symbol>
<symbol id="icon-subscript" viewBox="0 0 16 16">
<path d="M12 14.219v0.781h2v1h-3v-2.281l2-0.938v-0.781h-2v-1h3v2.281zM10.563 4h-2.125l-2.938 2.938-2.938-2.938h-2.125l4 4-4 4h2.125l2.938-2.938 2.938 2.938h2.125l-4-4z"></path>
</symbol>
<symbol id="icon-text-color" viewBox="0 0 16 16">
<path d="M5.032 13l0.9-3h4.137l0.9 3h1.775l-3-10h-3.488l-3 10h1.776zM7.432 5h1.137l0.9 3h-2.937l0.9-3z"></path>
</symbol>
<symbol id="icon-popout" viewBox="0 0 16 16">
<path d="M14.5 2h-9c-0.825 0-1.5 0.675-1.5 1.5v1.5h-2.5c-0.825 0-1.5 0.675-1.5 1.5v6c0 0.825 0.675 1.5 1.5 1.5h9c0.825 0 1.5-0.675 1.5-1.5v-1.5h2.5c0.825 0 1.5-0.675 1.5-1.5v-6c0-0.825-0.675-1.5-1.5-1.5zM11 12.5c0 0.271-0.229 0.5-0.5 0.5h-9c-0.271 0-0.5-0.229-0.5-0.5v-6c0-0.271 0.229-0.5 0.5-0.5h2.5v3.5c0 0.825 0.675 1.5 1.5 1.5h5.5v1.5zM15 9.5c0 0.271-0.229 0.5-0.5 0.5h-9c-0.271 0-0.5-0.229-0.5-0.5v-6c0-0.271 0.229-0.5 0.5-0.5h9c0.271 0 0.5 0.229 0.5 0.5v6z"></path>
</symbol>
<symbol id="icon-markup" viewBox="0 0 24 16">
<path d="M17 7v-2h-2v-2h-2v2h-2v-2h-2v2h-2v2h2v2h-2v2h2v2h2v-2h2v2h2v-2h2v-2h-2v-2h2zM13 9h-2v-2h2v2z"></path>
<path d="M8.707 1.707l-1.414-1.414-7.293 7.293v0.828l7.293 7.293 1.414-1.414-6.293-6.293z"></path>
<path d="M15.293 1.707l1.414-1.414 7.293 7.293v0.828l-7.293 7.293-1.414-1.414 6.293-6.293z"></path>
</symbol>
<symbol id="icon-regexp" viewBox="0 0 21 16">
<path d="M14.964 7.134c-0.809-0.467-1.915-0.854-2.865-1.134 0.95-0.28 2.056-0.667 2.865-1.134 0.478-0.276 0.642-0.888 0.366-1.366s-0.888-0.642-1.366-0.366c-0.809 0.467-1.697 1.232-2.415 1.914 0.232-0.963 0.45-2.114 0.45-3.048 0-0.552-0.448-1-1-1s-1 0.448-1 1c0 0.934 0.218 2.086 0.45 3.048-0.717-0.683-1.606-1.447-2.415-1.914-0.478-0.276-1.090-0.112-1.366 0.366s-0.112 1.090 0.366 1.366c0.809 0.467 1.915 0.854 2.865 1.134-0.95 0.28-2.056 0.667-2.865 1.134-0.478 0.276-0.642 0.888-0.366 1.366s0.888 0.642 1.366 0.366c0.809-0.467 1.697-1.232 2.415-1.914-0.232 0.963-0.45 2.114-0.45 3.048 0 0.552 0.448 1 1 1s1-0.448 1-1c0-0.934-0.218-2.086-0.45-3.048 0.717 0.683 1.606 1.447 2.415 1.914 0.478 0.276 1.090 0.112 1.366-0.366s0.112-1.090-0.366-1.366z"></path>
<path d="M7 13.5c0 0.828-0.672 1.5-1.5 1.5s-1.5-0.672-1.5-1.5c0-0.828 0.672-1.5 1.5-1.5s1.5 0.672 1.5 1.5z"></path>
<path d="M0 16l4-16h2l-4 16z"></path>
<path d="M15 16l4-16h2l-4 16z"></path>
</symbol>
<symbol id="icon-regexp2" viewBox="0 0 16 16">
<path d="M15.15 0h-11.235c-0.562 0-1.106 0.442-1.21 0.983l-2.688 14.034c-0.104 0.541 0.271 0.983 0.833 0.983h11.235c0.562 0 1.106-0.442 1.21-0.983l2.688-14.034c0.104-0.541-0.271-0.983-0.833-0.983zM11.964 9.134c0.478 0.276 0.642 0.888 0.366 1.366s-0.888 0.642-1.366 0.366c-0.809-0.467-1.697-1.232-2.415-1.914 0.232 0.963 0.45 2.114 0.45 3.048 0 0.552-0.448 1-1 1s-1-0.448-1-1c0-0.934 0.218-2.085 0.45-3.048-0.717 0.683-1.606 1.447-2.415 1.914-0.478 0.276-1.090 0.112-1.366-0.366s-0.112-1.090 0.366-1.366c0.809-0.467 1.915-0.854 2.865-1.134-0.95-0.28-2.056-0.667-2.865-1.134-0.478-0.276-0.642-0.888-0.366-1.366s0.888-0.642 1.366-0.366c0.809 0.467 1.697 1.232 2.415 1.914-0.232-0.963-0.45-2.114-0.45-3.048 0-0.552 0.448-1 1-1s1 0.448 1 1c0 0.934-0.218 2.086-0.45 3.048 0.717-0.683 1.606-1.447 2.415-1.914 0.478-0.276 1.090-0.112 1.366 0.366s0.112 1.090-0.366 1.366c-0.809 0.467-1.915 0.854-2.865 1.134 0.95 0.28 2.056 0.667 2.865 1.134z"></path>
</symbol>
<symbol id="icon-code" viewBox="0 0 20 16">
<path d="M4 5.5v-2c0-0.828 0.672-1.5 1.5-1.5h0.5v-2h-0.5c-1.933 0-3.5 1.567-3.5 3.5v2c0 0.828-0.672 1.5-1.5 1.5h-0.5v2h0.5c0.828 0 1.5 0.672 1.5 1.5v2c0 1.933 1.567 3.5 3.5 3.5h0.5v-2h-0.5c-0.828 0-1.5-0.672-1.5-1.5v-2c0-0.979-0.402-1.865-1.051-2.5 0.648-0.635 1.051-1.521 1.051-2.5z"></path>
<path d="M16 5.5v-2c0-0.828-0.672-1.5-1.5-1.5h-0.5v-2h0.5c1.933 0 3.5 1.567 3.5 3.5v2c0 0.828 0.672 1.5 1.5 1.5h0.5v2h-0.5c-0.828 0-1.5 0.672-1.5 1.5v2c0 1.933-1.567 3.5-3.5 3.5h-0.5v-2h0.5c0.828 0 1.5-0.672 1.5-1.5v-2c0-0.979 0.402-1.865 1.051-2.5-0.648-0.635-1.051-1.521-1.051-2.5z"></path>
<path d="M12 5.014c0 1.105-0.895 2-2 2s-2-0.895-2-2c0-1.105 0.895-2 2-2s2 0.895 2 2z"></path>
<path d="M10 7.986c-1.105 0-2 0.895-2 2 0 1.074 0.5 1.925 2.034 1.998-0.456 0.643-1.143 0.896-2.034 0.98v1.188c0 0 4 0.349 4-4.165-0.004-1.105-0.895-2-2-2z"></path>
</symbol>
<symbol id="icon-circle-css" viewBox="0 0 16 16">
<path d="M8 0c-4.418 0-8 3.582-8 8s3.582 8 8 8 8-3.582 8-8-3.582-8-8-8zM7 4.111c-0.552 0-1 0.497-1 1.111v1.111c0 0.92-0.672 1.667-1.5 1.667 0.828 0 1.5 0.746 1.5 1.667v1.111c0 0.614 0.448 1.111 1 1.111v1.111h-1c-1.103 0-2-0.997-2-2.222v-1.111c0-0.614-0.448-1.111-1-1.111v-1.111c0.552 0 1-0.497 1-1.111v-1.111c0-1.225 0.897-2.222 2-2.222h1v1.111zM13 8.556c-0.552 0-1 0.498-1 1.111v1.111c0 1.225-0.897 2.222-2 2.222h-1v-1.111c0.552 0 1-0.497 1-1.111v-1.111c0-0.92 0.672-1.667 1.5-1.667-0.828 0-1.5-0.746-1.5-1.667v-1.111c0-0.614-0.448-1.111-1-1.111v-1.111h1c1.103 0 2 0.997 2 2.222v1.111c0 0.614 0.448 1.111 1 1.111v1.111z"></path>
</symbol>
<symbol id="icon-libreoffice" viewBox="0 0 16 16">
<path d="M8.354 0.354c-0.194-0.194-0.579-0.354-0.854-0.354h-6c-0.275 0-0.5 0.225-0.5 0.5v15c0 0.275 0.225 0.5 0.5 0.5h12c0.275 0 0.5-0.225 0.5-0.5v-9c0-0.275-0.159-0.659-0.354-0.854l-5.293-5.293zM13 15h-11v-14h5.487c0.046 0.008 0.131 0.043 0.169 0.070l5.274 5.274c0.027 0.038 0.062 0.123 0.070 0.169v8.487zM13.5 0h-3c-0.275 0-0.341 0.159-0.146 0.354l3.293 3.293c0.194 0.194 0.354 0.129 0.354-0.146v-3c0-0.275-0.225-0.5-0.5-0.5z"></path>
</symbol>
</defs>
</svg>
