<svg aria-hidden="true" style="position: absolute; width: 0; height: 0; overflow: hidden;" version="1.1" xmlns="http://www.w3.org/2000/svg" xmlns:xlink="http://www.w3.org/1999/xlink">
<defs>
<symbol id="icon-sort-alphabetically-outline" viewBox="0 0 24 24">
<path d="M5.618 14h2.764l-1.382-2.764z"></path>
<path d="M21 14l2.4-3.2c0.686-0.915 0.795-2.119 0.284-3.142s-1.54-1.658-2.684-1.658h-6c-1.654 0-3 1.346-3 3 0 0.77 0.295 1.469 0.774 2h-0.274c-0.368 0-0.708 0.107-1.005 0.281l-1.811-3.623c-0.498-0.995-1.527-1.614-2.684-1.614s-2.186 0.619-2.684 1.614l-4 8c-0.358 0.717-0.416 1.53-0.163 2.291s0.788 1.376 1.504 1.735c0.414 0.207 0.879 0.316 1.342 0.316 1.143 0 2.171-0.635 2.684-1.657l0.171-0.343h2.291l0.171 0.342c0.512 1.023 1.54 1.658 2.684 1.658 0.464 0 0.928-0.109 1.342-0.316 0.243-0.122 0.455-0.282 0.652-0.458 0.54 0.488 1.246 0.774 2.006 0.774h6c1.654 0 3-1.346 3-3s-1.346-3-3-3zM11.447 17.895c-0.143 0.071-0.296 0.105-0.446 0.105-0.368 0-0.721-0.203-0.896-0.553l-0.723-1.447h-4.764l-0.724 1.447c-0.175 0.35-0.528 0.553-0.895 0.553-0.15 0-0.303-0.034-0.446-0.106-0.494-0.247-0.694-0.848-0.447-1.342l4-8c0.169-0.338 0.532-0.508 0.894-0.508s0.725 0.169 0.895 0.508l4 8c0.247 0.495 0.046 1.095-0.448 1.343zM12.5 14c-0.552 0-1-0.448-1-1s0.448-1 1-1h1c0.552 0 1 0.448 1 1s-0.448 1-1 1h-1zM21 18h-6c-0.379 0-0.725-0.214-0.895-0.553s-0.132-0.744 0.095-1.047l4.8-6.4h-4c-0.552 0-1-0.448-1-1s0.448-1 1-1h6c0.379 0 0.725 0.214 0.895 0.553s0.132 0.744-0.095 1.047l-4.8 6.4h4c0.552 0 1 0.448 1 1s-0.448 1-1 1z"></path>
</symbol>
<symbol id="icon-sort-numerically-outline" viewBox="0 0 24 24">
<path d="M23.292 12.134c0.138-0.445 0.208-0.91 0.208-1.384 0-2.619-2.131-4.75-4.75-4.75-1.396 0-2.685 0.61-3.573 1.632-0.021-0.021-0.035-0.046-0.056-0.067-0.973-0.974-2.349-1.533-3.776-1.533-1.422 0-2.794 0.556-3.77 1.525-0.264-0.431-0.644-0.813-1.122-1.108-0.474-0.294-1.032-0.449-1.613-0.449-0.482 0-0.955 0.109-1.369 0.316l-1.406 0.747c-1.442 0.721-2.051 2.526-1.313 4.002 0.272 0.543 0.714 0.982 1.248 1.272v4.663c0 1.654 1.346 3 3 3 0.766 0 1.458-0.297 1.989-0.771 0.54 0.487 1.25 0.771 2.011 0.771h5c0.778 0 1.479-0.305 2.010-0.795 0.796 0.5 1.731 0.795 2.74 0.795 2.895 0 5.25-2.355 5.25-5.25 0-0.922-0.25-1.825-0.708-2.616zM6 17c0 0.552-0.448 1-1 1s-1-0.448-1-1v-6.382c-0.144 0.072-0.306 0.106-0.471 0.106-0.401 0-0.813-0.203-0.988-0.553-0.247-0.494-0.031-1.095 0.463-1.342l1.361-0.724c0.141-0.070 0.307-0.105 0.475-0.105 0.199 0 0.4 0.050 0.561 0.149 0.294 0.183 0.599 0.504 0.599 0.851v8zM14 18h-5c-0.404 0-0.769-0.244-0.924-0.617-0.155-0.374-0.069-0.804 0.217-1.090l4-4c0.254-0.254 0.394-0.591 0.394-0.95s-0.14-0.695-0.394-0.949-0.601-0.381-0.949-0.381-0.696 0.127-0.952 0.382c-0.252 0.252-0.392 0.589-0.392 0.948 0 0.552-0.448 1-1 1s-1-0.448-1-1c0-0.894 0.348-1.733 0.98-2.364s1.498-0.947 2.364-0.947 1.731 0.316 2.363 0.948c0.632 0.631 0.979 1.471 0.979 2.363 0 0.893-0.348 1.733-0.979 2.364l-2.293 2.293h2.586c0.552 0 1 0.448 1 1s-0.448 1-1 1zM18.75 18c-1.792 0-3.25-1.458-3.25-3.25 0-0.552 0.448-1 1-1s1 0.448 1 1c0 0.689 0.561 1.25 1.25 1.25s1.25-0.561 1.25-1.25-0.561-1.25-1.25-1.25c-0.552 0-1-0.448-1-1s0.448-1 1-1c0.414 0 0.75-0.336 0.75-0.75s-0.336-0.75-0.75-0.75c-0.281 0-0.536 0.155-0.665 0.404-0.178 0.343-0.527 0.54-0.889 0.54-0.155 0-0.312-0.036-0.459-0.112-0.491-0.254-0.682-0.857-0.428-1.348 0.475-0.915 1.41-1.484 2.441-1.484 1.516 0 2.75 1.233 2.75 2.75 0 0.611-0.207 1.17-0.545 1.627 0.639 0.594 1.045 1.434 1.045 2.373 0 1.792-1.458 3.25-3.25 3.25z"></path>
</symbol>
<symbol id="icon-sort-alphabetically" viewBox="0 0 24 24">
<path d="M10.895 16.553l-4-8c-0.339-0.678-1.45-0.678-1.789 0l-4 8c-0.247 0.494-0.047 1.095 0.447 1.342 0.495 0.248 1.095 0.046 1.342-0.447l0.723-1.448h4.764l0.724 1.447c0.175 0.351 0.528 0.553 0.895 0.553 0.15 0 0.303-0.034 0.446-0.105 0.494-0.248 0.695-0.848 0.448-1.342zM4.618 14l1.382-2.764 1.382 2.764h-2.764z"></path>
<path d="M22 18h-6c-0.379 0-0.725-0.214-0.895-0.553s-0.132-0.744 0.095-1.047l4.8-6.4h-4c-0.552 0-1-0.448-1-1s0.448-1 1-1h6c0.379 0 0.725 0.214 0.895 0.553s0.132 0.744-0.095 1.047l-4.8 6.4h4c0.552 0 1 0.448 1 1s-0.448 1-1 1z"></path>
<path d="M14 14h-2c-0.552 0-1-0.448-1-1s0.448-1 1-1h2c0.552 0 1 0.448 1 1s-0.448 1-1 1z"></path>
</symbol>
<symbol id="icon-sort-numerically" viewBox="0 0 24 24">
<path d="M4 18c-0.552 0-1-0.448-1-1v-6.382l-0.553 0.276c-0.495 0.248-1.095 0.046-1.342-0.447s-0.046-1.094 0.448-1.342l2-1c0.31-0.155 0.678-0.139 0.973 0.044 0.294 0.183 0.474 0.504 0.474 0.851v8c0 0.552-0.448 1-1 1z"></path>
<path d="M13 18h-5c-0.404 0-0.769-0.244-0.924-0.617-0.155-0.374-0.069-0.804 0.217-1.090l4-4c0.254-0.254 0.394-0.591 0.394-0.95s-0.14-0.695-0.394-0.949c-0.508-0.508-1.39-0.508-1.9 0.001-0.253 0.252-0.393 0.589-0.393 0.948 0 0.552-0.448 1-1 1s-1-0.448-1-1c0-0.894 0.348-1.733 0.98-2.364 1.265-1.263 3.464-1.263 4.727 0.001 0.632 0.631 0.979 1.471 0.979 2.363 0 0.893-0.348 1.733-0.979 2.364l-2.293 2.293h2.586c0.552 0 1 0.448 1 1s-0.448 1-1 1z"></path>
<path d="M20.955 12.377c0.338-0.457 0.545-1.016 0.545-1.627 0-1.517-1.234-2.75-2.75-2.75-1.031 0-1.966 0.569-2.44 1.484-0.254 0.49-0.063 1.094 0.428 1.348s1.094 0.062 1.348-0.428c0.128-0.249 0.383-0.404 0.664-0.404 0.414 0 0.75 0.336 0.75 0.75s-0.336 0.75-0.75 0.75c-0.552 0-1 0.448-1 1s0.448 1 1 1c0.689 0 1.25 0.561 1.25 1.25s-0.561 1.25-1.25 1.25-1.25-0.561-1.25-1.25c0-0.552-0.448-1-1-1s-1 0.448-1 1c0 1.792 1.458 3.25 3.25 3.25s3.25-1.458 3.25-3.25c0-0.939-0.406-1.779-1.045-2.373z"></path>
</symbol>
<symbol id="icon-format_shapes" viewBox="0 0 24 24">
<path d="M10.688 12.75h2.625l-1.313-3.844zM13.734 14.016h-3.516l-0.703 1.969h-1.641l3.422-9h1.406l3.375 9h-1.594zM18.984 5.016h2.016v-2.016h-2.016v2.016zM21 21v-2.016h-2.016v2.016h2.016zM17.016 18.984v-1.969h1.969v-10.031h-1.969v-1.969h-10.031v1.969h-1.969v10.031h1.969v1.969h10.031zM5.016 21v-2.016h-2.016v2.016h2.016zM3 3v2.016h2.016v-2.016h-2.016zM23.016 6.984h-2.016v10.031h2.016v6h-6v-2.016h-10.031v2.016h-6v-6h2.016v-10.031h-2.016v-6h6v2.016h10.031v-2.016h6v6z"></path>
</symbol>
<symbol id="icon-segment" viewBox="0 0 24 24">
<path d="M9 12.984v-1.969h12v1.969h-12zM3 6h18v2.016h-18v-2.016zM9 18v-2.016h12v2.016h-12z"></path>
</symbol>
<symbol id="icon-account_tree" viewBox="0 0 24 24">
<path d="M21.984 11.016h-6.984v-3h-2.016v7.969h2.016v-3h6.984v8.016h-6.984v-3h-3.984v-9.984h-2.016v3h-6.984v-8.016h6.984v3h6v-3h6.984v8.016z"></path>
</symbol>
<symbol id="icon-add_chart" viewBox="0 0 24 24">
<path d="M18 18.984v-4.969h2.016v4.969q0 0.797-0.609 1.406t-1.406 0.609h-14.016q-0.797 0-1.383-0.609t-0.586-1.406v-13.969q0-0.797 0.586-1.406t1.383-0.609h12v2.016h-12v13.969h14.016zM20.016 6.984h3v2.016h-3v3h-2.016v-3h-3v-2.016h3v-3h2.016v3zM9.984 6.984h2.016v9.984h-2.016v-9.984zM14.016 12.984h1.969v3.984h-1.969v-3.984zM6 9.984h2.016v6.984h-2.016v-6.984z"></path>
</symbol>
<symbol id="icon-insights" viewBox="0 0 24 24">
<path d="M21 8.016q-0.703 0-1.195 0.398t-0.703 0.984-0.023 1.102l-3.563 3.563q-0.516-0.141-1.031 0l-2.531-2.531q0.141-0.563-0.047-1.148t-0.68-0.984-1.242-0.398q-0.703 0-1.195 0.398t-0.68 0.984-0.047 1.148l-4.547 4.547q-0.563-0.188-1.125 0.023t-0.984 0.703-0.422 1.195q0 0.844 0.586 1.43t1.43 0.586q0.703 0 1.195-0.422t0.703-0.984 0.023-1.125l4.547-4.547q0.516 0.141 1.031 0l2.578 2.531q-0.188 0.563 0 1.148t0.68 0.984 1.242 0.398q0.703 0 1.195-0.398t0.703-0.984 0.023-1.148l3.563-3.516q0.563 0.141 1.125-0.047t0.984-0.68 0.422-1.242q0-0.797-0.586-1.383t-1.43-0.586zM15 9l0.938-2.063 2.063-0.938-2.063-0.938-0.938-2.063-0.938 2.063-2.063 0.938 2.063 0.938zM3.516 11.016l0.469-2.016 2.016-0.516-2.016-0.469-0.469-2.016-0.516 2.016-2.016 0.469 2.016 0.516z"></path>
</symbol>
<symbol id="icon-legend_toggle" viewBox="0 0 24 24">
<path d="M20.016 15h-16.031v-2.016h16.031v2.016zM20.016 17.016h-16.031v1.969h16.031v-1.969zM15 11.016l5.016-3.563v-2.438l-5.016 3.516-5.016-3.516-6 3.656v2.344l5.953-3.609z"></path>
</symbol>
<symbol id="icon-online_prediction" viewBox="0 0 24 24">
<path d="M15.516 11.484q0 0.75-0.375 1.43t-0.891 1.289-0.891 1.172-0.375 1.125h-1.969q0-0.563-0.375-1.125t-0.891-1.172-0.891-1.289-0.375-1.43q0-0.938 0.492-1.734t1.266-1.266 1.758-0.469 1.758 0.469 1.266 1.266 0.492 1.734zM12.984 17.484h-1.969v1.5h1.969v-1.5zM21.984 12q0-2.063-0.773-3.891t-2.133-3.188l-1.078 1.078q1.172 1.125 1.828 2.695t0.656 3.305-0.656 3.305-1.828 2.695l1.078 1.078q1.359-1.359 2.133-3.188t0.773-3.891zM3.516 12q0-1.734 0.656-3.305t1.828-2.695l-1.078-1.078q-1.359 1.359-2.133 3.188t-0.773 3.891 0.773 3.891 2.133 3.188l1.078-1.078q-1.172-1.125-1.828-2.695t-0.656-3.305zM17.484 12q0 1.125-0.422 2.133t-1.172 1.758l1.078 1.078q0.938-0.984 1.477-2.25t0.539-2.719-0.539-2.719-1.477-2.25l-1.078 1.078q0.75 0.75 1.172 1.758t0.422 2.133zM7.031 16.969l1.078-1.078q-0.75-0.75-1.172-1.758t-0.422-2.133 0.422-2.133 1.172-1.758l-1.078-1.078q-0.938 0.984-1.477 2.25t-0.539 2.719 0.539 2.719 1.477 2.25z"></path>
</symbol>
<symbol id="icon-stacked_line_chart" viewBox="0 0 24 24">
<path d="M2.016 19.969l7.5-7.5 3.984 4.031 7.078-7.969 1.406 1.406-8.484 9.563-3.984-4.031-6 6zM3.516 15.469l6-6 3.984 4.031 8.484-9.563-1.406-1.406-7.078 7.969-3.984-4.031-7.5 7.5z"></path>
</symbol>
<symbol id="icon-alert-dark" viewBox="0 0 32 32">
<path d="M10.349 3.551c0.225-0.225 0.53-0.351 0.849-0.351h9.605c0.318 0 0.624 0.126 0.848 0.351l6.798 6.798c0.225 0.225 0.352 0.53 0.352 0.849v9.605c0 0.318-0.126 0.624-0.352 0.848l-6.798 6.798c-0.225 0.225-0.53 0.352-0.848 0.352h-9.605c-0.318 0-0.623-0.126-0.849-0.352l-6.798-6.798c-0.225-0.225-0.351-0.53-0.351-0.848v-9.605c0-0.318 0.126-0.623 0.351-0.849l6.798-6.798zM11.695 5.6l-6.095 6.095v8.611l6.095 6.095h8.611l6.095-6.095v-8.611l-6.095-6.095h-8.611zM16 10.16c0.663 0 1.2 0.537 1.2 1.2v4.64c0 0.663-0.537 1.2-1.2 1.2s-1.2-0.537-1.2-1.2v-4.64c0-0.663 0.537-1.2 1.2-1.2zM16 19.44c-0.663 0-1.2 0.537-1.2 1.2s0.537 1.2 1.2 1.2h0.012c0.663 0 1.2-0.537 1.2-1.2s-0.537-1.2-1.2-1.2h-0.012z"></path>
</symbol>
<symbol id="icon-alert-red" viewBox="0 0 32 32">
<path fill="#fd7972" style="fill: var(--color1, #fd7972)" d="M10.349 3.551c0.225-0.225 0.53-0.351 0.849-0.351h9.605c0.318 0 0.624 0.126 0.848 0.351l6.798 6.798c0.225 0.225 0.352 0.53 0.352 0.849v9.605c0 0.318-0.126 0.624-0.352 0.848l-6.798 6.798c-0.225 0.225-0.53 0.352-0.848 0.352h-9.605c-0.318 0-0.623-0.126-0.849-0.352l-6.798-6.798c-0.225-0.225-0.351-0.53-0.351-0.848v-9.605c0-0.318 0.126-0.623 0.351-0.849l6.798-6.798zM11.695 5.6l-6.095 6.095v8.611l6.095 6.095h8.611l6.095-6.095v-8.611l-6.095-6.095h-8.611zM16 10.16c0.663 0 1.2 0.537 1.2 1.2v4.64c0 0.663-0.537 1.2-1.2 1.2s-1.2-0.537-1.2-1.2v-4.64c0-0.663 0.537-1.2 1.2-1.2zM16 19.44c-0.663 0-1.2 0.537-1.2 1.2s0.537 1.2 1.2 1.2h0.012c0.663 0 1.2-0.537 1.2-1.2s-0.537-1.2-1.2-1.2h-0.012z"></path>
</symbol>
<symbol id="icon-anomalies" viewBox="0 0 32 32">
<path fill="#8a9099" style="fill: var(--color2, #8a9099)" d="M10.349 3.551c0.225-0.225 0.53-0.351 0.849-0.351h9.605c0.318 0 0.624 0.126 0.848 0.351l6.798 6.798c0.225 0.225 0.352 0.53 0.352 0.849v9.605c0 0.318-0.126 0.624-0.352 0.848l-6.798 6.798c-0.225 0.225-0.53 0.352-0.848 0.352h-9.605c-0.318 0-0.623-0.126-0.849-0.352l-6.798-6.798c-0.225-0.225-0.351-0.53-0.351-0.848v-9.605c0-0.318 0.126-0.623 0.351-0.849l6.798-6.798zM11.695 5.6l-6.095 6.095v8.611l6.095 6.095h8.611l6.095-6.095v-8.611l-6.095-6.095h-8.611zM16 10.16c0.663 0 1.2 0.537 1.2 1.2v4.64c0 0.663-0.537 1.2-1.2 1.2s-1.2-0.537-1.2-1.2v-4.64c0-0.663 0.537-1.2 1.2-1.2zM16 19.44c-0.663 0-1.2 0.537-1.2 1.2s0.537 1.2 1.2 1.2h0.012c0.663 0 1.2-0.537 1.2-1.2s-0.537-1.2-1.2-1.2h-0.012z"></path>
</symbol>
<symbol id="icon-api" viewBox="0 0 32 32">
<path fill="none" stroke="#8a9099" style="stroke: var(--color2, #8a9099)" stroke-linejoin="round" stroke-linecap="round" stroke-miterlimit="4" stroke-width="2.6667" d="M20.741 8.099c1.745 0 3.16 1.415 3.16 3.16M30.222 11.259c0 5.236-4.245 9.482-9.481 9.482-0.958 0-1.883-0.142-2.754-0.406l-3.567 3.567h-3.16v3.161h-3.16v3.161h-4.741c-0.873 0-1.58-0.708-1.58-1.58v-4.086c0-0.419 0.167-0.821 0.463-1.117l9.425-9.425c-0.264-0.872-0.406-1.796-0.406-2.754 0-5.236 4.245-9.481 9.482-9.481s9.481 4.245 9.481 9.481z"></path>
</symbol>
<symbol id="icon-dashboard" viewBox="0 0 32 32">
<path fill="#8a9099" style="fill: var(--color2, #8a9099)" d="M26.4 20h-6.4v6.4h6.4v-6.4zM20 17.6h6.4c1.325 0 2.4 1.075 2.4 2.4v6.4c0 1.325-1.075 2.4-2.4 2.4h-6.4c-1.325 0-2.4-1.075-2.4-2.4v-6.4c0-1.325 1.075-2.4 2.4-2.4z"></path>
<path fill="#8a9099" style="fill: var(--color2, #8a9099)" d="M12 5.6v6.4h-6.4v-6.4h6.4zM26.4 5.6v6.4h-6.4v-6.4h6.4zM12 20h-6.4v6.4h6.4v-6.4zM12 3.2h-6.4c-1.325 0-2.4 1.074-2.4 2.4v6.4c0 1.325 1.075 2.4 2.4 2.4h6.4c1.325 0 2.4-1.075 2.4-2.4v-6.4c0-1.325-1.075-2.4-2.4-2.4zM26.4 3.2h-6.4c-1.325 0-2.4 1.074-2.4 2.4v6.4c0 1.325 1.075 2.4 2.4 2.4h6.4c1.325 0 2.4-1.075 2.4-2.4v-6.4c0-1.325-1.075-2.4-2.4-2.4zM5.6 17.6h6.4c1.325 0 2.4 1.075 2.4 2.4v6.4c0 1.325-1.075 2.4-2.4 2.4h-6.4c-1.325 0-2.4-1.075-2.4-2.4v-6.4c0-1.325 1.075-2.4 2.4-2.4z"></path>
</symbol>
<symbol id="icon-filter" viewBox="0 0 32 32">
<path d="M5.788 20.024c-0.583 0-1.056 0.547-1.056 1.221s0.473 1.221 1.056 1.221h7.94c0.583 0 1.056-0.547 1.056-1.221s-0.473-1.221-1.056-1.221h-7.94zM26.204 22.466h-6.884v2.713c0 0.674-0.473 1.221-1.056 1.221s-1.056-0.547-1.056-1.221v-3.895c-0-0.013-0-0.026-0-0.039s0-0.026 0-0.039v-3.895c0-0.674 0.473-1.221 1.056-1.221s1.056 0.547 1.056 1.221v2.713h6.884c0.583 0 1.056 0.547 1.056 1.221s-0.473 1.221-1.056 1.221zM14.94 10.755c0-0.674 0.473-1.221 1.056-1.221h10.209c0.583 0 1.056 0.547 1.056 1.221s-0.473 1.221-1.056 1.221h-10.209c-0.583 0-1.056-0.547-1.056-1.221zM5.788 9.534c-0.583 0-1.056 0.547-1.056 1.221s0.473 1.221 1.056 1.221h4.615v2.713c0 0.674 0.473 1.221 1.056 1.221s1.056-0.547 1.056-1.221v-3.892c0-0.014 0.001-0.028 0.001-0.042s-0-0.028-0.001-0.042v-3.892c0-0.674-0.473-1.221-1.056-1.221s-1.056 0.547-1.056 1.221v2.713h-4.615z"></path>
</symbol>
<symbol id="icon-key" viewBox="0 0 32 32">
<path d="M22.004 0c-5.523 0-10 4.478-10 10 0 1.285 0.269 2.501 0.713 3.629l-12.149 12.148c-0.351 0.352-0.568 0.686-0.568 1.223v3c0 1.070 0.929 2 2 2h3c0.536 0 0.875-0.215 1.226-0.564l1.435-1.436h2.343c1.104 0 2-0.896 2-2v-2h2c1.104 0 2-0.896 2-2v-2.344l2.369-2.371c1.129 0.445 2.344 0.715 3.631 0.715 5.521 0 10-4.478 10-10s-4.479-10-10-10zM22.004 18c-1.48 0-2.852-0.43-4.041-1.132l-0.344 0.343-3.030 3.031c-0.375 0.375-0.586 0.883-0.586 1.414v2.344h-2c-1.104 0-2 0.895-2 2v2h-2.342c-0.53 0-1.039 0.211-1.414 0.586l-1.418 1.418-2.826-0.004-0.003-2.85 11.665-11.644c0 0 0 0.001 0.001 0.002l1.469-1.469c-0.702-1.189-1.132-2.56-1.132-4.040 0-4.418 3.583-8 8-8s8 3.582 8 8-3.581 8.001-7.999 8.001zM27.82 8.239c-1.121-1.562-2.486-2.925-4.055-4.054-0.255-0.185-0.585-0.231-0.882-0.127-1.389 0.489-2.34 1.439-2.826 2.828-0.037 0.104-0.055 0.212-0.055 0.319 0 0.199 0.062 0.396 0.182 0.563 1.125 1.564 2.488 2.928 4.053 4.053 0.256 0.184 0.584 0.231 0.881 0.128 1.391-0.486 2.342-1.438 2.83-2.828 0.037-0.104 0.055-0.212 0.055-0.319-0.001-0.199-0.064-0.396-0.183-0.563zM24.82 11.010c-1.478-1.063-2.765-2.35-3.82-3.793 0.387-1.103 1.111-1.827 2.182-2.221 1.479 1.065 2.764 2.349 3.816 3.811-0.391 1.095-1.113 1.815-2.178 2.203z"></path>
</symbol>
<symbol id="icon-clock" viewBox="0 0 16 16">
<path d="M10.293 11.707l-3.293-3.293v-4.414h2v3.586l2.707 2.707zM8 0c-4.418 0-8 3.582-8 8s3.582 8 8 8 8-3.582 8-8-3.582-8-8-8zM8 14c-3.314 0-6-2.686-6-6s2.686-6 6-6c3.314 0 6 2.686 6 6s-2.686 6-6 6z"></path>
</symbol>
<symbol id="icon-lamp7" viewBox="0 0 16 16">
<path d="M5 10c-0.004 1.657 1.343 2 3 2s2.996-0.343 3-2 1.996-2.239 2-5-2.239-5-5-5c-2.761 0-4.996 2.239-5 5s2.004 3.343 2 5z"></path>
<path d="M8 13c-1.234 0-2.259-0.274-2.463-1.516-0.024 0.168-0.037 0.34-0.037 0.516 0 1.657 1.119 2 2.5 2s2.5-0.343 2.5-2c0-0.176-0.013-0.348-0.037-0.516-0.204 1.241-1.229 1.516-2.463 1.516z"></path>
<path d="M8 15c-0.987 0-1.807-0.274-1.97-1.516-0.019 0.168-0.030 0.34-0.030 0.516 0 1.657 0.895 2 2 2s2-0.343 2-2c0-0.176-0.010-0.348-0.030-0.516-0.163 1.241-0.983 1.516-1.97 1.516z"></path>
</symbol>
<symbol id="icon-lamp8" viewBox="0 0 16 16">
<path d="M8 1c1.070 0 2.076 0.417 2.833 1.175 0.754 0.755 1.169 1.758 1.167 2.824-0.002 1.23-0.485 1.888-0.996 2.585-0.47 0.64-1.002 1.365-1.004 2.414-0.001 0.51-0.176 0.647-0.355 0.744-0.318 0.172-0.871 0.259-1.645 0.259-1.189 0-1.645-0.208-1.819-0.382-0.045-0.045-0.182-0.182-0.181-0.616 0.003-1.053-0.533-1.78-1.005-2.422-0.512-0.696-0.996-1.353-0.995-2.579 0.002-1.070 0.418-2.075 1.173-2.83s1.759-1.171 2.827-1.171zM8 0c-2.761 0-4.996 2.239-5 5s2.004 3.343 2 5 1.343 2 3 2c1.657 0 2.996-0.343 3-2s1.996-2.239 2-5-2.239-5-5-5v0z"></path>
<path d="M8 13c-1.234 0-2.259-0.274-2.463-1.516-0.024 0.168-0.037 0.34-0.037 0.516 0 1.657 1.119 2 2.5 2s2.5-0.343 2.5-2c0-0.176-0.013-0.348-0.037-0.516-0.204 1.241-1.229 1.516-2.463 1.516z"></path>
<path d="M8 15c-0.987 0-1.807-0.274-1.97-1.516-0.019 0.168-0.030 0.34-0.030 0.516 0 1.657 0.895 2 2 2s2-0.343 2-2c0-0.176-0.010-0.348-0.030-0.516-0.163 1.241-0.983 1.516-1.97 1.516z"></path>
</symbol>
<symbol id="icon-cube2" viewBox="0 0 16 16">
<path d="M7.5 1l-7.5 3v7l7.5 4 7.5-4v-7l-7.5-3zM7 13.6l-6-3.2v-4.867l6 3.2v4.867zM1.297 4.558l6.203-2.481 6.203 2.481-6.203 3.308-6.203-3.308zM14 10.4l-6 3.2v-4.867l6-3.2v4.867z"></path>
</symbol>
<symbol id="icon-cube3" viewBox="0 0 16 16">
<path d="M7.625 0h-0.251l-7.375 3.951v7.129l7.348 4.921h0.304l7.348-4.921v-7.129l-7.375-3.951zM13.441 4.25l-2.391 1.281-2.657-1.423 2.391-1.281 2.657 1.423zM7.5 1.067l2.391 1.281-2.391 1.281-2.391-1.281 2.391-1.281zM4.215 2.827l2.391 1.281-2.657 1.423-2.391-1.281 2.657-1.423zM3.079 11.938l-2.079-1.393v-2.424l2.079 1.3v2.517zM3.079 8.426l-2.079-1.3v-2.042l2.079 1.114v2.227zM7 14.563l-3.077-2.060v-2.554l3.077 1.923v2.692zM7 10.877l-3.077-1.923v-2.303l3.077 1.648v2.577zM7.5 7.433l-2.657-1.423 2.657-1.423 2.657 1.423-2.657 1.423zM11.077 12.503l-3.077 2.060v-2.692l3.077-1.923v2.554zM11.077 8.954l-3.077 1.923v-2.577l3.077-1.648v2.303zM14 10.546l-2.079 1.392v-2.517l2.079-1.3v2.424zM14 7.127l-2.079 1.3v-2.227l2.079-1.114v2.042z"></path>
</symbol>
<symbol id="icon-puzzle3" viewBox="0 0 16 16">
<path d="M15.692 7.254l-1.694-1.694c-1.304-1.305 0.365-1.201 1.335-2.070 0.005-0.004 0.010-0.009 0.014-0.013 0.022-0.021 0.045-0.041 0.066-0.063 0.781-0.781 0.781-2.047 0-2.828s-2.047-0.781-2.828 0c-0.022 0.022-0.043 0.044-0.063 0.066-0.004 0.005-0.009 0.010-0.013 0.014-0.87 0.969-0.765 2.639-2.071 1.334l-1.693-1.693c-0.41-0.41-1.081-0.41-1.492 0l-1.692 1.692c-0 0-0 0-0 0-1.306 1.306-1.202-0.364-2.071-1.333-0.004-0.005-0.009-0.010-0.013-0.014-0.021-0.022-0.041-0.045-0.063-0.066-0.781-0.781-2.047-0.781-2.828 0s-0.781 2.047 0 2.828c0.022 0.022 0.044 0.043 0.066 0.063 0.005 0.004 0.010 0.009 0.014 0.013 0.97 0.87 2.64 0.765 1.333 2.071-0 0-0 0-0 0l-1.692 1.692c-0.41 0.41-0.41 1.081 0 1.492l1.692 1.692c0 0 0 0 0 0 1.306 1.306-0.364 1.202-1.333 2.071-0.005 0.004-0.010 0.009-0.014 0.013-0.022 0.021-0.045 0.041-0.066 0.063-0.781 0.781-0.781 2.047 0 2.828s2.047 0.781 2.828 0c0.022-0.022 0.043-0.044 0.063-0.066 0.004-0.005 0.009-0.010 0.013-0.014 0.87-0.969 0.765-2.639 2.071-1.334l1.693 1.693c0.41 0.41 1.081 0.41 1.492 0l1.966-1.966c0.783-1.007-0.701-0.983-1.592-1.783-0.005-0.004-0.010-0.009-0.014-0.013-0.023-0.021-0.045-0.041-0.066-0.063-0.781-0.781-0.781-2.047 0-2.828s2.047-0.781 2.828 0c0.022 0.022 0.043 0.044 0.063 0.066 0.004 0.005 0.009 0.010 0.013 0.014 0.8 0.892 0.776 2.376 1.783 1.592l1.966-1.966c0.41-0.41 0.41-1.081 0-1.492z"></path>
</symbol>
<symbol id="icon-puzzle4" viewBox="0 0 16 16">
<path d="M8 16c0.42 0 0.815-0.163 1.11-0.459l1.846-1.846 0.023-0.029c0.104-0.134 0.422-0.543 0.304-1.037-0.123-0.513-0.596-0.736-1.054-0.952-0.283-0.133-0.576-0.271-0.795-0.467l-0.011-0.010c-0.014-0.013-0.028-0.026-0.042-0.040-0.49-0.49-0.49-1.288 0-1.779 0.238-0.238 0.553-0.368 0.889-0.368s0.652 0.131 0.889 0.368c0.014 0.014 0.027 0.028 0.043 0.045l0.006 0.007c0.197 0.22 0.335 0.513 0.469 0.797 0.226 0.481 0.508 1.079 1.17 1.079 0 0 0 0 0 0 0.265 0 0.533-0.108 0.818-0.33l0.029-0.023 1.846-1.846c0.612-0.612 0.612-1.608-0-2.221l-1.568-1.568c-0.1-0.1-0.164-0.176-0.205-0.23 0.095-0.053 0.227-0.115 0.333-0.165 0.327-0.154 0.735-0.346 1.082-0.658 0.006-0.005 0.012-0.011 0.018-0.017 0.030-0.028 0.057-0.053 0.081-0.077 0.462-0.462 0.716-1.076 0.716-1.729s-0.254-1.267-0.716-1.729c-0.462-0.462-1.076-0.716-1.729-0.716s-1.267 0.254-1.729 0.716c-0.024 0.024-0.048 0.050-0.074 0.078l-0.018 0.020c-0.313 0.349-0.505 0.756-0.659 1.084-0.050 0.106-0.112 0.238-0.165 0.333-0.055-0.041-0.131-0.105-0.231-0.206l-1.567-1.567c-0.296-0.296-0.69-0.459-1.11-0.459s-0.814 0.163-1.11 0.459l-1.567 1.567c-0.1 0.1-0.177 0.165-0.231 0.206-0.053-0.095-0.115-0.227-0.165-0.333-0.154-0.327-0.346-0.735-0.659-1.084-0.006-0.006-0.011-0.013-0.016-0.017-0.028-0.031-0.053-0.057-0.077-0.081-0.462-0.462-1.076-0.716-1.729-0.716s-1.267 0.254-1.729 0.716c-0.953 0.953-0.953 2.505-0 3.458 0.024 0.024 0.049 0.048 0.079 0.076 0.006 0.006 0.012 0.011 0.019 0.018 0.349 0.313 0.756 0.505 1.084 0.659 0.106 0.050 0.238 0.112 0.333 0.165-0.041 0.055-0.106 0.131-0.206 0.231l-1.567 1.567c-0.296 0.296-0.459 0.69-0.459 1.11s0.163 0.815 0.459 1.11l1.567 1.567c0.1 0.1 0.165 0.177 0.206 0.231-0.095 0.053-0.227 0.115-0.333 0.165-0.327 0.154-0.735 0.346-1.084 0.659l-0.018 0.016c-0.031 0.028-0.057 0.053-0.080 0.077-0.953 0.953-0.953 2.505 0 3.458 0.462 0.462 1.076 0.716 1.729 0.716s1.267-0.254 1.729-0.716c0.024-0.024 0.048-0.049 0.075-0.079 0.005-0.005 0.010-0.010 0.016-0.017l0.002-0.002c0.313-0.349 0.505-0.756 0.659-1.084 0.050-0.106 0.112-0.238 0.165-0.333 0.055 0.041 0.131 0.105 0.231 0.206l1.567 1.567c0.296 0.296 0.69 0.459 1.11 0.459zM5.022 12.517c-0.662 0-0.944 0.599-1.17 1.079-0.133 0.283-0.271 0.576-0.468 0.796l-0.009 0.010c-0.013 0.014-0.026 0.028-0.040 0.042-0.238 0.238-0.553 0.368-0.889 0.368s-0.652-0.131-0.889-0.368c-0.49-0.49-0.49-1.288 0-1.779 0.014-0.014 0.028-0.027 0.041-0.039l0.012-0.011c0.219-0.196 0.512-0.334 0.795-0.467 0.454-0.214 0.969-0.456 1.065-1.008 0.092-0.527-0.275-0.973-0.604-1.303l-1.567-1.567c-0.072-0.072-0.111-0.168-0.111-0.271s0.039-0.199 0.111-0.271l1.526-1.526 0.026-0.017 0.037-0.046c0.324-0.327 0.672-0.765 0.582-1.281-0.096-0.552-0.611-0.794-1.065-1.008-0.284-0.134-0.577-0.272-0.796-0.468l-0.010-0.009c-0.014-0.013-0.028-0.026-0.042-0.040-0.49-0.49-0.49-1.288-0-1.779 0.238-0.238 0.553-0.368 0.889-0.368s0.652 0.131 0.889 0.369c0.014 0.014 0.027 0.028 0.041 0.044l0.007 0.008c0.197 0.22 0.335 0.513 0.469 0.797 0.226 0.481 0.508 1.079 1.17 1.079 0 0 0 0 0 0 0.359-0 0.708-0.188 1.131-0.609l1.576-1.576c0.072-0.072 0.168-0.111 0.271-0.111s0.199 0.039 0.271 0.111l1.567 1.567c0.427 0.427 0.779 0.618 1.14 0.618 0 0 0 0 0 0 0.662-0 0.944-0.599 1.17-1.079 0.134-0.284 0.272-0.577 0.467-0.795l0.010-0.011c0.013-0.014 0.027-0.029 0.040-0.042 0.238-0.238 0.553-0.368 0.889-0.368s0.652 0.131 0.889 0.368c0.238 0.238 0.368 0.553 0.368 0.889s-0.131 0.652-0.369 0.89c-0.013 0.014-0.027 0.026-0.041 0.039l-0.010 0.009c-0.22 0.197-0.513 0.335-0.797 0.469-0.454 0.214-0.969 0.456-1.065 1.008-0.092 0.527 0.274 0.972 0.603 1.302l1.568 1.568c0.147 0.147 0.147 0.395 0 0.541l-1.785 1.785c-0.053-0.095-0.115-0.226-0.165-0.332-0.154-0.327-0.346-0.734-0.661-1.085l-0.014-0.016c-0.027-0.030-0.052-0.056-0.077-0.081-0.462-0.462-1.076-0.716-1.729-0.716s-1.267 0.254-1.729 0.716c-0.953 0.953-0.953 2.505-0.001 3.457 0.024 0.025 0.050 0.049 0.082 0.078l0.017 0.016c0.349 0.313 0.756 0.505 1.084 0.659 0.106 0.050 0.237 0.112 0.332 0.165l-1.785 1.785c-0.072 0.072-0.168 0.111-0.271 0.111s-0.199-0.039-0.271-0.111l-1.567-1.567c-0.427-0.427-0.779-0.618-1.14-0.618z"></path>
</symbol>
<symbol id="icon-grid5" viewBox="0 0 16 16">
<path d="M14 6h-2c-0.55 0-1 0.45-1 1v2c0 0.55 0.45 1 1 1h2c0.55 0 1-0.45 1-1v-2c0-0.55-0.45-1-1-1zM14 9h-2v-2h2v2z"></path>
<path d="M9 6h-2c-0.55 0-1 0.45-1 1v2c0 0.55 0.45 1 1 1h2c0.55 0 1-0.45 1-1v-2c0-0.55-0.45-1-1-1zM9 9h-2v-2h2v2z"></path>
<path d="M4 6h-2c-0.55 0-1 0.45-1 1v2c0 0.55 0.45 1 1 1h2c0.55 0 1-0.45 1-1v-2c0-0.55-0.45-1-1-1zM4 9h-2v-2h2v2z"></path>
<path d="M14 1h-2c-0.55 0-1 0.45-1 1v2c0 0.55 0.45 1 1 1h2c0.55 0 1-0.45 1-1v-2c0-0.55-0.45-1-1-1zM14 4h-2v-2h2v2z"></path>
<path d="M9 1h-2c-0.55 0-1 0.45-1 1v2c0 0.55 0.45 1 1 1h2c0.55 0 1-0.45 1-1v-2c0-0.55-0.45-1-1-1zM9 4h-2v-2h2v2z"></path>
<path d="M4 1h-2c-0.55 0-1 0.45-1 1v2c0 0.55 0.45 1 1 1h2c0.55 0 1-0.45 1-1v-2c0-0.55-0.45-1-1-1zM4 4h-2v-2h2v2z"></path>
<path d="M14 11h-2c-0.55 0-1 0.45-1 1v2c0 0.55 0.45 1 1 1h2c0.55 0 1-0.45 1-1v-2c0-0.55-0.45-1-1-1zM14 14h-2v-2h2v2z"></path>
<path d="M9 11h-2c-0.55 0-1 0.45-1 1v2c0 0.55 0.45 1 1 1h2c0.55 0 1-0.45 1-1v-2c0-0.55-0.45-1-1-1zM9 14h-2v-2h2v2z"></path>
<path d="M4 11h-2c-0.55 0-1 0.45-1 1v2c0 0.55 0.45 1 1 1h2c0.55 0 1-0.45 1-1v-2c0-0.55-0.45-1-1-1zM4 14h-2v-2h2v2z"></path>
</symbol>
<symbol id="icon-lan3" viewBox="0 0 20 16">
<path d="M13 11.5l1.5 1.5 5-5-5-5-1.5 1.5 3.5 3.5-3.5 3.5z"></path>
<path d="M7 4.5l-1.5-1.5-5 5 5 5 1.5-1.5-3.5-3.5 3.5-3.5z"></path>
<path d="M8 8c0 0.552-0.448 1-1 1s-1-0.448-1-1c0-0.552 0.448-1 1-1s1 0.448 1 1z"></path>
<path d="M11 8c0 0.552-0.448 1-1 1s-1-0.448-1-1c0-0.552 0.448-1 1-1s1 0.448 1 1z"></path>
<path d="M14 8c0 0.552-0.448 1-1 1s-1-0.448-1-1c0-0.552 0.448-1 1-1s1 0.448 1 1z"></path>
</symbol>
<symbol id="icon-menu3" viewBox="0 0 16 16">
<path d="M1 3h14v3h-14zM1 7h14v3h-14zM1 11h14v3h-14z"></path>
</symbol>
<symbol id="icon-menu7" viewBox="0 0 16 16">
<path d="M1 3h14v2h-14v-2z"></path>
<path d="M1 7h14v2h-14v-2z"></path>
<path d="M1 11h14v2h-14v-2z"></path>
</symbol>
<symbol id="icon-download4" viewBox="0 0 16 16">
<path d="M14 11v2h-12v-2h-2v4h16v-4zM12 6h-3v-5h-2v5h-3l4 6z"></path>
</symbol>
<symbol id="icon-download7" viewBox="0 0 16 16">
<path d="M14 8h-2.5l-3.5 3.5-3.5-3.5h-2.5l-2 4v1h16v-1l-2-4zM0 14h16v1h-16v-1zM9 5v-4h-2v4h-3.5l4.5 4.5 4.5-4.5h-3.5z"></path>
</symbol>
<symbol id="icon-move" viewBox="0 0 16 16">
<path d="M16 8l-4-3v2h-3v-3h2l-3-4-3 4h2v3h-3v-2l-4 3 4 3v-2h3v3h-2l3 4 3-4h-2v-3h3v2z"></path>
</symbol>
<symbol id="icon-notification" viewBox="0 0 16 16">
<path d="M8 1.5c-1.736 0-3.369 0.676-4.596 1.904s-1.904 2.86-1.904 4.596c0 1.736 0.676 3.369 1.904 4.596s2.86 1.904 4.596 1.904c1.736 0 3.369-0.676 4.596-1.904s1.904-2.86 1.904-4.596c0-1.736-0.676-3.369-1.904-4.596s-2.86-1.904-4.596-1.904zM8 0v0c4.418 0 8 3.582 8 8s-3.582 8-8 8c-4.418 0-8-3.582-8-8s3.582-8 8-8zM7 11h2v2h-2zM7 3h2v6h-2z"></path>
</symbol>
<symbol id="icon-checkmark4" viewBox="0 0 16 16">
<path d="M15.36 1c-5.227 3.956-10.239 9.247-10.239 9.247l-3.612-3.247-1.509 1.537c1.485 1.395 4.924 5.081 6.088 6.463 3.275-5.472 6.679-9.552 9.912-13.284l-0.64-0.716z"></path>
</symbol>
<symbol id="icon-sort" viewBox="0 0 16 16">
<path d="M6 4v11h-2v-11h-2.5l3.5-3.5 3.5 3.5zM10 12v-11h2v11h2.5l-3.5 3.5-3.5-3.5z"></path>
</symbol>
<symbol id="icon-superscript" viewBox="0 0 16 16">
<path d="M12 3.219v0.781h2v1h-3v-2.281l2-0.938v-0.781h-2v-1h3v2.281zM10.563 4h-2.125l-2.938 2.938-2.938-2.938h-2.125l4 4-4 4h2.125l2.938-2.938 2.938 2.938h2.125l-4-4z"></path>
</symbol>
<symbol id="icon-subscript" viewBox="0 0 16 16">
<path d="M12 14.219v0.781h2v1h-3v-2.281l2-0.938v-0.781h-2v-1h3v2.281zM10.563 4h-2.125l-2.938 2.938-2.938-2.938h-2.125l4 4-4 4h2.125l2.938-2.938 2.938 2.938h2.125l-4-4z"></path>
</symbol>
<symbol id="icon-text-color" viewBox="0 0 16 16">
<path d="M5.032 13l0.9-3h4.137l0.9 3h1.775l-3-10h-3.488l-3 10h1.776zM7.432 5h1.137l0.9 3h-2.937l0.9-3z"></path>
</symbol>
<symbol id="icon-popout" viewBox="0 0 16 16">
<path d="M14.5 2h-9c-0.825 0-1.5 0.675-1.5 1.5v1.5h-2.5c-0.825 0-1.5 0.675-1.5 1.5v6c0 0.825 0.675 1.5 1.5 1.5h9c0.825 0 1.5-0.675 1.5-1.5v-1.5h2.5c0.825 0 1.5-0.675 1.5-1.5v-6c0-0.825-0.675-1.5-1.5-1.5zM11 12.5c0 0.271-0.229 0.5-0.5 0.5h-9c-0.271 0-0.5-0.229-0.5-0.5v-6c0-0.271 0.229-0.5 0.5-0.5h2.5v3.5c0 0.825 0.675 1.5 1.5 1.5h5.5v1.5zM15 9.5c0 0.271-0.229 0.5-0.5 0.5h-9c-0.271 0-0.5-0.229-0.5-0.5v-6c0-0.271 0.229-0.5 0.5-0.5h9c0.271 0 0.5 0.229 0.5 0.5v6z"></path>
</symbol>
<symbol id="icon-markup" viewBox="0 0 24 16">
<path d="M17 7v-2h-2v-2h-2v2h-2v-2h-2v2h-2v2h2v2h-2v2h2v2h2v-2h2v2h2v-2h2v-2h-2v-2h2zM13 9h-2v-2h2v2z"></path>
<path d="M8.707 1.707l-1.414-1.414-7.293 7.293v0.828l7.293 7.293 1.414-1.414-6.293-6.293z"></path>
<path d="M15.293 1.707l1.414-1.414 7.293 7.293v0.828l-7.293 7.293-1.414-1.414 6.293-6.293z"></path>
</symbol>
<symbol id="icon-regexp" viewBox="0 0 21 16">
<path d="M14.964 7.134c-0.809-0.467-1.915-0.854-2.865-1.134 0.95-0.28 2.056-0.667 2.865-1.134 0.478-0.276 0.642-0.888 0.366-1.366s-0.888-0.642-1.366-0.366c-0.809 0.467-1.697 1.232-2.415 1.914 0.232-0.963 0.45-2.114 0.45-3.048 0-0.552-0.448-1-1-1s-1 0.448-1 1c0 0.934 0.218 2.086 0.45 3.048-0.717-0.683-1.606-1.447-2.415-1.914-0.478-0.276-1.090-0.112-1.366 0.366s-0.112 1.090 0.366 1.366c0.809 0.467 1.915 0.854 2.865 1.134-0.95 0.28-2.056 0.667-2.865 1.134-0.478 0.276-0.642 0.888-0.366 1.366s0.888 0.642 1.366 0.366c0.809-0.467 1.697-1.232 2.415-1.914-0.232 0.963-0.45 2.114-0.45 3.048 0 0.552 0.448 1 1 1s1-0.448 1-1c0-0.934-0.218-2.086-0.45-3.048 0.717 0.683 1.606 1.447 2.415 1.914 0.478 0.276 1.090 0.112 1.366-0.366s0.112-1.090-0.366-1.366z"></path>
<path d="M7 13.5c0 0.828-0.672 1.5-1.5 1.5s-1.5-0.672-1.5-1.5c0-0.828 0.672-1.5 1.5-1.5s1.5 0.672 1.5 1.5z"></path>
<path d="M0 16l4-16h2l-4 16z"></path>
<path d="M15 16l4-16h2l-4 16z"></path>
</symbol>
<symbol id="icon-regexp2" viewBox="0 0 16 16">
<path d="M15.15 0h-11.235c-0.562 0-1.106 0.442-1.21 0.983l-2.688 14.034c-0.104 0.541 0.271 0.983 0.833 0.983h11.235c0.562 0 1.106-0.442 1.21-0.983l2.688-14.034c0.104-0.541-0.271-0.983-0.833-0.983zM11.964 9.134c0.478 0.276 0.642 0.888 0.366 1.366s-0.888 0.642-1.366 0.366c-0.809-0.467-1.697-1.232-2.415-1.914 0.232 0.963 0.45 2.114 0.45 3.048 0 0.552-0.448 1-1 1s-1-0.448-1-1c0-0.934 0.218-2.085 0.45-3.048-0.717 0.683-1.606 1.447-2.415 1.914-0.478 0.276-1.090 0.112-1.366-0.366s-0.112-1.090 0.366-1.366c0.809-0.467 1.915-0.854 2.865-1.134-0.95-0.28-2.056-0.667-2.865-1.134-0.478-0.276-0.642-0.888-0.366-1.366s0.888-0.642 1.366-0.366c0.809 0.467 1.697 1.232 2.415 1.914-0.232-0.963-0.45-2.114-0.45-3.048 0-0.552 0.448-1 1-1s1 0.448 1 1c0 0.934-0.218 2.086-0.45 3.048 0.717-0.683 1.606-1.447 2.415-1.914 0.478-0.276 1.090-0.112 1.366 0.366s0.112 1.090-0.366 1.366c-0.809 0.467-1.915 0.854-2.865 1.134 0.95 0.28 2.056 0.667 2.865 1.134z"></path>
</symbol>
<symbol id="icon-code" viewBox="0 0 20 16">
<path d="M4 5.5v-2c0-0.828 0.672-1.5 1.5-1.5h0.5v-2h-0.5c-1.933 0-3.5 1.567-3.5 3.5v2c0 0.828-0.672 1.5-1.5 1.5h-0.5v2h0.5c0.828 0 1.5 0.672 1.5 1.5v2c0 1.933 1.567 3.5 3.5 3.5h0.5v-2h-0.5c-0.828 0-1.5-0.672-1.5-1.5v-2c0-0.979-0.402-1.865-1.051-2.5 0.648-0.635 1.051-1.521 1.051-2.5z"></path>
<path d="M16 5.5v-2c0-0.828-0.672-1.5-1.5-1.5h-0.5v-2h0.5c1.933 0 3.5 1.567 3.5 3.5v2c0 0.828 0.672 1.5 1.5 1.5h0.5v2h-0.5c-0.828 0-1.5 0.672-1.5 1.5v2c0 1.933-1.567 3.5-3.5 3.5h-0.5v-2h0.5c0.828 0 1.5-0.672 1.5-1.5v-2c0-0.979 0.402-1.865 1.051-2.5-0.648-0.635-1.051-1.521-1.051-2.5z"></path>
<path d="M12 5.014c0 1.105-0.895 2-2 2s-2-0.895-2-2c0-1.105 0.895-2 2-2s2 0.895 2 2z"></path>
<path d="M10 7.986c-1.105 0-2 0.895-2 2 0 1.074 0.5 1.925 2.034 1.998-0.456 0.643-1.143 0.896-2.034 0.98v1.188c0 0 4 0.349 4-4.165-0.004-1.105-0.895-2-2-2z"></path>
</symbol>
<symbol id="icon-circle-css" viewBox="0 0 16 16">
<path d="M8 0c-4.418 0-8 3.582-8 8s3.582 8 8 8 8-3.582 8-8-3.582-8-8-8zM7 4.111c-0.552 0-1 0.497-1 1.111v1.111c0 0.92-0.672 1.667-1.5 1.667 0.828 0 1.5 0.746 1.5 1.667v1.111c0 0.614 0.448 1.111 1 1.111v1.111h-1c-1.103 0-2-0.997-2-2.222v-1.111c0-0.614-0.448-1.111-1-1.111v-1.111c0.552 0 1-0.497 1-1.111v-1.111c0-1.225 0.897-2.222 2-2.222h1v1.111zM13 8.556c-0.552 0-1 0.498-1 1.111v1.111c0 1.225-0.897 2.222-2 2.222h-1v-1.111c0.552 0 1-0.497 1-1.111v-1.111c0-0.92 0.672-1.667 1.5-1.667-0.828 0-1.5-0.746-1.5-1.667v-1.111c0-0.614-0.448-1.111-1-1.111v-1.111h1c1.103 0 2 0.997 2 2.222v1.111c0 0.614 0.448 1.111 1 1.111v1.111z"></path>
</symbol>
<symbol id="icon-libreoffice" viewBox="0 0 16 16">
<path d="M8.354 0.354c-0.194-0.194-0.579-0.354-0.854-0.354h-6c-0.275 0-0.5 0.225-0.5 0.5v15c0 0.275 0.225 0.5 0.5 0.5h12c0.275 0 0.5-0.225 0.5-0.5v-9c0-0.275-0.159-0.659-0.354-0.854l-5.293-5.293zM13 15h-11v-14h5.487c0.046 0.008 0.131 0.043 0.169 0.070l5.274 5.274c0.027 0.038 0.062 0.123 0.070 0.169v8.487zM13.5 0h-3c-0.275 0-0.341 0.159-0.146 0.354l3.293 3.293c0.194 0.194 0.354 0.129 0.354-0.146v-3c0-0.275-0.225-0.5-0.5-0.5z"></path>
</symbol>
</defs>
</svg>
