<svg width="24" height="22" viewBox="0 0 24 22" fill="none" xmlns="http://www.w3.org/2000/svg">
  <g id="Microsoft_Office_Teams_Logo 1" clip-path="url(#clip0_6569_24648)">
    <path id="Vector"
      d="M16.7408 8.29004H22.94C23.5257 8.29004 24.0005 8.75104 24.0005 9.31971V14.8025C24.0005 16.8925 22.2555 18.5868 20.103 18.5868H20.0846C17.932 18.5871 16.1868 16.893 16.1865 14.803C16.1865 14.8028 16.1865 14.8027 16.1865 14.8025V8.82819C16.1865 8.53097 16.4347 8.29004 16.7408 8.29004Z"
      fill="#5059C9" />
    <path id="Vector_2"
      d="M20.9306 7.20652C22.3177 7.20652 23.4422 6.11467 23.4422 4.76781C23.4422 3.42095 22.3177 2.3291 20.9306 2.3291C19.5434 2.3291 18.4189 3.42095 18.4189 4.76781C18.4189 6.11467 19.5434 7.20652 20.9306 7.20652Z"
      fill="#5059C9" />
    <path id="Vector_3"
      d="M13.1162 7.2063C15.1198 7.2063 16.7441 5.62919 16.7441 3.68372C16.7441 1.73825 15.1198 0.161133 13.1162 0.161133C11.1126 0.161133 9.48828 1.73825 9.48828 3.68372C9.48828 5.62919 11.1126 7.2063 13.1162 7.2063Z"
      fill="#7B83EB" />
    <path id="Vector_4"
      d="M17.954 8.29004H7.72109C7.14239 8.30394 6.6846 8.77026 6.69803 9.33219V15.5856C6.61721 18.9576 9.36479 21.7559 12.8376 21.8384C16.3103 21.7559 19.0579 18.9576 18.9771 15.5856V9.33219C18.9905 8.77026 18.5327 8.30394 17.954 8.29004Z"
      fill="#7B83EB" />
    <path id="Vector_5" opacity="0.1"
      d="M13.3952 8.29004V17.0531C13.3925 17.455 13.1417 17.816 12.759 17.969C12.6371 18.0191 12.5062 18.0448 12.3738 18.0449H7.18872C7.11617 17.866 7.04919 17.6872 6.99337 17.5029C6.798 16.8811 6.69831 16.2346 6.69755 15.5845V9.33056C6.68414 8.76953 7.14117 8.30394 7.71895 8.29004H13.3952Z"
      fill="black" />
    <path id="Vector_6" opacity="0.2"
      d="M12.8371 8.29004V17.5951C12.8371 17.7235 12.8105 17.8507 12.759 17.969C12.6014 18.3406 12.2296 18.5841 11.8157 18.5868H7.45105C7.35617 18.408 7.26687 18.2291 7.18872 18.0449C7.11058 17.8606 7.04919 17.6872 6.99337 17.5029C6.798 16.8811 6.69831 16.2346 6.69755 15.5845V9.33056C6.68414 8.76953 7.14117 8.30394 7.71895 8.29004H12.8371Z"
      fill="black" />
    <path id="Vector_7" opacity="0.2"
      d="M12.8371 8.29004V16.5112C12.8328 17.0572 12.378 17.4988 11.8157 17.5029H6.99337C6.798 16.8811 6.69831 16.2346 6.69755 15.5845V9.33056C6.68414 8.76953 7.14117 8.30394 7.71895 8.29004H12.8371Z"
      fill="black" />
    <path id="Vector_8" opacity="0.2"
      d="M12.2789 8.29004V16.5112C12.2747 17.0572 11.8199 17.4988 11.2576 17.5029H6.99337C6.798 16.8811 6.69831 16.2346 6.69755 15.5845V9.33056C6.68414 8.76953 7.14117 8.30394 7.71895 8.29004H12.2789Z"
      fill="black" />
    <path id="Vector_9" opacity="0.1"
      d="M13.3954 5.48831V7.19541C13.3005 7.20083 13.2112 7.20625 13.1163 7.20625C13.0214 7.20625 12.9321 7.20084 12.8372 7.19541C12.6488 7.18327 12.462 7.15425 12.2791 7.1087C11.1489 6.84882 10.2151 6.07918 9.76748 5.03851C9.69045 4.86375 9.63066 4.68229 9.58887 4.49658H12.374C12.9372 4.49865 13.3932 4.94145 13.3954 5.48831Z"
      fill="black" />
    <path id="Vector_10" opacity="0.2"
      d="M12.8373 6.03031V7.19547C12.6489 7.18333 12.4621 7.15431 12.2792 7.10876C11.149 6.84888 10.2152 6.07924 9.76758 5.03857H11.8159C12.3792 5.04064 12.8352 5.48345 12.8373 6.03031Z"
      fill="black" />
    <path id="Vector_11" opacity="0.2"
      d="M12.8373 6.03031V7.19547C12.6489 7.18333 12.4621 7.15431 12.2792 7.10876C11.149 6.84888 10.2152 6.07924 9.76758 5.03857H11.8159C12.3792 5.04064 12.8352 5.48345 12.8373 6.03031Z"
      fill="black" />
    <path id="Vector_12" opacity="0.2"
      d="M12.2792 6.03032V7.10876C11.149 6.84888 10.2152 6.07924 9.76758 5.03857H11.2578C11.821 5.04065 12.2771 5.48346 12.2792 6.03032Z"
      fill="black" />
    <path id="Vector_13"
      d="M1.02306 5.03857H11.256C11.821 5.03857 12.2791 5.48332 12.2791 6.03194V15.9678C12.2791 16.5164 11.821 16.9611 11.256 16.9611H1.02306C0.458037 16.9611 0 16.5164 0 15.9678V6.03194C0 5.48332 0.458048 5.03857 1.02306 5.03857Z"
      fill="url(#paint0_linear_6569_24648)" />
    <path id="Vector_14"
      d="M8.8322 8.82018H6.78661V14.2287H5.48336V8.82018H3.44727V7.771H8.8322V8.82018Z" fill="white" />
  </g>
  <defs>
    <linearGradient id="paint0_linear_6569_24648" x1="2.13312" y1="4.26238" x2="9.79709"
      y2="17.9329" gradientUnits="userSpaceOnUse">
      <stop stop-color="#5A62C3" />
      <stop offset="0.5" stop-color="#4D55BD" />
      <stop offset="1" stop-color="#3940AB" />
    </linearGradient>
    <clipPath id="clip0_6569_24648">
      <rect width="24" height="21.6774" fill="white" transform="translate(0 0.161133)" />
    </clipPath>
  </defs>
</svg>