<?xml version="1.0" encoding="UTF-8"?>
<svg xmlns="http://www.w3.org/2000/svg" style="display: none;">
<symbol id="circle-ellipsis-vertical" viewBox="0 0 512 512">
<path d="M480 256A224 224 0 1 0 32 256a224 224 0 1 0 448 0zM0 256a256 256 0 1 1 512 0A256 256 0 1 1 0 256zm256-24a24 24 0 1 1 0 48 24 24 0 1 1 0-48zm-24-72a24 24 0 1 1 48 0 24 24 0 1 1 -48 0zm24 168a24 24 0 1 1 0 48 24 24 0 1 1 0-48z"/>
</symbol>
<symbol id="user-plus" viewBox="0 0 640 512">
<path d="M128 128a96 96 0 1 1 192 0 96 96 0 1 1 -192 0zM269.7 336c80 0 145 64.3 146.3 144H32c1.2-79.7 66.2-144 146.3-144h91.4zM224 256A128 128 0 1 0 224 0a128 128 0 1 0 0 256zm-45.7 48C79.8 304 0 383.8 0 482.3C0 498.7 13.3 512 29.7 512H418.3c16.4 0 29.7-13.3 29.7-29.7C448 383.8 368.2 304 269.7 304H178.3zM512 304c0 8.8 7.2 16 16 16s16-7.2 16-16V224h80c8.8 0 16-7.2 16-16s-7.2-16-16-16H544V112c0-8.8-7.2-16-16-16s-16 7.2-16 16v80H432c-8.8 0-16 7.2-16 16s7.2 16 16 16h80v80z"/>
</symbol>
<symbol id="magnifying-glass" viewBox="0 0 512 512">
<path d="M384 208A176 176 0 1 0 32 208a176 176 0 1 0 352 0zM343.3 366C307 397.2 259.7 416 208 416C93.1 416 0 322.9 0 208S93.1 0 208 0S416 93.1 416 208c0 51.7-18.8 99-50 135.3L507.3 484.7c6.2 6.2 6.2 16.4 0 22.6s-16.4 6.2-22.6 0L343.3 366z"/>
</symbol>
<symbol id="ellipsis-vertical" viewBox="0 0 128 512">
<path d="M64 384a32 32 0 1 0 0 64 32 32 0 1 0 0-64zm0-160a32 32 0 1 0 0 64 32 32 0 1 0 0-64zM96 96A32 32 0 1 0 32 96a32 32 0 1 0 64 0z"/>
</symbol>
<symbol id="chevron-down" viewBox="0 0 512 512">
<path d="M267.3 395.3c-6.2 6.2-16.4 6.2-22.6 0l-192-192c-6.2-6.2-6.2-16.4 0-22.6s16.4-6.2 22.6 0L256 361.4 436.7 180.7c6.2-6.2 16.4-6.2 22.6 0s6.2 16.4 0 22.6l-192 192z"/>
</symbol>
<symbol id="chevron-up" viewBox="0 0 512 512">
<path d="M244.7 116.7c6.2-6.2 16.4-6.2 22.6 0l192 192c6.2 6.2 6.2 16.4 0 22.6s-16.4 6.2-22.6 0L256 150.6 75.3 331.3c-6.2 6.2-16.4 6.2-22.6 0s-6.2-16.4 0-22.6l192-192z"/>
</symbol>
<symbol id="circle-play" viewBox="0 0 512 512">
<path d="M256 32a224 224 0 1 1 0 448 224 224 0 1 1 0-448zm0 480A256 256 0 1 0 256 0a256 256 0 1 0 0 512zm72.7-256L208 329.7V182.3L328.7 256zM212.5 147.5c-7.4-4.5-16.7-4.7-24.3-.5s-12.3 12.3-12.3 20.9V344c0 8.7 4.7 16.7 12.3 20.9s16.8 4.1 24.3-.5l144-88c7.1-4.4 11.5-12.1 11.5-20.5s-4.4-16.1-11.5-20.5l-144-88z"/>
</symbol>
<symbol id="clapperboard" viewBox="0 0 512 512">
<path d="M32 192V416c0 17.7 14.3 32 32 32H448c17.7 0 32-14.3 32-32V192H32zm350.6-32H480V96c0-9.2-3.9-17.5-10.1-23.3L382.6 160zm-45.3 0l96-96H326.6l-96 96H337.4zm-56-96H174.6l-96 96H185.4l96-96zm-152 0H64C46.3 64 32 78.3 32 96v64h1.4l96-96zM512 96v64 16 16V416c0 35.3-28.7 64-64 64H64c-35.3 0-64-28.7-64-64V192 176 160 96C0 60.7 28.7 32 64 32H448c35.3 0 64 28.7 64 64z"/>
</symbol>
<symbol id="xmark" viewBox="0 0 384 512">
<path d="M324.5 411.1c6.2 6.2 16.4 6.2 22.6 0s6.2-16.4 0-22.6L214.6 256 347.1 123.5c6.2-6.2 6.2-16.4 0-22.6s-16.4-6.2-22.6 0L192 233.4 59.5 100.9c-6.2-6.2-16.4-6.2-22.6 0s-6.2 16.4 0 22.6L169.4 256 36.9 388.5c-6.2 6.2-6.2 16.4 0 22.6s16.4 6.2 22.6 0L192 278.6 324.5 411.1z"/>
</symbol>
<symbol id="check" viewBox="0 0 448 512">
<path d="M443.3 100.7c6.2 6.2 6.2 16.4 0 22.6l-272 272c-6.2 6.2-16.4 6.2-22.6 0l-144-144c-6.2-6.2-6.2-16.4 0-22.6s16.4-6.2 22.6 0L160 361.4 420.7 100.7c6.2-6.2 16.4-6.2 22.6 0z"/>
</symbol>
</svg>