<?xml version="1.0" encoding="UTF-8"?>
<svg xmlns="http://www.w3.org/2000/svg" style="display: none;">
<symbol id="brackets-curly" viewBox="0 0 576 512">
<path d="M152 32c-48.6 0-88 39.4-88 88v45.5c0 10.6-4.2 20.8-11.7 28.3L7 239c-9.4 9.4-9.4 24.6 0 33.9l45.3 45.3c7.5 7.5 11.7 17.7 11.7 28.3V392c0 48.6 39.4 88 88 88h48c13.3 0 24-10.7 24-24s-10.7-24-24-24H152c-22.1 0-40-17.9-40-40V346.5c0-23.3-9.3-45.7-25.8-62.2L57.9 256l28.3-28.3c16.5-16.5 25.8-38.9 25.8-62.2V120c0-22.1 17.9-40 40-40h48c13.3 0 24-10.7 24-24s-10.7-24-24-24H152zm272 0H376c-13.3 0-24 10.7-24 24s10.7 24 24 24h48c22.1 0 40 17.9 40 40v45.5c0 23.3 9.3 45.7 25.8 62.2L518.1 256l-28.3 28.3c-16.5 16.5-25.8 38.9-25.8 62.2V392c0 22.1-17.9 40-40 40H376c-13.3 0-24 10.7-24 24s10.7 24 24 24h48c48.6 0 88-39.4 88-88V346.5c0-10.6 4.2-20.8 11.7-28.3L569 273c9.4-9.4 9.4-24.6 0-33.9l-45.3-45.3c-7.5-7.5-11.7-17.7-11.7-28.3V120c0-48.6-39.4-88-88-88z"/>
</symbol>
<symbol id="octagon-exclamation" viewBox="0 0 512 512">
<path d="M191.5 48.1c-6.4 0-12.5 2.5-17 7L55.1 174.5c-4.5 4.5-7 10.6-7 17v129c0 6.4 2.5 12.5 7 17L21.2 371.4C7.7 357.9 .1 339.6 .1 320.5v-129c0-19.1 7.6-37.4 21.1-50.9L140.6 21.2C154.1 7.7 172.4 .1 191.5 .1h129c19.1 0 37.4 7.6 50.9 21.1L490.8 140.6c13.5 13.5 21.1 31.8 21.1 50.9v129c0 19.1-7.6 37.4-21.1 50.9L371.4 490.8c-13.5 13.5-31.8 21.1-50.9 21.1h-129c-19.1 0-37.4-7.6-50.9-21.1L21.2 371.4l33.9-33.9L174.5 456.9c4.5 4.5 10.6 7 17 7h129c6.4 0 12.5-2.5 17-7L456.9 337.5c4.5-4.5 7-10.6 7-17v-129c0-6.4-2.5-12.5-7-17L337.5 55.1c-4.5-4.5-10.6-7-17-7h-129zM256 128c13.3 0 24 10.7 24 24V264c0 13.3-10.7 24-24 24s-24-10.7-24-24V152c0-13.3 10.7-24 24-24zM224 352a32 32 0 1 1 64 0 32 32 0 1 1 -64 0z"/>
</symbol>
<symbol id="qrcode" viewBox="0 0 448 512">
<path d="M144 80v96H48V80h96zM48 32C21.5 32 0 53.5 0 80v96c0 26.5 21.5 48 48 48h96c26.5 0 48-21.5 48-48V80c0-26.5-21.5-48-48-48H48zm96 304v96H48V336h96zM48 288c-26.5 0-48 21.5-48 48v96c0 26.5 21.5 48 48 48h96c26.5 0 48-21.5 48-48V336c0-26.5-21.5-48-48-48H48zM304 80h96v96H304V80zm-48 0v96c0 26.5 21.5 48 48 48h96c26.5 0 48-21.5 48-48V80c0-26.5-21.5-48-48-48H304c-26.5 0-48 21.5-48 48zM72 120v16c0 8.8 7.2 16 16 16h16c8.8 0 16-7.2 16-16V120c0-8.8-7.2-16-16-16H88c-8.8 0-16 7.2-16 16zM88 360c-8.8 0-16 7.2-16 16v16c0 8.8 7.2 16 16 16h16c8.8 0 16-7.2 16-16V376c0-8.8-7.2-16-16-16H88zM328 120v16c0 8.8 7.2 16 16 16h16c8.8 0 16-7.2 16-16V120c0-8.8-7.2-16-16-16H344c-8.8 0-16 7.2-16 16zM256 304V464c0 8.8 7.2 16 16 16h32c8.8 0 16-7.2 16-16V400c0-8.8 7.2-16 16-16s16 7.2 16 16s7.2 16 16 16h64c8.8 0 16-7.2 16-16V304c0-8.8-7.2-16-16-16s-16 7.2-16 16s-7.2 16-16 16H368c-8.8 0-16-7.2-16-16s-7.2-16-16-16H272c-8.8 0-16 7.2-16 16zM368 448a16 16 0 1 0 0 32 16 16 0 1 0 0-32zm64 0a16 16 0 1 0 0 32 16 16 0 1 0 0-32z"/>
</symbol>
<symbol id="bars-sort" viewBox="0 0 448 512">
<path d="M0 88C0 74.7 10.7 64 24 64H424c13.3 0 24 10.7 24 24s-10.7 24-24 24H24C10.7 112 0 101.3 0 88zM0 248c0-13.3 10.7-24 24-24H296c13.3 0 24 10.7 24 24s-10.7 24-24 24H24c-13.3 0-24-10.7-24-24zM192 408c0 13.3-10.7 24-24 24H24c-13.3 0-24-10.7-24-24s10.7-24 24-24H168c13.3 0 24 10.7 24 24z"/>
</symbol>
<symbol id="arrow-right" viewBox="0 0 448 512">
<path d="M440.6 273.4c4.7-4.5 7.4-10.8 7.4-17.4s-2.7-12.8-7.4-17.4l-176-168c-9.6-9.2-24.8-8.8-33.9 .8s-8.8 24.8 .8 33.9L364.1 232 24 232c-13.3 0-24 10.7-24 24s10.7 24 24 24l340.1 0L231.4 406.6c-9.6 9.2-9.9 24.3-.8 33.9s24.3 9.9 33.9 .8l176-168z"/>
</symbol>
<symbol id="chart-simple-horizontal" viewBox="0 0 448 512">
<path d="M400 240L48 240l0 32 352 0 0-32zm48 32c0 26.5-21.5 48-48 48L48 320c-26.5 0-48-21.5-48-48l0-32c0-26.5 21.5-48 48-48l352 0c26.5 0 48 21.5 48 48l0 32zM208 400L48 400l0 32 160 0 0-32zm48 32c0 26.5-21.5 48-48 48L48 480c-26.5 0-48-21.5-48-48l0-32c0-26.5 21.5-48 48-48l160 0c26.5 0 48 21.5 48 48l0 32zm80-320l0-32L48 80l0 32 288 0zm0 48L48 160c-26.5 0-48-21.5-48-48L0 80C0 53.5 21.5 32 48 32l288 0c26.5 0 48 21.5 48 48l0 32c0 26.5-21.5 48-48 48z"/>
</symbol>
<symbol id="bug-slash" viewBox="0 0 640 512">
<path d="M224 96c0-53 43-96 96-96s96 43 96 96v3.6c0 15.7-12.7 28.4-28.4 28.4H252.4c-15.7 0-28.4-12.7-28.4-28.4V96zm73.7 112L432 313.3V264c0-30.9-25.1-56-56-56H297.7zM477.4 348.9L630.8 469.1c10.4 8.2 12.3 23.3 4.1 33.7s-23.3 12.3-33.7 4.1L9.2 42.9C-1.2 34.7-3.1 19.6 5.1 9.2S28.4-3.1 38.8 5.1L240 162.8c7.7-1.8 15.8-2.8 24-2.8H376c20 0 38.7 5.7 54.6 15.5L503 103c9.4-9.4 24.6-9.4 33.9 0s9.4 24.6 0 33.9l-72.4 72.4C474.3 225.3 480 244 480 264h72c13.3 0 24 10.7 24 24s-10.7 24-24 24H480v8c0 9.9-.9 19.5-2.6 28.9zm-46.6 86.5C402.1 463 363 480 320 480c-43.7 0-83.3-17.5-112.2-45.9L137 505c-9.4 9.4-24.6 9.4-33.9 0s-9.4-24.6 0-33.9l75.8-75.8c-12-22.4-18.8-48.1-18.8-75.3v-8H88c-13.3 0-24-10.7-24-24s10.7-24 24-24h72c0-12.9 2.4-25.3 6.7-36.7L208.1 260c-.1 1.3-.1 2.7-.1 4v56c0 53.6 37.7 98.4 88 109.4V329.2L344 367v62.4c18.3-4 34.8-12.4 48.6-24.1l38.2 30.1z"/>
</symbol>
<symbol id="list-tree" viewBox="0 0 512 512">
<path d="M24 48C10.7 48 0 58.7 0 72v48c0 13.3 10.7 24 24 24V256 384c0 30.9 25.1 56 56 56h48c0 13.3 10.7 24 24 24h48c13.3 0 24-10.7 24-24V392c0-13.3-10.7-24-24-24H152c-13.3 0-24 10.7-24 24H80c-4.4 0-8-3.6-8-8V280h56c0 13.3 10.7 24 24 24h48c13.3 0 24-10.7 24-24V232c0-13.3-10.7-24-24-24H152c-13.3 0-24 10.7-24 24H72V144c13.3 0 24-10.7 24-24V72c0-13.3-10.7-24-24-24H24zM160 96c0 13.3 10.7 24 24 24H488c13.3 0 24-10.7 24-24s-10.7-24-24-24H184c-13.3 0-24 10.7-24 24zM288 256c0 13.3 10.7 24 24 24H488c13.3 0 24-10.7 24-24s-10.7-24-24-24H312c-13.3 0-24 10.7-24 24zm0 160c0 13.3 10.7 24 24 24H488c13.3 0 24-10.7 24-24s-10.7-24-24-24H312c-13.3 0-24 10.7-24 24z"/>
</symbol>
<symbol id="inbox" viewBox="0 0 512 512">
<path d="M48 336h81.2l20.9 41.9c6.8 13.6 20.6 22.1 35.8 22.1H326.1c15.1 0 29-8.6 35.8-22.1L382.8 336H464v80c0 8.8-7.2 16-16 16H64c-8.8 0-16-7.2-16-16V336zm406.5-48H377.9c-15.1 0-29 8.6-35.8 22.1L321.2 352H190.8l-20.9-41.9c-6.8-13.6-20.6-22.1-35.8-22.1H57.5l49-195.9C108.2 85 114.6 80 122 80H390c7.3 0 13.7 5 15.5 12.1l49 195.9zM0 327.9V416c0 35.3 28.7 64 64 64H448c35.3 0 64-28.7 64-64V327.9c0-5.2-.6-10.4-1.9-15.5l-58-231.9C445 52 419.4 32 390 32H122C92.6 32 67 52 59.9 80.5L1.9 312.4C.6 317.4 0 322.6 0 327.9z"/>
</symbol>
<symbol id="arrow-left" viewBox="0 0 448 512">
<path d="M7.4 273.4C2.7 268.8 0 262.6 0 256s2.7-12.8 7.4-17.4l176-168c9.6-9.2 24.8-8.8 33.9 .8s8.8 24.8-.8 33.9L83.9 232 424 232c13.3 0 24 10.7 24 24s-10.7 24-24 24L83.9 280 216.6 406.6c9.6 9.2 9.9 24.3 .8 33.9s-24.3 9.9-33.9 .8l-176-168z"/>
</symbol>
<symbol id="swap" viewBox="0 0 640 512">
<path d="M240 119c0 22.6-18.3 41-41 41H152V360c0 39.8 32.2 72 72 72s72-32.2 72-72V152c0-66.3 53.7-120 120-120s120 53.7 120 120V352h47c22.6 0 41 18.3 41 41c0 10.9-4.3 21.3-12 29l-83 83c-4.5 4.5-10.6 7-17 7s-12.5-2.5-17-7l-83-83c-7.7-7.7-12-18.1-12-29c0-22.6 18.3-41 41-41h47V152c0-39.8-32.2-72-72-72s-72 32.2-72 72V360c0 66.3-53.7 120-120 120s-120-53.7-120-120V160H57c-22.6 0-41-18.3-41-41c0-10.9 4.3-21.3 12-29L111 7c4.5-4.5 10.6-7 17-7s12.5 2.5 17 7l83 83c7.7 7.7 12 18.1 12 29zM73.9 112l108.1 0L128 57.9 73.9 112zm384 288L512 454.1 566.1 400H457.9z"/>
</symbol>
<symbol id="line-height" viewBox="0 0 576 512">
<path d="M113.8 39.9c-4.6-5.1-11-7.9-17.8-7.9s-13.3 2.9-17.8 7.9l-72 80c-8.9 9.9-8.1 25 1.8 33.9s25 8.1 33.9-1.8L72 118.5V393.5L41.8 359.9c-8.9-9.9-24-10.7-33.9-1.8s-10.7 24-1.8 33.9l72 80c4.6 5.1 11 7.9 17.8 7.9s13.3-2.9 17.8-7.9l72-80c8.9-9.9 8.1-25-1.8-33.9s-25-8.1-33.9 1.8L120 393.5V118.5l30.2 33.5c8.9 9.9 24 10.7 33.9 1.8s10.7-24 1.8-33.9l-72-80zM248 72c-13.3 0-24 10.7-24 24s10.7 24 24 24H552c13.3 0 24-10.7 24-24s-10.7-24-24-24H248zm0 160c-13.3 0-24 10.7-24 24s10.7 24 24 24H552c13.3 0 24-10.7 24-24s-10.7-24-24-24H248zM224 416c0 13.3 10.7 24 24 24H552c13.3 0 24-10.7 24-24s-10.7-24-24-24H248c-13.3 0-24 10.7-24 24z"/>
</symbol>
<symbol id="trash-can-plus" viewBox="0 0 448 512">
<path d="M170.5 51.6L151.5 80h145l-19-28.4c-1.5-2.2-4-3.6-6.7-3.6H177.1c-2.7 0-5.2 1.3-6.7 3.6zm147-26.6L354.2 80H368h48 8c13.3 0 24 10.7 24 24s-10.7 24-24 24h-8V432c0 44.2-35.8 80-80 80H112c-44.2 0-80-35.8-80-80V128H24c-13.3 0-24-10.7-24-24S10.7 80 24 80h8H80 93.8l36.7-55.1C140.9 9.4 158.4 0 177.1 0h93.7c18.7 0 36.2 9.4 46.6 24.9zM80 128V432c0 17.7 14.3 32 32 32H336c17.7 0 32-14.3 32-32V128H80zM200 376V312H136c-13.3 0-24-10.7-24-24s10.7-24 24-24h64V200c0-13.3 10.7-24 24-24s24 10.7 24 24v64h64c13.3 0 24 10.7 24 24s-10.7 24-24 24H248v64c0 13.3-10.7 24-24 24s-24-10.7-24-24z"/>
</symbol>
<symbol id="user-plus" viewBox="0 0 640 512">
<path d="M144 128a80 80 0 1 1 160 0 80 80 0 1 1 -160 0zm208 0A128 128 0 1 0 96 128a128 128 0 1 0 256 0zM269.7 352c65.7 0 120.1 48.7 129 112H49.3c8.9-63.3 63.3-112 129-112h91.4zm-91.4-48C79.8 304 0 383.8 0 482.3C0 498.7 13.3 512 29.7 512H418.3c16.4 0 29.7-13.3 29.7-29.7C448 383.8 368.2 304 269.7 304H224 178.3zM504 312c0 13.3 10.7 24 24 24s24-10.7 24-24V248h64c13.3 0 24-10.7 24-24s-10.7-24-24-24H552V136c0-13.3-10.7-24-24-24s-24 10.7-24 24v64H440c-13.3 0-24 10.7-24 24s10.7 24 24 24h64v64z"/>
</symbol>
<symbol id="chart-bar" viewBox="0 0 512 512">
<path d="M24 32c13.3 0 24 10.7 24 24V408c0 13.3 10.7 24 24 24H488c13.3 0 24 10.7 24 24s-10.7 24-24 24H72c-39.8 0-72-32.2-72-72V56C0 42.7 10.7 32 24 32zM128 136c0-13.3 10.7-24 24-24l208 0c13.3 0 24 10.7 24 24s-10.7 24-24 24l-208 0c-13.3 0-24-10.7-24-24zm24 72H296c13.3 0 24 10.7 24 24s-10.7 24-24 24H152c-13.3 0-24-10.7-24-24s10.7-24 24-24zm0 96H424c13.3 0 24 10.7 24 24s-10.7 24-24 24H152c-13.3 0-24-10.7-24-24s10.7-24 24-24z"/>
</symbol>
<symbol id="bug" viewBox="0 0 512 512">
<path d="M256 0c53 0 96 43 96 96v3.6c0 15.7-12.7 28.4-28.4 28.4H188.4c-15.7 0-28.4-12.7-28.4-28.4V96c0-53 43-96 96-96zM39 103c9.4-9.4 24.6-9.4 33.9 0l72.4 72.4C161.3 165.7 180 160 200 160H312c20 0 38.7 5.7 54.6 15.5L439 103c9.4-9.4 24.6-9.4 33.9 0s9.4 24.6 0 33.9l-72.4 72.4C410.3 225.3 416 244 416 264h72c13.3 0 24 10.7 24 24s-10.7 24-24 24H416v8c0 27.2-6.8 52.8-18.8 75.3L473 471c9.4 9.4 9.4 24.6 0 33.9s-24.6 9.4-33.9 0l-70.9-70.9C339.3 462.5 299.7 480 256 480s-83.3-17.5-112.2-45.9L73 505c-9.4 9.4-24.6 9.4-33.9 0s-9.4-24.6 0-33.9l75.8-75.8C102.8 372.8 96 347.2 96 320v-8H24c-13.3 0-24-10.7-24-24s10.7-24 24-24H96c0-20 5.7-38.7 15.5-54.6L39 137c-9.4-9.4-9.4-24.6 0-33.9zM144 264v56c0 53.6 37.7 98.4 88 109.4V280c0-13.3 10.7-24 24-24s24 10.7 24 24V429.4c50.3-11 88-55.8 88-109.4V264c0-30.9-25.1-56-56-56H200c-30.9 0-56 25.1-56 56z"/>
</symbol>
<symbol id="bugs" viewBox="0 0 576 512">
<path d="M164.5 107.4l33.4-73.5c5.5-12.1 .1-26.3-11.9-31.8s-26.3-.1-31.8 11.9L128 71.7 101.9 14.1C96.4 2 82.1-3.3 70.1 2.1S52.7 21.9 58.1 33.9l33.4 73.5c-10.2 7.1-18.2 17-22.9 28.6h-17l-4.1-20.7c-2.6-13-15.2-21.4-28.2-18.8S-2.1 111.7 .5 124.7l8 40C10.7 175.9 20.6 184 32 184H64v23.3l-37.8 9.5c-9.5 2.4-16.6 10.2-17.9 19.9l-8 56c-1.9 13.1 7.2 25.3 20.4 27.2s25.3-7.2 27.2-20.4l5.7-40 18.4-4.6C82.7 274.6 103.8 288 128 288s45.3-13.4 56.1-33.2l18.4 4.6 5.7 40c1.9 13.1 14 22.2 27.2 20.4s22.2-14 20.4-27.2l-8-56c-1.4-9.7-8.5-17.5-17.9-19.9L192 207.3V184h32c11.4 0 21.3-8.1 23.5-19.3l8-40c2.6-13-5.8-25.6-18.8-28.2s-25.6 5.8-28.2 18.8L204.3 136h-17c-4.7-11.6-12.7-21.5-22.9-28.6zM496 286.5l65.6-47c10.8-7.7 13.3-22.7 5.6-33.5s-22.7-13.3-33.5-5.6l-51.4 36.8 6.1-62.9c1.3-13.2-8.4-24.9-21.6-26.2s-24.9 8.4-26.2 21.6L432.8 250c-12.3 1-24.2 5.6-34.1 13.3L384 254.8l6.8-20c4.2-12.6-2.5-26.2-15-30.4s-26.2 2.5-30.4 15l-13.1 38.6c-3.7 10.8 .8 22.8 10.7 28.5l27.7 16L359 322.7 321.5 312c-9.4-2.7-19.5 .6-25.5 8.3l-34.9 44.5c-8.2 10.4-6.4 25.5 4.1 33.7s25.5 6.4 33.7-4.1l25-31.8 18.2 5.2c-.5 22.6 11 44.7 32 56.8s45.9 11 65.2-.7l13.6 13.2-15.1 37.5c-4.9 12.3 1 26.3 13.3 31.2s26.3-1 31.2-13.3L503.5 440c3.6-9.1 1.4-19.4-5.6-26.2l-28-27.1 11.6-20.1 27.7 16c9.9 5.7 22.5 3.7 30-4.9L566.2 347c8.7-10 7.8-25.1-2.2-33.9s-25.1-7.8-33.9 2.2l-13.9 15.9-14.7-8.5c1.7-12.4-.2-25-5.5-36.2zM144 224c0 8.8-7.2 16-16 16s-16-7.2-16-16V160c0-8.8 7.2-16 16-16s16 7.2 16 16v64zm307.9 97.8l-32 55.4c-4.4 7.7-14.2 10.3-21.9 5.9s-10.3-14.2-5.9-21.9l32-55.4c4.4-7.7 14.2-10.3 21.9-5.9s10.3 14.2 5.9 21.9z"/>
</symbol>
<symbol id="key" viewBox="0 0 512 512">
<path d="M208 176c0-70.7 57.3-128 128-128s128 57.3 128 128s-57.3 128-128 128c-10.4 0-20.5-1.2-30.1-3.6c-8.1-2-16.7 .4-22.6 6.4L254.1 336H200c-13.3 0-24 10.7-24 24v40H136c-13.3 0-24 10.7-24 24v40H48V385.9L205.2 228.7c5.9-5.9 8.3-14.5 6.4-22.6c-2.3-9.6-3.6-19.7-3.6-30.1zM336 0C238.8 0 160 78.8 160 176c0 9.5 .7 18.8 2.2 27.9L7 359c-4.5 4.5-7 10.6-7 17V488c0 13.3 10.7 24 24 24H136c13.3 0 24-10.7 24-24V448h40c13.3 0 24-10.7 24-24V384h40c6.4 0 12.5-2.5 17-7l27.2-27.2c9.1 1.4 18.4 2.2 27.9 2.2c97.2 0 176-78.8 176-176S433.2 0 336 0zm32 176a32 32 0 1 0 0-64 32 32 0 1 0 0 64z"/>
</symbol>
<symbol id="bell" viewBox="0 0 448 512">
<path d="M224 0c-17.7 0-32 14.3-32 32V49.9C119.5 61.4 64 124.2 64 200v33.4c0 45.4-15.5 89.5-43.8 124.9L5.3 377c-5.8 7.2-6.9 17.1-2.9 25.4S14.8 416 24 416H424c9.2 0 17.6-5.3 21.6-13.6s2.9-18.2-2.9-25.4l-14.9-18.6C399.5 322.9 384 278.8 384 233.4V200c0-75.8-55.5-138.6-128-150.1V32c0-17.7-14.3-32-32-32zm0 96h8c57.4 0 104 46.6 104 104v33.4c0 47.9 13.9 94.6 39.7 134.6H72.3C98.1 328 112 281.3 112 233.4V200c0-57.4 46.6-104 104-104h8zm64 352H224 160c0 17 6.7 33.3 18.7 45.3s28.3 18.7 45.3 18.7s33.3-6.7 45.3-18.7s18.7-28.3 18.7-45.3z"/>
</symbol>
<symbol id="chart-simple" viewBox="0 0 448 512">
<path d="M240 80V432H208V80h32zM208 32c-26.5 0-48 21.5-48 48V432c0 26.5 21.5 48 48 48h32c26.5 0 48-21.5 48-48V80c0-26.5-21.5-48-48-48H208zM80 272V432H48V272H80zM48 224c-26.5 0-48 21.5-48 48V432c0 26.5 21.5 48 48 48H80c26.5 0 48-21.5 48-48V272c0-26.5-21.5-48-48-48H48zm320-80h32V432H368V144zm-48 0V432c0 26.5 21.5 48 48 48h32c26.5 0 48-21.5 48-48V144c0-26.5-21.5-48-48-48H368c-26.5 0-48 21.5-48 48z"/>
</symbol>
<symbol id="arrows-turn-right" viewBox="0 0 448 512">
<path d="M294.4 7.7c9-9.7 24.2-10.3 33.9-1.3l112 104c4.9 4.5 7.7 10.9 7.7 17.6s-2.8 13-7.7 17.6l-112 104c-9.7 9-24.9 8.5-33.9-1.3s-8.5-24.9 1.3-33.9L362.9 152H120c-39.8 0-72 32.2-72 72v40c0 13.3-10.7 24-24 24s-24-10.7-24-24V224c0-66.3 53.7-120 120-120H362.9L295.7 41.6c-9.7-9-10.3-24.2-1.3-33.9zm-96 256c9-9.7 24.2-10.3 33.9-1.3l112 104c4.9 4.5 7.7 10.9 7.7 17.6s-2.8 13-7.7 17.6l-112 104c-9.7 9-24.9 8.5-33.9-1.3s-8.5-24.9 1.3-33.9L266.9 408H88c-22.1 0-40 17.9-40 40v40c0 13.3-10.7 24-24 24s-24-10.7-24-24V448c0-48.6 39.4-88 88-88H266.9l-67.2-62.4c-9.7-9-10.3-24.2-1.3-33.9z"/>
</symbol>
<symbol id="list-check" viewBox="0 0 512 512">
<path d="M153.8 72.1c8.9-9.9 8.1-25-1.8-33.9s-25-8.1-33.9 1.8L63.1 101.1 41 79C31.6 69.7 16.4 69.7 7 79s-9.4 24.6 0 33.9l40 40c4.7 4.7 11 7.2 17.6 7s12.8-3 17.2-7.9l72-80zm0 160c8.9-9.9 8.1-25-1.8-33.9s-25-8.1-33.9 1.8L63.1 261.1 41 239c-9.4-9.4-24.6-9.4-33.9 0s-9.4 24.6 0 33.9l40 40c4.7 4.7 11 7.2 17.6 7s12.8-3 17.2-7.9l72-80zM216 120H488c13.3 0 24-10.7 24-24s-10.7-24-24-24H216c-13.3 0-24 10.7-24 24s10.7 24 24 24zM192 256c0 13.3 10.7 24 24 24H488c13.3 0 24-10.7 24-24s-10.7-24-24-24H216c-13.3 0-24 10.7-24 24zM160 416c0 13.3 10.7 24 24 24H488c13.3 0 24-10.7 24-24s-10.7-24-24-24H184c-13.3 0-24 10.7-24 24zm-64 0a32 32 0 1 0 -64 0 32 32 0 1 0 64 0z"/>
</symbol>
</svg>