<?xml version="1.0" encoding="UTF-8"?>
<svg xmlns="http://www.w3.org/2000/svg" style="display: none;" fill="none">
  <symbol id="list-tree" viewBox="0 0 512 512">
    <path
      d="M24 48C10.7 48 0 58.7 0 72v48c0 13.3 10.7 24 24 24V256 384c0 30.9 25.1 56 56 56h48c0 13.3 10.7 24 24 24h48c13.3 0 24-10.7 24-24V392c0-13.3-10.7-24-24-24H152c-13.3 0-24 10.7-24 24H80c-4.4 0-8-3.6-8-8V280h56c0 13.3 10.7 24 24 24h48c13.3 0 24-10.7 24-24V232c0-13.3-10.7-24-24-24H152c-13.3 0-24 10.7-24 24H72V144c13.3 0 24-10.7 24-24V72c0-13.3-10.7-24-24-24H24zM160 96c0 13.3 10.7 24 24 24H488c13.3 0 24-10.7 24-24s-10.7-24-24-24H184c-13.3 0-24 10.7-24 24zM288 256c0 13.3 10.7 24 24 24H488c13.3 0 24-10.7 24-24s-10.7-24-24-24H312c-13.3 0-24 10.7-24 24zm0 160c0 13.3 10.7 24 24 24H488c13.3 0 24-10.7 24-24s-10.7-24-24-24H312c-13.3 0-24 10.7-24 24z" />
  </symbol>
  <symbol id="bars-sort" viewBox="0 0 448 512">
    <path
      d="M0 88C0 74.7 10.7 64 24 64H424c13.3 0 24 10.7 24 24s-10.7 24-24 24H24C10.7 112 0 101.3 0 88zM0 248c0-13.3 10.7-24 24-24H296c13.3 0 24 10.7 24 24s-10.7 24-24 24H24c-13.3 0-24-10.7-24-24zM192 408c0 13.3-10.7 24-24 24H24c-13.3 0-24-10.7-24-24s10.7-24 24-24H168c13.3 0 24 10.7 24 24z" />
  </symbol>
  <symbol id="list-check" viewBox="0 0 512 512">
    <path
      d="M153.8 72.1c8.9-9.9 8.1-25-1.8-33.9s-25-8.1-33.9 1.8L63.1 101.1 41 79C31.6 69.7 16.4 69.7 7 79s-9.4 24.6 0 33.9l40 40c4.7 4.7 11 7.2 17.6 7s12.8-3 17.2-7.9l72-80zm0 160c8.9-9.9 8.1-25-1.8-33.9s-25-8.1-33.9 1.8L63.1 261.1 41 239c-9.4-9.4-24.6-9.4-33.9 0s-9.4 24.6 0 33.9l40 40c4.7 4.7 11 7.2 17.6 7s12.8-3 17.2-7.9l72-80zM216 120H488c13.3 0 24-10.7 24-24s-10.7-24-24-24H216c-13.3 0-24 10.7-24 24s10.7 24 24 24zM192 256c0 13.3 10.7 24 24 24H488c13.3 0 24-10.7 24-24s-10.7-24-24-24H216c-13.3 0-24 10.7-24 24zM160 416c0 13.3 10.7 24 24 24H488c13.3 0 24-10.7 24-24s-10.7-24-24-24H184c-13.3 0-24 10.7-24 24zm-64 0a32 32 0 1 0 -64 0 32 32 0 1 0 64 0z" />
  </symbol>
  <symbol id="qrcode" viewBox="0 0 448 512">
    <path
      d="M144 80v96H48V80h96zM48 32C21.5 32 0 53.5 0 80v96c0 26.5 21.5 48 48 48h96c26.5 0 48-21.5 48-48V80c0-26.5-21.5-48-48-48H48zm96 304v96H48V336h96zM48 288c-26.5 0-48 21.5-48 48v96c0 26.5 21.5 48 48 48h96c26.5 0 48-21.5 48-48V336c0-26.5-21.5-48-48-48H48zM304 80h96v96H304V80zm-48 0v96c0 26.5 21.5 48 48 48h96c26.5 0 48-21.5 48-48V80c0-26.5-21.5-48-48-48H304c-26.5 0-48 21.5-48 48zM72 120v16c0 8.8 7.2 16 16 16h16c8.8 0 16-7.2 16-16V120c0-8.8-7.2-16-16-16H88c-8.8 0-16 7.2-16 16zM88 360c-8.8 0-16 7.2-16 16v16c0 8.8 7.2 16 16 16h16c8.8 0 16-7.2 16-16V376c0-8.8-7.2-16-16-16H88zM328 120v16c0 8.8 7.2 16 16 16h16c8.8 0 16-7.2 16-16V120c0-8.8-7.2-16-16-16H344c-8.8 0-16 7.2-16 16zM256 304V464c0 8.8 7.2 16 16 16h32c8.8 0 16-7.2 16-16V400c0-8.8 7.2-16 16-16s16 7.2 16 16s7.2 16 16 16h64c8.8 0 16-7.2 16-16V304c0-8.8-7.2-16-16-16s-16 7.2-16 16s-7.2 16-16 16H368c-8.8 0-16-7.2-16-16s-7.2-16-16-16H272c-8.8 0-16 7.2-16 16zM368 448a16 16 0 1 0 0 32 16 16 0 1 0 0-32zm64 0a16 16 0 1 0 0 32 16 16 0 1 0 0-32z" />
  </symbol>
  <symbol id="chart-simple" viewBox="0 0 448 512">
    <path
      d="M240 80V432H208V80h32zM208 32c-26.5 0-48 21.5-48 48V432c0 26.5 21.5 48 48 48h32c26.5 0 48-21.5 48-48V80c0-26.5-21.5-48-48-48H208zM80 272V432H48V272H80zM48 224c-26.5 0-48 21.5-48 48V432c0 26.5 21.5 48 48 48H80c26.5 0 48-21.5 48-48V272c0-26.5-21.5-48-48-48H48zm320-80h32V432H368V144zm-48 0V432c0 26.5 21.5 48 48 48h32c26.5 0 48-21.5 48-48V144c0-26.5-21.5-48-48-48H368c-26.5 0-48 21.5-48 48z" />
  </symbol>
  <symbol id="trash" viewBox="0 0 14 16">
    <path
      fill="transparent"
      d="M1 4.00016H13M11.6667 4.00016V13.3335C11.6667 14.0002 11 14.6668 10.3333 14.6668H3.66667C3 14.6668 2.33333 14.0002 2.33333 13.3335V4.00016M4.33333 4.00016V2.66683C4.33333 2.00016 5 1.3335 5.66667 1.3335H8.33333C9 1.3335 9.66667 2.00016 9.66667 2.66683V4.00016M5.66667 7.3335V11.3335M8.33333 7.3335V11.3335"
      stroke-linecap="round" stroke-linejoin="round" />
  </symbol>
  <symbol id="save" viewBox="0 0 20 20" fill="none">
    <path
      d="M15 19V12C15 11.7348 14.8946 11.4804 14.7071 11.2929C14.5196 11.1054 14.2652 11 14 11H6C5.73478 11 5.48043 11.1054 5.29289 11.2929C5.10536 11.4804 5 11.7348 5 12V19M5 1V5C5 5.26522 5.10536 5.51957 5.29289 5.70711C5.48043 5.89464 5.73478 6 6 6H13M13.2 1C13.7275 1.00751 14.2307 1.22317 14.6 1.6L18.4 5.4C18.7768 5.76926 18.9925 6.27246 19 6.8V17C19 17.5304 18.7893 18.0391 18.4142 18.4142C18.0391 18.7893 17.5304 19 17 19H3C2.46957 19 1.96086 18.7893 1.58579 18.4142C1.21071 18.0391 1 17.5304 1 17V3C1 2.46957 1.21071 1.96086 1.58579 1.58579C1.96086 1.21071 2.46957 1 3 1H13.2Z"
      stroke-width="1.5" stroke-linecap="round" stroke-linejoin="round" />
  </symbol>
  <symbol id="play">
    <path d="M4 2.5L13.3333 8.5L4 14.5V2.5Z" fill="none" stroke="currentColor" stroke-width="1.5"
      stroke-linecap="round" stroke-linejoin="round" />
  </symbol>
  <symbol id="calendar" viewBox="0 0 16 16" fill="none">
    <path
      d="M5.33333 1.33325V3.99992M10.6667 1.33325V3.99992M2 6.66659H14M5.33333 9.33325H5.34M8 9.33325H8.00667M10.6667 9.33325H10.6733M5.33333 11.9999H5.34M8 11.9999H8.00667M10.6667 11.9999H10.6733M3.33333 2.66659H12.6667C13.403 2.66659 14 3.26354 14 3.99992V13.3333C14 14.0696 13.403 14.6666 12.6667 14.6666H3.33333C2.59695 14.6666 2 14.0696 2 13.3333V3.99992C2 3.26354 2.59695 2.66659 3.33333 2.66659Z"
      stroke="currentColor" stroke-width="1.5" stroke-linecap="round" stroke-linejoin="round" />
  </symbol>
  <symbol id="archive" viewBox="0 0 16 16" fill="none">
    <path
      d="M2.66671 5.33333V12.6667C2.66671 13.0203 2.80718 13.3594 3.05723 13.6095C3.30728 13.8595 3.64642 14 4.00004 14H12C12.3537 14 12.6928 13.8595 12.9428 13.6095C13.1929 13.3594 13.3334 13.0203 13.3334 12.6667V5.33333M6.66671 8H9.33337M2.00004 2H14C14.3682 2 14.6667 2.29848 14.6667 2.66667V4.66667C14.6667 5.03486 14.3682 5.33333 14 5.33333H2.00004C1.63185 5.33333 1.33337 5.03486 1.33337 4.66667V2.66667C1.33337 2.29848 1.63185 2 2.00004 2Z"
      stroke="currentColor" stroke-width="1.5" stroke-linecap="round" stroke-linejoin="round" />
  </symbol>

  <symbol id="swap" viewBox="0 0 640 512">
    <path
      d="M240 119c0 22.6-18.3 41-41 41H152V360c0 39.8 32.2 72 72 72s72-32.2 72-72V152c0-66.3 53.7-120 120-120s120 53.7 120 120V352h47c22.6 0 41 18.3 41 41c0 10.9-4.3 21.3-12 29l-83 83c-4.5 4.5-10.6 7-17 7s-12.5-2.5-17-7l-83-83c-7.7-7.7-12-18.1-12-29c0-22.6 18.3-41 41-41h47V152c0-39.8-32.2-72-72-72s-72 32.2-72 72V360c0 66.3-53.7 120-120 120s-120-53.7-120-120V160H57c-22.6 0-41-18.3-41-41c0-10.9 4.3-21.3 12-29L111 7c4.5-4.5 10.6-7 17-7s12.5 2.5 17 7l83 83c7.7 7.7 12 18.1 12 29zM73.9 112l108.1 0L128 57.9 73.9 112zm384 288L512 454.1 566.1 400H457.9z" />
  </symbol>
  <symbol id="key" viewBox="0 0 512 512">
    <path
      d="M208 176c0-70.7 57.3-128 128-128s128 57.3 128 128s-57.3 128-128 128c-10.4 0-20.5-1.2-30.1-3.6c-8.1-2-16.7 .4-22.6 6.4L254.1 336H200c-13.3 0-24 10.7-24 24v40H136c-13.3 0-24 10.7-24 24v40H48V385.9L205.2 228.7c5.9-5.9 8.3-14.5 6.4-22.6c-2.3-9.6-3.6-19.7-3.6-30.1zM336 0C238.8 0 160 78.8 160 176c0 9.5 .7 18.8 2.2 27.9L7 359c-4.5 4.5-7 10.6-7 17V488c0 13.3 10.7 24 24 24H136c13.3 0 24-10.7 24-24V448h40c13.3 0 24-10.7 24-24V384h40c6.4 0 12.5-2.5 17-7l27.2-27.2c9.1 1.4 18.4 2.2 27.9 2.2c97.2 0 176-78.8 176-176S433.2 0 336 0zm32 176a32 32 0 1 0 0-64 32 32 0 1 0 0 64z" />
  </symbol>
  <symbol id="bug" viewBox="0 0 512 512">
    <path
      d="M256 0c53 0 96 43 96 96v3.6c0 15.7-12.7 28.4-28.4 28.4H188.4c-15.7 0-28.4-12.7-28.4-28.4V96c0-53 43-96 96-96zM39 103c9.4-9.4 24.6-9.4 33.9 0l72.4 72.4C161.3 165.7 180 160 200 160H312c20 0 38.7 5.7 54.6 15.5L439 103c9.4-9.4 24.6-9.4 33.9 0s9.4 24.6 0 33.9l-72.4 72.4C410.3 225.3 416 244 416 264h72c13.3 0 24 10.7 24 24s-10.7 24-24 24H416v8c0 27.2-6.8 52.8-18.8 75.3L473 471c9.4 9.4 9.4 24.6 0 33.9s-24.6 9.4-33.9 0l-70.9-70.9C339.3 462.5 299.7 480 256 480s-83.3-17.5-112.2-45.9L73 505c-9.4 9.4-24.6 9.4-33.9 0s-9.4-24.6 0-33.9l75.8-75.8C102.8 372.8 96 347.2 96 320v-8H24c-13.3 0-24-10.7-24-24s10.7-24 24-24H96c0-20 5.7-38.7 15.5-54.6L39 137c-9.4-9.4-9.4-24.6 0-33.9zM144 264v56c0 53.6 37.7 98.4 88 109.4V280c0-13.3 10.7-24 24-24s24 10.7 24 24V429.4c50.3-11 88-55.8 88-109.4V264c0-30.9-25.1-56-56-56H200c-30.9 0-56 25.1-56 56z" />
  </symbol>
  <symbol id="arrow-right" viewBox="0 0 448 512">
    <path
      d="M440.6 273.4c4.7-4.5 7.4-10.8 7.4-17.4s-2.7-12.8-7.4-17.4l-176-168c-9.6-9.2-24.8-8.8-33.9 .8s-8.8 24.8 .8 33.9L364.1 232 24 232c-13.3 0-24 10.7-24 24s10.7 24 24 24l340.1 0L231.4 406.6c-9.6 9.2-9.9 24.3-.8 33.9s24.3 9.9 33.9 .8l176-168z" />
  </symbol>
  <symbol id="line-height" viewBox="0 0 576 512">
    <path
      d="M113.8 39.9c-4.6-5.1-11-7.9-17.8-7.9s-13.3 2.9-17.8 7.9l-72 80c-8.9 9.9-8.1 25 1.8 33.9s25 8.1 33.9-1.8L72 118.5V393.5L41.8 359.9c-8.9-9.9-24-10.7-33.9-1.8s-10.7 24-1.8 33.9l72 80c4.6 5.1 11 7.9 17.8 7.9s13.3-2.9 17.8-7.9l72-80c8.9-9.9 8.1-25-1.8-33.9s-25-8.1-33.9 1.8L120 393.5V118.5l30.2 33.5c8.9 9.9 24 10.7 33.9 1.8s10.7-24 1.8-33.9l-72-80zM248 72c-13.3 0-24 10.7-24 24s10.7 24 24 24H552c13.3 0 24-10.7 24-24s-10.7-24-24-24H248zm0 160c-13.3 0-24 10.7-24 24s10.7 24 24 24H552c13.3 0 24-10.7 24-24s-10.7-24-24-24H248zM224 416c0 13.3 10.7 24 24 24H552c13.3 0 24-10.7 24-24s-10.7-24-24-24H248c-13.3 0-24 10.7-24 24z" />
  </symbol>
  <symbol id="inbox" viewBox="0 0 512 512">
    <path
      d="M48 336h81.2l20.9 41.9c6.8 13.6 20.6 22.1 35.8 22.1H326.1c15.1 0 29-8.6 35.8-22.1L382.8 336H464v80c0 8.8-7.2 16-16 16H64c-8.8 0-16-7.2-16-16V336zm406.5-48H377.9c-15.1 0-29 8.6-35.8 22.1L321.2 352H190.8l-20.9-41.9c-6.8-13.6-20.6-22.1-35.8-22.1H57.5l49-195.9C108.2 85 114.6 80 122 80H390c7.3 0 13.7 5 15.5 12.1l49 195.9zM0 327.9V416c0 35.3 28.7 64 64 64H448c35.3 0 64-28.7 64-64V327.9c0-5.2-.6-10.4-1.9-15.5l-58-231.9C445 52 419.4 32 390 32H122C92.6 32 67 52 59.9 80.5L1.9 312.4C.6 317.4 0 322.6 0 327.9z" />
  </symbol>
  <symbol id="bugs" viewBox="0 0 576 512">
    <path
      d="M164.5 107.4l33.4-73.5c5.5-12.1 .1-26.3-11.9-31.8s-26.3-.1-31.8 11.9L128 71.7 101.9 14.1C96.4 2 82.1-3.3 70.1 2.1S52.7 21.9 58.1 33.9l33.4 73.5c-10.2 7.1-18.2 17-22.9 28.6h-17l-4.1-20.7c-2.6-13-15.2-21.4-28.2-18.8S-2.1 111.7 .5 124.7l8 40C10.7 175.9 20.6 184 32 184H64v23.3l-37.8 9.5c-9.5 2.4-16.6 10.2-17.9 19.9l-8 56c-1.9 13.1 7.2 25.3 20.4 27.2s25.3-7.2 27.2-20.4l5.7-40 18.4-4.6C82.7 274.6 103.8 288 128 288s45.3-13.4 56.1-33.2l18.4 4.6 5.7 40c1.9 13.1 14 22.2 27.2 20.4s22.2-14 20.4-27.2l-8-56c-1.4-9.7-8.5-17.5-17.9-19.9L192 207.3V184h32c11.4 0 21.3-8.1 23.5-19.3l8-40c2.6-13-5.8-25.6-18.8-28.2s-25.6 5.8-28.2 18.8L204.3 136h-17c-4.7-11.6-12.7-21.5-22.9-28.6zM496 286.5l65.6-47c10.8-7.7 13.3-22.7 5.6-33.5s-22.7-13.3-33.5-5.6l-51.4 36.8 6.1-62.9c1.3-13.2-8.4-24.9-21.6-26.2s-24.9 8.4-26.2 21.6L432.8 250c-12.3 1-24.2 5.6-34.1 13.3L384 254.8l6.8-20c4.2-12.6-2.5-26.2-15-30.4s-26.2 2.5-30.4 15l-13.1 38.6c-3.7 10.8 .8 22.8 10.7 28.5l27.7 16L359 322.7 321.5 312c-9.4-2.7-19.5 .6-25.5 8.3l-34.9 44.5c-8.2 10.4-6.4 25.5 4.1 33.7s25.5 6.4 33.7-4.1l25-31.8 18.2 5.2c-.5 22.6 11 44.7 32 56.8s45.9 11 65.2-.7l13.6 13.2-15.1 37.5c-4.9 12.3 1 26.3 13.3 31.2s26.3-1 31.2-13.3L503.5 440c3.6-9.1 1.4-19.4-5.6-26.2l-28-27.1 11.6-20.1 27.7 16c9.9 5.7 22.5 3.7 30-4.9L566.2 347c8.7-10 7.8-25.1-2.2-33.9s-25.1-7.8-33.9 2.2l-13.9 15.9-14.7-8.5c1.7-12.4-.2-25-5.5-36.2zM144 224c0 8.8-7.2 16-16 16s-16-7.2-16-16V160c0-8.8 7.2-16 16-16s16 7.2 16 16v64zm307.9 97.8l-32 55.4c-4.4 7.7-14.2 10.3-21.9 5.9s-10.3-14.2-5.9-21.9l32-55.4c4.4-7.7 14.2-10.3 21.9-5.9s10.3 14.2 5.9 21.9z" />
  </symbol>
  <symbol id="user-plus" viewBox="0 0 640 512">
    <path
      d="M224 48a80 80 0 1 1 0 160 80 80 0 1 1 0-160zm0 208A128 128 0 1 0 224 0a128 128 0 1 0 0 256zm-45.7 96h91.4c65.7 0 120.1 48.7 129 112H49.3c8.9-63.3 63.3-112 129-112zm0-48C79.8 304 0 383.8 0 482.3C0 498.7 13.3 512 29.7 512H418.3c16.4 0 29.7-13.3 29.7-29.7C448 383.8 368.2 304 269.7 304H178.3zM504 312c0 13.3 10.7 24 24 24s24-10.7 24-24V248h64c13.3 0 24-10.7 24-24s-10.7-24-24-24H552V136c0-13.3-10.7-24-24-24s-24 10.7-24 24v64H440c-13.3 0-24 10.7-24 24s10.7 24 24 24h64v64z" />
  </symbol>
  <symbol id="chart-simple-horizontal" viewBox="0 0 448 512">
    <path
      d="M400 240L48 240l0 32 352 0 0-32zm48 32c0 26.5-21.5 48-48 48L48 320c-26.5 0-48-21.5-48-48l0-32c0-26.5 21.5-48 48-48l352 0c26.5 0 48 21.5 48 48l0 32zM208 400L48 400l0 32 160 0 0-32zm48 32c0 26.5-21.5 48-48 48L48 480c-26.5 0-48-21.5-48-48l0-32c0-26.5 21.5-48 48-48l160 0c26.5 0 48 21.5 48 48l0 32zm80-320l0-32L48 80l0 32 288 0zm0 48L48 160c-26.5 0-48-21.5-48-48L0 80C0 53.5 21.5 32 48 32l288 0c26.5 0 48 21.5 48 48l0 32c0 26.5-21.5 48-48 48z" />
  </symbol>
  <symbol id="chart-bar" viewBox="0 0 512 512">
    <path
      d="M24 32c13.3 0 24 10.7 24 24V408c0 13.3 10.7 24 24 24H488c13.3 0 24 10.7 24 24s-10.7 24-24 24H72c-39.8 0-72-32.2-72-72V56C0 42.7 10.7 32 24 32zM128 136c0-13.3 10.7-24 24-24l208 0c13.3 0 24 10.7 24 24s-10.7 24-24 24l-208 0c-13.3 0-24-10.7-24-24zm24 72H296c13.3 0 24 10.7 24 24s-10.7 24-24 24H152c-13.3 0-24-10.7-24-24s10.7-24 24-24zm0 96H424c13.3 0 24 10.7 24 24s-10.7 24-24 24H152c-13.3 0-24-10.7-24-24s10.7-24 24-24z" />
  </symbol>
  <symbol id="octagon-exclamation" viewBox="0 0 512 512">
    <path
      d="M191.5 48.1c-6.4 0-12.5 2.5-17 7L55.1 174.5c-4.5 4.5-7 10.6-7 17v129c0 6.4 2.5 12.5 7 17L21.2 371.4C7.7 357.9 .1 339.6 .1 320.5v-129c0-19.1 7.6-37.4 21.1-50.9L140.6 21.2C154.1 7.7 172.4 .1 191.5 .1h129c19.1 0 37.4 7.6 50.9 21.1L490.8 140.6c13.5 13.5 21.1 31.8 21.1 50.9v129c0 19.1-7.6 37.4-21.1 50.9L371.4 490.8c-13.5 13.5-31.8 21.1-50.9 21.1h-129c-19.1 0-37.4-7.6-50.9-21.1L21.2 371.4l33.9-33.9L174.5 456.9c4.5 4.5 10.6 7 17 7h129c6.4 0 12.5-2.5 17-7L456.9 337.5c4.5-4.5 7-10.6 7-17v-129c0-6.4-2.5-12.5-7-17L337.5 55.1c-4.5-4.5-10.6-7-17-7h-129zM256 128c13.3 0 24 10.7 24 24V264c0 13.3-10.7 24-24 24s-24-10.7-24-24V152c0-13.3 10.7-24 24-24zM224 352a32 32 0 1 1 64 0 32 32 0 1 1 -64 0z" />
  </symbol>
  <symbol id="bell" viewBox="0 0 448 512">
    <path
      d="M224 0c-17.7 0-32 14.3-32 32V51.2C119 66 64 130.6 64 208v25.4c0 45.4-15.5 89.5-43.8 124.9L5.3 377c-5.8 7.2-6.9 17.1-2.9 25.4S14.8 416 24 416H424c9.2 0 17.6-5.3 21.6-13.6s2.9-18.2-2.9-25.4l-14.9-18.6C399.5 322.9 384 278.8 384 233.4V208c0-77.4-55-142-128-156.8V32c0-17.7-14.3-32-32-32zm0 96c61.9 0 112 50.1 112 112v25.4c0 47.9 13.9 94.6 39.7 134.6H72.3C98.1 328 112 281.3 112 233.4V208c0-61.9 50.1-112 112-112zm64 352H224 160c0 17 6.7 33.3 18.7 45.3s28.3 18.7 45.3 18.7s33.3-6.7 45.3-18.7s18.7-28.3 18.7-45.3z" />
  </symbol>
  <symbol id="bug-slash" viewBox="0 0 640 512">
    <path
      d="M224 96c0-53 43-96 96-96s96 43 96 96v3.6c0 15.7-12.7 28.4-28.4 28.4H252.4c-15.7 0-28.4-12.7-28.4-28.4V96zm73.7 112L432 313.3V264c0-30.9-25.1-56-56-56H297.7zM477.4 348.9L630.8 469.1c10.4 8.2 12.3 23.3 4.1 33.7s-23.3 12.3-33.7 4.1L9.2 42.9C-1.2 34.7-3.1 19.6 5.1 9.2S28.4-3.1 38.8 5.1L240 162.8c7.7-1.8 15.8-2.8 24-2.8H376c20 0 38.7 5.7 54.6 15.5L503 103c9.4-9.4 24.6-9.4 33.9 0s9.4 24.6 0 33.9l-72.4 72.4C474.3 225.3 480 244 480 264h72c13.3 0 24 10.7 24 24s-10.7 24-24 24H480v8c0 9.9-.9 19.5-2.6 28.9zm-46.6 86.5C402.1 463 363 480 320 480c-43.7 0-83.3-17.5-112.2-45.9L137 505c-9.4 9.4-24.6 9.4-33.9 0s-9.4-24.6 0-33.9l75.8-75.8c-12-22.4-18.8-48.1-18.8-75.3v-8H88c-13.3 0-24-10.7-24-24s10.7-24 24-24h72c0-12.9 2.4-25.3 6.7-36.7L208.1 260c-.1 1.3-.1 2.7-.1 4v56c0 53.6 37.7 98.4 88 109.4V329.2L344 367v62.4c18.3-4 34.8-12.4 48.6-24.1l38.2 30.1z" />
  </symbol>
  <symbol id="trash-can" viewBox="0 0 448 512">
    <path
      d="M170.5 51.6L151.5 80h145l-19-28.4c-1.5-2.2-4-3.6-6.7-3.6H177.1c-2.7 0-5.2 1.3-6.7 3.6zm147-26.6L354.2 80H368h48 8c13.3 0 24 10.7 24 24s-10.7 24-24 24h-8V432c0 44.2-35.8 80-80 80H112c-44.2 0-80-35.8-80-80V128H24c-13.3 0-24-10.7-24-24S10.7 80 24 80h8H80 93.8l36.7-55.1C140.9 9.4 158.4 0 177.1 0h93.7c18.7 0 36.2 9.4 46.6 24.9zM80 128V432c0 17.7 14.3 32 32 32H336c17.7 0 32-14.3 32-32V128H80zm80 64V400c0 8.8-7.2 16-16 16s-16-7.2-16-16V192c0-8.8 7.2-16 16-16s16 7.2 16 16zm80 0V400c0 8.8-7.2 16-16 16s-16-7.2-16-16V192c0-8.8 7.2-16 16-16s16 7.2 16 16zm80 0V400c0 8.8-7.2 16-16 16s-16-7.2-16-16V192c0-8.8 7.2-16 16-16s16 7.2 16 16z" />
  </symbol>
  <symbol id="arrows-turn-right" viewBox="0 0 448 512">
    <path
      d="M294.4 7.7c9-9.7 24.2-10.3 33.9-1.3l112 104c4.9 4.5 7.7 10.9 7.7 17.6s-2.8 13-7.7 17.6l-112 104c-9.7 9-24.9 8.5-33.9-1.3s-8.5-24.9 1.3-33.9L362.9 152H120c-39.8 0-72 32.2-72 72v40c0 13.3-10.7 24-24 24s-24-10.7-24-24V224c0-66.3 53.7-120 120-120H362.9L295.7 41.6c-9.7-9-10.3-24.2-1.3-33.9zm-96 256c9-9.7 24.2-10.3 33.9-1.3l112 104c4.9 4.5 7.7 10.9 7.7 17.6s-2.8 13-7.7 17.6l-112 104c-9.7 9-24.9 8.5-33.9-1.3s-8.5-24.9 1.3-33.9L266.9 408H88c-22.1 0-40 17.9-40 40v40c0 13.3-10.7 24-24 24s-24-10.7-24-24V448c0-48.6 39.4-88 88-88H266.9l-67.2-62.4c-9.7-9-10.3-24.2-1.3-33.9z" />
  </symbol>
  <symbol id="brackets-curly" viewBox="0 0 576 512">
    <path
      d="M152 32c-48.6 0-88 39.4-88 88v45.5c0 10.6-4.2 20.8-11.7 28.3L7 239c-9.4 9.4-9.4 24.6 0 33.9l45.3 45.3c7.5 7.5 11.7 17.7 11.7 28.3V392c0 48.6 39.4 88 88 88h48c13.3 0 24-10.7 24-24s-10.7-24-24-24H152c-22.1 0-40-17.9-40-40V346.5c0-23.3-9.3-45.7-25.8-62.2L57.9 256l28.3-28.3c16.5-16.5 25.8-38.9 25.8-62.2V120c0-22.1 17.9-40 40-40h48c13.3 0 24-10.7 24-24s-10.7-24-24-24H152zm272 0H376c-13.3 0-24 10.7-24 24s10.7 24 24 24h48c22.1 0 40 17.9 40 40v45.5c0 23.3 9.3 45.7 25.8 62.2L518.1 256l-28.3 28.3c-16.5 16.5-25.8 38.9-25.8 62.2V392c0 22.1-17.9 40-40 40H376c-13.3 0-24 10.7-24 24s10.7 24 24 24h48c48.6 0 88-39.4 88-88V346.5c0-10.6 4.2-20.8 11.7-28.3L569 273c9.4-9.4 9.4-24.6 0-33.9l-45.3-45.3c-7.5-7.5-11.7-17.7-11.7-28.3V120c0-48.6-39.4-88-88-88z" />
  </symbol>
  <symbol id="arrow-left" viewBox="0 0 448 512">
    <path
      d="M7.4 273.4C2.7 268.8 0 262.6 0 256s2.7-12.8 7.4-17.4l176-168c9.6-9.2 24.8-8.8 33.9 .8s8.8 24.8-.8 33.9L83.9 232 424 232c13.3 0 24 10.7 24 24s-10.7 24-24 24L83.9 280 216.6 406.6c9.6 9.2 9.9 24.3 .8 33.9s-24.3 9.9-33.9 .8l-176-168z" />
  </symbol>
  <symbol id="copy" viewBox="0 0 448 512">
    <path
      d="M384 336H192c-8.8 0-16-7.2-16-16V64c0-8.8 7.2-16 16-16l140.1 0L400 115.9V320c0 8.8-7.2 16-16 16zM192 384H384c35.3 0 64-28.7 64-64V115.9c0-12.7-5.1-24.9-14.1-33.9L366.1 14.1c-9-9-21.2-14.1-33.9-14.1H192c-35.3 0-64 28.7-64 64V320c0 35.3 28.7 64 64 64zM64 128c-35.3 0-64 28.7-64 64V448c0 35.3 28.7 64 64 64H256c35.3 0 64-28.7 64-64V416H272v32c0 8.8-7.2 16-16 16H64c-8.8 0-16-7.2-16-16V192c0-8.8 7.2-16 16-16H96V128H64z" />
  </symbol>
  <symbol id="arrows-rotate" viewBox="0 0 512 512">
    <path
      d="M94 187.1C120.8 124.1 183.3 80 256 80c39.7 0 77.8 15.8 105.9 43.9L414.1 176H360c-13.3 0-24 10.7-24 24s10.7 24 24 24H472c13.3 0 24-10.7 24-24V88c0-13.3-10.7-24-24-24s-24 10.7-24 24v54.1L395.9 89.9C358.8 52.8 308.5 32 256 32C163.4 32 83.9 88.2 49.8 168.3c-5.2 12.2 .5 26.3 12.7 31.5s26.3-.5 31.5-12.7zm368 157c5.2-12.2-.4-26.3-12.6-31.5s-26.3 .4-31.5 12.6C391 388.1 328.6 432 256 432c-39.7 0-77.8-15.8-105.9-43.9L97.9 336H152c13.3 0 24-10.7 24-24s-10.7-24-24-24H40c-13.3 0-24 10.7-24 24V424c0 13.3 10.7 24 24 24s24-10.7 24-24V369.9l52.1 52.1C153.2 459.2 203.5 480 256 480c92.5 0 171.8-56 206-135.9z" />
  </symbol>
  <symbol id="expand" viewBox="0 0 448 512">
    <path
      d="M136 32c13.3 0 24 10.7 24 24s-10.7 24-24 24H48v88c0 13.3-10.7 24-24 24s-24-10.7-24-24V56C0 42.7 10.7 32 24 32H136zM0 344c0-13.3 10.7-24 24-24s24 10.7 24 24v88h88c13.3 0 24 10.7 24 24s-10.7 24-24 24H24c-13.3 0-24-10.7-24-24V344zM424 32c13.3 0 24 10.7 24 24V168c0 13.3-10.7 24-24 24s-24-10.7-24-24V80H312c-13.3 0-24-10.7-24-24s10.7-24 24-24H424zM400 344c0-13.3 10.7-24 24-24s24 10.7 24 24V456c0 13.3-10.7 24-24 24H312c-13.3 0-24-10.7-24-24s10.7-24 24-24h88V344z" />
  </symbol>
  <symbol id="arrow-down-to-line" viewBox="0 0 384 512">
    <path
      d="M360 480c13.3 0 24-10.7 24-24s-10.7-24-24-24L24 432c-13.3 0-24 10.7-24 24s10.7 24 24 24l336 0zM174.5 344.4c4.5 4.8 10.9 7.6 17.5 7.6s12.9-2.7 17.5-7.6l128-136c9.1-9.7 8.6-24.8-1-33.9s-24.8-8.6-33.9 1L216 267.5l0-83.5 0-128c0-13.3-10.7-24-24-24s-24 10.7-24 24l0 128 0 83.5L81.5 175.6c-9.1-9.7-24.3-10.1-33.9-1s-10.1 24.3-1 33.9l128 136z" />
  </symbol>
  <symbol id="pen-to-square" viewBox="0 0 512 512"><!--!Font
    Awesome Free 6.5.2 by @fontawesome - https://fontawesome.com License -
    https://fontawesome.com/license/free Copyright 2024 Fonticons, Inc.-->
    <path
      d="M441 58.9L453.1 71c9.4 9.4 9.4 24.6 0 33.9L424 134.1 377.9 88 407 58.9c9.4-9.4 24.6-9.4 33.9 0zM209.8 256.2L344 121.9 390.1 168 255.8 302.2c-2.9 2.9-6.5 5-10.4 6.1l-58.5 16.7 16.7-58.5c1.1-3.9 3.2-7.5 6.1-10.4zM373.1 25L175.8 222.2c-8.7 8.7-15 19.4-18.3 31.1l-28.6 100c-2.4 8.4-.1 17.4 6.1 23.6s15.2 8.5 23.6 6.1l100-28.6c11.8-3.4 22.5-9.7 31.1-18.3L487 138.9c28.1-28.1 28.1-73.7 0-101.8L474.9 25C446.8-3.1 401.2-3.1 373.1 25zM88 64C39.4 64 0 103.4 0 152V424c0 48.6 39.4 88 88 88H360c48.6 0 88-39.4 88-88V312c0-13.3-10.7-24-24-24s-24 10.7-24 24V424c0 22.1-17.9 40-40 40H88c-22.1 0-40-17.9-40-40V152c0-22.1 17.9-40 40-40H200c13.3 0 24-10.7 24-24s-10.7-24-24-24H88z" />
  </symbol>
  <symbol id="dollar-sign" viewBox="0 0 320 512"><!--!Font
    Awesome Pro 6.5.2 by @fontawesome - https://fontawesome.com License -
    https://fontawesome.com/license (Commercial License) Copyright 2024 Fonticons, Inc.-->
    <path
      d="M184 24c0-13.3-10.7-24-24-24s-24 10.7-24 24V71.7c-3.1 .1-6.2 .3-9.3 .6c-23.2 1.9-47.2 7.4-67.2 20.1C38.7 105.6 23.5 126 18 154.2c-3.9 20.3-2 38.8 6.1 55.2c8 16 20.9 27.6 34.8 36.2c26.2 16.2 61.9 25.3 92.9 33.2l2.3 .6c33.9 8.6 62.6 16.1 81.7 28c9 5.6 14.3 11.2 17.1 16.9c2.7 5.3 4.2 12.8 2 24.5c-2.9 14.7-13.4 26.9-34.5 34.9c-21.6 8.2-52 10.9-87.6 5.9c-22.6-3.3-61.8-12.7-83-22.1c-12.1-5.4-26.3 .1-31.7 12.2s.1 26.3 12.2 31.7C57 423.2 101.1 433.4 126 437l.1 0c3.3 .5 6.6 .9 9.9 1.2V488c0 13.3 10.7 24 24 24s24-10.7 24-24V439.4c19.3-1.3 37.4-4.9 53.5-11c31.9-12.1 57.7-35.2 64.5-70.6c3.9-20.3 2-38.8-6.1-55.2c-8-16-20.9-27.6-34.8-36.2c-26.2-16.2-61.9-25.3-92.9-33.2l-2.3-.6c-33.9-8.6-62.6-16.1-81.7-28c-9-5.6-14.3-11.2-17.1-16.9c-2.7-5.3-4.2-12.8-2-24.5c2.9-14.8 10.1-24 20.2-30.4c10.9-6.9 26.3-11.2 45.3-12.7c38.3-3.1 83.1 5.3 113.9 12.5c12.9 3.1 25.8-4.9 28.9-17.8s-4.9-25.8-17.8-28.9c-18.7-4.4-44.2-9.7-71.5-12.5V24z" />
  </symbol>
  <symbol id="square-dashed" viewBox="0 0 448 512"><!--!Font
    Awesome Pro 6.5.2 by @fontawesome - https://fontawesome.com License -
    https://fontawesome.com/license (Commercial License) Copyright 2024 Fonticons, Inc.-->
    <path
      d="M96 32h32V96H96c-17.7 0-32 14.3-32 32v32H0V128C0 75 43 32 96 32zM0 192H64V320H0V192zm384 0h64V320H384V192zm64-32H384V128c0-17.7-14.3-32-32-32H320V32h32c53 0 96 43 96 96v32zm0 192v32c0 53-43 96-96 96H320V416h32c17.7 0 32-14.3 32-32V352h64zM64 352v32c0 17.7 14.3 32 32 32h32v64H96c-53 0-96-43-96-96V352H64zm96 128V416H288v64H160zm0-384V32H288V96H160z" />
  </symbol>
  <symbol id="sparkles" viewBox="0 0 512 512"><!--!Font
    Awesome Pro 6.5.2 by @fontawesome - https://fontawesome.com License -
    https://fontawesome.com/license (Commercial License) Copyright 2024 Fonticons, Inc.-->
    <path
      d="M327.5 85.2c-4.5 1.7-7.5 6-7.5 10.8s3 9.1 7.5 10.8L384 128l21.2 56.5c1.7 4.5 6 7.5 10.8 7.5s9.1-3 10.8-7.5L448 128l56.5-21.2c4.5-1.7 7.5-6 7.5-10.8s-3-9.1-7.5-10.8L448 64 426.8 7.5C425.1 3 420.8 0 416 0s-9.1 3-10.8 7.5L384 64 327.5 85.2zM9.3 240C3.6 242.6 0 248.3 0 254.6s3.6 11.9 9.3 14.5L26.3 277l8.1 3.7 .6 .3 88.3 40.8L164.1 410l.3 .6 3.7 8.1 7.9 17.1c2.6 5.7 8.3 9.3 14.5 9.3s11.9-3.6 14.5-9.3l7.9-17.1 3.7-8.1 .3-.6 40.8-88.3L346 281l.6-.3 8.1-3.7 17.1-7.9c5.7-2.6 9.3-8.3 9.3-14.5s-3.6-11.9-9.3-14.5l-17.1-7.9-8.1-3.7-.6-.3-88.3-40.8L217 99.1l-.3-.6L213 90.3l-7.9-17.1c-2.6-5.7-8.3-9.3-14.5-9.3s-11.9 3.6-14.5 9.3l-7.9 17.1-3.7 8.1-.3 .6-40.8 88.3L35.1 228.1l-.6 .3-8.1 3.7L9.3 240zm83 14.5l51.2-23.6c10.4-4.8 18.7-13.1 23.5-23.5l23.6-51.2 23.6 51.2c4.8 10.4 13.1 18.7 23.5 23.5l51.2 23.6-51.2 23.6c-10.4 4.8-18.7 13.1-23.5 23.5l-23.6 51.2-23.6-51.2c-4.8-10.4-13.1-18.7-23.5-23.5L92.3 254.6zM384 384l-56.5 21.2c-4.5 1.7-7.5 6-7.5 10.8s3 9.1 7.5 10.8L384 448l21.2 56.5c1.7 4.5 6 7.5 10.8 7.5s9.1-3 10.8-7.5L448 448l56.5-21.2c4.5-1.7 7.5-6 7.5-10.8s-3-9.1-7.5-10.8L448 384l-21.2-56.5c-1.7-4.5-6-7.5-10.8-7.5s-9.1 3-10.8 7.5L384 384z" />
  </symbol>
  <symbol id="chevron-down" viewBox="0 0 512 512"><!--!Font
    Awesome Pro 6.5.2 by @fontawesome - https://fontawesome.com License -
    https://fontawesome.com/license (Commercial License) Copyright 2024 Fonticons, Inc.-->
    <path
      d="M239 401c9.4 9.4 24.6 9.4 33.9 0L465 209c9.4-9.4 9.4-24.6 0-33.9s-24.6-9.4-33.9 0l-175 175L81 175c-9.4-9.4-24.6-9.4-33.9 0s-9.4 24.6 0 33.9L239 401z" />
  </symbol>
  <symbol id="chevron-up" viewBox="0 0 512 512"><!--!Font
    Awesome Pro 6.5.2 by @fontawesome - https://fontawesome.com License -
    https://fontawesome.com/license (Commercial License) Copyright 2024 Fonticons, Inc.-->
    <path
      d="M239 111c9.4-9.4 24.6-9.4 33.9 0L465 303c9.4 9.4 9.4 24.6 0 33.9s-24.6 9.4-33.9 0l-175-175L81 337c-9.4 9.4-24.6 9.4-33.9 0s-9.4-24.6 0-33.9L239 111z" />
  </symbol>
  <symbol id="chevron-right" viewBox="0 0 320 512"><!--!Font
    Awesome Pro 6.5.2 by @fontawesome - https://fontawesome.com License -
    https://fontawesome.com/license (Commercial License) Copyright 2024 Fonticons, Inc.-->
    <path
      d="M305 239c9.4 9.4 9.4 24.6 0 33.9L113 465c-9.4 9.4-24.6 9.4-33.9 0s-9.4-24.6 0-33.9l175-175L79 81c-9.4-9.4-9.4-24.6 0-33.9s24.6-9.4 33.9 0L305 239z" />
  </symbol>
  <symbol id="chevron-left" viewBox="0 0 320 512"><!--!Font
    Awesome Pro 6.5.2 by @fontawesome - https://fontawesome.com License -
    https://fontawesome.com/license (Commercial License) Copyright 2024 Fonticons, Inc.-->
    <path
      d="M15 239c-9.4 9.4-9.4 24.6 0 33.9L207 465c9.4 9.4 24.6 9.4 33.9 0s9.4-24.6 0-33.9L65.9 256 241 81c9.4-9.4 9.4-24.6 0-33.9s-24.6-9.4-33.9 0L15 239z" />
  </symbol>
  <symbol id="link-simple" viewBox="0 0 576 512"><!--!Font
    Awesome Pro 6.5.2 by @fontawesome - https://fontawesome.com License -
    https://fontawesome.com/license (Commercial License) Copyright 2024 Fonticons, Inc.-->
    <path
      d="M0 256C0 167.6 71.6 96 160 96h64c17.7 0 32 14.3 32 32s-14.3 32-32 32H160c-53 0-96 43-96 96s43 96 96 96h64c17.7 0 32 14.3 32 32s-14.3 32-32 32H160C71.6 416 0 344.4 0 256zm576 0c0 88.4-71.6 160-160 160H352c-17.7 0-32-14.3-32-32s14.3-32 32-32h64c53 0 96-43 96-96s-43-96-96-96H352c-17.7 0-32-14.3-32-32s14.3-32 32-32h64c88.4 0 160 71.6 160 160zM192 224H384c17.7 0 32 14.3 32 32s-14.3 32-32 32H192c-17.7 0-32-14.3-32-32s14.3-32 32-32z" />
  </symbol>
  <symbol id="circle-play" viewBox="0 0 512 512"><!--!Font
    Awesome Free 6.5.2 by @fontawesome - https://fontawesome.com License -
    https://fontawesome.com/license/free Copyright 2024 Fonticons, Inc.-->
    <path
      d="M464 256A208 208 0 1 0 48 256a208 208 0 1 0 416 0zM0 256a256 256 0 1 1 512 0A256 256 0 1 1 0 256zM188.3 147.1c7.6-4.2 16.8-4.1 24.3 .5l144 88c7.1 4.4 11.5 12.1 11.5 20.5s-4.4 16.1-11.5 20.5l-144 88c-7.4 4.5-16.7 4.7-24.3 .5s-12.3-12.2-12.3-20.9V168c0-8.7 4.7-16.7 12.3-20.9z" />
  </symbol>
  <symbol id="circle-check" viewBox="0 0 512 512"><!--!Font
    Awesome Free 6.5.2 by @fontawesome - https://fontawesome.com License -
    https://fontawesome.com/license/free Copyright 2024 Fonticons, Inc.-->
    <path
      d="M256 48a208 208 0 1 1 0 416 208 208 0 1 1 0-416zm0 464A256 256 0 1 0 256 0a256 256 0 1 0 0 512zM369 209c9.4-9.4 9.4-24.6 0-33.9s-24.6-9.4-33.9 0l-111 111-47-47c-9.4-9.4-24.6-9.4-33.9 0s-9.4 24.6 0 33.9l64 64c9.4 9.4 24.6 9.4 33.9 0L369 209z" />
  </symbol>
  <symbol id="folders" viewBox="0 0 576 512"><!--!Font
    Awesome Pro 6.5.2 by @fontawesome - https://fontawesome.com License -
    https://fontawesome.com/license (Commercial License) Copyright 2024 Fonticons, Inc.-->
    <path
      d="M512 336H160c-8.8 0-16-7.2-16-16V96c0-8.8 7.2-16 16-16H277.5c4.2 0 8.3 1.7 11.3 4.7l26.5 26.5c21 21 49.5 32.8 79.2 32.8H512c8.8 0 16 7.2 16 16V320c0 8.8-7.2 16-16 16zM160 384H512c35.3 0 64-28.7 64-64V160c0-35.3-28.7-64-64-64H394.5c-17 0-33.3-6.7-45.3-18.7L322.7 50.7c-12-12-28.3-18.7-45.3-18.7H160c-35.3 0-64 28.7-64 64V320c0 35.3 28.7 64 64 64zM48 120c0-13.3-10.7-24-24-24S0 106.7 0 120V344c0 75.1 60.9 136 136 136H456c13.3 0 24-10.7 24-24s-10.7-24-24-24H136c-48.6 0-88-39.4-88-88V120z" />
  </symbol>
  <symbol id="gear" viewBox="0 0 512 512"><!--!Font
    Awesome Pro 6.5.2 by @fontawesome - https://fontawesome.com License -
    https://fontawesome.com/license (Commercial License) Copyright 2024 Fonticons, Inc.-->
    <path
      d="M256 0c17 0 33.6 1.7 49.8 4.8c7.9 1.5 21.8 6.1 29.4 20.1c2 3.7 3.6 7.6 4.6 11.8l9.3 38.5C350.5 81 360.3 86.7 366 85l38-11.2c4-1.2 8.1-1.8 12.2-1.9c16.1-.5 27 9.4 32.3 15.4c22.1 25.1 39.1 54.6 49.9 86.3c2.6 7.6 5.6 21.8-2.7 35.4c-2.2 3.6-4.9 7-8 10L459 246.3c-4.2 4-4.2 15.5 0 19.5l28.7 27.3c3.1 3 5.8 6.4 8 10c8.2 13.6 5.2 27.8 2.7 35.4c-10.8 31.7-27.8 61.1-49.9 86.3c-5.3 6-16.3 15.9-32.3 15.4c-4.1-.1-8.2-.8-12.2-1.9L366 427c-5.7-1.7-15.5 4-16.9 9.8l-9.3 38.5c-1 4.2-2.6 8.2-4.6 11.8c-7.7 14-21.6 18.5-29.4 20.1C289.6 510.3 273 512 256 512s-33.6-1.7-49.8-4.8c-7.9-1.5-21.8-6.1-29.4-20.1c-2-3.7-3.6-7.6-4.6-11.8l-9.3-38.5c-1.4-5.8-11.2-11.5-16.9-9.8l-38 11.2c-4 1.2-8.1 1.8-12.2 1.9c-16.1 .5-27-9.4-32.3-15.4c-22-25.1-39.1-54.6-49.9-86.3c-2.6-7.6-5.6-21.8 2.7-35.4c2.2-3.6 4.9-7 8-10L53 265.7c4.2-4 4.2-15.5 0-19.5L24.2 218.9c-3.1-3-5.8-6.4-8-10C8 195.3 11 181.1 13.6 173.6c10.8-31.7 27.8-61.1 49.9-86.3c5.3-6 16.3-15.9 32.3-15.4c4.1 .1 8.2 .8 12.2 1.9L146 85c5.7 1.7 15.5-4 16.9-9.8l9.3-38.5c1-4.2 2.6-8.2 4.6-11.8c7.7-14 21.6-18.5 29.4-20.1C222.4 1.7 239 0 256 0zM218.1 51.4l-8.5 35.1c-7.8 32.3-45.3 53.9-77.2 44.6L97.9 120.9c-16.5 19.3-29.5 41.7-38 65.7l26.2 24.9c24 22.8 24 66.2 0 89L59.9 325.4c8.5 24 21.5 46.4 38 65.7l34.6-10.2c31.8-9.4 69.4 12.3 77.2 44.6l8.5 35.1c24.6 4.5 51.3 4.5 75.9 0l8.5-35.1c7.8-32.3 45.3-53.9 77.2-44.6l34.6 10.2c16.5-19.3 29.5-41.7 38-65.7l-26.2-24.9c-24-22.8-24-66.2 0-89l26.2-24.9c-8.5-24-21.5-46.4-38-65.7l-34.6 10.2c-31.8 9.4-69.4-12.3-77.2-44.6l-8.5-35.1c-24.6-4.5-51.3-4.5-75.9 0zM208 256a48 48 0 1 0 96 0 48 48 0 1 0 -96 0zm48 96a96 96 0 1 1 0-192 96 96 0 1 1 0 192z" />
  </symbol>
  <symbol id="key" viewBox="0 0 512 512"><!--!Font
    Awesome Pro 6.5.2 by @fontawesome - https://fontawesome.com License -
    https://fontawesome.com/license (Commercial License) Copyright 2024 Fonticons, Inc.-->
    <path
      d="M208 176c0-70.7 57.3-128 128-128s128 57.3 128 128s-57.3 128-128 128c-10.4 0-20.5-1.2-30.1-3.6c-8.1-2-16.7 .4-22.6 6.4L254.1 336H200c-13.3 0-24 10.7-24 24v40H136c-13.3 0-24 10.7-24 24v40H48V385.9L205.2 228.7c5.9-5.9 8.3-14.5 6.4-22.6c-2.3-9.6-3.6-19.7-3.6-30.1zM336 0C238.8 0 160 78.8 160 176c0 9.5 .7 18.8 2.2 27.9L7 359c-4.5 4.5-7 10.6-7 17V488c0 13.3 10.7 24 24 24H136c13.3 0 24-10.7 24-24V448h40c13.3 0 24-10.7 24-24V384h40c6.4 0 12.5-2.5 17-7l27.2-27.2c9.1 1.4 18.4 2.2 27.9 2.2c97.2 0 176-78.8 176-176S433.2 0 336 0zm32 176a32 32 0 1 0 0-64 32 32 0 1 0 0 64z" />
  </symbol>
  <symbol id="plus" viewBox="0 0 448 512">
    <path
      d="M256 80c0-17.7-14.3-32-32-32s-32 14.3-32 32V224H48c-17.7 0-32 14.3-32 32s14.3 32 32 32H192V432c0 17.7 14.3 32 32 32s32-14.3 32-32V288H400c17.7 0 32-14.3 32-32s-14.3-32-32-32H256V80z" />
  </symbol>


  <symbol id="cross-hair" width="12" height="12" viewBox="0 0 12 12" fill="none"
    xmlns="http://www.w3.org/2000/svg">
    <g clip-path="url(#clip0_7428_47266)">
      <path
        d="M11 6C11 8.76142 8.76142 11 6 11M11 6C11 3.23858 8.76142 1 6 1M11 6H9M6 11C3.23858 11 1 8.76142 1 6M6 11V9M1 6C1 3.23858 3.23858 1 6 1M1 6H3M6 1V3"
        stroke="#0068FF" stroke-opacity="0.8" stroke-width="2" stroke-linecap="round"
        stroke-linejoin="round" />
    </g>
    <defs>
      <clipPath id="clip0_7428_47266">
        <rect width="12" height="12" fill="white" />
      </clipPath>
    </defs>
  </symbol>


  <symbol id="alert-triangle" width="12" height="12" viewBox="0 0 12 12" fill="none"
    xmlns="http://www.w3.org/2000/svg">
    <g id="Alert triangle">
      <path id="Icon"
        d="M5.99988 4.49963V6.49963M5.99988 8.49963H6.00488M5.14489 1.92961L0.909888 8.99961C0.822572 9.15083 0.776372 9.32226 0.775883 9.49687C0.775394 9.67148 0.820634 9.84318 0.907102 9.99488C0.993569 10.1466 1.11825 10.273 1.26874 10.3615C1.41923 10.4501 1.59029 10.4977 1.76489 10.4996H10.2349C10.4095 10.4977 10.5805 10.4501 10.731 10.3615C10.8815 10.273 11.0062 10.1466 11.0927 9.99488C11.1791 9.84318 11.2244 9.67148 11.2239 9.49687C11.2234 9.32226 11.1772 9.15083 11.0899 8.99961L6.85489 1.92961C6.76575 1.78267 6.64025 1.66117 6.49049 1.57686C6.34072 1.49254 6.17176 1.44824 5.99989 1.44824C5.82802 1.44824 5.65905 1.49254 5.50929 1.57686C5.35953 1.66117 5.23402 1.78267 5.14489 1.92961Z"
        stroke="#C73A3A" stroke-opacity="0.8" stroke-linecap="round" stroke-linejoin="round" />
    </g>
  </symbol>

  <symbol id="xmark" viewBox="0 0 8 8"><!--!Font
    Awesome Pro 6.5.2 by @fontawesome - https://fontawesome.com License -
    https://fontawesome.com/license (Commercial License) Copyright 2024 Fonticons, Inc.-->

    <path d="M7 1L1 7M1 1L7 7" stroke-width="1.33333" stroke-linecap="round"
      stroke-linejoin="round" />
  </symbol>
  <symbol id="filter" viewBox="0 0 512 512"><!--!Font
    Awesome Pro 6.5.2 by @fontawesome - https://fontawesome.com License -
    https://fontawesome.com/license (Commercial License) Copyright 2024 Fonticons, Inc.-->
    <path
      d="M0 73.7C0 50.7 18.7 32 41.7 32l428.6 0c23 0 41.7 18.7 41.7 41.7c0 9.6-3.3 18.9-9.4 26.3L336 304.5l0 143.2c0 17.8-14.5 32.3-32.3 32.3c-7.3 0-14.4-2.5-20.1-7l-92.5-73.4c-9.6-7.6-15.1-19.1-15.1-31.3l0-63.7L9.4 100C3.3 92.6 0 83.3 0 73.7zM55 80L218.6 280.8c3.5 4.3 5.4 9.6 5.4 15.2l0 68.4 64 50.8L288 296c0-5.5 1.9-10.9 5.4-15.2L457 80 55 80z"></path>
  </symbol>
  <symbol id="grip-dots-vertical" viewBox="0 0 256 512"><!--!Font
    Awesome Pro 6.5.2 by @fontawesome - https://fontawesome.com License -
    https://fontawesome.com/license (Commercial License) Copyright 2024 Fonticons, Inc.-->
    <path
      d="M64 128a32 32 0 1 0 0-64 32 32 0 1 0 0 64zm0 160a32 32 0 1 0 0-64 32 32 0 1 0 0 64zM96 416a32 32 0 1 0 -64 0 32 32 0 1 0 64 0zm96-288a32 32 0 1 0 0-64 32 32 0 1 0 0 64zm32 128a32 32 0 1 0 -64 0 32 32 0 1 0 64 0zM192 448a32 32 0 1 0 0-64 32 32 0 1 0 0 64z" />
  </symbol>
  <symbol id="sliders" viewBox="0 0 512 512"><!--!Font
    Awesome Pro 6.5.2 by @fontawesome - https://fontawesome.com License -
    https://fontawesome.com/license (Commercial License) Copyright 2024 Fonticons, Inc.-->
    <path
      d="M0 416c0 13.3 10.7 24 24 24l59.7 0c10.2 32.5 40.5 56 76.3 56s66.1-23.5 76.3-56L488 440c13.3 0 24-10.7 24-24s-10.7-24-24-24l-251.7 0c-10.2-32.5-40.5-56-76.3-56s-66.1 23.5-76.3 56L24 392c-13.3 0-24 10.7-24 24zm128 0a32 32 0 1 1 64 0 32 32 0 1 1 -64 0zM320 256a32 32 0 1 1 64 0 32 32 0 1 1 -64 0zm32-80c-35.8 0-66.1 23.5-76.3 56L24 232c-13.3 0-24 10.7-24 24s10.7 24 24 24l251.7 0c10.2 32.5 40.5 56 76.3 56s66.1-23.5 76.3-56l59.7 0c13.3 0 24-10.7 24-24s-10.7-24-24-24l-59.7 0c-10.2-32.5-40.5-56-76.3-56zM192 128a32 32 0 1 1 0-64 32 32 0 1 1 0 64zm76.3-56C258.1 39.5 227.8 16 192 16s-66.1 23.5-76.3 56L24 72C10.7 72 0 82.7 0 96s10.7 24 24 24l91.7 0c10.2 32.5 40.5 56 76.3 56s66.1-23.5 76.3-56L488 120c13.3 0 24-10.7 24-24s-10.7-24-24-24L268.3 72z" />
  </symbol>
  <symbol id="clock" viewBox="0 0 512 512"><!--!Font
    Awesome Free 6.5.2 by @fontawesome - https://fontawesome.com License -
    https://fontawesome.com/license/free Copyright 2024 Fonticons, Inc.-->
    <path
      d="M464 256A208 208 0 1 1 48 256a208 208 0 1 1 416 0zM0 256a256 256 0 1 0 512 0A256 256 0 1 0 0 256zM232 120V256c0 8 4 15.5 10.7 20l96 64c11 7.4 25.9 4.4 33.3-6.7s4.4-25.9-6.7-33.3L280 243.2V120c0-13.3-10.7-24-24-24s-24 10.7-24 24z" />
  </symbol>
  <symbol id="magnifying-glass" viewBox="0 0 512 512"><!--!Font
    Awesome Pro 6.5.2 by @fontawesome - https://fontawesome.com License -
    https://fontawesome.com/license (Commercial License) Copyright 2024 Fonticons, Inc.-->
    <path
      d="M368 208A160 160 0 1 0 48 208a160 160 0 1 0 320 0zM337.1 371.1C301.7 399.2 256.8 416 208 416C93.1 416 0 322.9 0 208S93.1 0 208 0S416 93.1 416 208c0 48.8-16.8 93.7-44.9 129.1L505 471c9.4 9.4 9.4 24.6 0 33.9s-24.6 9.4-33.9 0L337.1 371.1z" />
  </symbol>
  <symbol id="circle-info" viewBox="0 0 20 20"><!--!Font
    Awesome Pro 6.5.2 by @fontawesome - https://fontawesome.com License -
    https://fontawesome.com/license (Commercial License) Copyright 2024 Fonticons, Inc.-->
    <path
      d="M10.0001 13.3334V10.0001M10.0001 6.66675H10.0084M18.3334 10.0001C18.3334 14.6025 14.6025 18.3334 10.0001 18.3334C5.39771 18.3334 1.66675 14.6025 1.66675 10.0001C1.66675 5.39771 5.39771 1.66675 10.0001 1.66675C14.6025 1.66675 18.3334 5.39771 18.3334 10.0001Z"
      fill="none" stroke-width="1.5" stroke-linecap="round" stroke-linejoin="round" />
  </symbol>
  <symbol id="regular-calendar-days-clock" viewBox="0 0 640 512">
    <path
      d="M0 128C0 92.7 28.7 64 64 64l40 0 0-40c0-13.3 10.7-24 24-24s24 10.7 24 24l0 40 144 0 0-40c0-13.3 10.7-24 24-24s24 10.7 24 24l0 40 40 0c35.3 0 64 28.7 64 64l0 16 0 48 0 6.6c-17.2 4.9-33.4 12.3-48 21.8l0-28.5-80 0 0 56 47.3 0c-13.1 14-23.9 30.2-31.9 48L320 296l0 64 .2 0c-.1 2.7-.2 5.3-.2 8c0 13.8 1.6 27.1 4.6 40l-4.6 0 0 56 28.5 0c12 18.4 27.4 34.5 45.3 47.3c-3.2 .5-6.4 .7-9.8 .7L64 512c-35.3 0-64-28.7-64-64L0 192l0-48 0-16zm48 64l0 56 80 0 0-56-80 0zm0 104l0 64 80 0 0-64-80 0zm0 112l0 40c0 8.8 7.2 16 16 16l64 0 0-56-80 0zM176 192l0 56 96 0 0-56-96 0zm0 104l0 64 96 0 0-64-96 0zm0 112l0 56 96 0 0-56-96 0zm176-40c0-79.5 64.5-144 144-144s144 64.5 144 144s-64.5 144-144 144s-144-64.5-144-144zm128-64l0 64c0 8.8 7.2 16 16 16l48 0c8.8 0 16-7.2 16-16s-7.2-16-16-16l-32 0 0-48c0-8.8-7.2-16-16-16s-16 7.2-16 16z" />
  </symbol>
  <symbol id="square-question" viewBox="0 0 448 512">
    <path
      d="M64 80c-8.8 0-16 7.2-16 16l0 320c0 8.8 7.2 16 16 16l320 0c8.8 0 16-7.2 16-16l0-320c0-8.8-7.2-16-16-16L64 80zM0 96C0 60.7 28.7 32 64 32l320 0c35.3 0 64 28.7 64 64l0 320c0 35.3-28.7 64-64 64L64 480c-35.3 0-64-28.7-64-64L0 96zm137.8 69.3c7.9-22.3 29.1-37.3 52.8-37.3l58.3 0c34.9 0 63.1 28.3 63.1 63.1c0 22.6-12.1 43.5-31.7 54.8L248 264.4c-.2 13-10.9 23.6-24 23.6c-13.3 0-24-10.7-24-24l0-13.5c0-8.6 4.6-16.5 12.1-20.8l44.3-25.4c4.7-2.7 7.6-7.7 7.6-13.1c0-8.4-6.8-15.1-15.1-15.1l-58.3 0c-3.4 0-6.4 2.1-7.5 5.3l-.4 1.2c-4.4 12.5-18.2 19-30.6 14.6s-19-18.2-14.6-30.6l.4-1.2zM192 352a32 32 0 1 1 64 0 32 32 0 1 1 -64 0z" />
  </symbol>
  <symbol id="arrow-right-from-bracket" viewBox="0 0 512 512"><!--!Font
    Awesome Pro 6.6.0 by @fontawesome - https://fontawesome.com License -
    https://fontawesome.com/license (Commercial License) Copyright 2024 Fonticons, Inc.-->
    <path
      d="M505 273c9.4-9.4 9.4-24.6 0-33.9L377 111c-9.4-9.4-24.6-9.4-33.9 0s-9.4 24.6 0 33.9l87 87L184 232c-13.3 0-24 10.7-24 24s10.7 24 24 24l246.1 0-87 87c-9.4 9.4-9.4 24.6 0 33.9s24.6 9.4 33.9 0L505 273zM168 80c13.3 0 24-10.7 24-24s-10.7-24-24-24L88 32C39.4 32 0 71.4 0 120L0 392c0 48.6 39.4 88 88 88l80 0c13.3 0 24-10.7 24-24s-10.7-24-24-24l-80 0c-22.1 0-40-17.9-40-40l0-272c0-22.1 17.9-40 40-40l80 0z" />
  </symbol>
  <symbol id="question" viewBox="0 0 320 512">
    <path
      d="M64 160c0-44.2 35.8-80 80-80l32 0c44.2 0 80 35.8 80 80l0 4.6c0 24.1-12 46.6-32.1 59.9l-52.3 34.9C149.4 274.2 136 299.2 136 326l0 2c0 13.3 10.7 24 24 24s24-10.7 24-24l0-2c0-10.7 5.3-20.7 14.2-26.6l52.3-34.9c33.4-22.3 53.4-59.7 53.4-99.8l0-4.6c0-70.7-57.3-128-128-128l-32 0C73.3 32 16 89.3 16 160c0 13.3 10.7 24 24 24s24-10.7 24-24zm96 320a32 32 0 1 0 0-64 32 32 0 1 0 0 64z" />
  </symbol>
  <symbol viewBox="0 0 512 512" id="chart-waterfall">
    <path
      d="M24 32c13.3 0 24 10.7 24 24l0 352c0 13.3 10.7 24 24 24l416 0c13.3 0 24 10.7 24 24s-10.7 24-24 24L72 480c-39.8 0-72-32.2-72-72L0 56C0 42.7 10.7 32 24 32zM168 224c13.3 0 24 10.7 24 24l0 80c0 13.3-10.7 24-24 24s-24-10.7-24-24l0-80c0-13.3 10.7-24 24-24zm120-72l0 80c0 13.3-10.7 24-24 24s-24-10.7-24-24l0-80c0-13.3 10.7-24 24-24s24 10.7 24 24zm72-88c13.3 0 24 10.7 24 24l0 80c0 13.3-10.7 24-24 24s-24-10.7-24-24l0-80c0-13.3 10.7-24 24-24zM480 88l0 240c0 13.3-10.7 24-24 24s-24-10.7-24-24l0-240c0-13.3 10.7-24 24-24s24 10.7 24 24z" />
  </symbol>
  <symbol viewBox="0 0 512 512" id="chart-line-up-down">
    <path
      d="M24 32c13.3 0 24 10.7 24 24l0 352c0 13.3 10.7 24 24 24l416 0c13.3 0 24 10.7 24 24s-10.7 24-24 24L72 480c-39.8 0-72-32.2-72-72L0 56C0 42.7 10.7 32 24 32zm352 80c-13.3 0-24-10.7-24-24s10.7-24 24-24l80 0c6.4 0 12.5 2.5 17 7s7 10.6 7 17l0 80c0 13.3-10.7 24-24 24s-24-10.7-24-24l0-22.1L305 273c-9.4 9.4-24.6 9.4-33.9 0l-63-63-63 63c-9.4 9.4-24.6 9.4-33.9 0s-9.4-24.6 0-33.9l80-80c9.4-9.4 24.6-9.4 33.9 0l63 63L398.1 112 376 112zm0 272c-13.3 0-24-10.7-24-24s10.7-24 24-24l22.1 0-47-47L385 255l47 47 0-22.1c0-13.3 10.7-24 24-24s24 10.7 24 24l0 80c0 6.4-2.5 12.5-7 17s-10.6 7-17 7l-80 0z" />
  </symbol>
  <!-- <symbol viewBox="0 0 448 512" id="trash">
    <path
      d="M177.1 48h93.7c2.7 0 5.2 1.3 6.7 3.6l19 28.4h-145l19-28.4c1.5-2.2 4-3.6 6.7-3.6zM354.2 80L317.5
  24.9C307.1 9.4 289.6 0 270.9 0H177.1c-18.7 0-36.2 9.4-46.6 24.9L93.8 80H80.1 32 24C10.7 80 0 90.7
  0 104s10.7 24 24 24H35.6L59.6 452.7c2.5 33.4 30.3 59.3 63.8 59.3H324.6c33.5 0 61.3-25.9
  63.8-59.3L412.4 128H424c13.3 0 24-10.7 24-24s-10.7-24-24-24h-8H367.9 354.2zm10.1 48L340.5
  449.2c-.6 8.4-7.6 14.8-16 14.8H123.4c-8.4 0-15.3-6.5-16-14.8L83.7 128H364.3z" />
  </symbol> -->
  <symbol viewBox="0 0 448 512" id="angles-up-down">
    <path
      d="M239 498.7c-8.8 7-21.2 7-30 0L49 370.7c-10.4-8.3-12-23.4-3.7-33.7s23.4-12 33.7-3.8l145 116 145-116c10.3-8.3 25.5-6.6 33.7 3.8s6.6 25.5-3.7 33.7l-160 128zM399 141.3c10.4 8.3 12 23.4 3.8 33.7s-23.4 12-33.7 3.7L224 62.7 79 178.7c-10.4 8.3-25.5 6.6-33.7-3.7s-6.6-25.5 3.7-33.7l160-128c8.8-7 21.2-7 30 0l160 128z" />
  </symbol>
  <symbol viewBox="0 0 18 18" id="side-chevron-left-in-box" fill="none">
    <path
      d="M6.50006 1.49995V16.5M12.3334 11.5L9.83339 8.99995L12.3334 6.49995M3.16673 1.49995H14.8334C15.7539 1.49995 16.5001 2.24615 16.5001 3.16662V14.8333C16.5001 15.7538 15.7539 16.5 14.8334 16.5H3.16673C2.24625 16.5 1.50006 15.7538 1.50006 14.8333V3.16662C1.50006 2.24615 2.24625 1.49995 3.16673 1.49995Z"
      stroke="currentColor" stroke-width="2" stroke-linecap="round" stroke-linejoin="round" />
  </symbol>
  <symbol viewBox="0 0 512 512" id="explore">
    <path
      d="M464 256A208 208 0 1 0 48 256a208 208 0 1 0 416 0zM0 256a256 256 0 1 1 512 0A256 256 0 1 1 0 256zm306.7 69.1L162.4 380.6c-19.4 7.5-38.5-11.6-31-31l55.5-144.3c3.3-8.5 9.9-15.1 18.4-18.4l144.3-55.5c19.4-7.5 38.5 11.6 31 31L325.1 306.7c-3.2 8.5-9.9 15.1-18.4 18.4zM288 256a32 32 0 1 0 -64 0 32 32 0 1 0 64 0z" />
  </symbol>
  <symbol viewBox="0 0 512 512" id="circle-question">
    <path
      d="M464 256A208 208 0 1 0 48 256a208 208 0 1 0 416 0zM0 256a256 256 0 1 1 512 0A256 256 0 1 1 0 256zm169.8-90.7c7.9-22.3 29.1-37.3 52.8-37.3l58.3 0c34.9 0 63.1 28.3 63.1 63.1c0 22.6-12.1 43.5-31.7 54.8L280 264.4c-.2 13-10.9 23.6-24 23.6c-13.3 0-24-10.7-24-24l0-13.5c0-8.6 4.6-16.5 12.1-20.8l44.3-25.4c4.7-2.7 7.6-7.7 7.6-13.1c0-8.4-6.8-15.1-15.1-15.1l-58.3 0c-3.4 0-6.4 2.1-7.5 5.3l-.4 1.2c-4.4 12.5-18.2 19-30.6 14.6s-19-18.2-14.6-30.6l.4-1.2zM224 352a32 32 0 1 1 64 0 32 32 0 1 1 -64 0z" />
  </symbol>
  <symbol viewBox="0 0 448 512" id="floppy-disk">
    <path
      d="M48 96l0 320c0 8.8 7.2 16 16 16l320 0c8.8 0 16-7.2 16-16l0-245.5c0-4.2-1.7-8.3-4.7-11.3l33.9-33.9c12 12 18.7 28.3 18.7 45.3L448 416c0 35.3-28.7 64-64 64L64 480c-35.3 0-64-28.7-64-64L0 96C0 60.7 28.7 32 64 32l245.5 0c17 0 33.3 6.7 45.3 18.7l74.5 74.5-33.9 33.9L320.8 84.7c-.3-.3-.5-.5-.8-.8L320 184c0 13.3-10.7 24-24 24l-192 0c-13.3 0-24-10.7-24-24L80 80 64 80c-8.8 0-16 7.2-16 16zm80-16l0 80 144 0 0-80L128 80zm32 240a64 64 0 1 1 128 0 64 64 0 1 1 -128 0z" />
  </symbol>
  <symbol viewBox="0 0 13 12" id="up-right-and-down-left-from-center">
    <path
      d="M8.16666 1.5H11.1667M11.1667 1.5V4.5M11.1667 1.5L7.66666 5M5.16666 10.5H2.16666M2.16666 10.5V7.5M2.16666 10.5L5.66666 7"
      stroke="currentColor" stroke-linecap="round" stroke-linejoin="round" />
  </symbol>
  <symbol viewBox="0 0 6 11" id="f-arrow-right">
    <path d="M1 9.5L5 5.5L1 1.5" stroke="#64748B" stroke-width="1.66667" stroke-linecap="round"
      stroke-linejoin="round" />
  </symbol>
  <symbol id="f-chevron-up">
    <path d="M3 7.5L6 4.5L9 7.5" stroke-width="1.33333" stroke-linecap="round"
      stroke-linejoin="round" />
  </symbol>
  <symbol id="p-chevron-down" width="16" height="16" viewBox="0 0 16 16" fill="none">
    <g id="chevron-right">
      <path id="Vector" d="M4 6L8 10L12 6" stroke="#000D4D" stroke-opacity="0.45" stroke-width="2"
        stroke-linecap="round" stroke-linejoin="round" />
    </g>
  </symbol>

  <symbol id="p-chevron-up" width="16" height="16" viewBox="0 0 16 16" fill="none">
    <g id="chevron-left">
      <path id="Vector" d="M4 10L8 6L12 10" stroke="#000D4D" stroke-opacity="0.45" stroke-width="2"
        stroke-linecap="round" stroke-linejoin="round" />
    </g>
  </symbol>

  <symbol id="empty" viewBox="0 0 51 51">
    <path
      d="M16.6751 5.57549C17.0798 5.68188 17.5047 5.68499 17.911 5.58453C18.3172 5.48407 18.6917 5.28325 19.0001 5.00049H31.7501L28.5751 16.8505C28.474 17.2213 28.4597 17.6104 28.5335 17.9877C28.6072 18.3649 28.7669 18.72 29.0001 19.0255C29.233 19.328 29.5321 19.5732 29.8745 19.7422C30.2168 19.9112 30.5933 19.9996 30.9751 20.0005H40.0001L37.1751 23.1005C36.732 23.5917 36.5016 24.2384 36.5344 24.8991C36.5672 25.5599 36.8605 26.1806 37.3501 26.6255C37.8086 27.0422 38.4055 27.2739 39.0251 27.2755C39.374 27.2747 39.7188 27.2008 40.0374 27.0588C40.356 26.9167 40.6414 26.7095 40.8751 26.4505L47.5001 19.1755C47.8284 18.8122 48.0427 18.3605 48.1165 17.8765C48.1903 17.3924 48.1204 16.8974 47.9154 16.4527C47.7104 16.0081 47.3793 15.6334 46.9633 15.3753C46.5472 15.1171 46.0646 14.9868 45.5751 15.0005H34.2251L37.5001 3.15049C37.5978 2.77779 37.608 2.38756 37.5299 2.01027C37.4519 1.63298 37.2877 1.27884 37.0501 0.97549C36.8096 0.662739 36.4985 0.411357 36.1422 0.241897C35.7859 0.0724382 35.3945 -0.010286 35.0001 0.000489639H17.5001C16.9357 -0.0188435 16.3814 0.153489 15.9274 0.489419C15.4735 0.82535 15.1466 1.30509 15.0001 1.85049V2.50049C14.821 3.13029 14.8961 3.80522 15.2094 4.38022C15.5226 4.95522 16.0489 5.38439 16.6751 5.57549ZM49.1751 45.7255L4.17512 0.72549C3.68859 0.370801 3.09039 0.203616 2.49046 0.254658C1.89053 0.305699 1.32918 0.571539 0.909558 1.00332C0.489936 1.43511 0.24024 2.00383 0.206357 2.60497C0.172473 3.20611 0.356678 3.79929 0.725121 4.27549L11.5251 15.0005L8.37512 26.8505C8.27746 27.2232 8.26726 27.6134 8.34532 27.9907C8.42338 28.368 8.58759 28.7221 8.82512 29.0255C9.05802 29.328 9.35711 29.5732 9.69946 29.7422C10.0418 29.9112 10.4183 29.9996 10.8001 30.0005H20.4001L15.8751 46.8505C15.7286 47.3941 15.7698 47.9712 15.9921 48.4885C16.2144 49.0057 16.6049 49.4328 17.1001 49.7005C17.4687 49.8994 17.8813 50.0026 18.3001 50.0005C18.649 49.9997 18.9938 49.9258 19.3124 49.7838C19.631 49.6417 19.9164 49.4345 20.1501 49.1755L32.2751 35.8255L45.7251 49.2755C45.9575 49.5098 46.234 49.6958 46.5387 49.8227C46.8433 49.9496 47.1701 50.015 47.5001 50.015C47.8302 50.015 48.1569 49.9496 48.4616 49.8227C48.7662 49.6958 49.0427 49.5098 49.2751 49.2755C49.5094 49.0431 49.6954 48.7666 49.8223 48.4619C49.9493 48.1573 50.0146 47.8305 50.0146 47.5005C50.0146 47.1705 49.9493 46.8437 49.8223 46.539C49.6954 46.2344 49.5094 45.9579 49.2751 45.7255H49.1751ZM14.0501 25.0005L15.6251 19.1505L21.4751 25.0005H14.0501ZM23.3751 38.2005L25.8751 29.3005L28.8751 32.2755L23.3751 38.2005Z"
    />
  </symbol>
  <symbol viewBox="0 0 14 14" id="sort">
    <path
      d="M13 9.66675L10.3333 12.3334M10.3333 12.3334L7.66667 9.66675M10.3333 12.3334V1.66675M1 4.33341L3.66667 1.66675M3.66667 1.66675L6.33333 4.33341M3.66667 1.66675V12.3334"
      stroke-width="1.5" stroke-linecap="round" stroke-linejoin="round" />
  </symbol>
  <symbol id="check" viewBox="0 0 16 16" fill="none">
    <path d="M13.3333 4L5.99996 11.3333L2.66663 8" stroke="currentColor" stroke-width="1.5"
      stroke-linecap="round" stroke-linejoin="round" />
  </symbol>
  <symbol id="upload" viewBox="0 0 16 16" fill="none">
    <path
      d="M19.1666 12L16.4999 9.33337M16.4999 9.33337L13.8333 12M16.4999 9.33337V14.6667M12.4999 20H12.5066M15.1666 20H15.1733M11.1666 17.3334H21.8333C22.5696 17.3334 23.1666 17.9303 23.1666 18.6667V21.3334C23.1666 22.0698 22.5696 22.6667 21.8333 22.6667H11.1666C10.4302 22.6667 9.83325 22.0698 9.83325 21.3334V18.6667C9.83325 17.9303 10.4302 17.3334 11.1666 17.3334Z"
      stroke="currentColor" stroke-width="1.5" stroke-linecap="round" stroke-linejoin="round" />
  </symbol>
  <symbol id="download" viewBox="0 0 16 16" fill="none">
    <path
      d="M16.7499 9.33337V14.6667M16.7499 14.6667L19.4166 12M16.7499 14.6667L14.0833 12M12.7499 20H12.7566M15.4166 20H15.4233M11.4166 17.3334H22.0833C22.8196 17.3334 23.4166 17.9303 23.4166 18.6667V21.3334C23.4166 22.0698 22.8196 22.6667 22.0833 22.6667H11.4166C10.6802 22.6667 10.0833 22.0698 10.0833 21.3334V18.6667C10.0833 17.9303 10.6802 17.3334 11.4166 17.3334Z"
      stroke="currentColor" stroke-width="1.5" stroke-linecap="round" stroke-linejoin="round" />
  </symbol>
  <symbol id="stack" viewBox="0 0 16 16" fill="none">
    <path
      d="M22.25 12.6667H20.25C19.8964 12.6667 19.5572 12.5262 19.3072 12.2762C19.0571 12.0261 18.9167 11.687 18.9167 11.3334V9.33337M12.9167 13.3334V19.2C12.9167 19.4 13.05 19.6 13.1833 19.7334C13.3167 19.8667 13.5167 20 13.7167 20H18.25M10.25 16V21.8667C10.25 22.0667 10.3833 22.2667 10.5167 22.4C10.65 22.5334 10.85 22.6667 11.05 22.6667H15.5833M22.25 12V16.3334C22.25 16.8667 21.7833 17.3334 21.25 17.3334H16.5833C16.05 17.3334 15.5833 16.8667 15.5833 16.3334V10.3334C15.5833 9.80004 16.05 9.33337 16.5833 9.33337H19.5833L22.25 12Z"
      stroke="currentColor" stroke-width="1.5" stroke-linecap="round" stroke-linejoin="round" />
  </symbol>
  <symbol id="arrow-up-right" viewBox="0 0 16 16" fill="none">
    <path
      d="M4.66675 4.66663H11.3334M11.3334 4.66663V11.3333M11.3334 4.66663L4.66675 11.3333"
      stroke="currentColor" stroke-width="1.33333" stroke-linecap="round" stroke-linejoin="round" />
  </symbol>
  <symbol id="web" viewBox="0 0 16 15" fill="none">
    <path
      d="M14.6666 7.49992C14.6666 11.1818 11.6818 14.1666 7.99992 14.1666M14.6666 7.49992C14.6666 3.81802 11.6818 0.833252 7.99992 0.833252M14.6666 7.49992H1.33325M7.99992 14.1666C4.31802 14.1666 1.33325 11.1818 1.33325 7.49992M7.99992 14.1666C6.28808 12.3691 5.33325 9.98209 5.33325 7.49992C5.33325 5.01775 6.28808 2.63069 7.99992 0.833252M7.99992 14.1666C9.71176 12.3691 10.6666 9.98209 10.6666 7.49992C10.6666 5.01775 9.71176 2.63069 7.99992 0.833252M1.33325 7.49992C1.33325 3.81802 4.31802 0.833252 7.99992 0.833252"
      stroke="currentColor" stroke-width="1.5" stroke-linecap="round" stroke-linejoin="round" />
  </symbol>
  <symbol id="dashboard-list" viewBox="0 0 16 16" fill="none">
    <path
      d="M6 5.33333H10.6667M5.33333 8H9.33333M7.33333 10.6667H10.6667M3.33333 2H12.6667C13.403 2 14 2.59695 14 3.33333V12.6667C14 13.403 13.403 14 12.6667 14H3.33333C2.59695 14 2 13.403 2 12.6667V3.33333C2 2.59695 2.59695 2 3.33333 2Z"
      stroke="#currentColor" stroke-linecap="round" stroke-linejoin="round" />
  </symbol>
  <symbol id="caution" viewBox="0 0 16 16" fill="none">
    <path
      d="M8.00008 6.00016V8.66683M8.00008 11.3335H8.00675M10.0001 1.3335H4.00008C3.64646 1.3335 3.30732 1.47397 3.05727 1.72402C2.80722 1.97407 2.66675 2.31321 2.66675 2.66683V13.3335C2.66675 13.6871 2.80722 14.0263 3.05727 14.2763C3.30732 14.5264 3.64646 14.6668 4.00008 14.6668H12.0001C12.3537 14.6668 12.6928 14.5264 12.9429 14.2763C13.1929 14.0263 13.3334 13.6871 13.3334 13.3335V4.66683L10.0001 1.3335Z"
      stroke="#94A3B8" stroke-linecap="round" stroke-linejoin="round" />
  </symbol>
  <symbol viewBox="0 0 512 512" id="sliders-simple">
    <path
      d="M80 336a32 32 0 1 0 0 64 32 32 0 1 0 0-64zm76.3 8L488 344c13.3 0 24 10.7 24 24s-10.7 24-24 24l-331.7 0c-10.2 32.5-40.5 56-76.3 56c-44.2 0-80-35.8-80-80s35.8-80 80-80c35.8 0 66.1 23.5 76.3 56zM400 144a32 32 0 1 0 64 0 32 32 0 1 0 -64 0zm-44.3-24c10.2-32.5 40.5-56 76.3-56c44.2 0 80 35.8 80 80s-35.8 80-80 80c-35.8 0-66.1-23.5-76.3-56L24 168c-13.3 0-24-10.7-24-24s10.7-24 24-24l331.7 0z" />
  </symbol>
  <symbol viewBox="0 0 384 512" id="play">
    <path
      d="M48 432L336 256 48 80l0 352zM24.5 38.1C39.7 29.6 58.2 30 73 39L361 215c14.3 8.7 23 24.2 23 41s-8.7 32.2-23 41L73 473c-14.8 9.1-33.4 9.4-48.5 .9S0 449.4 0 432L0 80C0 62.6 9.4 46.6 24.5 38.1z" />
  </symbol>
  <symbol viewBox="0 0 128 512" id="ellipsis-vertical">
    <path
      d="M64 368a48 48 0 1 0 0 96 48 48 0 1 0 0-96zm0-160a48 48 0 1 0 0 96 48 48 0 1 0 0-96zM112 96A48 48 0 1 0 16 96a48 48 0 1 0 96 0z" />
  </symbol>
  <symbol viewBox="0 0 448 512" id="ellipsis">
    <path
      d="M432 256a48 48 0 1 1 -96 0 48 48 0 1 1 96 0zm-160 0a48 48 0 1 1 -96 0 48 48 0 1 1 96 0zM64 304a48 48 0 1 1 0-96 48 48 0 1 1 0 96z" />
  </symbol>
  <symbol viewBox="0 0 576 512" id="house">
    <path
      d="M303.5 5.7c-9-7.6-22.1-7.6-31.1 0l-264 224c-10.1 8.6-11.3 23.7-2.8 33.8s23.7 11.3 33.8 2.8L64 245.5 64 432c0 44.2 35.8 80 80 80l288 0c44.2 0 80-35.8 80-80l0-186.5 24.5 20.8c10.1 8.6 25.3 7.3 33.8-2.8s7.3-25.3-2.8-33.8l-264-224zM112 432l0-227.2L288 55.5 464 204.8 464 432c0 17.7-14.3 32-32 32l-48 0 0-152c0-22.1-17.9-40-40-40l-112 0c-22.1 0-40 17.9-40 40l0 152-48 0c-17.7 0-32-14.3-32-32zm128 32l0-144 96 0 0 144-96 0z" />
  </symbol>
  <symbol viewBox="0 0 576 512" id="star">
    <path
      d="M287.9 0c9.2 0 17.6 5.2 21.6 13.5l68.6 141.3 153.2 22.6c9 1.3 16.5 7.6 19.3 16.3s.5 18.1-5.9 24.5L433.6 328.4l26.2 155.6c1.5 9-2.2 18.1-9.7 23.5s-17.3 6-25.3 1.7l-137-73.2L151 509.1c-8.1 4.3-17.9 3.7-25.3-1.7s-11.2-14.5-9.7-23.5l26.2-155.6L31.1 218.2c-6.5-6.4-8.7-15.9-5.9-24.5s10.3-14.9 19.3-16.3l153.2-22.6L266.3 13.5C270.4 5.2 278.7 0 287.9 0zm0 79L235.4 187.2c-3.5 7.1-10.2 12.1-18.1 13.3L99 217.9 184.9 303c5.5 5.5 8.1 13.3 6.8 21L171.4 443.7l105.2-56.2c7.1-3.8 15.6-3.8 22.6 0l105.2 56.2L384.2 324.1c-1.3-7.7 1.2-15.5 6.8-21l85.9-85.1L358.6 200.5c-7.8-1.2-14.6-6.1-18.1-13.3L287.9 79z" />
  </symbol>
  <symbol viewBox="0 0 512 512" id="chart-area">
    <path
      d="M48 56c0-13.3-10.7-24-24-24S0 42.7 0 56L0 408c0 39.8 32.2 72 72 72l416 0c13.3 0 24-10.7 24-24s-10.7-24-24-24L72 432c-13.3 0-24-10.7-24-24L48 56zM286.1 225.9c9 9 21.2 14.1 33.9 14.1s24.9-5.1 33.9-14.1l27.3-27.3L432 257.8l0 78.2-288 0 0-92.1 80-80 62.1 62.1zM320 192l-33.9-33.9-39.4-39.4c-12.5-12.5-32.8-12.5-45.3 0l-91.3 91.3c-9 9-14.1 21.2-14.1 33.9L96 352c0 17.7 14.3 32 32 32l320 0c17.7 0 32-14.3 32-32l0-94.2c0-11.5-4.1-22.5-11.6-31.2l-62-72.3c-12.1-14.2-33.7-15-46.9-1.8l-5.6 5.6L320 192z" />
  </symbol>
  <symbol viewBox="0 0 14 14" id="dashboard" fill="none">
    <path
      d="M5 1H1.66667C1.29848 1 1 1.29848 1 1.66667V6.33333C1 6.70152 1.29848 7 1.66667 7H5C5.36819 7 5.66667 6.70152 5.66667 6.33333V1.66667C5.66667 1.29848 5.36819 1 5 1Z"
      stroke="currentColor" stroke-width="1.33333" stroke-linecap="round" stroke-linejoin="round" />
    <path
      d="M12.3333 1H9C8.63181 1 8.33333 1.29848 8.33333 1.66667V3.66667C8.33333 4.03486 8.63181 4.33333 9 4.33333H12.3333C12.7015 4.33333 13 4.03486 13 3.66667V1.66667C13 1.29848 12.7015 1 12.3333 1Z"
      stroke="currentColor" stroke-width="1.33333" stroke-linecap="round" stroke-linejoin="round" />
    <path
      d="M12.3333 7H9C8.63181 7 8.33333 7.29848 8.33333 7.66667V12.3333C8.33333 12.7015 8.63181 13 9 13H12.3333C12.7015 13 13 12.7015 13 12.3333V7.66667C13 7.29848 12.7015 7 12.3333 7Z"
      stroke="currentColor" stroke-width="1.33333" stroke-linecap="round" stroke-linejoin="round" />
    <path
      d="M5 9.66667H1.66667C1.29848 9.66667 1 9.96514 1 10.3333V12.3333C1 12.7015 1.29848 13 1.66667 13H5C5.36819 13 5.66667 12.7015 5.66667 12.3333V10.3333C5.66667 9.96514 5.36819 9.66667 5 9.66667Z"
      stroke="currentColor" stroke-width="1.33333" stroke-linecap="round" stroke-linejoin="round" />
  </symbol>


  <symbol viewBox="0 0 16 16" fill="none" id="spinner">
    <g id="Loader" clip-path="url(#clip0_6882_4605)">
      <path id="Icon"
        d="M7.99967 1.3335V4.00016M7.99967 12.0002V14.6668M3.28634 3.28682L5.173 5.17349M10.8263 10.8268L12.713 12.7135M1.33301 8.00016H3.99967M11.9997 8.00016H14.6663M3.28634 12.7135L5.173 10.8268M10.8263 5.17349L12.713 3.28682"
        stroke="#000D4D" stroke-opacity="0.45" stroke-width="1.8" stroke-linecap="round"
        stroke-linejoin="round" />
    </g>
    <defs>
      <clipPath id="clip0_6882_4605">
        <rect width="16" height="16" fill="white" />
      </clipPath>
    </defs>
  </symbol>

  <symbol id="download-f" width="10" height="10" viewBox="0 0 10 10" fill="none">
    <g clip-path="url(#clip0_8255_26416)">
      <path
        d="M8.75 6.25V7.91667C8.75 8.13768 8.6622 8.34964 8.50592 8.50592C8.34964 8.6622 8.13768 8.75 7.91667 8.75H2.08333C1.86232 8.75 1.65036 8.6622 1.49408 8.50592C1.3378 8.34964 1.25 8.13768 1.25 7.91667V6.25M2.91667 4.16667L5 6.25M5 6.25L7.08333 4.16667M5 6.25V1.25"
        stroke="#000D4D" stroke-opacity="0.45" stroke-width="1.33" stroke-linecap="round"
        stroke-linejoin="round" />
    </g>
  </symbol>
  <symbol id="minus" width="10" height="3" viewBox="0 0 10 3" fill="none">
    <path d="M1.5 1.92285H8.5" stroke="currentColor" stroke-opacity="0.8" stroke-width="2"
      stroke-linecap="round" stroke-linejoin="round" />
  </symbol>
  <symbol id="expand-icon" viewBox="0 0 10 10" fill="none">
    <path
      d="M9.5 9.5L6.5 6.5M9.5 9.5V7.1M9.5 9.5H7.1M0.5 7.1V9.5M0.5 9.5H2.9M0.5 9.5L3.5 6.5M9.5 2.9V0.5M9.5 0.5H7.1M9.5 0.5L6.5 3.5M0.5 2.9V0.5M0.5 0.5H2.9M0.5 0.5L3.5 3.5"
      stroke="currentColor" stroke-linecap="round" stroke-linejoin="round" />
  </symbol>

  <symbol id="resize-bottom-right" viewBox="0 0 10 10" fill="none"
    xmlns="http://www.w3.org/2000/svg">
    <path
      d="M10 10H8V8H10V10ZM10 6H8V4H10V6ZM6 10H4V8H6V10ZM6 6H4V4H6V6ZM2 10H0V8H2V10ZM10 2H8V0H10V2Z"
      fill="currentColor" />
  </symbol>

  <symbol id="cards-blank" viewBox="0 0 640 512" fill="none">
    <path
      d="M51.8 160.4c-3.7 2.1-4.9 6.8-2.8 10.5l167 289.3c2.1 3.7 6.8 4.9 10.5 2.8L419.4 351.6c3.7-2.1 4.9-6.8 2.8-10.5L255.2 51.8c-2.1-3.7-6.8-4.9-10.5-2.8L51.8 160.4zM7.5 194.9c-15.4-26.6-6.3-60.7 20.4-76.1L220.7 7.5c26.6-15.4 60.7-6.3 76.1 20.4l167 289.3c15.4 26.6 6.2 60.7-20.4 76.1L250.5 504.5c-26.6 15.4-60.7 6.2-76.1-20.4L7.5 194.9zm451.9 226c41.9-24.2 56.3-77.8 32.1-119.8L354.7 64.2c1.7-.2 3.5-.2 5.3-.2l224 0c30.9 0 56 25.1 56 56l0 336c0 30.9-25.1 56-56 56l-224 0c-13.7 0-26.2-4.9-35.9-13l135.3-78.1z"
      fill="currentColor" />
  </symbol>
  <symbol id="globe-wifi" viewBox="0 0 640 512" fill="none">
    <path
      d="M256 464c7.4 0 27-7.2 47.6-48.4c6.2-12.4 11.8-26.7 16.5-42.5c1.2 43.9 18.6 83.8 46.3 114C333 503 295.5 512 256 512C114.6 512 0 397.4 0 256S114.6 0 256 0C375.4 0 475.6 81.7 504 192.2c-2.6-.1-5.3-.2-8-.2c-26.2 0-51.1 5.7-73.4 16l-40.8 0c.8 8.1 1.3 16.3 1.7 24.7c-21.4 17.8-38.4 40.5-49.5 66.4c1.3-13.8 2-28.2 2-43.1c0-16.6-.9-32.7-2.5-48l-155 0c-1.6 15.3-2.5 31.4-2.5 48s.9 32.7 2.5 48L332 304c-5.9 15.1-9.8 31.2-11.3 48l-134.3 0c5.6 24.4 13.2 45.9 22 63.6C229 456.8 248.6 464 256 464zM186.4 160l139.2 0c-5.6-24.4-13.2-45.9-22-63.6C283 55.2 263.4 48 256 48s-27 7.2-47.6 48.4c-8.8 17.7-16.4 39.2-22 63.6zm254.2 0c-21.4-41.1-56.1-74.1-98.4-93.4c14.1 25.6 25.3 57.5 32.6 93.4l65.9 0zm-303.3 0c7.3-35.9 18.5-67.7 32.6-93.4c-42.3 19.3-77 52.3-98.4 93.4l65.9 0zM53.6 208c-3.6 15.4-5.6 31.5-5.6 48s1.9 32.6 5.6 48l76.7 0c-1.5-15.5-2.2-31.6-2.2-48s.8-32.5 2.2-48l-76.7 0zM169.9 445.4c-14.1-25.6-25.3-57.5-32.6-93.4l-65.9 0c21.4 41.1 56.1 74.1 98.4 93.4zM352 368a144 144 0 1 1 288 0 144 144 0 1 1 -288 0zm144-48c27.2 0 51.9 10.2 70.6 27.1c6.6 5.9 16.7 5.4 22.6-1.2s5.4-16.7-1.2-22.6c-24.4-21.9-56.6-35.3-92-35.3s-67.7 13.4-92 35.3c-6.6 5.9-7.1 16-1.2 22.6s16 7.1 22.6 1.2C444.1 330.2 468.9 320 496 320zm20 112a20 20 0 1 0 -40 0 20 20 0 1 0 40 0zm-51.5-35.9c8.3-7.5 19.4-12.1 31.5-12.1s23.2 4.6 31.5 12.1c6.6 5.9 16.7 5.4 22.6-1.1s5.4-16.7-1.1-22.6c-14-12.7-32.6-20.4-53-20.4s-39 7.7-53 20.4c-6.6 5.9-7.1 16-1.1 22.6s16 7.1 22.6 1.1z" />
  </symbol>
</svg>