<?xml version="1.0" encoding="UTF-8"?>
<svg xmlns="http://www.w3.org/2000/svg" style="display: none;">
  <symbol id="list-tree" viewBox="0 0 512 512">
    <path
      d="M24 48C10.7 48 0 58.7 0 72v48c0 13.3 10.7 24 24 24V256 384c0 30.9 25.1 56 56 56h48c0 13.3 10.7 24 24 24h48c13.3 0 24-10.7 24-24V392c0-13.3-10.7-24-24-24H152c-13.3 0-24 10.7-24 24H80c-4.4 0-8-3.6-8-8V280h56c0 13.3 10.7 24 24 24h48c13.3 0 24-10.7 24-24V232c0-13.3-10.7-24-24-24H152c-13.3 0-24 10.7-24 24H72V144c13.3 0 24-10.7 24-24V72c0-13.3-10.7-24-24-24H24zM160 96c0 13.3 10.7 24 24 24H488c13.3 0 24-10.7 24-24s-10.7-24-24-24H184c-13.3 0-24 10.7-24 24zM288 256c0 13.3 10.7 24 24 24H488c13.3 0 24-10.7 24-24s-10.7-24-24-24H312c-13.3 0-24 10.7-24 24zm0 160c0 13.3 10.7 24 24 24H488c13.3 0 24-10.7 24-24s-10.7-24-24-24H312c-13.3 0-24 10.7-24 24z" />
  </symbol>
  <symbol id="bars-sort" viewBox="0 0 448 512">
    <path
      d="M0 88C0 74.7 10.7 64 24 64H424c13.3 0 24 10.7 24 24s-10.7 24-24 24H24C10.7 112 0 101.3 0 88zM0 248c0-13.3 10.7-24 24-24H296c13.3 0 24 10.7 24 24s-10.7 24-24 24H24c-13.3 0-24-10.7-24-24zM192 408c0 13.3-10.7 24-24 24H24c-13.3 0-24-10.7-24-24s10.7-24 24-24H168c13.3 0 24 10.7 24 24z" />
  </symbol>
  <symbol id="list-check" viewBox="0 0 512 512">
    <path
      d="M153.8 72.1c8.9-9.9 8.1-25-1.8-33.9s-25-8.1-33.9 1.8L63.1 101.1 41 79C31.6 69.7 16.4 69.7 7 79s-9.4 24.6 0 33.9l40 40c4.7 4.7 11 7.2 17.6 7s12.8-3 17.2-7.9l72-80zm0 160c8.9-9.9 8.1-25-1.8-33.9s-25-8.1-33.9 1.8L63.1 261.1 41 239c-9.4-9.4-24.6-9.4-33.9 0s-9.4 24.6 0 33.9l40 40c4.7 4.7 11 7.2 17.6 7s12.8-3 17.2-7.9l72-80zM216 120H488c13.3 0 24-10.7 24-24s-10.7-24-24-24H216c-13.3 0-24 10.7-24 24s10.7 24 24 24zM192 256c0 13.3 10.7 24 24 24H488c13.3 0 24-10.7 24-24s-10.7-24-24-24H216c-13.3 0-24 10.7-24 24zM160 416c0 13.3 10.7 24 24 24H488c13.3 0 24-10.7 24-24s-10.7-24-24-24H184c-13.3 0-24 10.7-24 24zm-64 0a32 32 0 1 0 -64 0 32 32 0 1 0 64 0z" />
  </symbol>
  <symbol id="qrcode" viewBox="0 0 448 512">
    <path
      d="M144 80v96H48V80h96zM48 32C21.5 32 0 53.5 0 80v96c0 26.5 21.5 48 48 48h96c26.5 0 48-21.5 48-48V80c0-26.5-21.5-48-48-48H48zm96 304v96H48V336h96zM48 288c-26.5 0-48 21.5-48 48v96c0 26.5 21.5 48 48 48h96c26.5 0 48-21.5 48-48V336c0-26.5-21.5-48-48-48H48zM304 80h96v96H304V80zm-48 0v96c0 26.5 21.5 48 48 48h96c26.5 0 48-21.5 48-48V80c0-26.5-21.5-48-48-48H304c-26.5 0-48 21.5-48 48zM72 120v16c0 8.8 7.2 16 16 16h16c8.8 0 16-7.2 16-16V120c0-8.8-7.2-16-16-16H88c-8.8 0-16 7.2-16 16zM88 360c-8.8 0-16 7.2-16 16v16c0 8.8 7.2 16 16 16h16c8.8 0 16-7.2 16-16V376c0-8.8-7.2-16-16-16H88zM328 120v16c0 8.8 7.2 16 16 16h16c8.8 0 16-7.2 16-16V120c0-8.8-7.2-16-16-16H344c-8.8 0-16 7.2-16 16zM256 304V464c0 8.8 7.2 16 16 16h32c8.8 0 16-7.2 16-16V400c0-8.8 7.2-16 16-16s16 7.2 16 16s7.2 16 16 16h64c8.8 0 16-7.2 16-16V304c0-8.8-7.2-16-16-16s-16 7.2-16 16s-7.2 16-16 16H368c-8.8 0-16-7.2-16-16s-7.2-16-16-16H272c-8.8 0-16 7.2-16 16zM368 448a16 16 0 1 0 0 32 16 16 0 1 0 0-32zm64 0a16 16 0 1 0 0 32 16 16 0 1 0 0-32z" />
  </symbol>
  <symbol id="chart-simple" viewBox="0 0 448 512">
    <path
      d="M240 80V432H208V80h32zM208 32c-26.5 0-48 21.5-48 48V432c0 26.5 21.5 48 48 48h32c26.5 0 48-21.5 48-48V80c0-26.5-21.5-48-48-48H208zM80 272V432H48V272H80zM48 224c-26.5 0-48 21.5-48 48V432c0 26.5 21.5 48 48 48H80c26.5 0 48-21.5 48-48V272c0-26.5-21.5-48-48-48H48zm320-80h32V432H368V144zm-48 0V432c0 26.5 21.5 48 48 48h32c26.5 0 48-21.5 48-48V144c0-26.5-21.5-48-48-48H368c-26.5 0-48 21.5-48 48z" />
  </symbol>
  <symbol id="trash" viewBox="0 0 448 512">
    <path
      d="M177.1 48h93.7c2.7 0 5.2 1.3 6.7 3.6l19 28.4h-145l19-28.4c1.5-2.2 4-3.6 6.7-3.6zM354.2 80L317.5 24.9C307.1 9.4 289.6 0 270.9 0H177.1c-18.7 0-36.2 9.4-46.6 24.9L93.8 80H80.1 32 24C10.7 80 0 90.7 0 104s10.7 24 24 24H35.6L59.6 452.7c2.5 33.4 30.3 59.3 63.8 59.3H324.6c33.5 0 61.3-25.9 63.8-59.3L412.4 128H424c13.3 0 24-10.7 24-24s-10.7-24-24-24h-8H367.9 354.2zm10.1 48L340.5 449.2c-.6 8.4-7.6 14.8-16 14.8H123.4c-8.4 0-15.3-6.5-16-14.8L83.7 128H364.3z" />
  </symbol>
  <symbol id="swap" viewBox="0 0 640 512">
    <path
      d="M240 119c0 22.6-18.3 41-41 41H152V360c0 39.8 32.2 72 72 72s72-32.2 72-72V152c0-66.3 53.7-120 120-120s120 53.7 120 120V352h47c22.6 0 41 18.3 41 41c0 10.9-4.3 21.3-12 29l-83 83c-4.5 4.5-10.6 7-17 7s-12.5-2.5-17-7l-83-83c-7.7-7.7-12-18.1-12-29c0-22.6 18.3-41 41-41h47V152c0-39.8-32.2-72-72-72s-72 32.2-72 72V360c0 66.3-53.7 120-120 120s-120-53.7-120-120V160H57c-22.6 0-41-18.3-41-41c0-10.9 4.3-21.3 12-29L111 7c4.5-4.5 10.6-7 17-7s12.5 2.5 17 7l83 83c7.7 7.7 12 18.1 12 29zM73.9 112l108.1 0L128 57.9 73.9 112zm384 288L512 454.1 566.1 400H457.9z" />
  </symbol>
  <symbol id="key" viewBox="0 0 512 512">
    <path
      d="M208 176c0-70.7 57.3-128 128-128s128 57.3 128 128s-57.3 128-128 128c-10.4 0-20.5-1.2-30.1-3.6c-8.1-2-16.7 .4-22.6 6.4L254.1 336H200c-13.3 0-24 10.7-24 24v40H136c-13.3 0-24 10.7-24 24v40H48V385.9L205.2 228.7c5.9-5.9 8.3-14.5 6.4-22.6c-2.3-9.6-3.6-19.7-3.6-30.1zM336 0C238.8 0 160 78.8 160 176c0 9.5 .7 18.8 2.2 27.9L7 359c-4.5 4.5-7 10.6-7 17V488c0 13.3 10.7 24 24 24H136c13.3 0 24-10.7 24-24V448h40c13.3 0 24-10.7 24-24V384h40c6.4 0 12.5-2.5 17-7l27.2-27.2c9.1 1.4 18.4 2.2 27.9 2.2c97.2 0 176-78.8 176-176S433.2 0 336 0zm32 176a32 32 0 1 0 0-64 32 32 0 1 0 0 64z" />
  </symbol>
  <symbol id="bug" viewBox="0 0 512 512">
    <path
      d="M256 0c53 0 96 43 96 96v3.6c0 15.7-12.7 28.4-28.4 28.4H188.4c-15.7 0-28.4-12.7-28.4-28.4V96c0-53 43-96 96-96zM39 103c9.4-9.4 24.6-9.4 33.9 0l72.4 72.4C161.3 165.7 180 160 200 160H312c20 0 38.7 5.7 54.6 15.5L439 103c9.4-9.4 24.6-9.4 33.9 0s9.4 24.6 0 33.9l-72.4 72.4C410.3 225.3 416 244 416 264h72c13.3 0 24 10.7 24 24s-10.7 24-24 24H416v8c0 27.2-6.8 52.8-18.8 75.3L473 471c9.4 9.4 9.4 24.6 0 33.9s-24.6 9.4-33.9 0l-70.9-70.9C339.3 462.5 299.7 480 256 480s-83.3-17.5-112.2-45.9L73 505c-9.4 9.4-24.6 9.4-33.9 0s-9.4-24.6 0-33.9l75.8-75.8C102.8 372.8 96 347.2 96 320v-8H24c-13.3 0-24-10.7-24-24s10.7-24 24-24H96c0-20 5.7-38.7 15.5-54.6L39 137c-9.4-9.4-9.4-24.6 0-33.9zM144 264v56c0 53.6 37.7 98.4 88 109.4V280c0-13.3 10.7-24 24-24s24 10.7 24 24V429.4c50.3-11 88-55.8 88-109.4V264c0-30.9-25.1-56-56-56H200c-30.9 0-56 25.1-56 56z" />
  </symbol>
  <symbol id="arrow-right" viewBox="0 0 448 512">
    <path
      d="M440.6 273.4c4.7-4.5 7.4-10.8 7.4-17.4s-2.7-12.8-7.4-17.4l-176-168c-9.6-9.2-24.8-8.8-33.9 .8s-8.8 24.8 .8 33.9L364.1 232 24 232c-13.3 0-24 10.7-24 24s10.7 24 24 24l340.1 0L231.4 406.6c-9.6 9.2-9.9 24.3-.8 33.9s24.3 9.9 33.9 .8l176-168z" />
  </symbol>
  <symbol id="line-height" viewBox="0 0 576 512">
    <path
      d="M113.8 39.9c-4.6-5.1-11-7.9-17.8-7.9s-13.3 2.9-17.8 7.9l-72 80c-8.9 9.9-8.1 25 1.8 33.9s25 8.1 33.9-1.8L72 118.5V393.5L41.8 359.9c-8.9-9.9-24-10.7-33.9-1.8s-10.7 24-1.8 33.9l72 80c4.6 5.1 11 7.9 17.8 7.9s13.3-2.9 17.8-7.9l72-80c8.9-9.9 8.1-25-1.8-33.9s-25-8.1-33.9 1.8L120 393.5V118.5l30.2 33.5c8.9 9.9 24 10.7 33.9 1.8s10.7-24 1.8-33.9l-72-80zM248 72c-13.3 0-24 10.7-24 24s10.7 24 24 24H552c13.3 0 24-10.7 24-24s-10.7-24-24-24H248zm0 160c-13.3 0-24 10.7-24 24s10.7 24 24 24H552c13.3 0 24-10.7 24-24s-10.7-24-24-24H248zM224 416c0 13.3 10.7 24 24 24H552c13.3 0 24-10.7 24-24s-10.7-24-24-24H248c-13.3 0-24 10.7-24 24z" />
  </symbol>
  <symbol id="inbox" viewBox="0 0 512 512">
    <path
      d="M48 336h81.2l20.9 41.9c6.8 13.6 20.6 22.1 35.8 22.1H326.1c15.1 0 29-8.6 35.8-22.1L382.8 336H464v80c0 8.8-7.2 16-16 16H64c-8.8 0-16-7.2-16-16V336zm406.5-48H377.9c-15.1 0-29 8.6-35.8 22.1L321.2 352H190.8l-20.9-41.9c-6.8-13.6-20.6-22.1-35.8-22.1H57.5l49-195.9C108.2 85 114.6 80 122 80H390c7.3 0 13.7 5 15.5 12.1l49 195.9zM0 327.9V416c0 35.3 28.7 64 64 64H448c35.3 0 64-28.7 64-64V327.9c0-5.2-.6-10.4-1.9-15.5l-58-231.9C445 52 419.4 32 390 32H122C92.6 32 67 52 59.9 80.5L1.9 312.4C.6 317.4 0 322.6 0 327.9z" />
  </symbol>
  <symbol id="bugs" viewBox="0 0 576 512">
    <path
      d="M164.5 107.4l33.4-73.5c5.5-12.1 .1-26.3-11.9-31.8s-26.3-.1-31.8 11.9L128 71.7 101.9 14.1C96.4 2 82.1-3.3 70.1 2.1S52.7 21.9 58.1 33.9l33.4 73.5c-10.2 7.1-18.2 17-22.9 28.6h-17l-4.1-20.7c-2.6-13-15.2-21.4-28.2-18.8S-2.1 111.7 .5 124.7l8 40C10.7 175.9 20.6 184 32 184H64v23.3l-37.8 9.5c-9.5 2.4-16.6 10.2-17.9 19.9l-8 56c-1.9 13.1 7.2 25.3 20.4 27.2s25.3-7.2 27.2-20.4l5.7-40 18.4-4.6C82.7 274.6 103.8 288 128 288s45.3-13.4 56.1-33.2l18.4 4.6 5.7 40c1.9 13.1 14 22.2 27.2 20.4s22.2-14 20.4-27.2l-8-56c-1.4-9.7-8.5-17.5-17.9-19.9L192 207.3V184h32c11.4 0 21.3-8.1 23.5-19.3l8-40c2.6-13-5.8-25.6-18.8-28.2s-25.6 5.8-28.2 18.8L204.3 136h-17c-4.7-11.6-12.7-21.5-22.9-28.6zM496 286.5l65.6-47c10.8-7.7 13.3-22.7 5.6-33.5s-22.7-13.3-33.5-5.6l-51.4 36.8 6.1-62.9c1.3-13.2-8.4-24.9-21.6-26.2s-24.9 8.4-26.2 21.6L432.8 250c-12.3 1-24.2 5.6-34.1 13.3L384 254.8l6.8-20c4.2-12.6-2.5-26.2-15-30.4s-26.2 2.5-30.4 15l-13.1 38.6c-3.7 10.8 .8 22.8 10.7 28.5l27.7 16L359 322.7 321.5 312c-9.4-2.7-19.5 .6-25.5 8.3l-34.9 44.5c-8.2 10.4-6.4 25.5 4.1 33.7s25.5 6.4 33.7-4.1l25-31.8 18.2 5.2c-.5 22.6 11 44.7 32 56.8s45.9 11 65.2-.7l13.6 13.2-15.1 37.5c-4.9 12.3 1 26.3 13.3 31.2s26.3-1 31.2-13.3L503.5 440c3.6-9.1 1.4-19.4-5.6-26.2l-28-27.1 11.6-20.1 27.7 16c9.9 5.7 22.5 3.7 30-4.9L566.2 347c8.7-10 7.8-25.1-2.2-33.9s-25.1-7.8-33.9 2.2l-13.9 15.9-14.7-8.5c1.7-12.4-.2-25-5.5-36.2zM144 224c0 8.8-7.2 16-16 16s-16-7.2-16-16V160c0-8.8 7.2-16 16-16s16 7.2 16 16v64zm307.9 97.8l-32 55.4c-4.4 7.7-14.2 10.3-21.9 5.9s-10.3-14.2-5.9-21.9l32-55.4c4.4-7.7 14.2-10.3 21.9-5.9s10.3 14.2 5.9 21.9z" />
  </symbol>
  <symbol id="user-plus" viewBox="0 0 640 512">
    <path
      d="M224 48a80 80 0 1 1 0 160 80 80 0 1 1 0-160zm0 208A128 128 0 1 0 224 0a128 128 0 1 0 0 256zm-45.7 96h91.4c65.7 0 120.1 48.7 129 112H49.3c8.9-63.3 63.3-112 129-112zm0-48C79.8 304 0 383.8 0 482.3C0 498.7 13.3 512 29.7 512H418.3c16.4 0 29.7-13.3 29.7-29.7C448 383.8 368.2 304 269.7 304H178.3zM504 312c0 13.3 10.7 24 24 24s24-10.7 24-24V248h64c13.3 0 24-10.7 24-24s-10.7-24-24-24H552V136c0-13.3-10.7-24-24-24s-24 10.7-24 24v64H440c-13.3 0-24 10.7-24 24s10.7 24 24 24h64v64z" />
  </symbol>
  <symbol id="chart-simple-horizontal" viewBox="0 0 448 512">
    <path
      d="M400 240L48 240l0 32 352 0 0-32zm48 32c0 26.5-21.5 48-48 48L48 320c-26.5 0-48-21.5-48-48l0-32c0-26.5 21.5-48 48-48l352 0c26.5 0 48 21.5 48 48l0 32zM208 400L48 400l0 32 160 0 0-32zm48 32c0 26.5-21.5 48-48 48L48 480c-26.5 0-48-21.5-48-48l0-32c0-26.5 21.5-48 48-48l160 0c26.5 0 48 21.5 48 48l0 32zm80-320l0-32L48 80l0 32 288 0zm0 48L48 160c-26.5 0-48-21.5-48-48L0 80C0 53.5 21.5 32 48 32l288 0c26.5 0 48 21.5 48 48l0 32c0 26.5-21.5 48-48 48z" />
  </symbol>
  <symbol id="chart-bar" viewBox="0 0 512 512">
    <path
      d="M24 32c13.3 0 24 10.7 24 24V408c0 13.3 10.7 24 24 24H488c13.3 0 24 10.7 24 24s-10.7 24-24 24H72c-39.8 0-72-32.2-72-72V56C0 42.7 10.7 32 24 32zM128 136c0-13.3 10.7-24 24-24l208 0c13.3 0 24 10.7 24 24s-10.7 24-24 24l-208 0c-13.3 0-24-10.7-24-24zm24 72H296c13.3 0 24 10.7 24 24s-10.7 24-24 24H152c-13.3 0-24-10.7-24-24s10.7-24 24-24zm0 96H424c13.3 0 24 10.7 24 24s-10.7 24-24 24H152c-13.3 0-24-10.7-24-24s10.7-24 24-24z" />
  </symbol>
  <symbol id="octagon-exclamation" viewBox="0 0 512 512">
    <path
      d="M191.5 48.1c-6.4 0-12.5 2.5-17 7L55.1 174.5c-4.5 4.5-7 10.6-7 17v129c0 6.4 2.5 12.5 7 17L21.2 371.4C7.7 357.9 .1 339.6 .1 320.5v-129c0-19.1 7.6-37.4 21.1-50.9L140.6 21.2C154.1 7.7 172.4 .1 191.5 .1h129c19.1 0 37.4 7.6 50.9 21.1L490.8 140.6c13.5 13.5 21.1 31.8 21.1 50.9v129c0 19.1-7.6 37.4-21.1 50.9L371.4 490.8c-13.5 13.5-31.8 21.1-50.9 21.1h-129c-19.1 0-37.4-7.6-50.9-21.1L21.2 371.4l33.9-33.9L174.5 456.9c4.5 4.5 10.6 7 17 7h129c6.4 0 12.5-2.5 17-7L456.9 337.5c4.5-4.5 7-10.6 7-17v-129c0-6.4-2.5-12.5-7-17L337.5 55.1c-4.5-4.5-10.6-7-17-7h-129zM256 128c13.3 0 24 10.7 24 24V264c0 13.3-10.7 24-24 24s-24-10.7-24-24V152c0-13.3 10.7-24 24-24zM224 352a32 32 0 1 1 64 0 32 32 0 1 1 -64 0z" />
  </symbol>
  <symbol id="bell" viewBox="0 0 448 512">
    <path
      d="M224 0c-17.7 0-32 14.3-32 32V51.2C119 66 64 130.6 64 208v25.4c0 45.4-15.5 89.5-43.8 124.9L5.3 377c-5.8 7.2-6.9 17.1-2.9 25.4S14.8 416 24 416H424c9.2 0 17.6-5.3 21.6-13.6s2.9-18.2-2.9-25.4l-14.9-18.6C399.5 322.9 384 278.8 384 233.4V208c0-77.4-55-142-128-156.8V32c0-17.7-14.3-32-32-32zm0 96c61.9 0 112 50.1 112 112v25.4c0 47.9 13.9 94.6 39.7 134.6H72.3C98.1 328 112 281.3 112 233.4V208c0-61.9 50.1-112 112-112zm64 352H224 160c0 17 6.7 33.3 18.7 45.3s28.3 18.7 45.3 18.7s33.3-6.7 45.3-18.7s18.7-28.3 18.7-45.3z" />
  </symbol>
  <symbol id="bug-slash" viewBox="0 0 640 512">
    <path
      d="M224 96c0-53 43-96 96-96s96 43 96 96v3.6c0 15.7-12.7 28.4-28.4 28.4H252.4c-15.7 0-28.4-12.7-28.4-28.4V96zm73.7 112L432 313.3V264c0-30.9-25.1-56-56-56H297.7zM477.4 348.9L630.8 469.1c10.4 8.2 12.3 23.3 4.1 33.7s-23.3 12.3-33.7 4.1L9.2 42.9C-1.2 34.7-3.1 19.6 5.1 9.2S28.4-3.1 38.8 5.1L240 162.8c7.7-1.8 15.8-2.8 24-2.8H376c20 0 38.7 5.7 54.6 15.5L503 103c9.4-9.4 24.6-9.4 33.9 0s9.4 24.6 0 33.9l-72.4 72.4C474.3 225.3 480 244 480 264h72c13.3 0 24 10.7 24 24s-10.7 24-24 24H480v8c0 9.9-.9 19.5-2.6 28.9zm-46.6 86.5C402.1 463 363 480 320 480c-43.7 0-83.3-17.5-112.2-45.9L137 505c-9.4 9.4-24.6 9.4-33.9 0s-9.4-24.6 0-33.9l75.8-75.8c-12-22.4-18.8-48.1-18.8-75.3v-8H88c-13.3 0-24-10.7-24-24s10.7-24 24-24h72c0-12.9 2.4-25.3 6.7-36.7L208.1 260c-.1 1.3-.1 2.7-.1 4v56c0 53.6 37.7 98.4 88 109.4V329.2L344 367v62.4c18.3-4 34.8-12.4 48.6-24.1l38.2 30.1z" />
  </symbol>
  <symbol id="trash-can" viewBox="0 0 448 512">
    <path
      d="M170.5 51.6L151.5 80h145l-19-28.4c-1.5-2.2-4-3.6-6.7-3.6H177.1c-2.7 0-5.2 1.3-6.7 3.6zm147-26.6L354.2 80H368h48 8c13.3 0 24 10.7 24 24s-10.7 24-24 24h-8V432c0 44.2-35.8 80-80 80H112c-44.2 0-80-35.8-80-80V128H24c-13.3 0-24-10.7-24-24S10.7 80 24 80h8H80 93.8l36.7-55.1C140.9 9.4 158.4 0 177.1 0h93.7c18.7 0 36.2 9.4 46.6 24.9zM80 128V432c0 17.7 14.3 32 32 32H336c17.7 0 32-14.3 32-32V128H80zm80 64V400c0 8.8-7.2 16-16 16s-16-7.2-16-16V192c0-8.8 7.2-16 16-16s16 7.2 16 16zm80 0V400c0 8.8-7.2 16-16 16s-16-7.2-16-16V192c0-8.8 7.2-16 16-16s16 7.2 16 16zm80 0V400c0 8.8-7.2 16-16 16s-16-7.2-16-16V192c0-8.8 7.2-16 16-16s16 7.2 16 16z" />
  </symbol>
  <symbol id="arrows-turn-right" viewBox="0 0 448 512">
    <path
      d="M294.4 7.7c9-9.7 24.2-10.3 33.9-1.3l112 104c4.9 4.5 7.7 10.9 7.7 17.6s-2.8 13-7.7 17.6l-112 104c-9.7 9-24.9 8.5-33.9-1.3s-8.5-24.9 1.3-33.9L362.9 152H120c-39.8 0-72 32.2-72 72v40c0 13.3-10.7 24-24 24s-24-10.7-24-24V224c0-66.3 53.7-120 120-120H362.9L295.7 41.6c-9.7-9-10.3-24.2-1.3-33.9zm-96 256c9-9.7 24.2-10.3 33.9-1.3l112 104c4.9 4.5 7.7 10.9 7.7 17.6s-2.8 13-7.7 17.6l-112 104c-9.7 9-24.9 8.5-33.9-1.3s-8.5-24.9 1.3-33.9L266.9 408H88c-22.1 0-40 17.9-40 40v40c0 13.3-10.7 24-24 24s-24-10.7-24-24V448c0-48.6 39.4-88 88-88H266.9l-67.2-62.4c-9.7-9-10.3-24.2-1.3-33.9z" />
  </symbol>
  <symbol id="brackets-curly" viewBox="0 0 576 512">
    <path
      d="M152 32c-48.6 0-88 39.4-88 88v45.5c0 10.6-4.2 20.8-11.7 28.3L7 239c-9.4 9.4-9.4 24.6 0 33.9l45.3 45.3c7.5 7.5 11.7 17.7 11.7 28.3V392c0 48.6 39.4 88 88 88h48c13.3 0 24-10.7 24-24s-10.7-24-24-24H152c-22.1 0-40-17.9-40-40V346.5c0-23.3-9.3-45.7-25.8-62.2L57.9 256l28.3-28.3c16.5-16.5 25.8-38.9 25.8-62.2V120c0-22.1 17.9-40 40-40h48c13.3 0 24-10.7 24-24s-10.7-24-24-24H152zm272 0H376c-13.3 0-24 10.7-24 24s10.7 24 24 24h48c22.1 0 40 17.9 40 40v45.5c0 23.3 9.3 45.7 25.8 62.2L518.1 256l-28.3 28.3c-16.5 16.5-25.8 38.9-25.8 62.2V392c0 22.1-17.9 40-40 40H376c-13.3 0-24 10.7-24 24s10.7 24 24 24h48c48.6 0 88-39.4 88-88V346.5c0-10.6 4.2-20.8 11.7-28.3L569 273c9.4-9.4 9.4-24.6 0-33.9l-45.3-45.3c-7.5-7.5-11.7-17.7-11.7-28.3V120c0-48.6-39.4-88-88-88z" />
  </symbol>
  <symbol id="arrow-left" viewBox="0 0 448 512">
    <path
      d="M7.4 273.4C2.7 268.8 0 262.6 0 256s2.7-12.8 7.4-17.4l176-168c9.6-9.2 24.8-8.8 33.9 .8s8.8 24.8-.8 33.9L83.9 232 424 232c13.3 0 24 10.7 24 24s-10.7 24-24 24L83.9 280 216.6 406.6c9.6 9.2 9.9 24.3 .8 33.9s-24.3 9.9-33.9 .8l-176-168z" />
  </symbol>
  <symbol id="copy" viewBox="0 0 448 512">
    <path
      d="M384 336H192c-8.8 0-16-7.2-16-16V64c0-8.8 7.2-16 16-16l140.1 0L400 115.9V320c0 8.8-7.2 16-16 16zM192 384H384c35.3 0 64-28.7 64-64V115.9c0-12.7-5.1-24.9-14.1-33.9L366.1 14.1c-9-9-21.2-14.1-33.9-14.1H192c-35.3 0-64 28.7-64 64V320c0 35.3 28.7 64 64 64zM64 128c-35.3 0-64 28.7-64 64V448c0 35.3 28.7 64 64 64H256c35.3 0 64-28.7 64-64V416H272v32c0 8.8-7.2 16-16 16H64c-8.8 0-16-7.2-16-16V192c0-8.8 7.2-16 16-16H96V128H64z" />
  </symbol>
  <symbol id="arrows-rotate" viewBox="0 0 512 512">
    <path
      d="M94 187.1C120.8 124.1 183.3 80 256 80c39.7 0 77.8 15.8 105.9 43.9L414.1 176H360c-13.3 0-24 10.7-24 24s10.7 24 24 24H472c13.3 0 24-10.7 24-24V88c0-13.3-10.7-24-24-24s-24 10.7-24 24v54.1L395.9 89.9C358.8 52.8 308.5 32 256 32C163.4 32 83.9 88.2 49.8 168.3c-5.2 12.2 .5 26.3 12.7 31.5s26.3-.5 31.5-12.7zm368 157c5.2-12.2-.4-26.3-12.6-31.5s-26.3 .4-31.5 12.6C391 388.1 328.6 432 256 432c-39.7 0-77.8-15.8-105.9-43.9L97.9 336H152c13.3 0 24-10.7 24-24s-10.7-24-24-24H40c-13.3 0-24 10.7-24 24V424c0 13.3 10.7 24 24 24s24-10.7 24-24V369.9l52.1 52.1C153.2 459.2 203.5 480 256 480c92.5 0 171.8-56 206-135.9z" />
  </symbol>
  <symbol id="expand" viewBox="0 0 448 512">
    <path
      d="M136 32c13.3 0 24 10.7 24 24s-10.7 24-24 24H48v88c0 13.3-10.7 24-24 24s-24-10.7-24-24V56C0 42.7 10.7 32 24 32H136zM0 344c0-13.3 10.7-24 24-24s24 10.7 24 24v88h88c13.3 0 24 10.7 24 24s-10.7 24-24 24H24c-13.3 0-24-10.7-24-24V344zM424 32c13.3 0 24 10.7 24 24V168c0 13.3-10.7 24-24 24s-24-10.7-24-24V80H312c-13.3 0-24-10.7-24-24s10.7-24 24-24H424zM400 344c0-13.3 10.7-24 24-24s24 10.7 24 24V456c0 13.3-10.7 24-24 24H312c-13.3 0-24-10.7-24-24s10.7-24 24-24h88V344z" />
  </symbol>
  <symbol id="arrow-down-to-line" viewBox="0 0 384 512">
    <path
      d="M360 480c13.3 0 24-10.7 24-24s-10.7-24-24-24L24 432c-13.3 0-24 10.7-24 24s10.7 24 24 24l336 0zM174.5 344.4c4.5 4.8 10.9 7.6 17.5 7.6s12.9-2.7 17.5-7.6l128-136c9.1-9.7 8.6-24.8-1-33.9s-24.8-8.6-33.9 1L216 267.5l0-83.5 0-128c0-13.3-10.7-24-24-24s-24 10.7-24 24l0 128 0 83.5L81.5 175.6c-9.1-9.7-24.3-10.1-33.9-1s-10.1 24.3-1 33.9l128 136z" />
  </symbol>
  <symbol id="pen-to-square" viewBox="0 0 512 512"><!--!Font
    Awesome Free 6.5.2 by @fontawesome - https://fontawesome.com License -
    https://fontawesome.com/license/free Copyright 2024 Fonticons, Inc.-->
    <path
      d="M441 58.9L453.1 71c9.4 9.4 9.4 24.6 0 33.9L424 134.1 377.9 88 407 58.9c9.4-9.4 24.6-9.4 33.9 0zM209.8 256.2L344 121.9 390.1 168 255.8 302.2c-2.9 2.9-6.5 5-10.4 6.1l-58.5 16.7 16.7-58.5c1.1-3.9 3.2-7.5 6.1-10.4zM373.1 25L175.8 222.2c-8.7 8.7-15 19.4-18.3 31.1l-28.6 100c-2.4 8.4-.1 17.4 6.1 23.6s15.2 8.5 23.6 6.1l100-28.6c11.8-3.4 22.5-9.7 31.1-18.3L487 138.9c28.1-28.1 28.1-73.7 0-101.8L474.9 25C446.8-3.1 401.2-3.1 373.1 25zM88 64C39.4 64 0 103.4 0 152V424c0 48.6 39.4 88 88 88H360c48.6 0 88-39.4 88-88V312c0-13.3-10.7-24-24-24s-24 10.7-24 24V424c0 22.1-17.9 40-40 40H88c-22.1 0-40-17.9-40-40V152c0-22.1 17.9-40 40-40H200c13.3 0 24-10.7 24-24s-10.7-24-24-24H88z" />
  </symbol>
  <symbol id="dollar-sign" viewBox="0 0 320 512"><!--!Font
    Awesome Pro 6.5.2 by @fontawesome - https://fontawesome.com License -
    https://fontawesome.com/license (Commercial License) Copyright 2024 Fonticons, Inc.-->
    <path
      d="M184 24c0-13.3-10.7-24-24-24s-24 10.7-24 24V71.7c-3.1 .1-6.2 .3-9.3 .6c-23.2 1.9-47.2 7.4-67.2 20.1C38.7 105.6 23.5 126 18 154.2c-3.9 20.3-2 38.8 6.1 55.2c8 16 20.9 27.6 34.8 36.2c26.2 16.2 61.9 25.3 92.9 33.2l2.3 .6c33.9 8.6 62.6 16.1 81.7 28c9 5.6 14.3 11.2 17.1 16.9c2.7 5.3 4.2 12.8 2 24.5c-2.9 14.7-13.4 26.9-34.5 34.9c-21.6 8.2-52 10.9-87.6 5.9c-22.6-3.3-61.8-12.7-83-22.1c-12.1-5.4-26.3 .1-31.7 12.2s.1 26.3 12.2 31.7C57 423.2 101.1 433.4 126 437l.1 0c3.3 .5 6.6 .9 9.9 1.2V488c0 13.3 10.7 24 24 24s24-10.7 24-24V439.4c19.3-1.3 37.4-4.9 53.5-11c31.9-12.1 57.7-35.2 64.5-70.6c3.9-20.3 2-38.8-6.1-55.2c-8-16-20.9-27.6-34.8-36.2c-26.2-16.2-61.9-25.3-92.9-33.2l-2.3-.6c-33.9-8.6-62.6-16.1-81.7-28c-9-5.6-14.3-11.2-17.1-16.9c-2.7-5.3-4.2-12.8-2-24.5c2.9-14.8 10.1-24 20.2-30.4c10.9-6.9 26.3-11.2 45.3-12.7c38.3-3.1 83.1 5.3 113.9 12.5c12.9 3.1 25.8-4.9 28.9-17.8s-4.9-25.8-17.8-28.9c-18.7-4.4-44.2-9.7-71.5-12.5V24z" />
  </symbol>
  <symbol id="square-dashed" viewBox="0 0 448 512"><!--!Font
    Awesome Pro 6.5.2 by @fontawesome - https://fontawesome.com License -
    https://fontawesome.com/license (Commercial License) Copyright 2024 Fonticons, Inc.-->
    <path
      d="M96 32h32V96H96c-17.7 0-32 14.3-32 32v32H0V128C0 75 43 32 96 32zM0 192H64V320H0V192zm384 0h64V320H384V192zm64-32H384V128c0-17.7-14.3-32-32-32H320V32h32c53 0 96 43 96 96v32zm0 192v32c0 53-43 96-96 96H320V416h32c17.7 0 32-14.3 32-32V352h64zM64 352v32c0 17.7 14.3 32 32 32h32v64H96c-53 0-96-43-96-96V352H64zm96 128V416H288v64H160zm0-384V32H288V96H160z" />
  </symbol>
  <symbol id="sparkles" viewBox="0 0 512 512"><!--!Font
    Awesome Pro 6.5.2 by @fontawesome - https://fontawesome.com License -
    https://fontawesome.com/license (Commercial License) Copyright 2024 Fonticons, Inc.-->
    <path
      d="M327.5 85.2c-4.5 1.7-7.5 6-7.5 10.8s3 9.1 7.5 10.8L384 128l21.2 56.5c1.7 4.5 6 7.5 10.8 7.5s9.1-3 10.8-7.5L448 128l56.5-21.2c4.5-1.7 7.5-6 7.5-10.8s-3-9.1-7.5-10.8L448 64 426.8 7.5C425.1 3 420.8 0 416 0s-9.1 3-10.8 7.5L384 64 327.5 85.2zM9.3 240C3.6 242.6 0 248.3 0 254.6s3.6 11.9 9.3 14.5L26.3 277l8.1 3.7 .6 .3 88.3 40.8L164.1 410l.3 .6 3.7 8.1 7.9 17.1c2.6 5.7 8.3 9.3 14.5 9.3s11.9-3.6 14.5-9.3l7.9-17.1 3.7-8.1 .3-.6 40.8-88.3L346 281l.6-.3 8.1-3.7 17.1-7.9c5.7-2.6 9.3-8.3 9.3-14.5s-3.6-11.9-9.3-14.5l-17.1-7.9-8.1-3.7-.6-.3-88.3-40.8L217 99.1l-.3-.6L213 90.3l-7.9-17.1c-2.6-5.7-8.3-9.3-14.5-9.3s-11.9 3.6-14.5 9.3l-7.9 17.1-3.7 8.1-.3 .6-40.8 88.3L35.1 228.1l-.6 .3-8.1 3.7L9.3 240zm83 14.5l51.2-23.6c10.4-4.8 18.7-13.1 23.5-23.5l23.6-51.2 23.6 51.2c4.8 10.4 13.1 18.7 23.5 23.5l51.2 23.6-51.2 23.6c-10.4 4.8-18.7 13.1-23.5 23.5l-23.6 51.2-23.6-51.2c-4.8-10.4-13.1-18.7-23.5-23.5L92.3 254.6zM384 384l-56.5 21.2c-4.5 1.7-7.5 6-7.5 10.8s3 9.1 7.5 10.8L384 448l21.2 56.5c1.7 4.5 6 7.5 10.8 7.5s9.1-3 10.8-7.5L448 448l56.5-21.2c4.5-1.7 7.5-6 7.5-10.8s-3-9.1-7.5-10.8L448 384l-21.2-56.5c-1.7-4.5-6-7.5-10.8-7.5s-9.1 3-10.8 7.5L384 384z" />
  </symbol>
  <symbol id="chevron-down" viewBox="0 0 512 512"><!--!Font
    Awesome Pro 6.5.2 by @fontawesome - https://fontawesome.com License -
    https://fontawesome.com/license (Commercial License) Copyright 2024 Fonticons, Inc.-->
    <path
      d="M239 401c9.4 9.4 24.6 9.4 33.9 0L465 209c9.4-9.4 9.4-24.6 0-33.9s-24.6-9.4-33.9 0l-175 175L81 175c-9.4-9.4-24.6-9.4-33.9 0s-9.4 24.6 0 33.9L239 401z" />
  </symbol>
  <symbol id="chevron-up" viewBox="0 0 512 512"><!--!Font
    Awesome Pro 6.5.2 by @fontawesome - https://fontawesome.com License -
    https://fontawesome.com/license (Commercial License) Copyright 2024 Fonticons, Inc.-->
    <path
      d="M239 111c9.4-9.4 24.6-9.4 33.9 0L465 303c9.4 9.4 9.4 24.6 0 33.9s-24.6 9.4-33.9 0l-175-175L81 337c-9.4 9.4-24.6 9.4-33.9 0s-9.4-24.6 0-33.9L239 111z" />
  </symbol>
  <symbol id="chevron-right" viewBox="0 0 320 512"><!--!Font
    Awesome Pro 6.5.2 by @fontawesome - https://fontawesome.com License -
    https://fontawesome.com/license (Commercial License) Copyright 2024 Fonticons, Inc.-->
    <path
      d="M305 239c9.4 9.4 9.4 24.6 0 33.9L113 465c-9.4 9.4-24.6 9.4-33.9 0s-9.4-24.6 0-33.9l175-175L79 81c-9.4-9.4-9.4-24.6 0-33.9s24.6-9.4 33.9 0L305 239z" />
  </symbol>
  <symbol id="chevron-left" viewBox="0 0 320 512"><!--!Font
    Awesome Pro 6.5.2 by @fontawesome - https://fontawesome.com License -
    https://fontawesome.com/license (Commercial License) Copyright 2024 Fonticons, Inc.-->
    <path
      d="M15 239c-9.4 9.4-9.4 24.6 0 33.9L207 465c9.4 9.4 24.6 9.4 33.9 0s9.4-24.6 0-33.9L65.9 256 241 81c9.4-9.4 9.4-24.6 0-33.9s-24.6-9.4-33.9 0L15 239z" />
  </symbol>
  <symbol id="link-simple" viewBox="0 0 576 512"><!--!Font
    Awesome Pro 6.5.2 by @fontawesome - https://fontawesome.com License -
    https://fontawesome.com/license (Commercial License) Copyright 2024 Fonticons, Inc.-->
    <path
      d="M0 256C0 167.6 71.6 96 160 96h64c17.7 0 32 14.3 32 32s-14.3 32-32 32H160c-53 0-96 43-96 96s43 96 96 96h64c17.7 0 32 14.3 32 32s-14.3 32-32 32H160C71.6 416 0 344.4 0 256zm576 0c0 88.4-71.6 160-160 160H352c-17.7 0-32-14.3-32-32s14.3-32 32-32h64c53 0 96-43 96-96s-43-96-96-96H352c-17.7 0-32-14.3-32-32s14.3-32 32-32h64c88.4 0 160 71.6 160 160zM192 224H384c17.7 0 32 14.3 32 32s-14.3 32-32 32H192c-17.7 0-32-14.3-32-32s14.3-32 32-32z" />
  </symbol>
  <symbol id="circle-play" viewBox="0 0 512 512"><!--!Font
    Awesome Free 6.5.2 by @fontawesome - https://fontawesome.com License -
    https://fontawesome.com/license/free Copyright 2024 Fonticons, Inc.-->
    <path
      d="M464 256A208 208 0 1 0 48 256a208 208 0 1 0 416 0zM0 256a256 256 0 1 1 512 0A256 256 0 1 1 0 256zM188.3 147.1c7.6-4.2 16.8-4.1 24.3 .5l144 88c7.1 4.4 11.5 12.1 11.5 20.5s-4.4 16.1-11.5 20.5l-144 88c-7.4 4.5-16.7 4.7-24.3 .5s-12.3-12.2-12.3-20.9V168c0-8.7 4.7-16.7 12.3-20.9z" />
  </symbol>
  <symbol id="circle-check" viewBox="0 0 512 512"><!--!Font
    Awesome Free 6.5.2 by @fontawesome - https://fontawesome.com License -
    https://fontawesome.com/license/free Copyright 2024 Fonticons, Inc.-->
    <path
      d="M256 48a208 208 0 1 1 0 416 208 208 0 1 1 0-416zm0 464A256 256 0 1 0 256 0a256 256 0 1 0 0 512zM369 209c9.4-9.4 9.4-24.6 0-33.9s-24.6-9.4-33.9 0l-111 111-47-47c-9.4-9.4-24.6-9.4-33.9 0s-9.4 24.6 0 33.9l64 64c9.4 9.4 24.6 9.4 33.9 0L369 209z" />
  </symbol>
  <symbol id="folders" viewBox="0 0 576 512"><!--!Font
    Awesome Pro 6.5.2 by @fontawesome - https://fontawesome.com License -
    https://fontawesome.com/license (Commercial License) Copyright 2024 Fonticons, Inc.-->
    <path
      d="M512 336H160c-8.8 0-16-7.2-16-16V96c0-8.8 7.2-16 16-16H277.5c4.2 0 8.3 1.7 11.3 4.7l26.5 26.5c21 21 49.5 32.8 79.2 32.8H512c8.8 0 16 7.2 16 16V320c0 8.8-7.2 16-16 16zM160 384H512c35.3 0 64-28.7 64-64V160c0-35.3-28.7-64-64-64H394.5c-17 0-33.3-6.7-45.3-18.7L322.7 50.7c-12-12-28.3-18.7-45.3-18.7H160c-35.3 0-64 28.7-64 64V320c0 35.3 28.7 64 64 64zM48 120c0-13.3-10.7-24-24-24S0 106.7 0 120V344c0 75.1 60.9 136 136 136H456c13.3 0 24-10.7 24-24s-10.7-24-24-24H136c-48.6 0-88-39.4-88-88V120z" />
  </symbol>
  <symbol id="gear" viewBox="0 0 512 512"><!--!Font
    Awesome Pro 6.5.2 by @fontawesome - https://fontawesome.com License -
    https://fontawesome.com/license (Commercial License) Copyright 2024 Fonticons, Inc.-->
    <path
      d="M256 0c17 0 33.6 1.7 49.8 4.8c7.9 1.5 21.8 6.1 29.4 20.1c2 3.7 3.6 7.6 4.6 11.8l9.3 38.5C350.5 81 360.3 86.7 366 85l38-11.2c4-1.2 8.1-1.8 12.2-1.9c16.1-.5 27 9.4 32.3 15.4c22.1 25.1 39.1 54.6 49.9 86.3c2.6 7.6 5.6 21.8-2.7 35.4c-2.2 3.6-4.9 7-8 10L459 246.3c-4.2 4-4.2 15.5 0 19.5l28.7 27.3c3.1 3 5.8 6.4 8 10c8.2 13.6 5.2 27.8 2.7 35.4c-10.8 31.7-27.8 61.1-49.9 86.3c-5.3 6-16.3 15.9-32.3 15.4c-4.1-.1-8.2-.8-12.2-1.9L366 427c-5.7-1.7-15.5 4-16.9 9.8l-9.3 38.5c-1 4.2-2.6 8.2-4.6 11.8c-7.7 14-21.6 18.5-29.4 20.1C289.6 510.3 273 512 256 512s-33.6-1.7-49.8-4.8c-7.9-1.5-21.8-6.1-29.4-20.1c-2-3.7-3.6-7.6-4.6-11.8l-9.3-38.5c-1.4-5.8-11.2-11.5-16.9-9.8l-38 11.2c-4 1.2-8.1 1.8-12.2 1.9c-16.1 .5-27-9.4-32.3-15.4c-22-25.1-39.1-54.6-49.9-86.3c-2.6-7.6-5.6-21.8 2.7-35.4c2.2-3.6 4.9-7 8-10L53 265.7c4.2-4 4.2-15.5 0-19.5L24.2 218.9c-3.1-3-5.8-6.4-8-10C8 195.3 11 181.1 13.6 173.6c10.8-31.7 27.8-61.1 49.9-86.3c5.3-6 16.3-15.9 32.3-15.4c4.1 .1 8.2 .8 12.2 1.9L146 85c5.7 1.7 15.5-4 16.9-9.8l9.3-38.5c1-4.2 2.6-8.2 4.6-11.8c7.7-14 21.6-18.5 29.4-20.1C222.4 1.7 239 0 256 0zM218.1 51.4l-8.5 35.1c-7.8 32.3-45.3 53.9-77.2 44.6L97.9 120.9c-16.5 19.3-29.5 41.7-38 65.7l26.2 24.9c24 22.8 24 66.2 0 89L59.9 325.4c8.5 24 21.5 46.4 38 65.7l34.6-10.2c31.8-9.4 69.4 12.3 77.2 44.6l8.5 35.1c24.6 4.5 51.3 4.5 75.9 0l8.5-35.1c7.8-32.3 45.3-53.9 77.2-44.6l34.6 10.2c16.5-19.3 29.5-41.7 38-65.7l-26.2-24.9c-24-22.8-24-66.2 0-89l26.2-24.9c-8.5-24-21.5-46.4-38-65.7l-34.6 10.2c-31.8 9.4-69.4-12.3-77.2-44.6l-8.5-35.1c-24.6-4.5-51.3-4.5-75.9 0zM208 256a48 48 0 1 0 96 0 48 48 0 1 0 -96 0zm48 96a96 96 0 1 1 0-192 96 96 0 1 1 0 192z" />
  </symbol>
  <symbol id="key" viewBox="0 0 512 512"><!--!Font
    Awesome Pro 6.5.2 by @fontawesome - https://fontawesome.com License -
    https://fontawesome.com/license (Commercial License) Copyright 2024 Fonticons, Inc.-->
    <path
      d="M208 176c0-70.7 57.3-128 128-128s128 57.3 128 128s-57.3 128-128 128c-10.4 0-20.5-1.2-30.1-3.6c-8.1-2-16.7 .4-22.6 6.4L254.1 336H200c-13.3 0-24 10.7-24 24v40H136c-13.3 0-24 10.7-24 24v40H48V385.9L205.2 228.7c5.9-5.9 8.3-14.5 6.4-22.6c-2.3-9.6-3.6-19.7-3.6-30.1zM336 0C238.8 0 160 78.8 160 176c0 9.5 .7 18.8 2.2 27.9L7 359c-4.5 4.5-7 10.6-7 17V488c0 13.3 10.7 24 24 24H136c13.3 0 24-10.7 24-24V448h40c13.3 0 24-10.7 24-24V384h40c6.4 0 12.5-2.5 17-7l27.2-27.2c9.1 1.4 18.4 2.2 27.9 2.2c97.2 0 176-78.8 176-176S433.2 0 336 0zm32 176a32 32 0 1 0 0-64 32 32 0 1 0 0 64z" />
  </symbol>
  <symbol id="plus" viewBox="0 0 448 512"><!--!Font
    Awesome Free 6.5.2 by @fontawesome - https://fontawesome.com License -
    https://fontawesome.com/license/free Copyright 2024 Fonticons, Inc.-->
    <path
      d="M256 80c0-17.7-14.3-32-32-32s-32 14.3-32 32V224H48c-17.7 0-32 14.3-32 32s14.3 32 32 32H192V432c0 17.7 14.3 32 32 32s32-14.3 32-32V288H400c17.7 0 32-14.3 32-32s-14.3-32-32-32H256V80z" />
  </symbol>
  <symbol id="xmark" viewBox="0 0 384 512"><!--!Font
    Awesome Pro 6.5.2 by @fontawesome - https://fontawesome.com License -
    https://fontawesome.com/license (Commercial License) Copyright 2024 Fonticons, Inc.-->
    <path
      d="M345 137c9.4-9.4 9.4-24.6 0-33.9s-24.6-9.4-33.9 0l-119 119L73 103c-9.4-9.4-24.6-9.4-33.9 0s-9.4 24.6 0 33.9l119 119L39 375c-9.4 9.4-9.4 24.6 0 33.9s24.6 9.4 33.9 0l119-119L311 409c9.4 9.4 24.6 9.4 33.9 0s9.4-24.6 0-33.9l-119-119L345 137z" />
  </symbol>
  <symbol id="filter" viewBox="0 0 512 512"><!--!Font
    Awesome Pro 6.5.2 by @fontawesome - https://fontawesome.com License -
    https://fontawesome.com/license (Commercial License) Copyright 2024 Fonticons, Inc.-->
    <path
      d="M0 73.7C0 50.7 18.7 32 41.7 32l428.6 0c23 0 41.7 18.7 41.7 41.7c0 9.6-3.3 18.9-9.4 26.3L336 304.5l0 143.2c0 17.8-14.5 32.3-32.3 32.3c-7.3 0-14.4-2.5-20.1-7l-92.5-73.4c-9.6-7.6-15.1-19.1-15.1-31.3l0-63.7L9.4 100C3.3 92.6 0 83.3 0 73.7zM55 80L218.6 280.8c3.5 4.3 5.4 9.6 5.4 15.2l0 68.4 64 50.8L288 296c0-5.5 1.9-10.9 5.4-15.2L457 80 55 80z"></path>
  </symbol>
  <symbol id="grip-dots-vertical" viewBox="0 0 256 512"><!--!Font
    Awesome Pro 6.5.2 by @fontawesome - https://fontawesome.com License -
    https://fontawesome.com/license (Commercial License) Copyright 2024 Fonticons, Inc.-->
    <path
      d="M64 128a32 32 0 1 0 0-64 32 32 0 1 0 0 64zm0 160a32 32 0 1 0 0-64 32 32 0 1 0 0 64zM96 416a32 32 0 1 0 -64 0 32 32 0 1 0 64 0zm96-288a32 32 0 1 0 0-64 32 32 0 1 0 0 64zm32 128a32 32 0 1 0 -64 0 32 32 0 1 0 64 0zM192 448a32 32 0 1 0 0-64 32 32 0 1 0 0 64z" />
  </symbol>
  <symbol id="sliders" viewBox="0 0 512 512"><!--!Font
    Awesome Pro 6.5.2 by @fontawesome - https://fontawesome.com License -
    https://fontawesome.com/license (Commercial License) Copyright 2024 Fonticons, Inc.-->
    <path
      d="M0 416c0 13.3 10.7 24 24 24l59.7 0c10.2 32.5 40.5 56 76.3 56s66.1-23.5 76.3-56L488 440c13.3 0 24-10.7 24-24s-10.7-24-24-24l-251.7 0c-10.2-32.5-40.5-56-76.3-56s-66.1 23.5-76.3 56L24 392c-13.3 0-24 10.7-24 24zm128 0a32 32 0 1 1 64 0 32 32 0 1 1 -64 0zM320 256a32 32 0 1 1 64 0 32 32 0 1 1 -64 0zm32-80c-35.8 0-66.1 23.5-76.3 56L24 232c-13.3 0-24 10.7-24 24s10.7 24 24 24l251.7 0c10.2 32.5 40.5 56 76.3 56s66.1-23.5 76.3-56l59.7 0c13.3 0 24-10.7 24-24s-10.7-24-24-24l-59.7 0c-10.2-32.5-40.5-56-76.3-56zM192 128a32 32 0 1 1 0-64 32 32 0 1 1 0 64zm76.3-56C258.1 39.5 227.8 16 192 16s-66.1 23.5-76.3 56L24 72C10.7 72 0 82.7 0 96s10.7 24 24 24l91.7 0c10.2 32.5 40.5 56 76.3 56s66.1-23.5 76.3-56L488 120c13.3 0 24-10.7 24-24s-10.7-24-24-24L268.3 72z" />
  </symbol>
  <symbol id="clock" viewBox="0 0 512 512"><!--!Font
    Awesome Free 6.5.2 by @fontawesome - https://fontawesome.com License -
    https://fontawesome.com/license/free Copyright 2024 Fonticons, Inc.-->
    <path
      d="M464 256A208 208 0 1 1 48 256a208 208 0 1 1 416 0zM0 256a256 256 0 1 0 512 0A256 256 0 1 0 0 256zM232 120V256c0 8 4 15.5 10.7 20l96 64c11 7.4 25.9 4.4 33.3-6.7s4.4-25.9-6.7-33.3L280 243.2V120c0-13.3-10.7-24-24-24s-24 10.7-24 24z" />
  </symbol>
  <symbol id="magnifying-glass" viewBox="0 0 512 512"><!--!Font
    Awesome Pro 6.5.2 by @fontawesome - https://fontawesome.com License -
    https://fontawesome.com/license (Commercial License) Copyright 2024 Fonticons, Inc.-->
    <path
      d="M368 208A160 160 0 1 0 48 208a160 160 0 1 0 320 0zM337.1 371.1C301.7 399.2 256.8 416 208 416C93.1 416 0 322.9 0 208S93.1 0 208 0S416 93.1 416 208c0 48.8-16.8 93.7-44.9 129.1L505 471c9.4 9.4 9.4 24.6 0 33.9s-24.6 9.4-33.9 0L337.1 371.1z" />
  </symbol>
  <symbol id="circle-info" viewBox="0 0 512 512"><!--!Font
    Awesome Pro 6.5.2 by @fontawesome - https://fontawesome.com License -
    https://fontawesome.com/license (Commercial License) Copyright 2024 Fonticons, Inc.-->
    <path
      d="M256 48a208 208 0 1 1 0 416 208 208 0 1 1 0-416zm0 464A256 256 0 1 0 256 0a256 256 0 1 0 0 512zM216 336c-13.3 0-24 10.7-24 24s10.7 24 24 24h80c13.3 0 24-10.7 24-24s-10.7-24-24-24h-8V248c0-13.3-10.7-24-24-24H216c-13.3 0-24 10.7-24 24s10.7 24 24 24h24v64H216zm40-144a32 32 0 1 0 0-64 32 32 0 1 0 0 64z" />
  </symbol>
  <symbol id="regular-calendar-days-clock" viewBox="0 0 640 512">
    <path
      d="M0 128C0 92.7 28.7 64 64 64l40 0 0-40c0-13.3 10.7-24 24-24s24 10.7 24 24l0 40 144 0 0-40c0-13.3 10.7-24 24-24s24 10.7 24 24l0 40 40 0c35.3 0 64 28.7 64 64l0 16 0 48 0 6.6c-17.2 4.9-33.4 12.3-48 21.8l0-28.5-80 0 0 56 47.3 0c-13.1 14-23.9 30.2-31.9 48L320 296l0 64 .2 0c-.1 2.7-.2 5.3-.2 8c0 13.8 1.6 27.1 4.6 40l-4.6 0 0 56 28.5 0c12 18.4 27.4 34.5 45.3 47.3c-3.2 .5-6.4 .7-9.8 .7L64 512c-35.3 0-64-28.7-64-64L0 192l0-48 0-16zm48 64l0 56 80 0 0-56-80 0zm0 104l0 64 80 0 0-64-80 0zm0 112l0 40c0 8.8 7.2 16 16 16l64 0 0-56-80 0zM176 192l0 56 96 0 0-56-96 0zm0 104l0 64 96 0 0-64-96 0zm0 112l0 56 96 0 0-56-96 0zm176-40c0-79.5 64.5-144 144-144s144 64.5 144 144s-64.5 144-144 144s-144-64.5-144-144zm128-64l0 64c0 8.8 7.2 16 16 16l48 0c8.8 0 16-7.2 16-16s-7.2-16-16-16l-32 0 0-48c0-8.8-7.2-16-16-16s-16 7.2-16 16z" />
  </symbol>
  <symbol id="square-question" viewBox="0 0 448 512">
    <path
      d="M64 80c-8.8 0-16 7.2-16 16l0 320c0 8.8 7.2 16 16 16l320 0c8.8 0 16-7.2 16-16l0-320c0-8.8-7.2-16-16-16L64 80zM0 96C0 60.7 28.7 32 64 32l320 0c35.3 0 64 28.7 64 64l0 320c0 35.3-28.7 64-64 64L64 480c-35.3 0-64-28.7-64-64L0 96zm137.8 69.3c7.9-22.3 29.1-37.3 52.8-37.3l58.3 0c34.9 0 63.1 28.3 63.1 63.1c0 22.6-12.1 43.5-31.7 54.8L248 264.4c-.2 13-10.9 23.6-24 23.6c-13.3 0-24-10.7-24-24l0-13.5c0-8.6 4.6-16.5 12.1-20.8l44.3-25.4c4.7-2.7 7.6-7.7 7.6-13.1c0-8.4-6.8-15.1-15.1-15.1l-58.3 0c-3.4 0-6.4 2.1-7.5 5.3l-.4 1.2c-4.4 12.5-18.2 19-30.6 14.6s-19-18.2-14.6-30.6l.4-1.2zM192 352a32 32 0 1 1 64 0 32 32 0 1 1 -64 0z" />
  </symbol>
  <symbol id="arrow-right-from-bracket" viewBox="0 0 512 512"><!--!Font
    Awesome Pro 6.6.0 by @fontawesome - https://fontawesome.com License -
    https://fontawesome.com/license (Commercial License) Copyright 2024 Fonticons, Inc.-->
    <path
      d="M505 273c9.4-9.4 9.4-24.6 0-33.9L377 111c-9.4-9.4-24.6-9.4-33.9 0s-9.4 24.6 0 33.9l87 87L184 232c-13.3 0-24 10.7-24 24s10.7 24 24 24l246.1 0-87 87c-9.4 9.4-9.4 24.6 0 33.9s24.6 9.4 33.9 0L505 273zM168 80c13.3 0 24-10.7 24-24s-10.7-24-24-24L88 32C39.4 32 0 71.4 0 120L0 392c0 48.6 39.4 88 88 88l80 0c13.3 0 24-10.7 24-24s-10.7-24-24-24l-80 0c-22.1 0-40-17.9-40-40l0-272c0-22.1 17.9-40 40-40l80 0z" />
  </symbol>
  <symbol id="question" viewBox="0 0 320 512"><path d="M64 160c0-44.2 35.8-80 80-80l32 0c44.2 0 80 35.8 80 80l0 4.6c0 24.1-12 46.6-32.1 59.9l-52.3 34.9C149.4 274.2 136 299.2 136 326l0 2c0 13.3 10.7 24 24 24s24-10.7 24-24l0-2c0-10.7 5.3-20.7 14.2-26.6l52.3-34.9c33.4-22.3 53.4-59.7 53.4-99.8l0-4.6c0-70.7-57.3-128-128-128l-32 0C73.3 32 16 89.3 16 160c0 13.3 10.7 24 24 24s24-10.7 24-24zm96 320a32 32 0 1 0 0-64 32 32 0 1 0 0 64z" /></symbol>
  <symbol viewBox="0 0 512 512" id="chart-waterfall"><path d="M24 32c13.3 0 24 10.7 24 24l0 352c0 13.3 10.7 24 24 24l416 0c13.3 0 24 10.7 24 24s-10.7 24-24 24L72 480c-39.8 0-72-32.2-72-72L0 56C0 42.7 10.7 32 24 32zM168 224c13.3 0 24 10.7 24 24l0 80c0 13.3-10.7 24-24 24s-24-10.7-24-24l0-80c0-13.3 10.7-24 24-24zm120-72l0 80c0 13.3-10.7 24-24 24s-24-10.7-24-24l0-80c0-13.3 10.7-24 24-24s24 10.7 24 24zm72-88c13.3 0 24 10.7 24 24l0 80c0 13.3-10.7 24-24 24s-24-10.7-24-24l0-80c0-13.3 10.7-24 24-24zM480 88l0 240c0 13.3-10.7 24-24 24s-24-10.7-24-24l0-240c0-13.3 10.7-24 24-24s24 10.7 24 24z"/></symbol>
  <symbol viewBox="0 0 512 512" id="chart-line-up-down"><path d="M24 32c13.3 0 24 10.7 24 24l0 352c0 13.3 10.7 24 24 24l416 0c13.3 0 24 10.7 24 24s-10.7 24-24 24L72 480c-39.8 0-72-32.2-72-72L0 56C0 42.7 10.7 32 24 32zm352 80c-13.3 0-24-10.7-24-24s10.7-24 24-24l80 0c6.4 0 12.5 2.5 17 7s7 10.6 7 17l0 80c0 13.3-10.7 24-24 24s-24-10.7-24-24l0-22.1L305 273c-9.4 9.4-24.6 9.4-33.9 0l-63-63-63 63c-9.4 9.4-24.6 9.4-33.9 0s-9.4-24.6 0-33.9l80-80c9.4-9.4 24.6-9.4 33.9 0l63 63L398.1 112 376 112zm0 272c-13.3 0-24-10.7-24-24s10.7-24 24-24l22.1 0-47-47L385 255l47 47 0-22.1c0-13.3 10.7-24 24-24s24 10.7 24 24l0 80c0 6.4-2.5 12.5-7 17s-10.6 7-17 7l-80 0z"/></symbol>
  <symbol viewBox="0 0 448 512" id="trash" ><path d="M177.1 48h93.7c2.7 0 5.2 1.3 6.7 3.6l19 28.4h-145l19-28.4c1.5-2.2 4-3.6 6.7-3.6zM354.2 80L317.5 24.9C307.1 9.4 289.6 0 270.9 0H177.1c-18.7 0-36.2 9.4-46.6 24.9L93.8 80H80.1 32 24C10.7 80 0 90.7 0 104s10.7 24 24 24H35.6L59.6 452.7c2.5 33.4 30.3 59.3 63.8 59.3H324.6c33.5 0 61.3-25.9 63.8-59.3L412.4 128H424c13.3 0 24-10.7 24-24s-10.7-24-24-24h-8H367.9 354.2zm10.1 48L340.5 449.2c-.6 8.4-7.6 14.8-16 14.8H123.4c-8.4 0-15.3-6.5-16-14.8L83.7 128H364.3z"/></symbol>
  <symbol viewBox="0 0 448 512" id="angles-up-down"><path d="M239 498.7c-8.8 7-21.2 7-30 0L49 370.7c-10.4-8.3-12-23.4-3.7-33.7s23.4-12 33.7-3.8l145 116 145-116c10.3-8.3 25.5-6.6 33.7 3.8s6.6 25.5-3.7 33.7l-160 128zM399 141.3c10.4 8.3 12 23.4 3.8 33.7s-23.4 12-33.7 3.7L224 62.7 79 178.7c-10.4 8.3-25.5 6.6-33.7-3.7s-6.6-25.5 3.7-33.7l160-128c8.8-7 21.2-7 30 0l160 128z"/></symbol>
  <symbol viewBox="0 0 18 18" id="side-chevron-left-in-box" fill="none"><path d="M6.50006 1.49995V16.5M12.3334 11.5L9.83339 8.99995L12.3334 6.49995M3.16673 1.49995H14.8334C15.7539 1.49995 16.5001 2.24615 16.5001 3.16662V14.8333C16.5001 15.7538 15.7539 16.5 14.8334 16.5H3.16673C2.24625 16.5 1.50006 15.7538 1.50006 14.8333V3.16662C1.50006 2.24615 2.24625 1.49995 3.16673 1.49995Z" stroke="currentColor" stroke-width="2" stroke-linecap="round" stroke-linejoin="round"/></symbol>
  <symbol viewBox="0 0 512 512" id="explore"><path d="M464 256A208 208 0 1 0 48 256a208 208 0 1 0 416 0zM0 256a256 256 0 1 1 512 0A256 256 0 1 1 0 256zm306.7 69.1L162.4 380.6c-19.4 7.5-38.5-11.6-31-31l55.5-144.3c3.3-8.5 9.9-15.1 18.4-18.4l144.3-55.5c19.4-7.5 38.5 11.6 31 31L325.1 306.7c-3.2 8.5-9.9 15.1-18.4 18.4zM288 256a32 32 0 1 0 -64 0 32 32 0 1 0 64 0z"/></symbol>
</svg>
