<?xml version="1.0" encoding="UTF-8"?>
<svg xmlns="http://www.w3.org/2000/svg" style="display: none;" fill="none">
  <symbol id="list-tree" viewBox="0 0 512 512">
    <path d="M24 48C10.7 48 0 58.7 0 72v48c0 13.3 10.7 24 24 24V256 384c0 30.9 25.1 56 56 56h48c0 13.3 10.7 24 24 24h48c13.3 0 24-10.7 24-24V392c0-13.3-10.7-24-24-24H152c-13.3 0-24 10.7-24 24H80c-4.4 0-8-3.6-8-8V280h56c0 13.3 10.7 24 24 24h48c13.3 0 24-10.7 24-24V232c0-13.3-10.7-24-24-24H152c-13.3 0-24 10.7-24 24H72V144c13.3 0 24-10.7 24-24V72c0-13.3-10.7-24-24-24H24zM160 96c0 13.3 10.7 24 24 24H488c13.3 0 24-10.7 24-24s-10.7-24-24-24H184c-13.3 0-24 10.7-24 24zM288 256c0 13.3 10.7 24 24 24H488c13.3 0 24-10.7 24-24s-10.7-24-24-24H312c-13.3 0-24 10.7-24 24zm0 160c0 13.3 10.7 24 24 24H488c13.3 0 24-10.7 24-24s-10.7-24-24-24H312c-13.3 0-24 10.7-24 24z" />
  </symbol>
  <symbol id="bars-sort" viewBox="0 0 448 512">
    <path d="M0 88C0 74.7 10.7 64 24 64H424c13.3 0 24 10.7 24 24s-10.7 24-24 24H24C10.7 112 0 101.3 0 88zM0 248c0-13.3 10.7-24 24-24H296c13.3 0 24 10.7 24 24s-10.7 24-24 24H24c-13.3 0-24-10.7-24-24zM192 408c0 13.3-10.7 24-24 24H24c-13.3 0-24-10.7-24-24s10.7-24 24-24H168c13.3 0 24 10.7 24 24z" />
  </symbol>
  <symbol id="list-check" viewBox="0 0 512 512">
    <path d="M153.8 72.1c8.9-9.9 8.1-25-1.8-33.9s-25-8.1-33.9 1.8L63.1 101.1 41 79C31.6 69.7 16.4 69.7 7 79s-9.4 24.6 0 33.9l40 40c4.7 4.7 11 7.2 17.6 7s12.8-3 17.2-7.9l72-80zm0 160c8.9-9.9 8.1-25-1.8-33.9s-25-8.1-33.9 1.8L63.1 261.1 41 239c-9.4-9.4-24.6-9.4-33.9 0s-9.4 24.6 0 33.9l40 40c4.7 4.7 11 7.2 17.6 7s12.8-3 17.2-7.9l72-80zM216 120H488c13.3 0 24-10.7 24-24s-10.7-24-24-24H216c-13.3 0-24 10.7-24 24s10.7 24 24 24zM192 256c0 13.3 10.7 24 24 24H488c13.3 0 24-10.7 24-24s-10.7-24-24-24H216c-13.3 0-24 10.7-24 24zM160 416c0 13.3 10.7 24 24 24H488c13.3 0 24-10.7 24-24s-10.7-24-24-24H184c-13.3 0-24 10.7-24 24zm-64 0a32 32 0 1 0 -64 0 32 32 0 1 0 64 0z" />
  </symbol>
  <symbol id="qrcode" viewBox="0 0 448 512">
    <path d="M144 80v96H48V80h96zM48 32C21.5 32 0 53.5 0 80v96c0 26.5 21.5 48 48 48h96c26.5 0 48-21.5 48-48V80c0-26.5-21.5-48-48-48H48zm96 304v96H48V336h96zM48 288c-26.5 0-48 21.5-48 48v96c0 26.5 21.5 48 48 48h96c26.5 0 48-21.5 48-48V336c0-26.5-21.5-48-48-48H48zM304 80h96v96H304V80zm-48 0v96c0 26.5 21.5 48 48 48h96c26.5 0 48-21.5 48-48V80c0-26.5-21.5-48-48-48H304c-26.5 0-48 21.5-48 48zM72 120v16c0 8.8 7.2 16 16 16h16c8.8 0 16-7.2 16-16V120c0-8.8-7.2-16-16-16H88c-8.8 0-16 7.2-16 16zM88 360c-8.8 0-16 7.2-16 16v16c0 8.8 7.2 16 16 16h16c8.8 0 16-7.2 16-16V376c0-8.8-7.2-16-16-16H88zM328 120v16c0 8.8 7.2 16 16 16h16c8.8 0 16-7.2 16-16V120c0-8.8-7.2-16-16-16H344c-8.8 0-16 7.2-16 16zM256 304V464c0 8.8 7.2 16 16 16h32c8.8 0 16-7.2 16-16V400c0-8.8 7.2-16 16-16s16 7.2 16 16s7.2 16 16 16h64c8.8 0 16-7.2 16-16V304c0-8.8-7.2-16-16-16s-16 7.2-16 16s-7.2 16-16 16H368c-8.8 0-16-7.2-16-16s-7.2-16-16-16H272c-8.8 0-16 7.2-16 16zM368 448a16 16 0 1 0 0 32 16 16 0 1 0 0-32zm64 0a16 16 0 1 0 0 32 16 16 0 1 0 0-32z" />
  </symbol>
  <symbol id="chart-simple" viewBox="0 0 448 512">
    <path d="M240 80V432H208V80h32zM208 32c-26.5 0-48 21.5-48 48V432c0 26.5 21.5 48 48 48h32c26.5 0 48-21.5 48-48V80c0-26.5-21.5-48-48-48H208zM80 272V432H48V272H80zM48 224c-26.5 0-48 21.5-48 48V432c0 26.5 21.5 48 48 48H80c26.5 0 48-21.5 48-48V272c0-26.5-21.5-48-48-48H48zm320-80h32V432H368V144zm-48 0V432c0 26.5 21.5 48 48 48h32c26.5 0 48-21.5 48-48V144c0-26.5-21.5-48-48-48H368c-26.5 0-48 21.5-48 48z" />
  </symbol>
  <symbol id="trash" viewBox="0 0 14 16">
    <path fill="transparent" d="M1 4.00016H13M11.6667 4.00016V13.3335C11.6667 14.0002 11 14.6668 10.3333 14.6668H3.66667C3 14.6668 2.33333 14.0002 2.33333 13.3335V4.00016M4.33333 4.00016V2.66683C4.33333 2.00016 5 1.3335 5.66667 1.3335H8.33333C9 1.3335 9.66667 2.00016 9.66667 2.66683V4.00016M5.66667 7.3335V11.3335M8.33333 7.3335V11.3335" stroke-linecap="round" stroke-linejoin="round" />
  </symbol>
  <symbol id="save" viewBox="0 0 20 20" fill="none">
    <path d="M15 19V12C15 11.7348 14.8946 11.4804 14.7071 11.2929C14.5196 11.1054 14.2652 11 14 11H6C5.73478 11 5.48043 11.1054 5.29289 11.2929C5.10536 11.4804 5 11.7348 5 12V19M5 1V5C5 5.26522 5.10536 5.51957 5.29289 5.70711C5.48043 5.89464 5.73478 6 6 6H13M13.2 1C13.7275 1.00751 14.2307 1.22317 14.6 1.6L18.4 5.4C18.7768 5.76926 18.9925 6.27246 19 6.8V17C19 17.5304 18.7893 18.0391 18.4142 18.4142C18.0391 18.7893 17.5304 19 17 19H3C2.46957 19 1.96086 18.7893 1.58579 18.4142C1.21071 18.0391 1 17.5304 1 17V3C1 2.46957 1.21071 1.96086 1.58579 1.58579C1.96086 1.21071 2.46957 1 3 1H13.2Z" stroke-width="1.5" stroke-linecap="round" stroke-linejoin="round" />
  </symbol>
  <symbol id="play">
    <path d="M4 2.5L13.3333 8.5L4 14.5V2.5Z" fill="none" stroke="currentColor" stroke-width="1.5" stroke-linecap="round" stroke-linejoin="round" />
  </symbol>
  <symbol id="calendar" viewBox="0 0 16 16" fill="none">
    <path d="M5.33333 1.33325V3.99992M10.6667 1.33325V3.99992M2 6.66659H14M5.33333 9.33325H5.34M8 9.33325H8.00667M10.6667 9.33325H10.6733M5.33333 11.9999H5.34M8 11.9999H8.00667M10.6667 11.9999H10.6733M3.33333 2.66659H12.6667C13.403 2.66659 14 3.26354 14 3.99992V13.3333C14 14.0696 13.403 14.6666 12.6667 14.6666H3.33333C2.59695 14.6666 2 14.0696 2 13.3333V3.99992C2 3.26354 2.59695 2.66659 3.33333 2.66659Z" stroke="currentColor" stroke-width="1.5" stroke-linecap="round" stroke-linejoin="round" />
  </symbol>
  <symbol id="archive" viewBox="0 0 16 16" fill="none">
    <path d="M2.66671 5.33333V12.6667C2.66671 13.0203 2.80718 13.3594 3.05723 13.6095C3.30728 13.8595 3.64642 14 4.00004 14H12C12.3537 14 12.6928 13.8595 12.9428 13.6095C13.1929 13.3594 13.3334 13.0203 13.3334 12.6667V5.33333M6.66671 8H9.33337M2.00004 2H14C14.3682 2 14.6667 2.29848 14.6667 2.66667V4.66667C14.6667 5.03486 14.3682 5.33333 14 5.33333H2.00004C1.63185 5.33333 1.33337 5.03486 1.33337 4.66667V2.66667C1.33337 2.29848 1.63185 2 2.00004 2Z" stroke="currentColor" stroke-width="1.5" stroke-linecap="round" stroke-linejoin="round" />
  </symbol>

  <symbol id="swap" viewBox="0 0 640 512">
    <path d="M240 119c0 22.6-18.3 41-41 41H152V360c0 39.8 32.2 72 72 72s72-32.2 72-72V152c0-66.3 53.7-120 120-120s120 53.7 120 120V352h47c22.6 0 41 18.3 41 41c0 10.9-4.3 21.3-12 29l-83 83c-4.5 4.5-10.6 7-17 7s-12.5-2.5-17-7l-83-83c-7.7-7.7-12-18.1-12-29c0-22.6 18.3-41 41-41h47V152c0-39.8-32.2-72-72-72s-72 32.2-72 72V360c0 66.3-53.7 120-120 120s-120-53.7-120-120V160H57c-22.6 0-41-18.3-41-41c0-10.9 4.3-21.3 12-29L111 7c4.5-4.5 10.6-7 17-7s12.5 2.5 17 7l83 83c7.7 7.7 12 18.1 12 29zM73.9 112l108.1 0L128 57.9 73.9 112zm384 288L512 454.1 566.1 400H457.9z" />
  </symbol>
  <symbol id="key" viewBox="0 0 512 512">
    <path d="M208 176c0-70.7 57.3-128 128-128s128 57.3 128 128s-57.3 128-128 128c-10.4 0-20.5-1.2-30.1-3.6c-8.1-2-16.7 .4-22.6 6.4L254.1 336H200c-13.3 0-24 10.7-24 24v40H136c-13.3 0-24 10.7-24 24v40H48V385.9L205.2 228.7c5.9-5.9 8.3-14.5 6.4-22.6c-2.3-9.6-3.6-19.7-3.6-30.1zM336 0C238.8 0 160 78.8 160 176c0 9.5 .7 18.8 2.2 27.9L7 359c-4.5 4.5-7 10.6-7 17V488c0 13.3 10.7 24 24 24H136c13.3 0 24-10.7 24-24V448h40c13.3 0 24-10.7 24-24V384h40c6.4 0 12.5-2.5 17-7l27.2-27.2c9.1 1.4 18.4 2.2 27.9 2.2c97.2 0 176-78.8 176-176S433.2 0 336 0zm32 176a32 32 0 1 0 0-64 32 32 0 1 0 0 64z" />
  </symbol>
  <symbol id="bug" viewBox="0 0 512 512">
    <path d="M256 0c53 0 96 43 96 96v3.6c0 15.7-12.7 28.4-28.4 28.4H188.4c-15.7 0-28.4-12.7-28.4-28.4V96c0-53 43-96 96-96zM39 103c9.4-9.4 24.6-9.4 33.9 0l72.4 72.4C161.3 165.7 180 160 200 160H312c20 0 38.7 5.7 54.6 15.5L439 103c9.4-9.4 24.6-9.4 33.9 0s9.4 24.6 0 33.9l-72.4 72.4C410.3 225.3 416 244 416 264h72c13.3 0 24 10.7 24 24s-10.7 24-24 24H416v8c0 27.2-6.8 52.8-18.8 75.3L473 471c9.4 9.4 9.4 24.6 0 33.9s-24.6 9.4-33.9 0l-70.9-70.9C339.3 462.5 299.7 480 256 480s-83.3-17.5-112.2-45.9L73 505c-9.4 9.4-24.6 9.4-33.9 0s-9.4-24.6 0-33.9l75.8-75.8C102.8 372.8 96 347.2 96 320v-8H24c-13.3 0-24-10.7-24-24s10.7-24 24-24H96c0-20 5.7-38.7 15.5-54.6L39 137c-9.4-9.4-9.4-24.6 0-33.9zM144 264v56c0 53.6 37.7 98.4 88 109.4V280c0-13.3 10.7-24 24-24s24 10.7 24 24V429.4c50.3-11 88-55.8 88-109.4V264c0-30.9-25.1-56-56-56H200c-30.9 0-56 25.1-56 56z" />
  </symbol>
  <symbol id="arrow-right" viewBox="0 0 448 512">
    <path d="M440.6 273.4c4.7-4.5 7.4-10.8 7.4-17.4s-2.7-12.8-7.4-17.4l-176-168c-9.6-9.2-24.8-8.8-33.9 .8s-8.8 24.8 .8 33.9L364.1 232 24 232c-13.3 0-24 10.7-24 24s10.7 24 24 24l340.1 0L231.4 406.6c-9.6 9.2-9.9 24.3-.8 33.9s24.3 9.9 33.9 .8l176-168z" />
  </symbol>
  <symbol id="line-height" viewBox="0 0 576 512">
    <path d="M113.8 39.9c-4.6-5.1-11-7.9-17.8-7.9s-13.3 2.9-17.8 7.9l-72 80c-8.9 9.9-8.1 25 1.8 33.9s25 8.1 33.9-1.8L72 118.5V393.5L41.8 359.9c-8.9-9.9-24-10.7-33.9-1.8s-10.7 24-1.8 33.9l72 80c4.6 5.1 11 7.9 17.8 7.9s13.3-2.9 17.8-7.9l72-80c8.9-9.9 8.1-25-1.8-33.9s-25-8.1-33.9 1.8L120 393.5V118.5l30.2 33.5c8.9 9.9 24 10.7 33.9 1.8s10.7-24 1.8-33.9l-72-80zM248 72c-13.3 0-24 10.7-24 24s10.7 24 24 24H552c13.3 0 24-10.7 24-24s-10.7-24-24-24H248zm0 160c-13.3 0-24 10.7-24 24s10.7 24 24 24H552c13.3 0 24-10.7 24-24s-10.7-24-24-24H248zM224 416c0 13.3 10.7 24 24 24H552c13.3 0 24-10.7 24-24s-10.7-24-24-24H248c-13.3 0-24 10.7-24 24z" />
  </symbol>
  <symbol id="inbox" viewBox="0 0 512 512">
    <path d="M48 336h81.2l20.9 41.9c6.8 13.6 20.6 22.1 35.8 22.1H326.1c15.1 0 29-8.6 35.8-22.1L382.8 336H464v80c0 8.8-7.2 16-16 16H64c-8.8 0-16-7.2-16-16V336zm406.5-48H377.9c-15.1 0-29 8.6-35.8 22.1L321.2 352H190.8l-20.9-41.9c-6.8-13.6-20.6-22.1-35.8-22.1H57.5l49-195.9C108.2 85 114.6 80 122 80H390c7.3 0 13.7 5 15.5 12.1l49 195.9zM0 327.9V416c0 35.3 28.7 64 64 64H448c35.3 0 64-28.7 64-64V327.9c0-5.2-.6-10.4-1.9-15.5l-58-231.9C445 52 419.4 32 390 32H122C92.6 32 67 52 59.9 80.5L1.9 312.4C.6 317.4 0 322.6 0 327.9z" />
  </symbol>
  <symbol id="bugs" viewBox="0 0 576 512">
    <path d="M164.5 107.4l33.4-73.5c5.5-12.1 .1-26.3-11.9-31.8s-26.3-.1-31.8 11.9L128 71.7 101.9 14.1C96.4 2 82.1-3.3 70.1 2.1S52.7 21.9 58.1 33.9l33.4 73.5c-10.2 7.1-18.2 17-22.9 28.6h-17l-4.1-20.7c-2.6-13-15.2-21.4-28.2-18.8S-2.1 111.7 .5 124.7l8 40C10.7 175.9 20.6 184 32 184H64v23.3l-37.8 9.5c-9.5 2.4-16.6 10.2-17.9 19.9l-8 56c-1.9 13.1 7.2 25.3 20.4 27.2s25.3-7.2 27.2-20.4l5.7-40 18.4-4.6C82.7 274.6 103.8 288 128 288s45.3-13.4 56.1-33.2l18.4 4.6 5.7 40c1.9 13.1 14 22.2 27.2 20.4s22.2-14 20.4-27.2l-8-56c-1.4-9.7-8.5-17.5-17.9-19.9L192 207.3V184h32c11.4 0 21.3-8.1 23.5-19.3l8-40c2.6-13-5.8-25.6-18.8-28.2s-25.6 5.8-28.2 18.8L204.3 136h-17c-4.7-11.6-12.7-21.5-22.9-28.6zM496 286.5l65.6-47c10.8-7.7 13.3-22.7 5.6-33.5s-22.7-13.3-33.5-5.6l-51.4 36.8 6.1-62.9c1.3-13.2-8.4-24.9-21.6-26.2s-24.9 8.4-26.2 21.6L432.8 250c-12.3 1-24.2 5.6-34.1 13.3L384 254.8l6.8-20c4.2-12.6-2.5-26.2-15-30.4s-26.2 2.5-30.4 15l-13.1 38.6c-3.7 10.8 .8 22.8 10.7 28.5l27.7 16L359 322.7 321.5 312c-9.4-2.7-19.5 .6-25.5 8.3l-34.9 44.5c-8.2 10.4-6.4 25.5 4.1 33.7s25.5 6.4 33.7-4.1l25-31.8 18.2 5.2c-.5 22.6 11 44.7 32 56.8s45.9 11 65.2-.7l13.6 13.2-15.1 37.5c-4.9 12.3 1 26.3 13.3 31.2s26.3-1 31.2-13.3L503.5 440c3.6-9.1 1.4-19.4-5.6-26.2l-28-27.1 11.6-20.1 27.7 16c9.9 5.7 22.5 3.7 30-4.9L566.2 347c8.7-10 7.8-25.1-2.2-33.9s-25.1-7.8-33.9 2.2l-13.9 15.9-14.7-8.5c1.7-12.4-.2-25-5.5-36.2zM144 224c0 8.8-7.2 16-16 16s-16-7.2-16-16V160c0-8.8 7.2-16 16-16s16 7.2 16 16v64zm307.9 97.8l-32 55.4c-4.4 7.7-14.2 10.3-21.9 5.9s-10.3-14.2-5.9-21.9l32-55.4c4.4-7.7 14.2-10.3 21.9-5.9s10.3 14.2 5.9 21.9z" />
  </symbol>
  <symbol id="user-plus" viewBox="0 0 640 512">
    <path d="M224 48a80 80 0 1 1 0 160 80 80 0 1 1 0-160zm0 208A128 128 0 1 0 224 0a128 128 0 1 0 0 256zm-45.7 96h91.4c65.7 0 120.1 48.7 129 112H49.3c8.9-63.3 63.3-112 129-112zm0-48C79.8 304 0 383.8 0 482.3C0 498.7 13.3 512 29.7 512H418.3c16.4 0 29.7-13.3 29.7-29.7C448 383.8 368.2 304 269.7 304H178.3zM504 312c0 13.3 10.7 24 24 24s24-10.7 24-24V248h64c13.3 0 24-10.7 24-24s-10.7-24-24-24H552V136c0-13.3-10.7-24-24-24s-24 10.7-24 24v64H440c-13.3 0-24 10.7-24 24s10.7 24 24 24h64v64z" />
  </symbol>
  <symbol id="chart-simple-horizontal" viewBox="0 0 448 512">
    <path d="M400 240L48 240l0 32 352 0 0-32zm48 32c0 26.5-21.5 48-48 48L48 320c-26.5 0-48-21.5-48-48l0-32c0-26.5 21.5-48 48-48l352 0c26.5 0 48 21.5 48 48l0 32zM208 400L48 400l0 32 160 0 0-32zm48 32c0 26.5-21.5 48-48 48L48 480c-26.5 0-48-21.5-48-48l0-32c0-26.5 21.5-48 48-48l160 0c26.5 0 48 21.5 48 48l0 32zm80-320l0-32L48 80l0 32 288 0zm0 48L48 160c-26.5 0-48-21.5-48-48L0 80C0 53.5 21.5 32 48 32l288 0c26.5 0 48 21.5 48 48l0 32c0 26.5-21.5 48-48 48z" />
  </symbol>
  <symbol id="chart-bar" viewBox="0 0 512 512">
    <path d="M24 32c13.3 0 24 10.7 24 24V408c0 13.3 10.7 24 24 24H488c13.3 0 24 10.7 24 24s-10.7 24-24 24H72c-39.8 0-72-32.2-72-72V56C0 42.7 10.7 32 24 32zM128 136c0-13.3 10.7-24 24-24l208 0c13.3 0 24 10.7 24 24s-10.7 24-24 24l-208 0c-13.3 0-24-10.7-24-24zm24 72H296c13.3 0 24 10.7 24 24s-10.7 24-24 24H152c-13.3 0-24-10.7-24-24s10.7-24 24-24zm0 96H424c13.3 0 24 10.7 24 24s-10.7 24-24 24H152c-13.3 0-24-10.7-24-24s10.7-24 24-24z" />
  </symbol>
  <symbol id="octagon-exclamation" viewBox="0 0 512 512">
    <path d="M191.5 48.1c-6.4 0-12.5 2.5-17 7L55.1 174.5c-4.5 4.5-7 10.6-7 17v129c0 6.4 2.5 12.5 7 17L21.2 371.4C7.7 357.9 .1 339.6 .1 320.5v-129c0-19.1 7.6-37.4 21.1-50.9L140.6 21.2C154.1 7.7 172.4 .1 191.5 .1h129c19.1 0 37.4 7.6 50.9 21.1L490.8 140.6c13.5 13.5 21.1 31.8 21.1 50.9v129c0 19.1-7.6 37.4-21.1 50.9L371.4 490.8c-13.5 13.5-31.8 21.1-50.9 21.1h-129c-19.1 0-37.4-7.6-50.9-21.1L21.2 371.4l33.9-33.9L174.5 456.9c4.5 4.5 10.6 7 17 7h129c6.4 0 12.5-2.5 17-7L456.9 337.5c4.5-4.5 7-10.6 7-17v-129c0-6.4-2.5-12.5-7-17L337.5 55.1c-4.5-4.5-10.6-7-17-7h-129zM256 128c13.3 0 24 10.7 24 24V264c0 13.3-10.7 24-24 24s-24-10.7-24-24V152c0-13.3 10.7-24 24-24zM224 352a32 32 0 1 1 64 0 32 32 0 1 1 -64 0z" />
  </symbol>
  <symbol id="bell" viewBox="0 0 448 512">
    <path d="M224 0c-17.7 0-32 14.3-32 32V51.2C119 66 64 130.6 64 208v25.4c0 45.4-15.5 89.5-43.8 124.9L5.3 377c-5.8 7.2-6.9 17.1-2.9 25.4S14.8 416 24 416H424c9.2 0 17.6-5.3 21.6-13.6s2.9-18.2-2.9-25.4l-14.9-18.6C399.5 322.9 384 278.8 384 233.4V208c0-77.4-55-142-128-156.8V32c0-17.7-14.3-32-32-32zm0 96c61.9 0 112 50.1 112 112v25.4c0 47.9 13.9 94.6 39.7 134.6H72.3C98.1 328 112 281.3 112 233.4V208c0-61.9 50.1-112 112-112zm64 352H224 160c0 17 6.7 33.3 18.7 45.3s28.3 18.7 45.3 18.7s33.3-6.7 45.3-18.7s18.7-28.3 18.7-45.3z" />
  </symbol>
  <symbol id="bug-slash" viewBox="0 0 640 512">
    <path d="M224 96c0-53 43-96 96-96s96 43 96 96v3.6c0 15.7-12.7 28.4-28.4 28.4H252.4c-15.7 0-28.4-12.7-28.4-28.4V96zm73.7 112L432 313.3V264c0-30.9-25.1-56-56-56H297.7zM477.4 348.9L630.8 469.1c10.4 8.2 12.3 23.3 4.1 33.7s-23.3 12.3-33.7 4.1L9.2 42.9C-1.2 34.7-3.1 19.6 5.1 9.2S28.4-3.1 38.8 5.1L240 162.8c7.7-1.8 15.8-2.8 24-2.8H376c20 0 38.7 5.7 54.6 15.5L503 103c9.4-9.4 24.6-9.4 33.9 0s9.4 24.6 0 33.9l-72.4 72.4C474.3 225.3 480 244 480 264h72c13.3 0 24 10.7 24 24s-10.7 24-24 24H480v8c0 9.9-.9 19.5-2.6 28.9zm-46.6 86.5C402.1 463 363 480 320 480c-43.7 0-83.3-17.5-112.2-45.9L137 505c-9.4 9.4-24.6 9.4-33.9 0s-9.4-24.6 0-33.9l75.8-75.8c-12-22.4-18.8-48.1-18.8-75.3v-8H88c-13.3 0-24-10.7-24-24s10.7-24 24-24h72c0-12.9 2.4-25.3 6.7-36.7L208.1 260c-.1 1.3-.1 2.7-.1 4v56c0 53.6 37.7 98.4 88 109.4V329.2L344 367v62.4c18.3-4 34.8-12.4 48.6-24.1l38.2 30.1z" />
  </symbol>
  <symbol id="trash-can" viewBox="0 0 448 512">
    <path d="M170.5 51.6L151.5 80h145l-19-28.4c-1.5-2.2-4-3.6-6.7-3.6H177.1c-2.7 0-5.2 1.3-6.7 3.6zm147-26.6L354.2 80H368h48 8c13.3 0 24 10.7 24 24s-10.7 24-24 24h-8V432c0 44.2-35.8 80-80 80H112c-44.2 0-80-35.8-80-80V128H24c-13.3 0-24-10.7-24-24S10.7 80 24 80h8H80 93.8l36.7-55.1C140.9 9.4 158.4 0 177.1 0h93.7c18.7 0 36.2 9.4 46.6 24.9zM80 128V432c0 17.7 14.3 32 32 32H336c17.7 0 32-14.3 32-32V128H80zm80 64V400c0 8.8-7.2 16-16 16s-16-7.2-16-16V192c0-8.8 7.2-16 16-16s16 7.2 16 16zm80 0V400c0 8.8-7.2 16-16 16s-16-7.2-16-16V192c0-8.8 7.2-16 16-16s16 7.2 16 16zm80 0V400c0 8.8-7.2 16-16 16s-16-7.2-16-16V192c0-8.8 7.2-16 16-16s16 7.2 16 16z" />
  </symbol>
  <symbol id="arrows-turn-right" viewBox="0 0 448 512">
    <path d="M294.4 7.7c9-9.7 24.2-10.3 33.9-1.3l112 104c4.9 4.5 7.7 10.9 7.7 17.6s-2.8 13-7.7 17.6l-112 104c-9.7 9-24.9 8.5-33.9-1.3s-8.5-24.9 1.3-33.9L362.9 152H120c-39.8 0-72 32.2-72 72v40c0 13.3-10.7 24-24 24s-24-10.7-24-24V224c0-66.3 53.7-120 120-120H362.9L295.7 41.6c-9.7-9-10.3-24.2-1.3-33.9zm-96 256c9-9.7 24.2-10.3 33.9-1.3l112 104c4.9 4.5 7.7 10.9 7.7 17.6s-2.8 13-7.7 17.6l-112 104c-9.7 9-24.9 8.5-33.9-1.3s-8.5-24.9 1.3-33.9L266.9 408H88c-22.1 0-40 17.9-40 40v40c0 13.3-10.7 24-24 24s-24-10.7-24-24V448c0-48.6 39.4-88 88-88H266.9l-67.2-62.4c-9.7-9-10.3-24.2-1.3-33.9z" />
  </symbol>
  <symbol id="brackets-curly" viewBox="0 0 576 512">
    <path d="M152 32c-48.6 0-88 39.4-88 88v45.5c0 10.6-4.2 20.8-11.7 28.3L7 239c-9.4 9.4-9.4 24.6 0 33.9l45.3 45.3c7.5 7.5 11.7 17.7 11.7 28.3V392c0 48.6 39.4 88 88 88h48c13.3 0 24-10.7 24-24s-10.7-24-24-24H152c-22.1 0-40-17.9-40-40V346.5c0-23.3-9.3-45.7-25.8-62.2L57.9 256l28.3-28.3c16.5-16.5 25.8-38.9 25.8-62.2V120c0-22.1 17.9-40 40-40h48c13.3 0 24-10.7 24-24s-10.7-24-24-24H152zm272 0H376c-13.3 0-24 10.7-24 24s10.7 24 24 24h48c22.1 0 40 17.9 40 40v45.5c0 23.3 9.3 45.7 25.8 62.2L518.1 256l-28.3 28.3c-16.5 16.5-25.8 38.9-25.8 62.2V392c0 22.1-17.9 40-40 40H376c-13.3 0-24 10.7-24 24s10.7 24 24 24h48c48.6 0 88-39.4 88-88V346.5c0-10.6 4.2-20.8 11.7-28.3L569 273c9.4-9.4 9.4-24.6 0-33.9l-45.3-45.3c-7.5-7.5-11.7-17.7-11.7-28.3V120c0-48.6-39.4-88-88-88z" />
  </symbol>
  <symbol id="arrow-left" viewBox="0 0 448 512">
    <path d="M7.4 273.4C2.7 268.8 0 262.6 0 256s2.7-12.8 7.4-17.4l176-168c9.6-9.2 24.8-8.8 33.9 .8s8.8 24.8-.8 33.9L83.9 232 424 232c13.3 0 24 10.7 24 24s-10.7 24-24 24L83.9 280 216.6 406.6c9.6 9.2 9.9 24.3 .8 33.9s-24.3 9.9-33.9 .8l-176-168z" />
  </symbol>
  <symbol id="copy" viewBox="0 0 448 512">
    <path d="M384 336H192c-8.8 0-16-7.2-16-16V64c0-8.8 7.2-16 16-16l140.1 0L400 115.9V320c0 8.8-7.2 16-16 16zM192 384H384c35.3 0 64-28.7 64-64V115.9c0-12.7-5.1-24.9-14.1-33.9L366.1 14.1c-9-9-21.2-14.1-33.9-14.1H192c-35.3 0-64 28.7-64 64V320c0 35.3 28.7 64 64 64zM64 128c-35.3 0-64 28.7-64 64V448c0 35.3 28.7 64 64 64H256c35.3 0 64-28.7 64-64V416H272v32c0 8.8-7.2 16-16 16H64c-8.8 0-16-7.2-16-16V192c0-8.8 7.2-16 16-16H96V128H64z" />
  </symbol>
  <symbol id="arrows-rotate" viewBox="0 0 512 512">
    <path d="M94 187.1C120.8 124.1 183.3 80 256 80c39.7 0 77.8 15.8 105.9 43.9L414.1 176H360c-13.3 0-24 10.7-24 24s10.7 24 24 24H472c13.3 0 24-10.7 24-24V88c0-13.3-10.7-24-24-24s-24 10.7-24 24v54.1L395.9 89.9C358.8 52.8 308.5 32 256 32C163.4 32 83.9 88.2 49.8 168.3c-5.2 12.2 .5 26.3 12.7 31.5s26.3-.5 31.5-12.7zm368 157c5.2-12.2-.4-26.3-12.6-31.5s-26.3 .4-31.5 12.6C391 388.1 328.6 432 256 432c-39.7 0-77.8-15.8-105.9-43.9L97.9 336H152c13.3 0 24-10.7 24-24s-10.7-24-24-24H40c-13.3 0-24 10.7-24 24V424c0 13.3 10.7 24 24 24s24-10.7 24-24V369.9l52.1 52.1C153.2 459.2 203.5 480 256 480c92.5 0 171.8-56 206-135.9z" />
  </symbol>
  <symbol id="expand" viewBox="0 0 448 512">
    <path d="M136 32c13.3 0 24 10.7 24 24s-10.7 24-24 24H48v88c0 13.3-10.7 24-24 24s-24-10.7-24-24V56C0 42.7 10.7 32 24 32H136zM0 344c0-13.3 10.7-24 24-24s24 10.7 24 24v88h88c13.3 0 24 10.7 24 24s-10.7 24-24 24H24c-13.3 0-24-10.7-24-24V344zM424 32c13.3 0 24 10.7 24 24V168c0 13.3-10.7 24-24 24s-24-10.7-24-24V80H312c-13.3 0-24-10.7-24-24s10.7-24 24-24H424zM400 344c0-13.3 10.7-24 24-24s24 10.7 24 24V456c0 13.3-10.7 24-24 24H312c-13.3 0-24-10.7-24-24s10.7-24 24-24h88V344z" />
  </symbol>
  <symbol id="arrow-down-to-line" viewBox="0 0 384 512">
    <path d="M360 480c13.3 0 24-10.7 24-24s-10.7-24-24-24L24 432c-13.3 0-24 10.7-24 24s10.7 24 24 24l336 0zM174.5 344.4c4.5 4.8 10.9 7.6 17.5 7.6s12.9-2.7 17.5-7.6l128-136c9.1-9.7 8.6-24.8-1-33.9s-24.8-8.6-33.9 1L216 267.5l0-83.5 0-128c0-13.3-10.7-24-24-24s-24 10.7-24 24l0 128 0 83.5L81.5 175.6c-9.1-9.7-24.3-10.1-33.9-1s-10.1 24.3-1 33.9l128 136z" />
  </symbol>
  <symbol id="sun-bright" viewBox="0 0 24 24">
    <circle cx="12" cy="12" r="5" stroke="currentColor" stroke-width="2" fill="none" />
    <path d="M12 1v2M12 21v2M4.2 4.2l1.4 1.4M18.4 18.4l1.4 1.4M1 12h2M21 12h2M4.2 19.8l1.4-1.4M18.4 5.6l1.4-1.4" stroke="currentColor" stroke-width="2" stroke-linecap="round" stroke-linejoin="round" fill="none" />
  </symbol>
  <symbol id="moon-stars" viewBox="0 0 24 24">
    <path d="M21 12.79A9 9 0 1 1 11.21 3 7 7 0 0 0 21 12.79z" stroke="currentColor" stroke-width="2" stroke-linecap="round" stroke-linejoin="round" fill="none" />
  </symbol>
  <symbol id="pen-to-square" viewBox="0 0 512 512">
    <!--!Font
    Awesome Free 6.5.2 by @fontawesome - https://fontawesome.com License -
    https://fontawesome.com/license/free Copyright 2024 Fonticons, Inc.-->
    <path d="M441 58.9L453.1 71c9.4 9.4 9.4 24.6 0 33.9L424 134.1 377.9 88 407 58.9c9.4-9.4 24.6-9.4 33.9 0zM209.8 256.2L344 121.9 390.1 168 255.8 302.2c-2.9 2.9-6.5 5-10.4 6.1l-58.5 16.7 16.7-58.5c1.1-3.9 3.2-7.5 6.1-10.4zM373.1 25L175.8 222.2c-8.7 8.7-15 19.4-18.3 31.1l-28.6 100c-2.4 8.4-.1 17.4 6.1 23.6s15.2 8.5 23.6 6.1l100-28.6c11.8-3.4 22.5-9.7 31.1-18.3L487 138.9c28.1-28.1 28.1-73.7 0-101.8L474.9 25C446.8-3.1 401.2-3.1 373.1 25zM88 64C39.4 64 0 103.4 0 152V424c0 48.6 39.4 88 88 88H360c48.6 0 88-39.4 88-88V312c0-13.3-10.7-24-24-24s-24 10.7-24 24V424c0 22.1-17.9 40-40 40H88c-22.1 0-40-17.9-40-40V152c0-22.1 17.9-40 40-40H200c13.3 0 24-10.7 24-24s-10.7-24-24-24H88z" />
  </symbol>
  <symbol id="dollar-sign" viewBox="0 0 320 512">
    <!--!Font
    Awesome Pro 6.5.2 by @fontawesome - https://fontawesome.com License -
    https://fontawesome.com/license (Commercial License) Copyright 2024 Fonticons, Inc.-->
    <path d="M184 24c0-13.3-10.7-24-24-24s-24 10.7-24 24V71.7c-3.1 .1-6.2 .3-9.3 .6c-23.2 1.9-47.2 7.4-67.2 20.1C38.7 105.6 23.5 126 18 154.2c-3.9 20.3-2 38.8 6.1 55.2c8 16 20.9 27.6 34.8 36.2c26.2 16.2 61.9 25.3 92.9 33.2l2.3 .6c33.9 8.6 62.6 16.1 81.7 28c9 5.6 14.3 11.2 17.1 16.9c2.7 5.3 4.2 12.8 2 24.5c-2.9 14.7-13.4 26.9-34.5 34.9c-21.6 8.2-52 10.9-87.6 5.9c-22.6-3.3-61.8-12.7-83-22.1c-12.1-5.4-26.3 .1-31.7 12.2s.1 26.3 12.2 31.7C57 423.2 101.1 433.4 126 437l.1 0c3.3 .5 6.6 .9 9.9 1.2V488c0 13.3 10.7 24 24 24s24-10.7 24-24V439.4c19.3-1.3 37.4-4.9 53.5-11c31.9-12.1 57.7-35.2 64.5-70.6c3.9-20.3 2-38.8-6.1-55.2c-8-16-20.9-27.6-34.8-36.2c-26.2-16.2-61.9-25.3-92.9-33.2l-2.3-.6c-33.9-8.6-62.6-16.1-81.7-28c-9-5.6-14.3-11.2-17.1-16.9c-2.7-5.3-4.2-12.8-2-24.5c2.9-14.8 10.1-24 20.2-30.4c10.9-6.9 26.3-11.2 45.3-12.7c38.3-3.1 83.1 5.3 113.9 12.5c12.9 3.1 25.8-4.9 28.9-17.8s-4.9-25.8-17.8-28.9c-18.7-4.4-44.2-9.7-71.5-12.5V24z" />
  </symbol>
  <symbol id="square-dashed" viewBox="0 0 448 512">
    <!--!Font
    Awesome Pro 6.5.2 by @fontawesome - https://fontawesome.com License -
    https://fontawesome.com/license (Commercial License) Copyright 2024 Fonticons, Inc.-->
    <path d="M96 32h32V96H96c-17.7 0-32 14.3-32 32v32H0V128C0 75 43 32 96 32zM0 192H64V320H0V192zm384 0h64V320H384V192zm64-32H384V128c0-17.7-14.3-32-32-32H320V32h32c53 0 96 43 96 96v32zm0 192v32c0 53-43 96-96 96H320V416h32c17.7 0 32-14.3 32-32V352h64zM64 352v32c0 17.7 14.3 32 32 32h32v64H96c-53 0-96-43-96-96V352H64zm96 128V416H288v64H160zm0-384V32H288V96H160z" />
  </symbol>
  <symbol id="sparkles" viewBox="0 0 512 512">
    <!--!Font
    Awesome Pro 6.5.2 by @fontawesome - https://fontawesome.com License -
    https://fontawesome.com/license (Commercial License) Copyright 2024 Fonticons, Inc.-->
    <path d="M327.5 85.2c-4.5 1.7-7.5 6-7.5 10.8s3 9.1 7.5 10.8L384 128l21.2 56.5c1.7 4.5 6 7.5 10.8 7.5s9.1-3 10.8-7.5L448 128l56.5-21.2c4.5-1.7 7.5-6 7.5-10.8s-3-9.1-7.5-10.8L448 64 426.8 7.5C425.1 3 420.8 0 416 0s-9.1 3-10.8 7.5L384 64 327.5 85.2zM9.3 240C3.6 242.6 0 248.3 0 254.6s3.6 11.9 9.3 14.5L26.3 277l8.1 3.7 .6 .3 88.3 40.8L164.1 410l.3 .6 3.7 8.1 7.9 17.1c2.6 5.7 8.3 9.3 14.5 9.3s11.9-3.6 14.5-9.3l7.9-17.1 3.7-8.1 .3-.6 40.8-88.3L346 281l.6-.3 8.1-3.7 17.1-7.9c5.7-2.6 9.3-8.3 9.3-14.5s-3.6-11.9-9.3-14.5l-17.1-7.9-8.1-3.7-.6-.3-88.3-40.8L217 99.1l-.3-.6L213 90.3l-7.9-17.1c-2.6-5.7-8.3-9.3-14.5-9.3s-11.9 3.6-14.5 9.3l-7.9 17.1-3.7 8.1-.3 .6-40.8 88.3L35.1 228.1l-.6 .3-8.1 3.7L9.3 240zm83 14.5l51.2-23.6c10.4-4.8 18.7-13.1 23.5-23.5l23.6-51.2 23.6 51.2c4.8 10.4 13.1 18.7 23.5 23.5l51.2 23.6-51.2 23.6c-10.4 4.8-18.7 13.1-23.5 23.5l-23.6 51.2-23.6-51.2c-4.8-10.4-13.1-18.7-23.5-23.5L92.3 254.6zM384 384l-56.5 21.2c-4.5 1.7-7.5 6-7.5 10.8s3 9.1 7.5 10.8L384 448l21.2 56.5c1.7 4.5 6 7.5 10.8 7.5s9.1-3 10.8-7.5L448 448l56.5-21.2c4.5-1.7 7.5-6 7.5-10.8s-3-9.1-7.5-10.8L448 384l-21.2-56.5c-1.7-4.5-6-7.5-10.8-7.5s-9.1 3-10.8 7.5L384 384z" />
  </symbol>
  <symbol id="chevron-down" viewBox="0 0 512 512">
    <!--!Font
    Awesome Pro 6.5.2 by @fontawesome - https://fontawesome.com License -
    https://fontawesome.com/license (Commercial License) Copyright 2024 Fonticons, Inc.-->
    <path d="M239 401c9.4 9.4 24.6 9.4 33.9 0L465 209c9.4-9.4 9.4-24.6 0-33.9s-24.6-9.4-33.9 0l-175 175L81 175c-9.4-9.4-24.6-9.4-33.9 0s-9.4 24.6 0 33.9L239 401z" stroke="currentColor" />
  </symbol>
  <symbol id="chevron-up" viewBox="0 0 512 512">
    <!--!Font
    Awesome Pro 6.5.2 by @fontawesome - https://fontawesome.com License -
    https://fontawesome.com/license (Commercial License) Copyright 2024 Fonticons, Inc.-->
    <path d="M239 111c9.4-9.4 24.6-9.4 33.9 0L465 303c9.4 9.4 9.4 24.6 0 33.9s-24.6 9.4-33.9 0l-175-175L81 337c-9.4 9.4-24.6 9.4-33.9 0s-9.4-24.6 0-33.9L239 111z" stroke="currentColor" />
  </symbol>
  <symbol id="chevron-right" viewBox="0 0 320 512">
    <!--!Font
    Awesome Pro 6.5.2 by @fontawesome - https://fontawesome.com License -
    https://fontawesome.com/license (Commercial License) Copyright 2024 Fonticons, Inc.-->
    <path d="M305 239c9.4 9.4 9.4 24.6 0 33.9L113 465c-9.4 9.4-24.6 9.4-33.9 0s-9.4-24.6 0-33.9l175-175L79 81c-9.4-9.4-9.4-24.6 0-33.9s24.6-9.4 33.9 0L305 239z" stroke="currentColor" />
  </symbol>
  <symbol id="chevron-left" viewBox="0 0 320 512">
    <!--!Font
    Awesome Pro 6.5.2 by @fontawesome - https://fontawesome.com License -
    https://fontawesome.com/license (Commercial License) Copyright 2024 Fonticons, Inc.-->
    <path d="M15 239c-9.4 9.4-9.4 24.6 0 33.9L207 465c9.4 9.4 24.6 9.4 33.9 0s9.4-24.6 0-33.9L65.9 256 241 81c9.4-9.4 9.4-24.6 0-33.9s-24.6-9.4-33.9 0L15 239z" stroke="currentColor" />
  </symbol>
  <symbol id="link-simple" viewBox="0 0 576 512">
    <!--!Font
    Awesome Pro 6.5.2 by @fontawesome - https://fontawesome.com License -
    https://fontawesome.com/license (Commercial License) Copyright 2024 Fonticons, Inc.-->
    <path d="M0 256C0 167.6 71.6 96 160 96h64c17.7 0 32 14.3 32 32s-14.3 32-32 32H160c-53 0-96 43-96 96s43 96 96 96h64c17.7 0 32 14.3 32 32s-14.3 32-32 32H160C71.6 416 0 344.4 0 256zm576 0c0 88.4-71.6 160-160 160H352c-17.7 0-32-14.3-32-32s14.3-32 32-32h64c53 0 96-43 96-96s-43-96-96-96H352c-17.7 0-32-14.3-32-32s14.3-32 32-32h64c88.4 0 160 71.6 160 160zM192 224H384c17.7 0 32 14.3 32 32s-14.3 32-32 32H192c-17.7 0-32-14.3-32-32s14.3-32 32-32z" stroke="currentColor" />
  </symbol>
  <symbol id="circle-play" viewBox="0 0 512 512">
    <!--!Font
    Awesome Free 6.5.2 by @fontawesome - https://fontawesome.com License -
    https://fontawesome.com/license/free Copyright 2024 Fonticons, Inc.-->
    <path d="M464 256A208 208 0 1 0 48 256a208 208 0 1 0 416 0zM0 256a256 256 0 1 1 512 0A256 256 0 1 1 0 256zM188.3 147.1c7.6-4.2 16.8-4.1 24.3 .5l144 88c7.1 4.4 11.5 12.1 11.5 20.5s-4.4 16.1-11.5 20.5l-144 88c-7.4 4.5-16.7 4.7-24.3 .5s-12.3-12.2-12.3-20.9V168c0-8.7 4.7-16.7 12.3-20.9z" stroke="currentColor" />
  </symbol>
  <symbol id="circle-check" viewBox="0 0 512 512">
    <!--!Font
    Awesome Free 6.5.2 by @fontawesome - https://fontawesome.com License -
    https://fontawesome.com/license/free Copyright 2024 Fonticons, Inc.-->
    <path d="M256 48a208 208 0 1 1 0 416 208 208 0 1 1 0-416zm0 464A256 256 0 1 0 256 0a256 256 0 1 0 0 512zM369 209c9.4-9.4 9.4-24.6 0-33.9s-24.6-9.4-33.9 0l-111 111-47-47c-9.4-9.4-24.6-9.4-33.9 0s-9.4 24.6 0 33.9l64 64c9.4 9.4 24.6 9.4 33.9 0L369 209z" />
  </symbol>
  <symbol id="folders" viewBox="0 0 576 512">
    <!--!Font
    Awesome Pro 6.5.2 by @fontawesome - https://fontawesome.com License -
    https://fontawesome.com/license (Commercial License) Copyright 2024 Fonticons, Inc.-->
    <path d="M512 336H160c-8.8 0-16-7.2-16-16V96c0-8.8 7.2-16 16-16H277.5c4.2 0 8.3 1.7 11.3 4.7l26.5 26.5c21 21 49.5 32.8 79.2 32.8H512c8.8 0 16 7.2 16 16V320c0 8.8-7.2 16-16 16zM160 384H512c35.3 0 64-28.7 64-64V160c0-35.3-28.7-64-64-64H394.5c-17 0-33.3-6.7-45.3-18.7L322.7 50.7c-12-12-28.3-18.7-45.3-18.7H160c-35.3 0-64 28.7-64 64V320c0 35.3 28.7 64 64 64zM48 120c0-13.3-10.7-24-24-24S0 106.7 0 120V344c0 75.1 60.9 136 136 136H456c13.3 0 24-10.7 24-24s-10.7-24-24-24H136c-48.6 0-88-39.4-88-88V120z" />
  </symbol>
  <symbol id="gear" viewBox="0 0 512 512">
    <!--!Font
    Awesome Pro 6.5.2 by @fontawesome - https://fontawesome.com License -
    https://fontawesome.com/license (Commercial License) Copyright 2024 Fonticons, Inc.-->
    <path d="M256 0c17 0 33.6 1.7 49.8 4.8c7.9 1.5 21.8 6.1 29.4 20.1c2 3.7 3.6 7.6 4.6 11.8l9.3 38.5C350.5 81 360.3 86.7 366 85l38-11.2c4-1.2 8.1-1.8 12.2-1.9c16.1-.5 27 9.4 32.3 15.4c22.1 25.1 39.1 54.6 49.9 86.3c2.6 7.6 5.6 21.8-2.7 35.4c-2.2 3.6-4.9 7-8 10L459 246.3c-4.2 4-4.2 15.5 0 19.5l28.7 27.3c3.1 3 5.8 6.4 8 10c8.2 13.6 5.2 27.8 2.7 35.4c-10.8 31.7-27.8 61.1-49.9 86.3c-5.3 6-16.3 15.9-32.3 15.4c-4.1-.1-8.2-.8-12.2-1.9L366 427c-5.7-1.7-15.5 4-16.9 9.8l-9.3 38.5c-1 4.2-2.6 8.2-4.6 11.8c-7.7 14-21.6 18.5-29.4 20.1C289.6 510.3 273 512 256 512s-33.6-1.7-49.8-4.8c-7.9-1.5-21.8-6.1-29.4-20.1c-2-3.7-3.6-7.6-4.6-11.8l-9.3-38.5c-1.4-5.8-11.2-11.5-16.9-9.8l-38 11.2c-4 1.2-8.1 1.8-12.2 1.9c-16.1 .5-27-9.4-32.3-15.4c-22-25.1-39.1-54.6-49.9-86.3c-2.6-7.6-5.6-21.8 2.7-35.4c2.2-3.6 4.9-7 8-10L53 265.7c4.2-4 4.2-15.5 0-19.5L24.2 218.9c-3.1-3-5.8-6.4-8-10C8 195.3 11 181.1 13.6 173.6c10.8-31.7 27.8-61.1 49.9-86.3c5.3-6 16.3-15.9 32.3-15.4c4.1 .1 8.2 .8 12.2 1.9L146 85c5.7 1.7 15.5-4 16.9-9.8l9.3-38.5c1-4.2 2.6-8.2 4.6-11.8c7.7-14 21.6-18.5 29.4-20.1C222.4 1.7 239 0 256 0zM218.1 51.4l-8.5 35.1c-7.8 32.3-45.3 53.9-77.2 44.6L97.9 120.9c-16.5 19.3-29.5 41.7-38 65.7l26.2 24.9c24 22.8 24 66.2 0 89L59.9 325.4c8.5 24 21.5 46.4 38 65.7l34.6-10.2c31.8-9.4 69.4 12.3 77.2 44.6l8.5 35.1c24.6 4.5 51.3 4.5 75.9 0l8.5-35.1c7.8-32.3 45.3-53.9 77.2-44.6l34.6 10.2c16.5-19.3 29.5-41.7 38-65.7l-26.2-24.9c-24-22.8-24-66.2 0-89l26.2-24.9c-8.5-24-21.5-46.4-38-65.7l-34.6 10.2c-31.8 9.4-69.4-12.3-77.2-44.6l-8.5-35.1c-24.6-4.5-51.3-4.5-75.9 0zM208 256a48 48 0 1 0 96 0 48 48 0 1 0 -96 0zm48 96a96 96 0 1 1 0-192 96 96 0 1 1 0 192z" />
  </symbol>
  <symbol id="key" viewBox="0 0 512 512">
    <!--!Font
    Awesome Pro 6.5.2 by @fontawesome - https://fontawesome.com License -
    https://fontawesome.com/license (Commercial License) Copyright 2024 Fonticons, Inc.-->
    <path d="M208 176c0-70.7 57.3-128 128-128s128 57.3 128 128s-57.3 128-128 128c-10.4 0-20.5-1.2-30.1-3.6c-8.1-2-16.7 .4-22.6 6.4L254.1 336H200c-13.3 0-24 10.7-24 24v40H136c-13.3 0-24 10.7-24 24v40H48V385.9L205.2 228.7c5.9-5.9 8.3-14.5 6.4-22.6c-2.3-9.6-3.6-19.7-3.6-30.1zM336 0C238.8 0 160 78.8 160 176c0 9.5 .7 18.8 2.2 27.9L7 359c-4.5 4.5-7 10.6-7 17V488c0 13.3 10.7 24 24 24H136c13.3 0 24-10.7 24-24V448h40c13.3 0 24-10.7 24-24V384h40c6.4 0 12.5-2.5 17-7l27.2-27.2c9.1 1.4 18.4 2.2 27.9 2.2c97.2 0 176-78.8 176-176S433.2 0 336 0zm32 176a32 32 0 1 0 0-64 32 32 0 1 0 0 64z" />
  </symbol>
  <symbol id="plus" viewBox="0 0 448 512">
    <path d="M256 80c0-17.7-14.3-32-32-32s-32 14.3-32 32V224H48c-17.7 0-32 14.3-32 32s14.3 32 32 32H192V432c0 17.7 14.3 32 32 32s32-14.3 32-32V288H400c17.7 0 32-14.3 32-32s-14.3-32-32-32H256V80z" stroke="currentColor" />
  </symbol>


  <symbol id="cross-hair" width="12" height="12" viewBox="0 0 12 12" fill="none" xmlns="http://www.w3.org/2000/svg">
    <g clip-path="url(#clip0_7428_47266)">
      <path d="M11 6C11 8.76142 8.76142 11 6 11M11 6C11 3.23858 8.76142 1 6 1M11 6H9M6 11C3.23858 11 1 8.76142 1 6M6 11V9M1 6C1 3.23858 3.23858 1 6 1M1 6H3M6 1V3" stroke="currentColor" stroke-width="2" stroke-linecap="round" stroke-linejoin="round" />
    </g>
    <defs>
      <clipPath id="clip0_7428_47266">
        <rect width="12" height="12" fill="white" />
      </clipPath>
    </defs>
  </symbol>


  <symbol id="alert-triangle" width="12" height="12" viewBox="0 0 12 12" fill="none" xmlns="http://www.w3.org/2000/svg">
    <g id="Alert triangle">
      <path id="Icon" d="M5.99988 4.49963V6.49963M5.99988 8.49963H6.00488M5.14489 1.92961L0.909888 8.99961C0.822572 9.15083 0.776372 9.32226 0.775883 9.49687C0.775394 9.67148 0.820634 9.84318 0.907102 9.99488C0.993569 10.1466 1.11825 10.273 1.26874 10.3615C1.41923 10.4501 1.59029 10.4977 1.76489 10.4996H10.2349C10.4095 10.4977 10.5805 10.4501 10.731 10.3615C10.8815 10.273 11.0062 10.1466 11.0927 9.99488C11.1791 9.84318 11.2244 9.67148 11.2239 9.49687C11.2234 9.32226 11.1772 9.15083 11.0899 8.99961L6.85489 1.92961C6.76575 1.78267 6.64025 1.66117 6.49049 1.57686C6.34072 1.49254 6.17176 1.44824 5.99989 1.44824C5.82802 1.44824 5.65905 1.49254 5.50929 1.57686C5.35953 1.66117 5.23402 1.78267 5.14489 1.92961Z" stroke="#C73A3A" stroke-opacity="0.8" stroke-linecap="round" stroke-linejoin="round" />
    </g>
  </symbol>

  <symbol id="xmark" viewBox="0 0 8 8">
    <!--!Font
    Awesome Pro 6.5.2 by @fontawesome - https://fontawesome.com License -
    https://fontawesome.com/license (Commercial License) Copyright 2024 Fonticons, Inc.-->

    <path d="M7 1L1 7M1 1L7 7" stroke-width="1.33333" stroke-linecap="round" stroke-linejoin="round" />
  </symbol>
  <symbol id="filter" viewBox="0 0 512 512">
    <!--!Font
    Awesome Pro 6.5.2 by @fontawesome - https://fontawesome.com License -
    https://fontawesome.com/license (Commercial License) Copyright 2024 Fonticons, Inc.-->
    <path d="M0 73.7C0 50.7 18.7 32 41.7 32l428.6 0c23 0 41.7 18.7 41.7 41.7c0 9.6-3.3 18.9-9.4 26.3L336 304.5l0 143.2c0 17.8-14.5 32.3-32.3 32.3c-7.3 0-14.4-2.5-20.1-7l-92.5-73.4c-9.6-7.6-15.1-19.1-15.1-31.3l0-63.7L9.4 100C3.3 92.6 0 83.3 0 73.7zM55 80L218.6 280.8c3.5 4.3 5.4 9.6 5.4 15.2l0 68.4 64 50.8L288 296c0-5.5 1.9-10.9 5.4-15.2L457 80 55 80z"></path>
  </symbol>
  <symbol id="grip-dots-vertical" viewBox="0 0 256 512">
    <!--!Font
    Awesome Pro 6.5.2 by @fontawesome - https://fontawesome.com License -
    https://fontawesome.com/license (Commercial License) Copyright 2024 Fonticons, Inc.-->
    <path d="M64 128a32 32 0 1 0 0-64 32 32 0 1 0 0 64zm0 160a32 32 0 1 0 0-64 32 32 0 1 0 0 64zM96 416a32 32 0 1 0 -64 0 32 32 0 1 0 64 0zm96-288a32 32 0 1 0 0-64 32 32 0 1 0 0 64zm32 128a32 32 0 1 0 -64 0 32 32 0 1 0 64 0zM192 448a32 32 0 1 0 0-64 32 32 0 1 0 0 64z" />
  </symbol>
  <symbol id="sliders" viewBox="0 0 512 512">
    <!--!Font
    Awesome Pro 6.5.2 by @fontawesome - https://fontawesome.com License -
    https://fontawesome.com/license (Commercial License) Copyright 2024 Fonticons, Inc.-->
    <path d="M0 416c0 13.3 10.7 24 24 24l59.7 0c10.2 32.5 40.5 56 76.3 56s66.1-23.5 76.3-56L488 440c13.3 0 24-10.7 24-24s-10.7-24-24-24l-251.7 0c-10.2-32.5-40.5-56-76.3-56s-66.1 23.5-76.3 56L24 392c-13.3 0-24 10.7-24 24zm128 0a32 32 0 1 1 64 0 32 32 0 1 1 -64 0zM320 256a32 32 0 1 1 64 0 32 32 0 1 1 -64 0zm32-80c-35.8 0-66.1 23.5-76.3 56L24 232c-13.3 0-24 10.7-24 24s10.7 24 24 24l251.7 0c10.2 32.5 40.5 56 76.3 56s66.1-23.5 76.3-56l59.7 0c13.3 0 24-10.7 24-24s-10.7-24-24-24l-59.7 0c-10.2-32.5-40.5-56-76.3-56zM192 128a32 32 0 1 1 0-64 32 32 0 1 1 0 64zm76.3-56C258.1 39.5 227.8 16 192 16s-66.1 23.5-76.3 56L24 72C10.7 72 0 82.7 0 96s10.7 24 24 24l91.7 0c10.2 32.5 40.5 56 76.3 56s66.1-23.5 76.3-56L488 120c13.3 0 24-10.7 24-24s-10.7-24-24-24L268.3 72z" />
  </symbol>
  <symbol id="clock" viewBox="0 0 512 512">
    <!--!Font
    Awesome Free 6.5.2 by @fontawesome - https://fontawesome.com License -
    https://fontawesome.com/license/free Copyright 2024 Fonticons, Inc.-->
    <path d="M464 256A208 208 0 1 1 48 256a208 208 0 1 1 416 0zM0 256a256 256 0 1 0 512 0A256 256 0 1 0 0 256zM232 120V256c0 8 4 15.5 10.7 20l96 64c11 7.4 25.9 4.4 33.3-6.7s4.4-25.9-6.7-33.3L280 243.2V120c0-13.3-10.7-24-24-24s-24 10.7-24 24z" />
  </symbol>
  <symbol id="magnifying-glass" viewBox="0 0 512 512">
    <!--!Font
    Awesome Pro 6.5.2 by @fontawesome - https://fontawesome.com License -
    https://fontawesome.com/license (Commercial License) Copyright 2024 Fonticons, Inc.-->
    <path d="M368 208A160 160 0 1 0 48 208a160 160 0 1 0 320 0zM337.1 371.1C301.7 399.2 256.8 416 208 416C93.1 416 0 322.9 0 208S93.1 0 208 0S416 93.1 416 208c0 48.8-16.8 93.7-44.9 129.1L505 471c9.4 9.4 9.4 24.6 0 33.9s-24.6 9.4-33.9 0L337.1 371.1z" />
  </symbol>
  <symbol id="circle-info" viewBox="0 0 20 20">
    <!--!Font
    Awesome Pro 6.5.2 by @fontawesome - https://fontawesome.com License -
    https://fontawesome.com/license (Commercial License) Copyright 2024 Fonticons, Inc.-->
    <path d="M10.0001 13.3334V10.0001M10.0001 6.66675H10.0084M18.3334 10.0001C18.3334 14.6025 14.6025 18.3334 10.0001 18.3334C5.39771 18.3334 1.66675 14.6025 1.66675 10.0001C1.66675 5.39771 5.39771 1.66675 10.0001 1.66675C14.6025 1.66675 18.3334 5.39771 18.3334 10.0001Z" fill="none" stroke-width="1.5" stroke-linecap="round" stroke-linejoin="round" />
  </symbol>
  <symbol id="regular-calendar-days-clock" viewBox="0 0 640 512">
    <path d="M0 128C0 92.7 28.7 64 64 64l40 0 0-40c0-13.3 10.7-24 24-24s24 10.7 24 24l0 40 144 0 0-40c0-13.3 10.7-24 24-24s24 10.7 24 24l0 40 40 0c35.3 0 64 28.7 64 64l0 16 0 48 0 6.6c-17.2 4.9-33.4 12.3-48 21.8l0-28.5-80 0 0 56 47.3 0c-13.1 14-23.9 30.2-31.9 48L320 296l0 64 .2 0c-.1 2.7-.2 5.3-.2 8c0 13.8 1.6 27.1 4.6 40l-4.6 0 0 56 28.5 0c12 18.4 27.4 34.5 45.3 47.3c-3.2 .5-6.4 .7-9.8 .7L64 512c-35.3 0-64-28.7-64-64L0 192l0-48 0-16zm48 64l0 56 80 0 0-56-80 0zm0 104l0 64 80 0 0-64-80 0zm0 112l0 40c0 8.8 7.2 16 16 16l64 0 0-56-80 0zM176 192l0 56 96 0 0-56-96 0zm0 104l0 64 96 0 0-64-96 0zm0 112l0 56 96 0 0-56-96 0zm176-40c0-79.5 64.5-144 144-144s144 64.5 144 144s-64.5 144-144 144s-144-64.5-144-144zm128-64l0 64c0 8.8 7.2 16 16 16l48 0c8.8 0 16-7.2 16-16s-7.2-16-16-16l-32 0 0-48c0-8.8-7.2-16-16-16s-16 7.2-16 16z" />
  </symbol>
  <symbol id="square-question" viewBox="0 0 448 512">
    <path d="M64 80c-8.8 0-16 7.2-16 16l0 320c0 8.8 7.2 16 16 16l320 0c8.8 0 16-7.2 16-16l0-320c0-8.8-7.2-16-16-16L64 80zM0 96C0 60.7 28.7 32 64 32l320 0c35.3 0 64 28.7 64 64l0 320c0 35.3-28.7 64-64 64L64 480c-35.3 0-64-28.7-64-64L0 96zm137.8 69.3c7.9-22.3 29.1-37.3 52.8-37.3l58.3 0c34.9 0 63.1 28.3 63.1 63.1c0 22.6-12.1 43.5-31.7 54.8L248 264.4c-.2 13-10.9 23.6-24 23.6c-13.3 0-24-10.7-24-24l0-13.5c0-8.6 4.6-16.5 12.1-20.8l44.3-25.4c4.7-2.7 7.6-7.7 7.6-13.1c0-8.4-6.8-15.1-15.1-15.1l-58.3 0c-3.4 0-6.4 2.1-7.5 5.3l-.4 1.2c-4.4 12.5-18.2 19-30.6 14.6s-19-18.2-14.6-30.6l.4-1.2zM192 352a32 32 0 1 1 64 0 32 32 0 1 1 -64 0z" />
  </symbol>
  <symbol id="arrow-right-from-bracket" viewBox="0 0 512 512">
    <!--!Font
    Awesome Pro 6.6.0 by @fontawesome - https://fontawesome.com License -
    https://fontawesome.com/license (Commercial License) Copyright 2024 Fonticons, Inc.-->
    <path d="M505 273c9.4-9.4 9.4-24.6 0-33.9L377 111c-9.4-9.4-24.6-9.4-33.9 0s-9.4 24.6 0 33.9l87 87L184 232c-13.3 0-24 10.7-24 24s10.7 24 24 24l246.1 0-87 87c-9.4 9.4-9.4 24.6 0 33.9s24.6 9.4 33.9 0L505 273zM168 80c13.3 0 24-10.7 24-24s-10.7-24-24-24L88 32C39.4 32 0 71.4 0 120L0 392c0 48.6 39.4 88 88 88l80 0c13.3 0 24-10.7 24-24s-10.7-24-24-24l-80 0c-22.1 0-40-17.9-40-40l0-272c0-22.1 17.9-40 40-40l80 0z" />
  </symbol>
  <symbol id="question" viewBox="0 0 320 512">
    <path d="M64 160c0-44.2 35.8-80 80-80l32 0c44.2 0 80 35.8 80 80l0 4.6c0 24.1-12 46.6-32.1 59.9l-52.3 34.9C149.4 274.2 136 299.2 136 326l0 2c0 13.3 10.7 24 24 24s24-10.7 24-24l0-2c0-10.7 5.3-20.7 14.2-26.6l52.3-34.9c33.4-22.3 53.4-59.7 53.4-99.8l0-4.6c0-70.7-57.3-128-128-128l-32 0C73.3 32 16 89.3 16 160c0 13.3 10.7 24 24 24s24-10.7 24-24zm96 320a32 32 0 1 0 0-64 32 32 0 1 0 0 64z" />
  </symbol>
  <symbol viewBox="0 0 512 512" id="chart-waterfall">
    <path d="M24 32c13.3 0 24 10.7 24 24l0 352c0 13.3 10.7 24 24 24l416 0c13.3 0 24 10.7 24 24s-10.7 24-24 24L72 480c-39.8 0-72-32.2-72-72L0 56C0 42.7 10.7 32 24 32zM168 224c13.3 0 24 10.7 24 24l0 80c0 13.3-10.7 24-24 24s-24-10.7-24-24l0-80c0-13.3 10.7-24 24-24zm120-72l0 80c0 13.3-10.7 24-24 24s-24-10.7-24-24l0-80c0-13.3 10.7-24 24-24s24 10.7 24 24zm72-88c13.3 0 24 10.7 24 24l0 80c0 13.3-10.7 24-24 24s-24-10.7-24-24l0-80c0-13.3 10.7-24 24-24zM480 88l0 240c0 13.3-10.7 24-24 24s-24-10.7-24-24l0-240c0-13.3 10.7-24 24-24s24 10.7 24 24z" />
  </symbol>
  <symbol viewBox="0 0 512 512" id="chart-line-up-down">
    <path d="M24 32c13.3 0 24 10.7 24 24l0 352c0 13.3 10.7 24 24 24l416 0c13.3 0 24 10.7 24 24s-10.7 24-24 24L72 480c-39.8 0-72-32.2-72-72L0 56C0 42.7 10.7 32 24 32zm352 80c-13.3 0-24-10.7-24-24s10.7-24 24-24l80 0c6.4 0 12.5 2.5 17 7s7 10.6 7 17l0 80c0 13.3-10.7 24-24 24s-24-10.7-24-24l0-22.1L305 273c-9.4 9.4-24.6 9.4-33.9 0l-63-63-63 63c-9.4 9.4-24.6 9.4-33.9 0s-9.4-24.6 0-33.9l80-80c9.4-9.4 24.6-9.4 33.9 0l63 63L398.1 112 376 112zm0 272c-13.3 0-24-10.7-24-24s10.7-24 24-24l22.1 0-47-47L385 255l47 47 0-22.1c0-13.3 10.7-24 24-24s24 10.7 24 24l0 80c0 6.4-2.5 12.5-7 17s-10.6 7-17 7l-80 0z" />
  </symbol>
  <!-- <symbol viewBox="0 0 448 512" id="trash">
    <path
      d="M177.1 48h93.7c2.7 0 5.2 1.3 6.7 3.6l19 28.4h-145l19-28.4c1.5-2.2 4-3.6 6.7-3.6zM354.2 80L317.5
  24.9C307.1 9.4 289.6 0 270.9 0H177.1c-18.7 0-36.2 9.4-46.6 24.9L93.8 80H80.1 32 24C10.7 80 0 90.7
  0 104s10.7 24 24 24H35.6L59.6 452.7c2.5 33.4 30.3 59.3 63.8 59.3H324.6c33.5 0 61.3-25.9
  63.8-59.3L412.4 128H424c13.3 0 24-10.7 24-24s-10.7-24-24-24h-8H367.9 354.2zm10.1 48L340.5
  449.2c-.6 8.4-7.6 14.8-16 14.8H123.4c-8.4 0-15.3-6.5-16-14.8L83.7 128H364.3z" />
  </symbol> -->
  <symbol viewBox="0 0 448 512" id="angles-up-down">
    <path d="M239 498.7c-8.8 7-21.2 7-30 0L49 370.7c-10.4-8.3-12-23.4-3.7-33.7s23.4-12 33.7-3.8l145 116 145-116c10.3-8.3 25.5-6.6 33.7 3.8s6.6 25.5-3.7 33.7l-160 128zM399 141.3c10.4 8.3 12 23.4 3.8 33.7s-23.4 12-33.7 3.7L224 62.7 79 178.7c-10.4 8.3-25.5 6.6-33.7-3.7s-6.6-25.5 3.7-33.7l160-128c8.8-7 21.2-7 30 0l160 128z" />
  </symbol>
  <symbol viewBox="0 0 18 18" id="side-chevron-left-in-box" fill="none">
    <path d="M6.50006 1.49995V16.5M12.3334 11.5L9.83339 8.99995L12.3334 6.49995M3.16673 1.49995H14.8334C15.7539 1.49995 16.5001 2.24615 16.5001 3.16662V14.8333C16.5001 15.7538 15.7539 16.5 14.8334 16.5H3.16673C2.24625 16.5 1.50006 15.7538 1.50006 14.8333V3.16662C1.50006 2.24615 2.24625 1.49995 3.16673 1.49995Z" stroke="currentColor" stroke-width="2" stroke-linecap="round" stroke-linejoin="round" />
  </symbol>
  <symbol viewBox="0 0 512 512" id="explore">
    <path d="M464 256A208 208 0 1 0 48 256a208 208 0 1 0 416 0zM0 256a256 256 0 1 1 512 0A256 256 0 1 1 0 256zm306.7 69.1L162.4 380.6c-19.4 7.5-38.5-11.6-31-31l55.5-144.3c3.3-8.5 9.9-15.1 18.4-18.4l144.3-55.5c19.4-7.5 38.5 11.6 31 31L325.1 306.7c-3.2 8.5-9.9 15.1-18.4 18.4zM288 256a32 32 0 1 0 -64 0 32 32 0 1 0 64 0z" />
  </symbol>

  <symbol viewBox="0 0 16 16" id="circle-question" fill="none">
    <path d="M6.06065 6.00065C6.21739 5.5551 6.52675 5.17939 6.93395 4.94007C7.34116 4.70076 7.81991 4.61328 8.28544 4.69313C8.75096 4.77297 9.1732 5.015 9.47737 5.37634C9.78154 5.73767 9.94802 6.195 9.94732 6.66732C9.94732 8.00065 7.94732 8.66732 7.94732 8.66732M8.00065 11.334H8.00732M8.00065 1.33398C6.23254 1.33398 4.53685 2.03636 3.28661 3.28661C2.03636 4.53685 1.33398 6.23254 1.33398 8.00065C1.33398 9.76876 2.03636 11.4645 3.28661 12.7147C4.53685 13.9649 6.23254 14.6673 8.00065 14.6673C9.76876 14.6673 11.4645 13.9649 12.7147 12.7147C13.9649 11.4645 14.6673 9.76876 14.6673 8.00065C14.6673 6.23254 13.9649 4.53685 12.7147 3.28661C11.4645 2.03636 9.76876 1.33398 8.00065 1.33398Z" stroke="currentColor" stroke-width="1.8" stroke-linecap="round" stroke-linejoin="round" />
  </symbol>

  <symbol viewBox="0 0 448 512" id="floppy-disk">
    <path d="M48 96l0 320c0 8.8 7.2 16 16 16l320 0c8.8 0 16-7.2 16-16l0-245.5c0-4.2-1.7-8.3-4.7-11.3l33.9-33.9c12 12 18.7 28.3 18.7 45.3L448 416c0 35.3-28.7 64-64 64L64 480c-35.3 0-64-28.7-64-64L0 96C0 60.7 28.7 32 64 32l245.5 0c17 0 33.3 6.7 45.3 18.7l74.5 74.5-33.9 33.9L320.8 84.7c-.3-.3-.5-.5-.8-.8L320 184c0 13.3-10.7 24-24 24l-192 0c-13.3 0-24-10.7-24-24L80 80 64 80c-8.8 0-16 7.2-16 16zm80-16l0 80 144 0 0-80L128 80zm32 240a64 64 0 1 1 128 0 64 64 0 1 1 -128 0z" />
  </symbol>
  <symbol viewBox="0 0 13 12" id="up-right-and-down-left-from-center">
    <path d="M8.16666 1.5H11.1667M11.1667 1.5V4.5M11.1667 1.5L7.66666 5M5.16666 10.5H2.16666M2.16666 10.5V7.5M2.16666 10.5L5.66666 7" stroke="currentColor" stroke-linecap="round" stroke-linejoin="round" />
  </symbol>
  <symbol viewBox="0 0 6 11" id="f-arrow-right">
    <path d="M1 9.5L5 5.5L1 1.5" stroke="#64748B" stroke-width="1.66667" stroke-linecap="round" stroke-linejoin="round" />
  </symbol>
  <symbol id="f-chevron-up">
    <path d="M3 7.5L6 4.5L9 7.5" stroke-width="1.33333" stroke-linecap="round" stroke-linejoin="round" />
  </symbol>
  <symbol id="p-chevron-down" width="16" height="16" viewBox="0 0 16 16" fill="none">
    <g id="chevron-right">
      <path id="Vector" d="M4 6L8 10L12 6" stroke="currentColor" stroke-opacity="0.45" stroke-width="2" stroke-linecap="round" stroke-linejoin="round" />
    </g>
  </symbol>

  <symbol id="p-chevron-up" width="16" height="16" viewBox="0 0 16 16" fill="none">
    <g id="chevron-left">
      <path id="Vector" d="M4 10L8 6L12 10" stroke="currentColor" stroke-opacity="0.45" stroke-width="2" stroke-linecap="round" stroke-linejoin="round" />
    </g>
  </symbol>

  <symbol id="empty" viewBox="0 0 51 51">
    <path d="M16.6751 5.57549C17.0798 5.68188 17.5047 5.68499 17.911 5.58453C18.3172 5.48407 18.6917 5.28325 19.0001 5.00049H31.7501L28.5751 16.8505C28.474 17.2213 28.4597 17.6104 28.5335 17.9877C28.6072 18.3649 28.7669 18.72 29.0001 19.0255C29.233 19.328 29.5321 19.5732 29.8745 19.7422C30.2168 19.9112 30.5933 19.9996 30.9751 20.0005H40.0001L37.1751 23.1005C36.732 23.5917 36.5016 24.2384 36.5344 24.8991C36.5672 25.5599 36.8605 26.1806 37.3501 26.6255C37.8086 27.0422 38.4055 27.2739 39.0251 27.2755C39.374 27.2747 39.7188 27.2008 40.0374 27.0588C40.356 26.9167 40.6414 26.7095 40.8751 26.4505L47.5001 19.1755C47.8284 18.8122 48.0427 18.3605 48.1165 17.8765C48.1903 17.3924 48.1204 16.8974 47.9154 16.4527C47.7104 16.0081 47.3793 15.6334 46.9633 15.3753C46.5472 15.1171 46.0646 14.9868 45.5751 15.0005H34.2251L37.5001 3.15049C37.5978 2.77779 37.608 2.38756 37.5299 2.01027C37.4519 1.63298 37.2877 1.27884 37.0501 0.97549C36.8096 0.662739 36.4985 0.411357 36.1422 0.241897C35.7859 0.0724382 35.3945 -0.010286 35.0001 0.000489639H17.5001C16.9357 -0.0188435 16.3814 0.153489 15.9274 0.489419C15.4735 0.82535 15.1466 1.30509 15.0001 1.85049V2.50049C14.821 3.13029 14.8961 3.80522 15.2094 4.38022C15.5226 4.95522 16.0489 5.38439 16.6751 5.57549ZM49.1751 45.7255L4.17512 0.72549C3.68859 0.370801 3.09039 0.203616 2.49046 0.254658C1.89053 0.305699 1.32918 0.571539 0.909558 1.00332C0.489936 1.43511 0.24024 2.00383 0.206357 2.60497C0.172473 3.20611 0.356678 3.79929 0.725121 4.27549L11.5251 15.0005L8.37512 26.8505C8.27746 27.2232 8.26726 27.6134 8.34532 27.9907C8.42338 28.368 8.58759 28.7221 8.82512 29.0255C9.05802 29.328 9.35711 29.5732 9.69946 29.7422C10.0418 29.9112 10.4183 29.9996 10.8001 30.0005H20.4001L15.8751 46.8505C15.7286 47.3941 15.7698 47.9712 15.9921 48.4885C16.2144 49.0057 16.6049 49.4328 17.1001 49.7005C17.4687 49.8994 17.8813 50.0026 18.3001 50.0005C18.649 49.9997 18.9938 49.9258 19.3124 49.7838C19.631 49.6417 19.9164 49.4345 20.1501 49.1755L32.2751 35.8255L45.7251 49.2755C45.9575 49.5098 46.234 49.6958 46.5387 49.8227C46.8433 49.9496 47.1701 50.015 47.5001 50.015C47.8302 50.015 48.1569 49.9496 48.4616 49.8227C48.7662 49.6958 49.0427 49.5098 49.2751 49.2755C49.5094 49.0431 49.6954 48.7666 49.8223 48.4619C49.9493 48.1573 50.0146 47.8305 50.0146 47.5005C50.0146 47.1705 49.9493 46.8437 49.8223 46.539C49.6954 46.2344 49.5094 45.9579 49.2751 45.7255H49.1751ZM14.0501 25.0005L15.6251 19.1505L21.4751 25.0005H14.0501ZM23.3751 38.2005L25.8751 29.3005L28.8751 32.2755L23.3751 38.2005Z" />
  </symbol>
  <symbol viewBox="0 0 14 14" id="sort">
    <path d="M13 9.66675L10.3333 12.3334M10.3333 12.3334L7.66667 9.66675M10.3333 12.3334V1.66675M1 4.33341L3.66667 1.66675M3.66667 1.66675L6.33333 4.33341M3.66667 1.66675V12.3334" stroke-width="1.5" stroke-linecap="round" stroke-linejoin="round" />
  </symbol>
  <symbol id="check" viewBox="0 0 16 16" fill="none">
    <path d="M13.3333 4L5.99996 11.3333L2.66663 8" stroke="currentColor" stroke-width="1.5" stroke-linecap="round" stroke-linejoin="round" />
  </symbol>
  <symbol id="upload" viewBox="0 0 16 16" fill="none">
    <path d="M19.1666 12L16.4999 9.33337M16.4999 9.33337L13.8333 12M16.4999 9.33337V14.6667M12.4999 20H12.5066M15.1666 20H15.1733M11.1666 17.3334H21.8333C22.5696 17.3334 23.1666 17.9303 23.1666 18.6667V21.3334C23.1666 22.0698 22.5696 22.6667 21.8333 22.6667H11.1666C10.4302 22.6667 9.83325 22.0698 9.83325 21.3334V18.6667C9.83325 17.9303 10.4302 17.3334 11.1666 17.3334Z" stroke="currentColor" stroke-width="1.5" stroke-linecap="round" stroke-linejoin="round" />
  </symbol>
  <symbol id="download" viewBox="0 0 16 16" fill="none">
    <path d="M16.7499 9.33337V14.6667M16.7499 14.6667L19.4166 12M16.7499 14.6667L14.0833 12M12.7499 20H12.7566M15.4166 20H15.4233M11.4166 17.3334H22.0833C22.8196 17.3334 23.4166 17.9303 23.4166 18.6667V21.3334C23.4166 22.0698 22.8196 22.6667 22.0833 22.6667H11.4166C10.6802 22.6667 10.0833 22.0698 10.0833 21.3334V18.6667C10.0833 17.9303 10.6802 17.3334 11.4166 17.3334Z" stroke="currentColor" stroke-width="1.5" stroke-linecap="round" stroke-linejoin="round" />
  </symbol>
  <symbol id="stack" viewBox="0 0 16 16" fill="none">
    <path d="M22.25 12.6667H20.25C19.8964 12.6667 19.5572 12.5262 19.3072 12.2762C19.0571 12.0261 18.9167 11.687 18.9167 11.3334V9.33337M12.9167 13.3334V19.2C12.9167 19.4 13.05 19.6 13.1833 19.7334C13.3167 19.8667 13.5167 20 13.7167 20H18.25M10.25 16V21.8667C10.25 22.0667 10.3833 22.2667 10.5167 22.4C10.65 22.5334 10.85 22.6667 11.05 22.6667H15.5833M22.25 12V16.3334C22.25 16.8667 21.7833 17.3334 21.25 17.3334H16.5833C16.05 17.3334 15.5833 16.8667 15.5833 16.3334V10.3334C15.5833 9.80004 16.05 9.33337 16.5833 9.33337H19.5833L22.25 12Z" stroke="currentColor" stroke-width="1.5" stroke-linecap="round" stroke-linejoin="round" />
  </symbol>
  <symbol id="arrow-up-right" viewBox="0 0 16 16" fill="none">
    <path d="M4.66675 4.66663H11.3334M11.3334 4.66663V11.3333M11.3334 4.66663L4.66675 11.3333" stroke="currentColor" stroke-width="1.33333" stroke-linecap="round" stroke-linejoin="round" />
  </symbol>
  <symbol id="web" viewBox="0 0 16 15" fill="none">
    <path d="M14.6666 7.49992C14.6666 11.1818 11.6818 14.1666 7.99992 14.1666M14.6666 7.49992C14.6666 3.81802 11.6818 0.833252 7.99992 0.833252M14.6666 7.49992H1.33325M7.99992 14.1666C4.31802 14.1666 1.33325 11.1818 1.33325 7.49992M7.99992 14.1666C6.28808 12.3691 5.33325 9.98209 5.33325 7.49992C5.33325 5.01775 6.28808 2.63069 7.99992 0.833252M7.99992 14.1666C9.71176 12.3691 10.6666 9.98209 10.6666 7.49992C10.6666 5.01775 9.71176 2.63069 7.99992 0.833252M1.33325 7.49992C1.33325 3.81802 4.31802 0.833252 7.99992 0.833252" stroke="currentColor" stroke-width="1.5" stroke-linecap="round" stroke-linejoin="round" />
  </symbol>
  <symbol id="dashboard-list" viewBox="0 0 16 16" fill="none">
    <path d="M6 5.33333H10.6667M5.33333 8H9.33333M7.33333 10.6667H10.6667M3.33333 2H12.6667C13.403 2 14 2.59695 14 3.33333V12.6667C14 13.403 13.403 14 12.6667 14H3.33333C2.59695 14 2 13.403 2 12.6667V3.33333C2 2.59695 2.59695 2 3.33333 2Z" stroke="#currentColor" stroke-linecap="round" stroke-linejoin="round" />
  </symbol>
  <symbol id="caution" viewBox="0 0 16 16" fill="none">
    <path d="M8.00008 6.00016V8.66683M8.00008 11.3335H8.00675M10.0001 1.3335H4.00008C3.64646 1.3335 3.30732 1.47397 3.05727 1.72402C2.80722 1.97407 2.66675 2.31321 2.66675 2.66683V13.3335C2.66675 13.6871 2.80722 14.0263 3.05727 14.2763C3.30732 14.5264 3.64646 14.6668 4.00008 14.6668H12.0001C12.3537 14.6668 12.6928 14.5264 12.9429 14.2763C13.1929 14.0263 13.3334 13.6871 13.3334 13.3335V4.66683L10.0001 1.3335Z" stroke="#94A3B8" stroke-linecap="round" stroke-linejoin="round" />
  </symbol>
  <symbol viewBox="0 0 512 512" id="sliders-simple">
    <path d="M80 336a32 32 0 1 0 0 64 32 32 0 1 0 0-64zm76.3 8L488 344c13.3 0 24 10.7 24 24s-10.7 24-24 24l-331.7 0c-10.2 32.5-40.5 56-76.3 56c-44.2 0-80-35.8-80-80s35.8-80 80-80c35.8 0 66.1 23.5 76.3 56zM400 144a32 32 0 1 0 64 0 32 32 0 1 0 -64 0zm-44.3-24c10.2-32.5 40.5-56 76.3-56c44.2 0 80 35.8 80 80s-35.8 80-80 80c-35.8 0-66.1-23.5-76.3-56L24 168c-13.3 0-24-10.7-24-24s10.7-24 24-24l331.7 0z" />
  </symbol>
  <symbol viewBox="0 0 384 512" id="play">
    <path d="M48 432L336 256 48 80l0 352zM24.5 38.1C39.7 29.6 58.2 30 73 39L361 215c14.3 8.7 23 24.2 23 41s-8.7 32.2-23 41L73 473c-14.8 9.1-33.4 9.4-48.5 .9S0 449.4 0 432L0 80C0 62.6 9.4 46.6 24.5 38.1z" />
  </symbol>
  <symbol viewBox="0 0 128 512" id="ellipsis-vertical">
    <path d="M64 368a48 48 0 1 0 0 96 48 48 0 1 0 0-96zm0-160a48 48 0 1 0 0 96 48 48 0 1 0 0-96zM112 96A48 48 0 1 0 16 96a48 48 0 1 0 96 0z" />
  </symbol>
  <symbol viewBox="0 0 448 512" id="ellipsis">
    <path d="M432 256a48 48 0 1 1 -96 0 48 48 0 1 1 96 0zm-160 0a48 48 0 1 1 -96 0 48 48 0 1 1 96 0zM64 304a48 48 0 1 1 0-96 48 48 0 1 1 0 96z" />
  </symbol>
  <symbol viewBox="0 0 576 512" id="house">
    <path d="M303.5 5.7c-9-7.6-22.1-7.6-31.1 0l-264 224c-10.1 8.6-11.3 23.7-2.8 33.8s23.7 11.3 33.8 2.8L64 245.5 64 432c0 44.2 35.8 80 80 80l288 0c44.2 0 80-35.8 80-80l0-186.5 24.5 20.8c10.1 8.6 25.3 7.3 33.8-2.8s7.3-25.3-2.8-33.8l-264-224zM112 432l0-227.2L288 55.5 464 204.8 464 432c0 17.7-14.3 32-32 32l-48 0 0-152c0-22.1-17.9-40-40-40l-112 0c-22.1 0-40 17.9-40 40l0 152-48 0c-17.7 0-32-14.3-32-32zm128 32l0-144 96 0 0 144-96 0z" />
  </symbol>
  <symbol viewBox="0 0 576 512" id="star">
    <path d="M287.9 0c9.2 0 17.6 5.2 21.6 13.5l68.6 141.3 153.2 22.6c9 1.3 16.5 7.6 19.3 16.3s.5 18.1-5.9 24.5L433.6 328.4l26.2 155.6c1.5 9-2.2 18.1-9.7 23.5s-17.3 6-25.3 1.7l-137-73.2L151 509.1c-8.1 4.3-17.9 3.7-25.3-1.7s-11.2-14.5-9.7-23.5l26.2-155.6L31.1 218.2c-6.5-6.4-8.7-15.9-5.9-24.5s10.3-14.9 19.3-16.3l153.2-22.6L266.3 13.5C270.4 5.2 278.7 0 287.9 0zm0 79L235.4 187.2c-3.5 7.1-10.2 12.1-18.1 13.3L99 217.9 184.9 303c5.5 5.5 8.1 13.3 6.8 21L171.4 443.7l105.2-56.2c7.1-3.8 15.6-3.8 22.6 0l105.2 56.2L384.2 324.1c-1.3-7.7 1.2-15.5 6.8-21l85.9-85.1L358.6 200.5c-7.8-1.2-14.6-6.1-18.1-13.3L287.9 79z" />
  </symbol>
  <symbol viewBox="0 0 512 512" id="chart-area">
    <path d="M48 56c0-13.3-10.7-24-24-24S0 42.7 0 56L0 408c0 39.8 32.2 72 72 72l416 0c13.3 0 24-10.7 24-24s-10.7-24-24-24L72 432c-13.3 0-24-10.7-24-24L48 56zM286.1 225.9c9 9 21.2 14.1 33.9 14.1s24.9-5.1 33.9-14.1l27.3-27.3L432 257.8l0 78.2-288 0 0-92.1 80-80 62.1 62.1zM320 192l-33.9-33.9-39.4-39.4c-12.5-12.5-32.8-12.5-45.3 0l-91.3 91.3c-9 9-14.1 21.2-14.1 33.9L96 352c0 17.7 14.3 32 32 32l320 0c17.7 0 32-14.3 32-32l0-94.2c0-11.5-4.1-22.5-11.6-31.2l-62-72.3c-12.1-14.2-33.7-15-46.9-1.8l-5.6 5.6L320 192z" />
  </symbol>
  <symbol viewBox="0 0 14 14" id="dashboard" fill="none">
    <path d="M5 1H1.66667C1.29848 1 1 1.29848 1 1.66667V6.33333C1 6.70152 1.29848 7 1.66667 7H5C5.36819 7 5.66667 6.70152 5.66667 6.33333V1.66667C5.66667 1.29848 5.36819 1 5 1Z" stroke="currentColor" stroke-width="1.33333" stroke-linecap="round" stroke-linejoin="round" />
    <path d="M12.3333 1H9C8.63181 1 8.33333 1.29848 8.33333 1.66667V3.66667C8.33333 4.03486 8.63181 4.33333 9 4.33333H12.3333C12.7015 4.33333 13 4.03486 13 3.66667V1.66667C13 1.29848 12.7015 1 12.3333 1Z" stroke="currentColor" stroke-width="1.33333" stroke-linecap="round" stroke-linejoin="round" />
    <path d="M12.3333 7H9C8.63181 7 8.33333 7.29848 8.33333 7.66667V12.3333C8.33333 12.7015 8.63181 13 9 13H12.3333C12.7015 13 13 12.7015 13 12.3333V7.66667C13 7.29848 12.7015 7 12.3333 7Z" stroke="currentColor" stroke-width="1.33333" stroke-linecap="round" stroke-linejoin="round" />
    <path d="M5 9.66667H1.66667C1.29848 9.66667 1 9.96514 1 10.3333V12.3333C1 12.7015 1.29848 13 1.66667 13H5C5.36819 13 5.66667 12.7015 5.66667 12.3333V10.3333C5.66667 9.96514 5.36819 9.66667 5 9.66667Z" stroke="currentColor" stroke-width="1.33333" stroke-linecap="round" stroke-linejoin="round" />
  </symbol>


  <symbol viewBox="0 0 16 16" fill="none" id="spinner">
    <g id="Loader" clip-path="url(#clip0_6882_4605)">
      <path id="Icon" d="M7.99967 1.3335V4.00016M7.99967 12.0002V14.6668M3.28634 3.28682L5.173 5.17349M10.8263 10.8268L12.713 12.7135M1.33301 8.00016H3.99967M11.9997 8.00016H14.6663M3.28634 12.7135L5.173 10.8268M10.8263 5.17349L12.713 3.28682" stroke="currentColor" stroke-opacity="0.45" stroke-width="1.8" stroke-linecap="round" stroke-linejoin="round" />
    </g>
    <defs>
      <clipPath id="clip0_6882_4605">
        <rect width="16" height="16" fill="white" />
      </clipPath>
    </defs>
  </symbol>

  <symbol id="download-f" width="10" height="10" viewBox="0 0 10 10" fill="none">
    <g clip-path="url(#clip0_8255_26416)">
      <path d="M8.75 6.25V7.91667C8.75 8.13768 8.6622 8.34964 8.50592 8.50592C8.34964 8.6622 8.13768 8.75 7.91667 8.75H2.08333C1.86232 8.75 1.65036 8.6622 1.49408 8.50592C1.3378 8.34964 1.25 8.13768 1.25 7.91667V6.25M2.91667 4.16667L5 6.25M5 6.25L7.08333 4.16667M5 6.25V1.25" stroke="currentColor" stroke-opacity="0.45" stroke-width="1.33" stroke-linecap="round" stroke-linejoin="round" />
    </g>
  </symbol>
  <symbol id="minus" width="10" height="3" viewBox="0 0 10 3" fill="none">
    <path d="M1.5 1.92285H8.5" stroke="currentColor" stroke-opacity="0.8" stroke-width="2" stroke-linecap="round" stroke-linejoin="round" />
  </symbol>
  <symbol id="expand-icon" viewBox="0 0 10 10" fill="none">
    <path d="M9.5 9.5L6.5 6.5M9.5 9.5V7.1M9.5 9.5H7.1M0.5 7.1V9.5M0.5 9.5H2.9M0.5 9.5L3.5 6.5M9.5 2.9V0.5M9.5 0.5H7.1M9.5 0.5L6.5 3.5M0.5 2.9V0.5M0.5 0.5H2.9M0.5 0.5L3.5 3.5" stroke="currentColor" stroke-linecap="round" stroke-linejoin="round" />
  </symbol>

  <symbol id="resize-bottom-right" viewBox="0 0 10 10" fill="none" xmlns="http://www.w3.org/2000/svg">
    <path d="M10 10H8V8H10V10ZM10 6H8V4H10V6ZM6 10H4V8H6V10ZM6 6H4V4H6V6ZM2 10H0V8H2V10ZM10 2H8V0H10V2Z" fill="currentColor" />
  </symbol>

  <symbol id="cards-blank" viewBox="0 0 640 512" fill="none">
    <path d="M51.8 160.4c-3.7 2.1-4.9 6.8-2.8 10.5l167 289.3c2.1 3.7 6.8 4.9 10.5 2.8L419.4 351.6c3.7-2.1 4.9-6.8 2.8-10.5L255.2 51.8c-2.1-3.7-6.8-4.9-10.5-2.8L51.8 160.4zM7.5 194.9c-15.4-26.6-6.3-60.7 20.4-76.1L220.7 7.5c26.6-15.4 60.7-6.3 76.1 20.4l167 289.3c15.4 26.6 6.2 60.7-20.4 76.1L250.5 504.5c-26.6 15.4-60.7 6.2-76.1-20.4L7.5 194.9zm451.9 226c41.9-24.2 56.3-77.8 32.1-119.8L354.7 64.2c1.7-.2 3.5-.2 5.3-.2l224 0c30.9 0 56 25.1 56 56l0 336c0 30.9-25.1 56-56 56l-224 0c-13.7 0-26.2-4.9-35.9-13l135.3-78.1z" fill="currentColor" />
  </symbol>
  <symbol id="globe-wifi" viewBox="0 0 640 512" fill="none">
    <path d="M256 464c7.4 0 27-7.2 47.6-48.4c6.2-12.4 11.8-26.7 16.5-42.5c1.2 43.9 18.6 83.8 46.3 114C333 503 295.5 512 256 512C114.6 512 0 397.4 0 256S114.6 0 256 0C375.4 0 475.6 81.7 504 192.2c-2.6-.1-5.3-.2-8-.2c-26.2 0-51.1 5.7-73.4 16l-40.8 0c.8 8.1 1.3 16.3 1.7 24.7c-21.4 17.8-38.4 40.5-49.5 66.4c1.3-13.8 2-28.2 2-43.1c0-16.6-.9-32.7-2.5-48l-155 0c-1.6 15.3-2.5 31.4-2.5 48s.9 32.7 2.5 48L332 304c-5.9 15.1-9.8 31.2-11.3 48l-134.3 0c5.6 24.4 13.2 45.9 22 63.6C229 456.8 248.6 464 256 464zM186.4 160l139.2 0c-5.6-24.4-13.2-45.9-22-63.6C283 55.2 263.4 48 256 48s-27 7.2-47.6 48.4c-8.8 17.7-16.4 39.2-22 63.6zm254.2 0c-21.4-41.1-56.1-74.1-98.4-93.4c14.1 25.6 25.3 57.5 32.6 93.4l65.9 0zm-303.3 0c7.3-35.9 18.5-67.7 32.6-93.4c-42.3 19.3-77 52.3-98.4 93.4l65.9 0zM53.6 208c-3.6 15.4-5.6 31.5-5.6 48s1.9 32.6 5.6 48l76.7 0c-1.5-15.5-2.2-31.6-2.2-48s.8-32.5 2.2-48l-76.7 0zM169.9 445.4c-14.1-25.6-25.3-57.5-32.6-93.4l-65.9 0c21.4 41.1 56.1 74.1 98.4 93.4zM352 368a144 144 0 1 1 288 0 144 144 0 1 1 -288 0zm144-48c27.2 0 51.9 10.2 70.6 27.1c6.6 5.9 16.7 5.4 22.6-1.2s5.4-16.7-1.2-22.6c-24.4-21.9-56.6-35.3-92-35.3s-67.7 13.4-92 35.3c-6.6 5.9-7.1 16-1.2 22.6s16 7.1 22.6 1.2C444.1 330.2 468.9 320 496 320zm20 112a20 20 0 1 0 -40 0 20 20 0 1 0 40 0zm-51.5-35.9c8.3-7.5 19.4-12.1 31.5-12.1s23.2 4.6 31.5 12.1c6.6 5.9 16.7 5.4 22.6-1.1s5.4-16.7-1.1-22.6c-14-12.7-32.6-20.4-53-20.4s-39 7.7-53 20.4c-6.6 5.9-7.1 16-1.1 22.6s16 7.1 22.6 1.1z" />
  </symbol>
  <symbol id="classic-theme" viewBox="0 0 80 20" fill="none">
    <path d="M0 6C0 3.79086 1.79086 2 4 2H20V18H4C1.79086 18 0 16.2091 0 14V6Z" fill="#4338CA" />
    <rect x="20" y="2" width="20" height="16" fill="#2563EB" />
    <rect x="40" y="2" width="20" height="16" fill="#FF914E" />
    <path d="M60 2H76C78.2091 2 80 3.79086 80 6V14C80 16.2091 78.2091 18 76 18H60V2Z" fill="#22C55E" />
  </symbol>
  <symbol id="duo-line-chart" viewBox="0 0 512 512">
    <path class="fa-secondary" opacity=".4" d="M0 64L0 400c0 44.2 35.8 80 80 80l400 0c17.7 0 32-14.3 32-32s-14.3-32-32-32L80 416c-8.8 0-16-7.2-16-16L64 64c0-17.7-14.3-32-32-32S0 46.3 0 64z" />
    <path class="fa-primary" d="M159.6 229.3c-2.9 17.4-19.4 29.2-36.8 26.3s-29.2-19.4-26.3-36.8l0 0c1-6.2 2.6-12.2 4.2-18.3c2.9-10.3 7.5-24.3 14.7-38.7C128.9 134.6 157.1 96 208 96c38.2 0 63.6 19.5 80 44.4c14.4 21.9 23 49.6 29.9 72l.7 2.2c7.8 25.3 14 44.4 22.9 57.9c7.3 11.1 14.4 15.6 26.6 15.6c13.1 0 24.9-9.4 35.4-30.3c4.8-9.6 8.1-19.5 10.3-27.3c2.1-7.7 2.8-11.7 2.8-11.7c2.9-17.4 19.4-29.2 36.8-26.3s29.2 19.4 26.3 36.8c-1 6.2-2.6 12.3-4.2 18.3c-2.9 10.3-7.5 24.3-14.7 38.7c-13.5 27-41.7 65.7-92.6 65.7c-38.2 0-63.6-19.5-80-44.4c-14.4-21.9-23-49.6-29.9-72l-.7-2.2c-7.8-25.3-14-44.4-22.9-57.9C227.3 164.5 220.1 160 208 160c-13.1 0-24.9 9.4-35.4 30.3c-4.8 9.6-8.1 19.5-10.3 27.3c-1.1 3.9-2 7.8-2.8 11.8l0 0z" />
  </symbol>
  <symbol id="bar-chart" viewBox="0 0 13 14" fill="none">
    <path d="M0.5 1.16667C0.5 0.522334 1.17157 0 2 0C2.82843 0 3.5 0.522334 3.5 1.16667V12.8333C3.5 13.4777 2.82843 14 2 14C1.17157 14 0.5 13.4777 0.5 12.8333V1.16667Z" fill="#374151" />
    <path d="M5 8.16667C5 7.52233 5.67157 7 6.5 7C7.32843 7 8 7.52233 8 8.16667V12.8333C8 13.4777 7.32843 14 6.5 14C5.67157 14 5 13.4777 5 12.8333V8.16667Z" fill="#374151" />
    <path d="M9.5 5.83333C9.5 5.189 10.1716 4.66667 11 4.66667C11.8284 4.66667 12.5 5.189 12.5 5.83333V12.8333C12.5 13.4777 11.8284 14 11 14C10.1716 14 9.5 13.4777 9.5 12.8333V5.83333Z" fill="#374151" />
  </symbol>
  <symbol id="duo-pie-chart" viewBox="0 0 17 16" fill="none">
    <path d="M15.5097 8C16.0725 8 16.5355 7.54188 16.464 6.98358C16.3319 5.95263 15.9998 4.95391 15.4827 4.0448C14.7971 2.83936 13.8098 1.83284 12.6179 1.12401C11.426 0.415168 10.0702 0.0283499 8.6837 0.0014999C7.63802 -0.0187496 6.60191 0.166268 5.63301 0.542495C5.10831 0.746237 4.92686 1.37177 5.19561 1.86633C5.46437 2.36089 6.0818 2.5346 6.61487 2.3539C7.26563 2.1333 7.95212 2.02603 8.64424 2.03944C9.67749 2.05944 10.6878 2.3477 11.576 2.87594C12.4643 3.40417 13.2 4.15423 13.7109 5.05254C14.0532 5.65427 14.2867 6.30866 14.4036 6.98578C14.4993 7.54044 14.9468 8 15.5097 8Z" fill="#374151" />
    <path d="M4.11983 13.7112C3.85491 14.0543 3.91657 14.551 4.28403 14.781C5.28181 15.4056 6.40808 15.8041 7.58336 15.9439C9.01924 16.1148 10.4746 15.8933 11.7946 15.303C13.1147 14.7127 14.25 13.7757 15.08 12.5916C15.7593 11.6223 16.2132 10.5172 16.4129 9.35715C16.4864 8.92991 16.1574 8.55285 15.725 8.52152C15.2926 8.49018 14.9215 8.81695 14.8377 9.2423C14.665 10.1194 14.3107 10.9538 13.7944 11.6905C13.1273 12.6423 12.2147 13.3954 11.1537 13.8699C10.0928 14.3443 8.923 14.5224 7.7689 14.385C6.87554 14.2787 6.01742 13.9865 5.24857 13.5305C4.8757 13.3093 4.38475 13.368 4.11983 13.7112Z" fill="#001166" fill-opacity="0.1" />
    <path d="M4.89016 2.00999C4.60589 1.54201 3.99134 1.38855 3.56209 1.7285C2.83689 2.30282 2.21478 3.00019 1.72546 3.79115C1.06174 4.864 0.661165 6.07862 0.556428 7.33583C0.451691 8.59304 0.645766 9.85719 1.12281 11.0251C1.4745 11.8861 1.97265 12.6768 2.59282 13.3632C2.9599 13.7695 3.59136 13.7198 3.94915 13.3053C4.30695 12.8909 4.25332 12.2692 3.90313 11.8482C3.51092 11.3768 3.19182 10.8466 2.95845 10.2753C2.59965 9.39687 2.45368 8.44605 2.53246 7.50045C2.61123 6.55485 2.91253 5.64129 3.41173 4.83435C3.73642 4.30951 4.13885 3.83946 4.60367 3.4394C5.01868 3.08221 5.17444 2.47797 4.89016 2.00999Z" fill="#001166" fill-opacity="0.1" />
  </symbol>
  <symbol id="duo-scatter-chart" viewBox="0 0 19 20" fill="none">
    <path d="M6.5 6.25C6.5 7.90685 5.15685 9.25 3.5 9.25C1.84315 9.25 0.5 7.90685 0.5 6.25C0.5 4.59315 1.84315 3.25 3.5 3.25C5.15685 3.25 6.5 4.59315 6.5 6.25Z" fill="#E2E8F0" />
    <path d="M12.5 15.25C12.5 17.7353 10.4853 19.75 8 19.75C5.51472 19.75 3.5 17.7353 3.5 15.25C3.5 12.7647 5.51472 10.75 8 10.75C10.4853 10.75 12.5 12.7647 12.5 15.25Z" fill="#E2E8F0" />
    <path d="M18.5 5.5C18.5 8.3995 16.1495 10.75 13.25 10.75C10.3505 10.75 8 8.3995 8 5.5C8 2.60051 10.3505 0.25 13.25 0.25C16.1495 0.25 18.5 2.60051 18.5 5.5Z" fill="#000626" fill-opacity="0.9" />
  </symbol>
  <symbol id="hashtag" viewBox="0 0 15 14" fill="none">
    <path d="M14.5059 3.96471C14.4325 3.87582 14.3404 3.80425 14.2361 3.75514C14.1318 3.70603 14.018 3.68058 13.9027 3.68063H13.8823H13.8835H11.8762L12.4327 0.972214C12.4604 0.852474 12.4608 0.728021 12.4337 0.608131C12.4066 0.488242 12.3529 0.376008 12.2764 0.279797L12.2775 0.281547C12.2037 0.192916 12.1113 0.121585 12.0069 0.0725968C11.9025 0.0236083 11.7886 -0.00184148 11.6732 -0.00195312H11.654H11.6551C11.1301 0.0149635 10.6967 0.385963 10.5847 0.87888L10.583 0.886464L10.4319 1.62263C10.4272 1.6413 10.419 1.6588 10.415 1.67746L10.002 3.68121H6.62271L7.17921 0.972797C7.20693 0.853057 7.20728 0.728604 7.18021 0.608715C7.15314 0.488825 7.09936 0.376592 7.02288 0.28038L7.02404 0.28213C6.95022 0.1935 6.85783 0.122169 6.7534 0.0731801C6.64897 0.0241916 6.53506 -0.00125815 6.41971 -0.00136979H6.40046H6.40163C5.87663 0.0155469 5.44321 0.386547 5.33121 0.879464L5.32946 0.887047L5.17196 1.65296C5.17196 1.66171 5.16612 1.6693 5.16437 1.67746L4.75488 3.68121H2.56912C2.04412 3.69813 1.61071 4.06855 1.49812 4.56146L1.49637 4.56905C1.46848 4.68883 1.46799 4.81337 1.49496 4.93337C1.52193 5.05336 1.57566 5.16572 1.65212 5.26205L1.65096 5.2603C1.79562 5.43413 2.01204 5.54438 2.25471 5.54438H2.27454H2.27337H4.37162L3.77546 8.44355H1.58737C1.06237 8.46046 0.628958 8.83146 0.516375 9.32438L0.514625 9.33196C0.487003 9.45148 0.486661 9.57569 0.513625 9.69536C0.540589 9.81503 0.594165 9.92709 0.670375 10.0232L0.669208 10.0215C0.814458 10.1953 1.03087 10.3055 1.27354 10.3055H1.29337H1.29221H3.39046L2.83046 13.0285C2.80273 13.1483 2.80239 13.2727 2.82946 13.3926C2.85653 13.5125 2.91031 13.6248 2.98679 13.721L2.98562 13.7192C3.13087 13.893 3.34729 14.0033 3.58996 14.0033H3.60921H3.60804C3.85869 13.9951 4.09959 13.9042 4.29328 13.7449C4.48697 13.5857 4.62259 13.3668 4.67904 13.1225L4.68079 13.1149L5.25829 10.3067H8.63929L8.07929 13.0297C8.05157 13.1495 8.05123 13.2739 8.07829 13.3938C8.10536 13.5137 8.15914 13.6259 8.23563 13.7221L8.23446 13.7204C8.37971 13.8942 8.59613 14.0039 8.83879 14.0039H8.85804H8.85688C9.10756 13.996 9.34858 13.9053 9.54225 13.7459C9.73592 13.5866 9.87132 13.3675 9.92729 13.123L9.92904 13.1155L10.5065 10.3073H12.6065C12.8571 10.2991 13.098 10.2084 13.2916 10.0492C13.4853 9.88999 13.621 9.67128 13.6775 9.42705L13.6793 9.41946C13.7079 9.29988 13.709 9.17535 13.6824 9.05528C13.6559 8.93522 13.6023 8.82278 13.5259 8.72646L13.527 8.72821C13.4532 8.6394 13.3608 8.56791 13.2562 8.51882C13.1517 8.46973 13.0376 8.44423 12.9221 8.44413H12.9011H12.9023H10.8915L11.4877 5.54496H13.5877C13.8384 5.53674 14.0793 5.44591 14.2729 5.28662C14.4666 5.12732 14.6023 4.90848 14.6587 4.66413L14.6605 4.65655C14.6883 4.53672 14.6887 4.41216 14.6616 4.29216C14.6345 4.17216 14.5807 4.05983 14.5041 3.96355L14.5053 3.9653L14.5059 3.96471ZM5.64446 8.4418L6.24062 5.54263H9.62163L9.02546 8.4418H5.64446Z" fill="#374151" />
  </symbol>
  <symbol id="guage" viewBox="0 0 19 14" fill="none">
    <path d="M15.8969 3.45551C15.0578 2.6146 14.0606 1.94812 12.9627 1.49451C11.8648 1.04089 10.6879 0.809112 9.5 0.812537H9.46797C4.48828 0.829725 0.4375 4.93441 0.4375 9.96332V11.75C0.4375 12.1644 0.60212 12.5619 0.895146 12.8549C1.18817 13.1479 1.5856 13.3125 2 13.3125H17C17.4144 13.3125 17.8118 13.1479 18.1049 12.8549C18.3979 12.5619 18.5625 12.1644 18.5625 11.75V9.87504C18.5657 8.68175 18.3318 7.49973 17.8741 6.39767C17.4165 5.29562 16.7444 4.29552 15.8969 3.45551ZM16.6875 11.4375H9.44688L13.075 6.35941C13.22 6.15719 13.2788 5.90562 13.2384 5.66007C13.1979 5.41451 13.0616 5.19508 12.8594 5.05004C12.6571 4.905 12.4056 4.84623 12.16 4.88667C11.9145 4.92711 11.695 5.06344 11.55 5.26566L7.14219 11.4375H2.3125V9.96332C2.3125 9.82894 2.3125 9.69535 2.32344 9.56254H3.875C4.12364 9.56254 4.3621 9.46377 4.53791 9.28795C4.71373 9.11213 4.8125 8.87368 4.8125 8.62504C4.8125 8.3764 4.71373 8.13794 4.53791 7.96212C4.3621 7.78631 4.12364 7.68754 3.875 7.68754H2.67344C3.52578 5.07894 5.79844 3.11566 8.5625 2.74926V4.25004C8.5625 4.49868 8.66127 4.73713 8.83709 4.91295C9.0129 5.08877 9.25136 5.18754 9.5 5.18754C9.74864 5.18754 9.9871 5.08877 10.1629 4.91295C10.3387 4.73713 10.4375 4.49868 10.4375 4.25004V2.75004C11.7897 2.92747 13.0635 3.48595 14.1101 4.36024C15.1568 5.23452 15.9331 6.38855 16.3484 7.68754H15.125C14.8764 7.68754 14.6379 7.78631 14.4621 7.96212C14.2863 8.13794 14.1875 8.3764 14.1875 8.62504C14.1875 8.87368 14.2863 9.11213 14.4621 9.28795C14.6379 9.46377 14.8764 9.56254 15.125 9.56254H16.6797C16.6844 9.66644 16.6875 9.77035 16.6875 9.87504V11.4375Z" fill="#374151" />
  </symbol>
  <symbol id="text" viewBox="0 0 17 14" fill="none">
    <path d="M1 2.83268V1.16602H11.8333V2.83268M6.83333 1.16602V12.8327M8.5 12.8327H5.16667M11 7.83268V6.99935H16V7.83268M13.5 6.99935V12.8327M12.6667 12.8327H14.3333" stroke="#374151" stroke-width="2" stroke-linecap="round" stroke-linejoin="round" />
  </symbol>

  <symbol id="tree" viewBox="0 0 24 24" fill="none" stroke="currentColor" stroke-width="2" stroke-linecap="round" stroke-linejoin="round">
    <path d="M6 3v12"></path>
    <path d="M18 9a3 3 0 1 0 0-6 3 3 0 0 0 0 6z"></path>
    <path d="M6 21a3 3 0 1 0 0-6 3 3 0 0 0 0 6z"></path>
    <path d="M15 6a9 9 0 0 0-9 9"></path>
    <path d="M18 15v6"></path>
    <path d="M21 18h-6"></path>
  </symbol>

  <symbol id="list-view" viewBox="0 0 24 24" fill="none" stroke="currentColor" stroke-width="2" stroke-linecap="round" stroke-linejoin="round">
    <path d="M3 12h.01"></path>
    <path d="M3 18h.01"></path>
    <path d="M3 6h.01"></path>
    <path d="M8 12h13"></path>
    <path d="M8 18h13"></path>
    <path d="M8 6h13"></path>
  </symbol>


  <symbol id="wrap-text" viewBox="0 0 24 24" fill="none" stroke="currentColor" stroke-width="2" stroke-linecap="round" stroke-linejoin="round">
    <line x1="3" x2="21" y1="6" y2="6"></line>
    <path d="M3 12h15a3 3 0 1 1 0 6h-4"></path>
    <polyline points="16 16 14 18 16 20"></polyline>
    <line x1="3" x2="10" y1="18" y2="18"></line>
  </symbol>

  <symbol id="arrow-up-down" viewBox="0 0 24 24" fill="none" stroke="currentColor" stroke-width="2" stroke-linecap="round" stroke-linejoin="round">
    <path d="m21 16-4 4-4-4" />
    <path d="M17 20V4" />
    <path d="m3 8 4-4 4 4" />
    <path d="M7 4v16" />
  </symbol>

  <symbol id="flip-vertical" viewBox="0 0 24 24" fill="none" stroke="currentColor" stroke-width="2" stroke-linecap="round" stroke-linejoin="round">
    <path d="M21 8V5a2 2 0 0 0-2-2H5a2 2 0 0 0-2 2v3" />
    <path d="M21 16v3a2 2 0 0 1-2 2H5a2 2 0 0 1-2-2v-3" />
    <path d="M4 12H2" />
    <path d="M10 12H8" />
    <path d="M16 12h-2" />
    <path d="M22 12h-2" />
  </symbol>

  <symbol id="arrow-down" viewBox="0 0 24 24" fill="none" stroke="currentColor" stroke-width="2" stroke-linecap="round" stroke-linejoin="round">
    <path d="M12 5v14" />
    <path d="m19 12-7 7-7-7" />
  </symbol>

  <symbol id="database" viewBox="0 0 24 24" fill="none" stroke="currentColor" stroke-width="2" stroke-linecap="round" stroke-linejoin="round">
    <ellipse cx="12" cy="5" rx="9" ry="3" />
    <path d="M3 5V19A9 3 0 0 0 21 19V5" />
    <path d="M3 12A9 3 0 0 0 21 12" />
  </symbol>

  <symbol id="function" viewBox="0 0 640 512">
    <path fill="currentColor" d="M72 88c0-48.6 39.4-88 88-88l40 0c13.3 0 24 10.7 24 24s-10.7 24-24 24l-40 0c-22.1 0-40 17.9-40 40l0 104 48 0c13.3 0 24 10.7 24 24s-10.7 24-24 24l-48 0 0 150.7c0 44.8-33.7 82.5-78.3 87.5l-15.1 1.7c-13.2 1.5-25-8-26.5-21.2s8-25 21.2-26.5l15.1-1.7C56.7 428.2 72 411.1 72 390.7L72 240l-48 0c-13.3 0-24-10.7-24-24s10.7-24 24-24l48 0L72 88zm244.3 76.8C288.4 209.1 272 262.5 272 320s16.4 110.9 44.3 155.2c7.1 11.2 3.7 26-7.5 33.1s-26 3.7-33.1-7.5C243 448.9 224 386.7 224 320s19-128.9 51.7-180.8c7.1-11.2 21.9-14.6 33.1-7.5s14.6 21.9 7.5 33.1zm231.4 0c-7.1-11.2-3.7-26 7.5-33.1s26-3.7 33.1 7.5C621 191.1 640 253.3 640 320s-19 128.9-51.7 180.8c-7.1 11.2-21.9 14.6-33.1 7.5s-14.6-21.9-7.5-33.1C575.6 430.9 592 377.5 592 320s-16.4-110.9-44.3-155.2zM393 247l39 39 39-39c9.4-9.4 24.6-9.4 33.9 0s9.4 24.6 0 33.9l-39 39 39 39c9.4 9.4 9.4 24.6 0 33.9s-24.6 9.4-33.9 0l-39-39-39 39c-9.4 9.4-24.6 9.4-33.9 0s-9.4-24.6 0-33.9l39-39-39-39c-9.4-9.4-9.4-24.6 0-33.9s24.6-9.4 33.9 0z" />
  </symbol>

  <symbol id="dollar" viewBox="0 0 24 24" fill="none" stroke="currentColor" stroke-width="2" stroke-linecap="round" stroke-linejoin="round">
    <circle cx="12" cy="12" r="10" />
    <path d="M16 8h-6a2 2 0 1 0 0 4h4a2 2 0 1 1 0 4H8" />
    <path d="M12 18V6" />
  </symbol>

  <symbol id="mail" viewBox="0 0 24 24" fill="none" stroke="currentColor" stroke-width="2" stroke-linecap="round" stroke-linejoin="round">
    <rect width="20" height="16" x="2" y="4" rx="2" />
    <path d="m22 7-8.97 5.7a1.94 1.94 0 0 1-2.06 0L2 7" />
  </symbol>


  <symbol id="feature-check" viewBox="0 0 16 16" fill="none">
    <g id="Frame" clip-path="url(#clip0_9930_69346)">
      <g id="Group">
        <path id="Vector" d="M8 16C7.86739 16 7.74021 15.9473 7.64645 15.8536C7.55268 15.7598 7.5 15.6326 7.5 15.5C7.5 15.3674 7.55268 15.2402 7.64645 15.1464C7.74021 15.0527 7.86739 15 8 15C9.85652 15 11.637 14.2625 12.9497 12.9497C14.2625 11.637 15 9.85652 15 8C15 6.14348 14.2625 4.36301 12.9497 3.05025C11.637 1.7375 9.85652 1 8 1C7.86739 1 7.74021 0.947322 7.64645 0.853553C7.55268 0.759785 7.5 0.632608 7.5 0.5C7.5 0.367392 7.55268 0.240215 7.64645 0.146447C7.74021 0.0526784 7.86739 0 8 0C10.1217 0 12.1566 0.842855 13.6569 2.34315C15.1571 3.84344 16 5.87827 16 8C16 10.1217 15.1571 12.1566 13.6569 13.6569C12.1566 15.1571 10.1217 16 8 16Z" fill="#0068FF" />
        <path id="Vector_2" d="M0.531 9.12022C0.405278 9.12066 0.284007 9.07371 0.191346 8.98874C0.0986845 8.90377 0.0414342 8.78701 0.031 8.66172C0.015 8.44222 0 8.22172 0 7.99772C0 7.77372 0.015 7.55322 0.033 7.33372C0.0440065 7.20151 0.107083 7.07909 0.208352 6.99339C0.258496 6.95095 0.316507 6.91881 0.379073 6.89879C0.44164 6.87877 0.507536 6.87127 0.573 6.87672C0.638464 6.88217 0.702213 6.90046 0.760609 6.93055C0.819004 6.96064 0.870901 7.00193 0.913338 7.05208C0.955774 7.10222 0.987918 7.16023 1.00794 7.2228C1.02795 7.28536 1.03545 7.35126 1.03 7.41672C1.014 7.60922 1 7.80172 1 7.99772C1 8.19372 1.014 8.38622 1.03 8.57872C1.03548 8.64419 1.028 8.7101 1.008 8.77268C0.987993 8.83526 0.95585 8.89328 0.913409 8.94343C0.870967 8.99358 0.819058 9.03488 0.760648 9.06495C0.702239 9.09503 0.638475 9.1133 0.573 9.11872L0.531 9.12022Z" fill="#0068FF" />
        <path id="Vector_3" d="M4.07464 2.11593C3.96579 2.11602 3.85988 2.08058 3.773 2.01501C3.68612 1.94944 3.62301 1.8573 3.59326 1.7526C3.56351 1.6479 3.56873 1.53634 3.60815 1.43488C3.64756 1.33342 3.71901 1.24759 3.81164 1.19042C4.18846 0.956495 4.58417 0.754459 4.99464 0.586425C5.05568 0.560586 5.12125 0.547144 5.18754 0.546879C5.25383 0.546614 5.31951 0.559533 5.38075 0.584884C5.442 0.610235 5.4976 0.647511 5.54431 0.694545C5.59102 0.741579 5.62791 0.797432 5.65284 0.858854C5.67776 0.920276 5.69023 0.986042 5.68951 1.05233C5.68878 1.11861 5.67489 1.18409 5.64863 1.24495C5.62237 1.30582 5.58427 1.36085 5.53654 1.40686C5.48882 1.45286 5.43242 1.48892 5.37064 1.51292C5.01186 1.66021 4.666 1.83716 4.33664 2.04193C4.25783 2.09035 4.16713 2.11597 4.07464 2.11593Z" fill="#0068FF" />
        <path id="Vector_4" d="M1.31029 5.12146C1.2249 5.12141 1.14095 5.0995 1.06643 5.05781C0.991913 5.01612 0.929314 4.95605 0.884597 4.88331C0.83988 4.81057 0.814536 4.72759 0.810981 4.64228C0.807425 4.55697 0.825776 4.47216 0.864285 4.39596C1.06511 4.00058 1.29823 3.62246 1.56128 3.26546C1.59971 3.21128 1.64854 3.16529 1.70493 3.1302C1.76132 3.0951 1.82414 3.07159 1.88971 3.06104C1.95529 3.05049 2.02231 3.05311 2.08687 3.06874C2.15142 3.08438 2.21221 3.11273 2.26569 3.15212C2.31917 3.19152 2.36426 3.24117 2.39833 3.29818C2.43241 3.3552 2.45478 3.41843 2.46414 3.48419C2.47351 3.54995 2.46968 3.61691 2.45288 3.68117C2.43608 3.74543 2.40664 3.8057 2.36628 3.85846C2.13636 4.17069 1.93251 4.5013 1.75678 4.84696C1.71505 4.92955 1.65122 4.99894 1.57239 5.0474C1.49355 5.09586 1.40282 5.1215 1.31029 5.12146Z" fill="#0068FF" />
        <path id="Vector_5" d="M1.94929 12.9168C1.87061 12.9169 1.79301 12.8984 1.72281 12.8629C1.65261 12.8273 1.59179 12.7757 1.54529 12.7123C1.28324 12.3536 1.05144 11.9738 0.852289 11.5768C0.822741 11.5181 0.805039 11.4542 0.800192 11.3887C0.795345 11.3232 0.803448 11.2573 0.82404 11.195C0.844631 11.1326 0.877307 11.0749 0.920202 11.0251C0.963097 10.9754 1.01537 10.9346 1.07404 10.905C1.13271 10.8755 1.19662 10.8578 1.26213 10.8529C1.32764 10.8481 1.39346 10.8562 1.45584 10.8768C1.51822 10.8974 1.57593 10.93 1.62568 10.9729C1.67543 11.0158 1.71624 11.0681 1.74579 11.1268C1.92033 11.4739 2.12354 11.8059 2.35329 12.1193C2.40849 12.1938 2.44186 12.2823 2.44966 12.3747C2.45746 12.4672 2.43939 12.56 2.39746 12.6427C2.35554 12.7255 2.29141 12.795 2.21226 12.8434C2.13312 12.8917 2.04206 12.9172 1.94929 12.9168Z" fill="#0068FF" />
        <path id="Vector_6" d="M5.17225 15.4427C5.10741 15.4426 5.04319 15.4299 4.98325 15.4052C4.5727 15.2358 4.17685 15.0328 3.79975 14.7982C3.69224 14.7261 3.61686 14.6152 3.58946 14.4887C3.56206 14.3622 3.58478 14.23 3.65284 14.1199C3.7209 14.0098 3.829 13.9304 3.9544 13.8984C4.0798 13.8663 4.21274 13.8842 4.32525 13.9482C4.6557 14.1543 5.00273 14.3326 5.36275 14.4812C5.47011 14.5249 5.55892 14.6046 5.61399 14.7067C5.66906 14.8087 5.68696 14.9267 5.66463 15.0404C5.6423 15.1542 5.58113 15.2567 5.49159 15.3303C5.40204 15.404 5.28969 15.4442 5.17375 15.4442L5.17225 15.4427Z" fill="#0068FF" />
        <path id="Vector_7" d="M6.14638 11.2088L3.79288 8.85533C3.69914 8.76157 3.64648 8.63441 3.64648 8.50183C3.64648 8.36925 3.69914 8.24209 3.79288 8.14833L4.14638 7.79483C4.24014 7.7011 4.3673 7.64844 4.49988 7.64844C4.63246 7.64844 4.75961 7.7011 4.85338 7.79483L6.49988 9.44133L11.1464 4.79483C11.2401 4.7011 11.3673 4.64844 11.4999 4.64844C11.6325 4.64844 11.7596 4.7011 11.8534 4.79483L12.2069 5.14833C12.3006 5.24209 12.3533 5.36925 12.3533 5.50183C12.3533 5.63441 12.3006 5.76157 12.2069 5.85533L6.85338 11.2088C6.75961 11.3026 6.63246 11.3552 6.49988 11.3552C6.3673 11.3552 6.24014 11.3026 6.14638 11.2088Z" fill="#0068FF" />
      </g>
    </g>
    <defs>
      <clipPath id="clip0_9930_69346">
        <rect width="16" height="16" fill="white" />
      </clipPath>
    </defs>
  </symbol>


  <symbol id="circle-xmark" viewBox="0 0 32 32" fill="none">
    <g id="Frame">
      <g id="Group">
        <path id="Vector" d="M21 11L11 21" stroke="currentColor" stroke-opacity="0.9" stroke-width="2" stroke-miterlimit="10" stroke-linecap="square" />
        <path id="Vector_2" d="M21 21L11 11" stroke="currentColor" stroke-opacity="0.9" stroke-width="2" stroke-miterlimit="10" stroke-linecap="square" />
        <path id="Vector_3" d="M16 30C23.732 30 30 23.732 30 16C30 8.26801 23.732 2 16 2C8.26801 2 2 8.26801 2 16C2 23.732 8.26801 30 16 30Z" stroke="currentColor" stroke-opacity="0.9" stroke-width="2" stroke-miterlimit="10" stroke-linecap="square" />
      </g>
    </g>
  </symbol>


  <symbol id="clipboard-copy" viewBox="0 0 20 20" fill="none" xmlns="http://www.w3.org/2000/svg">
    <g id="clipboard-copy">
      <path id="Vector" d="M6.66671 3.33268H5.00004C4.55801 3.33268 4.13409 3.50828 3.82153 3.82084C3.50897 4.1334 3.33337 4.55732 3.33337 4.99935V16.666C3.33337 17.108 3.50897 17.532 3.82153 17.8445C4.13409 18.1571 4.55801 18.3327 5.00004 18.3327H15C15.4421 18.3327 15.866 18.1571 16.1786 17.8445C16.4911 17.532 16.6667 17.108 16.6667 16.666V14.9993M13.3334 3.33268H15C15.4421 3.33268 15.866 3.50828 16.1786 3.82084C16.4911 4.1334 16.6667 4.55732 16.6667 4.99935V8.33268M17.5 11.666H9.16671M9.16671 11.666L12.5 8.33268M9.16671 11.666L12.5 14.9993M7.50004 1.66602H12.5C12.9603 1.66602 13.3334 2.03911 13.3334 2.49935V4.16602C13.3334 4.62625 12.9603 4.99935 12.5 4.99935H7.50004C7.0398 4.99935 6.66671 4.62625 6.66671 4.16602V2.49935C6.66671 2.03911 7.0398 1.66602 7.50004 1.66602Z" stroke="currentColor" stroke-opacity="0.45" stroke-width="2" stroke-linecap="round" stroke-linejoin="round" />
    </g>
  </symbol>


  <symbol id="eye" viewBox="0 0 20 20" fill="none" xmlns="http://www.w3.org/2000/svg">
    <g>
      <g id="Vector">
        <path d="M1.71835 10.2908C1.6489 10.1037 1.6489 9.89788 1.71835 9.71079C2.39476 8.07067 3.54294 6.66832 5.01732 5.68154C6.4917 4.69475 8.22588 4.16797 10 4.16797C11.7741 4.16797 13.5083 4.69475 14.9827 5.68154C16.4571 6.66832 17.6053 8.07067 18.2817 9.71079C18.3511 9.89788 18.3511 10.1037 18.2817 10.2908C17.6053 11.9309 16.4571 13.3333 14.9827 14.32C13.5083 15.3068 11.7741 15.8336 10 15.8336C8.22588 15.8336 6.4917 15.3068 5.01732 14.32C3.54294 13.3333 2.39476 11.9309 1.71835 10.2908Z" stroke="currentColor" stroke-opacity="0.45" stroke-width="2" stroke-linecap="round" stroke-linejoin="round" />
        <path d="M10 12.5007C11.3807 12.5007 12.5 11.3814 12.5 10.0007C12.5 8.61998 11.3807 7.50069 10 7.50069C8.61929 7.50069 7.5 8.61998 7.5 10.0007C7.5 11.3814 8.61929 12.5007 10 12.5007Z" stroke="currentColor" stroke-opacity="0.45" stroke-width="2" stroke-linecap="round" stroke-linejoin="round" />
      </g>
    </g>
  </symbol>
  <symbol id="arrows-minimize" viewBox="0 0 512 512">
    <path d="M23 23c9.4-9.4 24.6-9.4 33.9 0l119 119L176 56c0-13.3 10.7-24 24-24s24 10.7 24 24l0 144c0 13.3-10.7 24-24 24L56 224c-13.3 0-24-10.7-24-24s10.7-24 24-24l86.1 0L23 57c-9.4-9.4-9.4-24.6 0-33.9zM489 23c9.4 9.4 9.4 24.6 0 33.9l-119 119 86.1 0c13.3 0 24 10.7 24 24s-10.7 24-24 24l-144 0c-13.3 0-24-10.7-24-24l0-144c0-13.3 10.7-24 24-24s24 10.7 24 24l0 86.1L455 23c9.4-9.4 24.6-9.4 33.9 0zM56 336c-13.3 0-24-10.7-24-24s10.7-24 24-24l144 0c13.3 0 24 10.7 24 24l0 144c0 13.3-10.7 24-24 24s-24-10.7-24-24l0-86.1L57 489c-9.4 9.4-24.6 9.4-33.9 0s-9.4-24.6 0-33.9l119-119L56 336zm232-24c0-13.3 10.7-24 24-24l144 0c13.3 0 24 10.7 24 24s-10.7 24-24 24l-86.1 0L489 455c9.4 9.4 9.4 24.6 0 33.9s-24.6 9.4-33.9 0l-119-119 0 86.1c0 13.3-10.7 24-24 24s-24-10.7-24-24l0-144z" />
  </symbol>


  <!-- Table column icon -->
  <symbol id="table-column" viewBox="0 0 512 512">
    <path d="M64 32C28.7 32 0 60.7 0 96V416c0 35.3 28.7 64 64 64H448c35.3 0 64-28.7 64-64V96c0-35.3-28.7-64-64-64H64zM184 352c13.3 0 24 10.7 24 24s-10.7 24-24 24H136 104c-13.3 0-24-10.7-24-24s10.7-24 24-24h32 48zm192-64c0 13.3-10.7 24-24 24H328 280c-13.3 0-24-10.7-24-24s10.7-24 24-24h48 48c13.3 0 24 10.7 24 24zM104 256c-13.3 0-24-10.7-24-24s10.7-24 24-24h32 48c13.3 0 24 10.7 24 24s-10.7 24-24 24H136 104zM376 136c13.3 0 24 10.7 24 24s-10.7 24-24 24H328 280c-13.3 0-24-10.7-24-24s10.7-24 24-24h48 48z" />
  </symbol>

  <!-- Group by icon -->
  <symbol id="group-by" viewBox="0 0 640 512">
    <path d="M184 88c0 30.9-25.1 56-56 56s-56-25.1-56-56s25.1-56 56-56s56 25.1 56 56zM64 245.7C54 256.9 48 271.8 48 288s6 31.1 16 42.3V245.7zm144.4-49.3C178.7 222.7 160 261.2 160 304c0 34.3 12 65.8 32 90.5V416c0 17.7-14.3 32-32 32H96c-17.7 0-32-14.3-32-32V389.2C26.2 363.4 0 324.8 0 280V234.4c0-8.5 3.4-16.6 9.4-22.6L32 189.4V176c0-20.1 15.8-36.5 35.7-37.5c4.7-7.3 9.9-14.2 15.8-20.6l-11.3-11.3c-6.2-6.2-6.2-16.4 0-22.6s16.4-6.2 22.6 0l112 112c6.2 6.2 6.2 16.4 0 22.6s-16.4 6.2-22.6 0L72.9 107.3c-9.9 9.7-17.6 21.3-22.3 34.3C40.5 144.6 32 155.4 32 168v18.7l-19.2 19.2c-1.6 1.6-2.5 3.8-2.4 6.1l0 .1 0 .1c.3 9.4 4.2 18.3 10.8 24.9L32 247.8V280c0 35.3 28.7 64 64 64c5.5 0 10.9-.7 16-2V401.6c-5.2 .9-10.5 1.4-16 1.4c-9.3 0-18.2-1.5-26.5-4.3c-2.1 10-10.8 17.3-21.5 17.3c-12.1 0-21.9-9.8-21.9-21.9L26.1 372.2c0-1.3 .1-2.6 .4-3.9C14.6 344.7 8 324.2 8 302.5V288H0c0-15.1 5.1-29 13.6-40.1C6.4 235.8 2.2 221.8 3 208c1.3-22.1 11.6-42.3 28-56.8c.1-.1 .5-.3 .6-.4c18.3-14.6 41.4-23.5 66.8-24.5c.4 0 .8-.1 1.2-.1c3.5-.3 7.1-.4 10.8-.1c.3 0 .6 .1 .9 .1c4.1 .3 8.1 .9 12.1 1.8c5.9-8.3 14.8-14 24.9-15.2c.7-.1 1.3-.2 2-.2c.5 0 1-.1 1.5-.1c1.2-.1 2.3-.1 3.5-.1H380.8c1.1 0 2.3 0 3.4 .1c.6 0 1.1 .1 1.7 .1c.6 0 1.2 .1 1.8 .2c10.2 1.2 19.1 6.8 25 15.2c4-.9 8-1.5 12.1-1.8c.3 0 .6-.1 .9-.1c3.7-.3 7.4-.2 11 .1c.2 0 .5 0 .7 .1c25.8 .9 49.2 9.9 67.8 24.7c16.5 14.5 26.9 34.7 28.2 56.8c.8 13.9-3.5 27.9-11.5 40C531.9 258.1 537 273 537 288h-8c0 21.7-6.6 42.2-17.9 59.6c.2 1.3 .4 2.6 .4 3.9v21.9c0 12.1-9.8 21.9-21.9 21.9c-10.7 0-19.5-7.3-21.5-17.3c-8.3 2.8-17.2 4.3-26.5 4.3c-5.5 0-10.8-.5-16-1.4V342c5.1 1.3 10.5 2 16 2c35.3 0 64-28.7 64-64V247.8l10.8-10.8c6.6-6.6 10.5-15.5 10.8-24.9l0-.1 0-.1c.1-2.3-.8-4.5-2.4-6.1L505.9 186.6l0-18.7c0-12.6-8.5-23.4-18.6-26.5c-4.7-13-12.4-24.6-22.3-34.3L353.7 218.4c-6.2 6.2-16.4 6.2-22.6 0s-6.2-16.4 0-22.6l112-112c6.2-6.2 16.4-6.2 22.6 0s6.2 16.4 0 22.6L454.4 117.7c5.9 6.4 11.1 13.3 15.8 20.6c19.9 1 35.7 17.4 35.7 37.5v13.4l22.6 22.6c6 6 9.4 14.1 9.4 22.6V280c0 44.8-26.2 83.4-64 109.2V416c0 17.7-14.3 32-32 32H320c-17.7 0-32-14.3-32-32l0-21.5c20-24.7 32-56.2 32-90.5c0-42.8-18.7-81.3-48.4-107.7C279.8 159 284 144 293.9 134.1l0 0c1-1 2.1-2 3.2-2.8c11.3-9.1 27.5-8.9 38.7 .3l.3 .3 17 17-5.5 5.5c-6.2 6.2-6.2 16.4 0 22.6s16.4 6.2 22.6 0l112-112c6.2-6.2 6.2-16.4 0-22.6s-16.4-6.2-22.6 0l-4.7 4.7-17-17-.3-.3c-17.9-17.9-44.1-23.4-67.1-13.9c-7.1-6.9-16.7-10.9-27.1-10.9H180.6c-10.4 0-20 4-27.1 10.9c-23-9.5-49.2-4-67.1 13.9l-.3 .3-17 17-4.7-4.7c-6.2-6.2-16.4-6.2-22.6 0s-6.2 16.4 0 22.6l112 112c6.2 6.2 16.4 6.2 22.6 0s6.2-16.4 0-22.6l-5.5-5.5 17-17 .3-.3c11.2-9.1 27.5-9.3 38.7-.3c1.1 .9 2.2 1.8 3.2 2.8l0 0c9.9 9.9 14.1 25 3.3 42.2zM336 88c0-30.9 25.1-56 56-56s56 25.1 56 56s-25.1 56-56 56s-56-25.1-56-56zM488 245.7v84.7c10-11.3 16-26.1 16-42.3s-6-31.1-16-42.3zM128 304c0-8.8 7.2-16 16-16h96c8.8 0 16 7.2 16 16s-7.2 16-16 16H144c-8.8 0-16-7.2-16-16zm336-16h96c8.8 0 16 7.2 16 16s-7.2 16-16 16H464c-8.8 0-16-7.2-16-16s7.2-16 16-16zM250.3 43.7c6.2 6.2 6.2 16.4 0 22.6L200 116.7V208c0 8.8-7.2 16-16 16s-16-7.2-16-16V108.7c0-4.2 1.7-8.3 4.7-11.3l56-56c6.2-6.2 16.4-6.2 22.6 0zm162.7 65.1l56 56c3 3 4.7 7.1 4.7 11.3V208c0 8.8-7.2 16-16 16s-16-7.2-16-16V116.7l-50.3-50.3c-6.2-6.2-6.2-16.4 0-22.6s16.4-6.2 22.6 0z" />
  </symbol>

  <!-- Filter icon enhanced -->
  <symbol id="filter-enhanced" viewBox="0 0 512 512">
    <path d="M3.9 54.9C10.5 40.9 24.5 32 40 32H472c15.5 0 29.5 8.9 36.1 22.9s4.6 30.5-5.2 42.5L320 320.9V448c0 12.1-6.8 23.2-17.7 28.6s-23.8 4.3-33.5-3l-64-48c-8.1-6-12.8-15.5-12.8-25.6V320.9L9 97.3C-.7 85.4-2.8 68.8 3.9 54.9zM40 64l0 0L205.8 297.3c2.5 3.1 3.9 7 3.9 11l.2 100.1 64 48 .2-148.1c0-4 1.4-7.9 3.9-11L472 64H40z" />
  </symbol>

  <!-- Equal/Match icon -->
  <symbol id="equals" viewBox="0 0 448 512">
    <path d="M48 128c-17.7 0-32 14.3-32 32s14.3 32 32 32H400c17.7 0 32-14.3 32-32s-14.3-32-32-32H48zm0 192c-17.7 0-32 14.3-32 32s14.3 32 32 32H400c17.7 0 32-14.3 32-32s-14.3-32-32-32H48z" />
  </symbol>

  <!-- Not equal icon -->
  <symbol id="not-equal" viewBox="0 0 448 512">
    <path d="M219.3 171.3L41 249.8c-16.7 7.3-25.3 25.9-18 42.6s25.9 25.3 42.6 18L232 238.4V288H120c-13.3 0-24 10.7-24 24s10.7 24 24 24H232v33.6L65.6 443.4c-16.7 7.3-25.3 25.9-18 42.6s25.9 25.3 42.6 18l178.3-78.4L444.4 504c15.9 8.9 35.9 3.2 44.7-12.8s3.2-35.9-12.8-44.7L320 393.6V336H432c13.3 0 24-10.7 24-24s-10.7-24-24-24H320V233.6l156.4-87c15.9-8.9 21.6-28.9 12.8-44.7s-28.9-21.6-44.7-12.8L268.7 171.3 90.4 93.4C74.5 84.5 54.5 90.2 45.6 106.1s-3.2 35.9 12.8 44.7L219.3 171.3zM320 233.6V288v48v57.6l-88-48.9-88 38.7V336 288 238.4l88-38.7 88 33.9z" />
  </symbol>

  <!-- Tree hierarchy shapes -->
  <symbol id="tree-angle" viewBox="0 0 32 32">
    <path d="M16 0 L16 16 L32 16" stroke="currentColor" stroke-width="2" fill="none" />
  </symbol>

  <symbol id="tree-straight" viewBox="0 0 32 32">
    <path d="M16 0 L16 32" stroke="currentColor" stroke-width="2" fill="none" />
  </symbol>

  <symbol id="tree-tee" viewBox="0 0 32 32">
    <path d="M16 0 L16 32 M16 16 L32 16" stroke="currentColor" stroke-width="2" fill="none" />
  </symbol>

  <symbol id="tree-corner" viewBox="0 0 32 32">
    <path d="M0 16 L32 16" stroke="currentColor" stroke-width="2" fill="none" />
  </symbol>

  <!-- Missing icons for anomaly list -->
  <symbol id="exclamation-triangle" viewBox="0 0 512 512">
    <!--!Font Awesome Free 6.5.2 by @fontawesome - https://fontawesome.com License - https://fontawesome.com/license/free Copyright 2024 Fonticons, Inc.-->
    <path d="M248.4 84.3c1.6-2.7 4.5-4.3 7.6-4.3s6 1.6 7.6 4.3L461.9 410c1.4 2.3 2.1 4.9 2.1 7.5c0 8-6.5 14.5-14.5 14.5H62.5c-8 0-14.5-6.5-14.5-14.5c0-2.7 .7-5.3 2.1-7.5L248.4 84.3zm-41-25L9.1 385c-6 9.8-9.1 21-9.1 32.5C0 443.9 21.6 465.5 48 465.5H464c26.4 0 48-21.6 48-48c0-11.5-3.1-22.7-9.1-32.5L304.6 59.3C294.3 42.4 275.9 32 256 32s-38.3 10.4-48.6 27.3zM288 368a32 32 0 1 0 -64 0 32 32 0 1 0 64 0zm-8-184c0-13.3-10.7-24-24-24s-24 10.7-24 24v96c0 13.3 10.7 24 24 24s24-10.7 24-24V184z" />
  </symbol>

  <symbol id="exclamation-circle" viewBox="0 0 512 512">
    <!--!Font Awesome Free 6.5.2 by @fontawesome - https://fontawesome.com License - https://fontawesome.com/license/free Copyright 2024 Fonticons, Inc.-->
    <path d="M256 48a208 208 0 1 1 0 416 208 208 0 1 1 0-416zm0 464A256 256 0 1 0 256 0a256 256 0 1 0 0 512zm0-384c-13.3 0-24 10.7-24 24V264c0 13.3 10.7 24 24 24s24-10.7 24-24V152c0-13.3-10.7-24-24-24zM224 352a32 32 0 1 0 64 0 32 32 0 1 0 -64 0z" />
  </symbol>

  <symbol id="circle-x" viewBox="0 0 512 512">
    <!--!Font Awesome Free 6.5.2 by @fontawesome - https://fontawesome.com License - https://fontawesome.com/license/free Copyright 2024 Fonticons, Inc.-->
    <path d="M256 48a208 208 0 1 1 0 416 208 208 0 1 1 0-416zm0 464A256 256 0 1 0 256 0a256 256 0 1 0 0 512zM175 175c-9.4 9.4-9.4 24.6 0 33.9l47 47-47 47c-9.4 9.4-9.4 24.6 0 33.9s24.6 9.4 33.9 0l47-47 47 47c9.4 9.4 24.6 9.4 33.9 0s9.4-24.6 0-33.9l-47-47 47-47c9.4-9.4 9.4-24.6 0-33.9s-24.6-9.4-33.9 0l-47 47-47-47c-9.4-9.4-24.6-9.4-33.9 0z" />
  </symbol>

  <symbol id="code" viewBox="0 175 640 330">
    <!--!Font Awesome Free 6.5.2 by @fontawesome - https://fontawesome.com License - https://fontawesome.com/license/free Copyright 2024 Fonticons, Inc.-->
    <path d="M228.9 182.6c-9.3-9.7-24.5-10-34.2-.7L41 319c-12.1 11.8-12.1 31.3 0 43L194.7 499c9.7 9.3 24.9 9 34.2-.7s9-24.9-.7-34.2L95 337l133.1-127.1c9.7-9.3 10-24.5 .7-34.2zM445.3 181.9c-9.7-9.3-24.9-9-34.2 .7s-10 24.5-.7 34.2L545 337 411.1 464.1c-9.7 9.3-10 24.5-.7 34.2s24.5 10 34.2 .7L599 362c12.1-11.8 12.1-31.3 0-43L445.3 181.9z" />
  </symbol>

  <symbol id="triangle-alert" viewBox="0 0 512 512">
    <!--!Font Awesome Free 6.5.2 by @fontawesome - https://fontawesome.com License - https://fontawesome.com/license/free Copyright 2024 Fonticons, Inc.-->
    <path d="M248.4 84.3c1.6-2.7 4.5-4.3 7.6-4.3s6 1.6 7.6 4.3L461.9 410c1.4 2.3 2.1 4.9 2.1 7.5c0 8-6.5 14.5-14.5 14.5H62.5c-8 0-14.5-6.5-14.5-14.5c0-2.7 .7-5.3 2.1-7.5L248.4 84.3zm-41-25L9.1 385c-6 9.8-9.1 21-9.1 32.5C0 452 28 480 62.5 480h387c34.5 0 62.5-28 62.5-62.5c0-11.5-3.2-22.7-9.1-32.5L304.6 59.3C294.3 42.4 275.9 32 256 32s-38.3 10.4-48.6 27.3zM288 368a32 32 0 1 0 -64 0 32 32 0 1 0 64 0zm-8-184c0-13.3-10.7-24-24-24s-24 10.7-24 24v96c0 13.3 10.7 24 24 24s24-10.7 24-24V184z" />
  </symbol>

  <symbol id="zap" viewBox="0 0 448 512">
    <!--!Font Awesome Free 6.5.2 by @fontawesome - https://fontawesome.com License - https://fontawesome.com/license/free Copyright 2024 Fonticons, Inc.-->
    <path d="M349.4 44.6c5.9-13.7 1.5-29.7-10.6-38.5s-28.6-8-39.9 1.8l-256 224c-10 8.8-13.6 22.9-8.9 35.3S50.7 288 64 288H175.5L98.6 467.4c-5.9 13.7-1.5 29.7 10.6 38.5s28.6 8 39.9-1.8l256-224c10-8.8 13.6-22.9 8.9-35.3s-16.6-20.7-30-20.7H272.5L349.4 44.6z" />
  </symbol>

  <symbol id="circle-alert" viewBox="0 0 512 512">
    <!--!Font Awesome Free 6.5.2 by @fontawesome - https://fontawesome.com License - https://fontawesome.com/license/free Copyright 2024 Fonticons, Inc.-->
    <path d="M256 512A256 256 0 1 0 256 0a256 256 0 1 0 0 512zm0-384c13.3 0 24 10.7 24 24V264c0 13.3-10.7 24-24 24s-24-10.7-24-24V152c0-13.3 10.7-24 24-24zM224 352a32 32 0 1 1 64 0 32 32 0 1 1 -64 0z" />
  </symbol>

  <symbol id="info" viewBox="0 0 192 512">
    <!--!Font Awesome Free 6.5.2 by @fontawesome - https://fontawesome.com License - https://fontawesome.com/license/free Copyright 2024 Fonticons, Inc.-->
    <path d="M48 80a48 48 0 1 1 96 0A48 48 0 1 1 48 80zM0 224c0-17.7 14.3-32 32-32H96c17.7 0 32 14.3 32 32V448h32c17.7 0 32 14.3 32 32s-14.3 32-32 32H32c-17.7 0-32-14.3-32-32s14.3-32 32-32H64V256H32c-17.7 0-32-14.3-32-32z" />
  </symbol>

  <symbol id="eye" viewBox="0 0 576 512">
    <!--!Font Awesome Free 6.5.2 by @fontawesome - https://fontawesome.com License - https://fontawesome.com/license/free Copyright 2024 Fonticons, Inc.-->
    <path d="M288 80c-65.2 0-118.8 29.6-159.9 67.7C89.6 183.5 63 226 49.4 256c13.6 30 40.2 72.5 78.6 108.3C169.2 402.4 222.8 432 288 432s118.8-29.6 159.9-67.7C486.4 328.5 513 286 526.6 256c-13.6-30-40.2-72.5-78.6-108.3C406.8 109.6 353.2 80 288 80zM95.4 112.6C142.5 68.8 207.2 32 288 32s145.5 36.8 192.6 80.6c46.8 43.5 78.1 95.4 93 131.1c3.3 7.9 3.3 16.7 0 24.6c-14.9 35.7-46.2 87.7-93 131.1C433.5 443.2 368.8 480 288 480s-145.5-36.8-192.6-80.6C48.6 356 17.3 304 2.5 268.3c-3.3-7.9-3.3-16.7 0-24.6C17.3 208 48.6 156 95.4 112.6zM288 336c44.2 0 80-35.8 80-80s-35.8-80-80-80c-.7 0-1.3 0-2 0c1.3 5.1 2 10.5 2 16c0 35.3-28.7 64-64 64c-5.5 0-10.9-.7-16-2c0 .7 0 1.3 0 2c0 44.2 35.8 80 80 80zm0-208a128 128 0 1 1 0 256 128 128 0 1 1 0-256z" />
  </symbol>

  <symbol id="chevron-right" viewBox="0 0 320 512">
    <!--!Font Awesome Free 6.5.2 by @fontawesome - https://fontawesome.com License - https://fontawesome.com/license/free Copyright 2024 Fonticons, Inc.-->
    <path d="M310.6 233.4c12.5 12.5 12.5 32.8 0 45.3l-192 192c-12.5 12.5-32.8 12.5-45.3 0s-12.5-32.8 0-45.3L242.7 256 73.4 86.6c-12.5-12.5-12.5-32.8 0-45.3s32.8-12.5 45.3 0l192 192z" />
  </symbol>

  <symbol id="flask" viewBox="0 0 448 512">
    <!--!Font Awesome Free 6.5.2 by @fontawesome - https://fontawesome.com License - https://fontawesome.com/license/free Copyright 2024 Fonticons, Inc.-->
    <path d="M320 0V128c0 3.6 1.2 7 3.3 9.8l81 106.8c7.1 9.4 1.8 22.8-9 23.4L154.7 320l238.9-315.2c3.8-5-.3-11.8-6.7-11.8H320zM192 0c-6.3 0-10.5 6.8-6.7 11.8L424.3 327.1 448 384c19.9 46.4-10.8 96-62.1 96H62.1C10.8 480-19.9 430.4 0 384l152-304V0H192zM95.2 192L53.1 276c-6 12.1-.9 26.5 10.7 32.8c3.4 1.8 7.2 2.9 11.1 3.1l238.9-63.8L117.4 320H62.1c-17.2 0-27.9 18.2-19.6 34.1L68 416H380l25.5-61.9c8.3-15.9-2.4-34.1-19.6-34.1H330.6L95.2 192z" />
  </symbol>
</svg>
