<?xml version="1.0" encoding="UTF-8"?>
<svg xmlns="http://www.w3.org/2000/svg" style="display: none;">
<symbol id="gear" viewBox="0 0 512 512">
<path d="M328 0l14.6 66.8c11.9 5.5 23.3 12 33.8 19.6l65.2-20.8 72 124.7-50.6 46.1c.6 6.4 .9 12.9 .9 19.5s-.3 13.1-.9 19.5l50.6 46.1-72 124.7-65.2-20.8c-10.6 7.5-21.9 14.1-33.8 19.6L328 512H184l-14.6-66.8c-11.9-5.5-23.3-12-33.8-19.6L70.3 446.4l-72-124.7 50.6-46.1c-.6-6.4-.9-12.9-.9-19.5s.3-13.1 .9-19.5L-1.7 190.4l72-124.7 65.2 20.8c10.6-7.5 21.9-14.1 33.8-19.6L184 0H328zm63 132.2l-22.9 7.3-19.5-13.9c-8.2-5.8-16.9-10.9-26-15.1l-21.8-10-5.1-23.4L289.4 48H222.6l-6.4 29.1-5.1 23.4-21.8 10c-9.2 4.2-17.9 9.3-26 15.1l-19.5 13.9L121 132.2l-28.4-9L59.2 180.9l22 20.1 17.7 16.1-2.2 23.8c-.5 5-.7 10-.7 15.1s.2 10.1 .7 15.1l2.2 23.8L81.2 311l-22 20.1 33.4 57.8 28.4-9 22.9-7.3 19.5 13.9c8.2 5.8 16.9 10.9 26 15.1l21.8 10 5.1 23.4 6.4 29.1h66.7l6.4-29.1 5.1-23.4 21.8-10c9.2-4.2 17.9-9.3 26-15.1l19.5-13.9 22.9 7.3 28.4 9 33.4-57.8L430.8 311l-17.7-16.1 2.2-23.8c.5-5 .7-10 .7-15.1s-.2-10.1-.7-15.1l-2.2-23.8L430.8 201l22.1-20.1-33.4-57.8-28.4 9zM304 256a48 48 0 1 0 -96 0 48 48 0 1 0 96 0zm-144 0a96 96 0 1 1 192 0 96 96 0 1 1 -192 0z"/>
</symbol>
<symbol id="user-plus" viewBox="0 0 640 512">
<path d="M304 128a80 80 0 1 0 -160 0 80 80 0 1 0 160 0zM65 464H383L348.5 352H99.5L65 464zM384 304l49.2 160L448 512H397.8 50.2 0l14.8-48L64 304H224 384zM224 0a128 128 0 1 1 0 256A128 128 0 1 1 224 0zM504 336V312 248H440 416V200h24 64V136 112h48v24 64h64 24v48H616 552v64 24H504z"/>
</symbol>
<symbol id="octagon-exclamation" viewBox="0 0 512 512">
<path d="M48 332.1V179.9L179.9 48H332.1L464 179.9V332.1L332.1 464H179.9L48 332.1zM160 0L0 160V352L160 512H352L512 352V160L352 0H160zM280 128H232v24V264v24h48V264 152 128zM232 320v48h48V320H232z"/>
</symbol>
<symbol id="file-lines" viewBox="0 0 384 512">
<path d="M48 464V48H224V160H336V464H48zM256 0H48 0V48 464v48H48 336h48V464 128L256 0zM120 256H96v48h24H264h24V256H264 120zm0 96H96v48h24H264h24V352H264 120z"/>
</symbol>
<symbol id="link-simple" viewBox="0 0 576 512">
<path d="M0 256C0 167.6 71.6 96 160 96h72 24v48H232 160C98.1 144 48 194.1 48 256s50.1 112 112 112h72 24v48H232 160C71.6 416 0 344.4 0 256zm576 0c0 88.4-71.6 160-160 160H344 320V368h24 72c61.9 0 112-50.1 112-112s-50.1-112-112-112H344 320V96h24 72c88.4 0 160 71.6 160 160zM184 232H392h24v48H392 184 160V232h24z"/>
</symbol>
<symbol id="ellipsis-vertical" viewBox="0 0 128 512">
<path d="M24 56h80v80H24V56zm0 160h80v80H24V216zm80 160v80H24V376h80z"/>
</symbol>
<symbol id="folders" viewBox="0 0 576 512">
<path d="M304 32H144 96V80 336v48h48H528h48V336 144 96H528 368L304 32zm64 112H528V336H144V80H284.1l49.9 49.9L348.1 144H368zM48 120V96H0v24V456v24H24 456h24V432H456 48V120z"/>
</symbol>
<symbol id="square-dashed" viewBox="0 0 448 512">
<path d="M24 32H128V80H48v80H0V56 32H24zM0 192H48V320H0V192zm400 0h48V320H400V192zm48-32H400V80H320V32H424h24V56 160zm0 192V456v24H424 320V432h80V352h48zM48 352v80h80v48H24 0V456 352H48zM288 480H160V432H288v48zM160 80V32H288V80H160z"/>
</symbol>
<symbol id="spinner" viewBox="0 0 512 512">
<path d="M288 0V64H224V0h64zm81.1 414.4l45.3-45.3 45.3 45.3-45.3 45.3-45.3-45.3zM224 448h64v64H224V448zM52.4 97.6L97.6 52.4l45.3 45.3L97.6 142.9 52.4 97.6zM64 224v64H0V224H64zM52.4 414.4l45.3-45.3 45.3 45.3L97.6 459.6 52.4 414.4zM512 224v64H448V224h64z"/>
</symbol>
<symbol id="sparkles" viewBox="0 0 512 512">
<path d="M384 64L320 96l64 32 32 64 32-64 64-32L448 64 416 0 384 64zM256 320l74.3-37.2L384 256l-53.7-26.8L256 192l-37.2-74.3L192 64l-26.8 53.7L128 192 53.7 229.2 0 256l53.7 26.8L128 320l37.2 74.3L192 448l26.8-53.7L256 320zm-64 20.7l-21.1-42.1-7.2-14.3-14.3-7.2L107.3 256l42.1-21.1 14.3-7.2 7.2-14.3L192 171.3l21.1 42.1 7.2 14.3 14.3 7.2L276.7 256l-42.1 21.1-14.3 7.2-7.2 14.3L192 340.7zM416 320l-32 64-64 32 64 32 32 64 32-64 64-32-64-32-32-64z"/>
</symbol>
<symbol id="inbox-full" viewBox="0 0 512 512">
<path d="M48 432V336h81.2l25.4 50.7 6.6 13.3H176 336h14.8l6.6-13.3L382.8 336H464v96H48zM402.5 80l52 208H368 353.2l-6.6 13.3L321.2 352H190.8l-25.4-50.7L158.8 288H144 57.5l52-208h293zM0 320V432v48H48 464h48V432 320L440 32H72L0 320zM184 128H160v48h24H328h24V128H328 184zm-32 80H128v48h24H360h24V208H360 152z"/>
</symbol>
<symbol id="circle-check" viewBox="0 0 512 512">
<path d="M256 48a208 208 0 1 1 0 416 208 208 0 1 1 0-416zm0 464A256 256 0 1 0 256 0a256 256 0 1 0 0 512zM369 209l17-17L352 158.1l-17 17-111 111-47-47-17-17L126.1 256l17 17 64 64 17 17 17-17L369 209z"/>
</symbol>
<symbol id="plus" viewBox="0 0 448 512">
<path d="M248 72V48H200V72 232H40 16v48H40 200V440v24h48V440 280H408h24V232H408 248V72z"/>
</symbol>
</svg>