<?xml version="1.0" encoding="UTF-8"?>
<svg xmlns="http://www.w3.org/2000/svg" style="display: none;">
<symbol id="link" viewBox="0 0 640 512">
<path d="M579.8 267.7c56.5-56.5 56.5-148 0-204.5c-50-50-128.8-56.5-186.3-15.4l-1.6 1.1c-14.4 10.3-17.7 30.3-7.4 44.6s30.3 17.7 44.6 7.4l1.6-1.1c32.1-22.9 76-19.3 103.8 8.6c31.5 31.5 31.5 82.5 0 114L422.3 334.8c-31.5 31.5-82.5 31.5-114 0c-27.9-27.9-31.5-71.8-8.6-103.8l1.1-1.6c10.3-14.4 6.9-34.4-7.4-44.6s-34.4-6.9-44.6 7.4l-1.1 1.6C206.5 251.2 213 330 263 380c56.5 56.5 148 56.5 204.5 0L579.8 267.7zM60.2 244.3c-56.5 56.5-56.5 148 0 204.5c50 50 128.8 56.5 186.3 15.4l1.6-1.1c14.4-10.3 17.7-30.3 7.4-44.6s-30.3-17.7-44.6-7.4l-1.6 1.1c-32.1 22.9-76 19.3-103.8-8.6C74 372 74 321 105.5 289.5L217.7 177.2c31.5-31.5 82.5-31.5 114 0c27.9 27.9 31.5 71.8 8.6 103.9l-1.1 1.6c-10.3 14.4-6.9 34.4 7.4 44.6s34.4 6.9 44.6-7.4l1.1-1.6C433.5 260.8 427 182 377 132c-56.5-56.5-148-56.5-204.5 0L60.2 244.3z"/>
</symbol>
<symbol id="chevron-right" viewBox="0 0 320 512">
<path d="M310.6 233.4c12.5 12.5 12.5 32.8 0 45.3l-192 192c-12.5 12.5-32.8 12.5-45.3 0s-12.5-32.8 0-45.3L242.7 256 73.4 86.6c-12.5-12.5-12.5-32.8 0-45.3s32.8-12.5 45.3 0l192 192z"/>
</symbol>
<symbol id="floppy-disk" viewBox="0 0 448 512">
<path d="M64 32C28.7 32 0 60.7 0 96V416c0 35.3 28.7 64 64 64H384c35.3 0 64-28.7 64-64V173.3c0-17-6.7-33.3-18.7-45.3L352 50.7C340 38.7 323.7 32 306.7 32H64zm0 96c0-17.7 14.3-32 32-32H288c17.7 0 32 14.3 32 32v64c0 17.7-14.3 32-32 32H96c-17.7 0-32-14.3-32-32V128zM224 288a64 64 0 1 1 0 128 64 64 0 1 1 0-128z"/>
</symbol>
<symbol id="caret-up" viewBox="0 0 320 512">
<path d="M182.6 137.4c-12.5-12.5-32.8-12.5-45.3 0l-128 128c-9.2 9.2-11.9 22.9-6.9 34.9s16.6 19.8 29.6 19.8H288c12.9 0 24.6-7.8 29.6-19.8s2.2-25.7-6.9-34.9l-128-128z"/>
</symbol>
<symbol id="inbox-full" viewBox="0 0 512 512">
<path d="M58.9 80.5C66 52 91.6 32 121 32H391c29.4 0 55 20 62.1 48.5l57 227.9c1.3 5.1 1.9 10.3 1.9 15.5V416c0 35.3-28.7 64-64 64H64c-35.3 0-64-28.7-64-64V323.9c0-5.2 .6-10.4 1.9-15.5l57-227.9zM391 96H121L73 288h51.2c12.1 0 23.2 6.8 28.6 17.7l14.3 28.6c5.4 10.8 16.5 17.7 28.6 17.7H316.2c12.1 0 23.2-6.8 28.6-17.7l14.3-28.6c5.4-10.8 16.5-17.7 28.6-17.7H439L391 96zM176 144H336c8.8 0 16 7.2 16 16s-7.2 16-16 16H176c-8.8 0-16-7.2-16-16s7.2-16 16-16zm-32 80H368c8.8 0 16 7.2 16 16s-7.2 16-16 16H144c-8.8 0-16-7.2-16-16s7.2-16 16-16z"/>
</symbol>
<symbol id="play" viewBox="0 0 384 512">
<path d="M73 39c-14.8-9.1-33.4-9.4-48.5-.9S0 62.6 0 80V432c0 17.4 9.4 33.4 24.5 41.9s33.7 8.1 48.5-.9L361 297c14.3-8.7 23-24.2 23-41s-8.7-32.2-23-41L73 39z"/>
</symbol>
<symbol id="arrow-up-arrow-down" viewBox="0 0 576 512">
<path d="M182.6 41.4c-12.5-12.5-32.8-12.5-45.3 0l-96 96c-12.5 12.5-12.5 32.8 0 45.3s32.8 12.5 45.3 0L128 141.3V448c0 17.7 14.3 32 32 32s32-14.3 32-32V141.3l41.4 41.4c12.5 12.5 32.8 12.5 45.3 0s12.5-32.8 0-45.3l-96-96zm352 333.3c12.5-12.5 12.5-32.8 0-45.3s-32.8-12.5-45.3 0L448 370.7V64c0-17.7-14.3-32-32-32s-32 14.3-32 32V370.7l-41.4-41.4c-12.5-12.5-32.8-12.5-45.3 0s-12.5 32.8 0 45.3l96 96c12.5 12.5 32.8 12.5 45.3 0l96-96z"/>
</symbol>
<symbol id="inbox-in" viewBox="0 0 512 512">
<path d="M288 32V210.7l41.4-41.4c12.5-12.5 32.8-12.5 45.3 0s12.5 32.8 0 45.3l-96 96c-12.5 12.5-32.8 12.5-45.3 0l-96-96c-12.5-12.5-12.5-32.8 0-45.3s32.8-12.5 45.3 0L224 210.7V32c0-17.7 14.3-32 32-32s32 14.3 32 32zM48 320h76.2c12.1 0 23.2 6.8 28.6 17.7l14.3 28.6c5.4 10.8 16.5 17.7 28.6 17.7H316.2c12.1 0 23.2-6.8 28.6-17.7l14.3-28.6c5.4-10.8 16.5-17.7 28.6-17.7H464c26.5 0 48 21.5 48 48v96c0 26.5-21.5 48-48 48H48c-26.5 0-48-21.5-48-48V368c0-26.5 21.5-48 48-48z"/>
</symbol>
<symbol id="inbox" viewBox="0 0 512 512">
<path d="M121 32C91.6 32 66 52 58.9 80.5L1.9 308.4C.6 313.5 0 318.7 0 323.9V416c0 35.3 28.7 64 64 64H448c35.3 0 64-28.7 64-64V323.9c0-5.2-.6-10.4-1.9-15.5l-57-227.9C446 52 420.4 32 391 32H121zm0 64H391l48 192H387.8c-12.1 0-23.2 6.8-28.6 17.7l-14.3 28.6c-5.4 10.8-16.5 17.7-28.6 17.7H195.8c-12.1 0-23.2-6.8-28.6-17.7l-14.3-28.6c-5.4-10.8-16.5-17.7-28.6-17.7H73L121 96z"/>
</symbol>
<symbol id="caret-down" viewBox="0 0 320 512">
<path d="M137.4 374.6c12.5 12.5 32.8 12.5 45.3 0l128-128c9.2-9.2 11.9-22.9 6.9-34.9s-16.6-19.8-29.6-19.8L32 192c-12.9 0-24.6 7.8-29.6 19.8s-2.2 25.7 6.9 34.9l128 128z"/>
</symbol>
<symbol id="copy" viewBox="0 0 448 512">
<path d="M384 336H192c-8.8 0-16-7.2-16-16V64c0-8.8 7.2-16 16-16l140.1 0L400 115.9V320c0 8.8-7.2 16-16 16zM192 384H384c35.3 0 64-28.7 64-64V115.9c0-12.7-5.1-24.9-14.1-33.9L366.1 14.1c-9-9-21.2-14.1-33.9-14.1H192c-35.3 0-64 28.7-64 64V320c0 35.3 28.7 64 64 64zM64 128c-35.3 0-64 28.7-64 64V448c0 35.3 28.7 64 64 64H256c35.3 0 64-28.7 64-64V416H272v32c0 8.8-7.2 16-16 16H64c-8.8 0-16-7.2-16-16V192c0-8.8 7.2-16 16-16H96V128H64z"/>
</symbol>
<symbol id="empty-set" viewBox="0 0 512 512">
<path d="M435.4 121.9l67.2-67.2c12.5-12.5 12.5-32.8 0-45.3s-32.8-12.5-45.3 0L390.2 76.6C352.8 48.6 306.3 32 256 32C132.3 32 32 132.3 32 256c0 50.3 16.6 96.8 44.6 134.2L9.4 457.4c-12.5 12.5-12.5 32.8 0 45.3s32.8 12.5 45.3 0l67.2-67.2c37.4 28 83.8 44.6 134.1 44.6c123.7 0 224-100.3 224-224c0-50.3-16.6-96.8-44.6-134.1zm-91.2 .7L122.5 344.2C105.8 318.9 96 288.6 96 256c0-88.4 71.6-160 160-160c32.6 0 62.9 9.8 88.2 26.5zm-176.5 267L389.5 167.8C406.2 193.1 416 223.4 416 256c0 88.4-71.6 160-160 160c-32.6 0-62.9-9.8-88.2-26.5z"/>
</symbol>
<symbol id="arrow-down-left" viewBox="0 0 384 512">
<path d="M32 384c0 17.7 14.3 32 32 32l224 0c17.7 0 32-14.3 32-32s-14.3-32-32-32l-146.7 0L342.6 150.6c12.5-12.5 12.5-32.8 0-45.3s-32.8-12.5-45.3 0L96 306.7 96 160c0-17.7-14.3-32-32-32s-32 14.3-32 32l0 224z"/>
</symbol>
<symbol id="arrow-up-right" viewBox="0 0 384 512">
<path d="M352 128c0-17.7-14.3-32-32-32L96 96c-17.7 0-32 14.3-32 32s14.3 32 32 32l146.7 0L41.4 361.4c-12.5 12.5-12.5 32.8 0 45.3s32.8 12.5 45.3 0L288 205.3 288 352c0 17.7 14.3 32 32 32s32-14.3 32-32l0-224z"/>
</symbol>
<symbol id="circle-check" viewBox="0 0 512 512">
<path d="M256 48a208 208 0 1 1 0 416 208 208 0 1 1 0-416zm0 464A256 256 0 1 0 256 0a256 256 0 1 0 0 512zM369 209c9.4-9.4 9.4-24.6 0-33.9s-24.6-9.4-33.9 0l-111 111-47-47c-9.4-9.4-24.6-9.4-33.9 0s-9.4 24.6 0 33.9l64 64c9.4 9.4 24.6 9.4 33.9 0L369 209z"/>
</symbol>
<symbol id="objects-column" viewBox="0 0 448 512"><!--!Font Awesome Pro 6.5.2 by @fontawesome - https://fontawesome.com License - https://fontawesome.com/license (Commercial License) Copyright 2024 Fonticons, Inc.--><path d="M48 32C21.5 32 0 53.5 0 80V240c0 26.5 21.5 48 48 48h96c26.5 0 48-21.5 48-48V80c0-26.5-21.5-48-48-48H48zM304 224c-26.5 0-48 21.5-48 48V432c0 26.5 21.5 48 48 48h96c26.5 0 48-21.5 48-48V272c0-26.5-21.5-48-48-48H304zM0 400v32c0 26.5 21.5 48 48 48h96c26.5 0 48-21.5 48-48V400c0-26.5-21.5-48-48-48H48c-26.5 0-48 21.5-48 48zM304 32c-26.5 0-48 21.5-48 48v32c0 26.5 21.5 48 48 48h96c26.5 0 48-21.5 48-48V80c0-26.5-21.5-48-48-48H304z"/>
</symbol>
<symbol id="xmark" viewBox="0 0 384 512"><!--!Font Awesome Free 6.5.2 by @fontawesome - https://fontawesome.com License - https://fontawesome.com/license/free Copyright 2024 Fonticons, Inc.--><path d="M342.6 150.6c12.5-12.5 12.5-32.8 0-45.3s-32.8-12.5-45.3 0L192 210.7 86.6 105.4c-12.5-12.5-32.8-12.5-45.3 0s-12.5 32.8 0 45.3L146.7 256 41.4 361.4c-12.5 12.5-12.5 32.8 0 45.3s32.8 12.5 45.3 0L192 301.3 297.4 406.6c12.5 12.5 32.8 12.5 45.3 0s12.5-32.8 0-45.3L237.3 256 342.6 150.6z"/>
</symbol>
<symbol id="plus" viewBox="0 0 448 512"><!--!Font Awesome Free 6.5.2 by @fontawesome - https://fontawesome.com License - https://fontawesome.com/license/free Copyright 2024 Fonticons, Inc.--><path d="M256 80c0-17.7-14.3-32-32-32s-32 14.3-32 32V224H48c-17.7 0-32 14.3-32 32s14.3 32 32 32H192V432c0 17.7 14.3 32 32 32s32-14.3 32-32V288H400c17.7 0 32-14.3 32-32s-14.3-32-32-32H256V80z"/></symbol>
<symbol id="grip-dots-vertical" viewBox="0 0 256 512"><!--!Font Awesome Pro 6.5.2 by @fontawesome - https://fontawesome.com License - https://fontawesome.com/license (Commercial License) Copyright 2024 Fonticons, Inc.--><path d="M48 144a48 48 0 1 0 0-96 48 48 0 1 0 0 96zm0 160a48 48 0 1 0 0-96 48 48 0 1 0 0 96zM96 416A48 48 0 1 0 0 416a48 48 0 1 0 96 0zM208 144a48 48 0 1 0 0-96 48 48 0 1 0 0 96zm48 112a48 48 0 1 0 -96 0 48 48 0 1 0 96 0zM208 464a48 48 0 1 0 0-96 48 48 0 1 0 0 96z"/></symbol>
</svg>
