<?xml version="1.0" encoding="UTF-8"?>
<svg xmlns="http://www.w3.org/2000/svg" style="display: none;">
  <symbol id="link" viewBox="0 0 640 512">
    <path
      d="M579.8 267.7c56.5-56.5 56.5-148 0-204.5c-50-50-128.8-56.5-186.3-15.4l-1.6 1.1c-14.4 10.3-17.7 30.3-7.4 44.6s30.3 17.7 44.6 7.4l1.6-1.1c32.1-22.9 76-19.3 103.8 8.6c31.5 31.5 31.5 82.5 0 114L422.3 334.8c-31.5 31.5-82.5 31.5-114 0c-27.9-27.9-31.5-71.8-8.6-103.8l1.1-1.6c10.3-14.4 6.9-34.4-7.4-44.6s-34.4-6.9-44.6 7.4l-1.1 1.6C206.5 251.2 213 330 263 380c56.5 56.5 148 56.5 204.5 0L579.8 267.7zM60.2 244.3c-56.5 56.5-56.5 148 0 204.5c50 50 128.8 56.5 186.3 15.4l1.6-1.1c14.4-10.3 17.7-30.3 7.4-44.6s-30.3-17.7-44.6-7.4l-1.6 1.1c-32.1 22.9-76 19.3-103.8-8.6C74 372 74 321 105.5 289.5L217.7 177.2c31.5-31.5 82.5-31.5 114 0c27.9 27.9 31.5 71.8 8.6 103.9l-1.1 1.6c-10.3 14.4-6.9 34.4 7.4 44.6s34.4 6.9 44.6-7.4l1.1-1.6C433.5 260.8 427 182 377 132c-56.5-56.5-148-56.5-204.5 0L60.2 244.3z" />
  </symbol>
  <symbol id="chevron-right" viewBox="0 0 320 512">
    <path
      d="M310.6 233.4c12.5 12.5 12.5 32.8 0 45.3l-192 192c-12.5 12.5-32.8 12.5-45.3 0s-12.5-32.8 0-45.3L242.7 256 73.4 86.6c-12.5-12.5-12.5-32.8 0-45.3s32.8-12.5 45.3 0l192 192z" />
  </symbol>

  <symbol id="f-chevron-right" viewBox="0 0 8 13" fill="none">
    <path
      d="M1.12875 1.17917L7.32 6.12042C7.88625 6.58917 7.88625 7.31167 7.32 7.76105L1.12875 12.7023C0.5425 13.171 0.09375 12.9367 0.09375 12.2142L0.0937495 1.6673C0.0937495 0.924797 0.543125 0.710422 1.12875 1.17917Z"
      fill="currentColor" />

  </symbol>
  <symbol id="floppy-disk" viewBox="0 0 448 512">
    <path
      d="M64 32C28.7 32 0 60.7 0 96V416c0 35.3 28.7 64 64 64H384c35.3 0 64-28.7 64-64V173.3c0-17-6.7-33.3-18.7-45.3L352 50.7C340 38.7 323.7 32 306.7 32H64zm0 96c0-17.7 14.3-32 32-32H288c17.7 0 32 14.3 32 32v64c0 17.7-14.3 32-32 32H96c-17.7 0-32-14.3-32-32V128zM224 288a64 64 0 1 1 0 128 64 64 0 1 1 0-128z" />
  </symbol>
  <symbol id="caret-up" viewBox="0 0 320 512">
    <path
      d="M182.6 137.4c-12.5-12.5-32.8-12.5-45.3 0l-128 128c-9.2 9.2-11.9 22.9-6.9 34.9s16.6 19.8 29.6 19.8H288c12.9 0 24.6-7.8 29.6-19.8s2.2-25.7-6.9-34.9l-128-128z" />
  </symbol>
  <symbol id="inbox-full" viewBox="0 0 512 512">
    <path
      d="M58.9 80.5C66 52 91.6 32 121 32H391c29.4 0 55 20 62.1 48.5l57 227.9c1.3 5.1 1.9 10.3 1.9 15.5V416c0 35.3-28.7 64-64 64H64c-35.3 0-64-28.7-64-64V323.9c0-5.2 .6-10.4 1.9-15.5l57-227.9zM391 96H121L73 288h51.2c12.1 0 23.2 6.8 28.6 17.7l14.3 28.6c5.4 10.8 16.5 17.7 28.6 17.7H316.2c12.1 0 23.2-6.8 28.6-17.7l14.3-28.6c5.4-10.8 16.5-17.7 28.6-17.7H439L391 96zM176 144H336c8.8 0 16 7.2 16 16s-7.2 16-16 16H176c-8.8 0-16-7.2-16-16s7.2-16 16-16zm-32 80H368c8.8 0 16 7.2 16 16s-7.2 16-16 16H144c-8.8 0-16-7.2-16-16s7.2-16 16-16z" />
  </symbol>
  <symbol id="play" viewBox="0 0 384 512">
    <path
      d="M73 39c-14.8-9.1-33.4-9.4-48.5-.9S0 62.6 0 80V432c0 17.4 9.4 33.4 24.5 41.9s33.7 8.1 48.5-.9L361 297c14.3-8.7 23-24.2 23-41s-8.7-32.2-23-41L73 39z" />
  </symbol>
  <symbol id="arrow-up-arrow-down" viewBox="0 0 576 512">
    <path
      d="M182.6 41.4c-12.5-12.5-32.8-12.5-45.3 0l-96 96c-12.5 12.5-12.5 32.8 0 45.3s32.8 12.5 45.3 0L128 141.3V448c0 17.7 14.3 32 32 32s32-14.3 32-32V141.3l41.4 41.4c12.5 12.5 32.8 12.5 45.3 0s12.5-32.8 0-45.3l-96-96zm352 333.3c12.5-12.5 12.5-32.8 0-45.3s-32.8-12.5-45.3 0L448 370.7V64c0-17.7-14.3-32-32-32s-32 14.3-32 32V370.7l-41.4-41.4c-12.5-12.5-32.8-12.5-45.3 0s-12.5 32.8 0 45.3l96 96c12.5 12.5 32.8 12.5 45.3 0l96-96z" />
  </symbol>
  <symbol id="inbox-in" viewBox="0 0 512 512">
    <path
      d="M288 32V210.7l41.4-41.4c12.5-12.5 32.8-12.5 45.3 0s12.5 32.8 0 45.3l-96 96c-12.5 12.5-32.8 12.5-45.3 0l-96-96c-12.5-12.5-12.5-32.8 0-45.3s32.8-12.5 45.3 0L224 210.7V32c0-17.7 14.3-32 32-32s32 14.3 32 32zM48 320h76.2c12.1 0 23.2 6.8 28.6 17.7l14.3 28.6c5.4 10.8 16.5 17.7 28.6 17.7H316.2c12.1 0 23.2-6.8 28.6-17.7l14.3-28.6c5.4-10.8 16.5-17.7 28.6-17.7H464c26.5 0 48 21.5 48 48v96c0 26.5-21.5 48-48 48H48c-26.5 0-48-21.5-48-48V368c0-26.5 21.5-48 48-48z" />
  </symbol>
  <symbol id="inbox" viewBox="0 0 512 512">
    <path
      d="M121 32C91.6 32 66 52 58.9 80.5L1.9 308.4C.6 313.5 0 318.7 0 323.9V416c0 35.3 28.7 64 64 64H448c35.3 0 64-28.7 64-64V323.9c0-5.2-.6-10.4-1.9-15.5l-57-227.9C446 52 420.4 32 391 32H121zm0 64H391l48 192H387.8c-12.1 0-23.2 6.8-28.6 17.7l-14.3 28.6c-5.4 10.8-16.5 17.7-28.6 17.7H195.8c-12.1 0-23.2-6.8-28.6-17.7l-14.3-28.6c-5.4-10.8-16.5-17.7-28.6-17.7H73L121 96z" />
  </symbol>
  <symbol id="caret-down" viewBox="0 0 320 512">
    <path
      d="M137.4 374.6c12.5 12.5 32.8 12.5 45.3 0l128-128c9.2-9.2 11.9-22.9 6.9-34.9s-16.6-19.8-29.6-19.8L32 192c-12.9 0-24.6 7.8-29.6 19.8s-2.2 25.7 6.9 34.9l128 128z" />
  </symbol>
  <symbol id="copy" viewBox="0 0 448 512">
    <path
      d="M384 336H192c-8.8 0-16-7.2-16-16V64c0-8.8 7.2-16 16-16l140.1 0L400 115.9V320c0 8.8-7.2 16-16 16zM192 384H384c35.3 0 64-28.7 64-64V115.9c0-12.7-5.1-24.9-14.1-33.9L366.1 14.1c-9-9-21.2-14.1-33.9-14.1H192c-35.3 0-64 28.7-64 64V320c0 35.3 28.7 64 64 64zM64 128c-35.3 0-64 28.7-64 64V448c0 35.3 28.7 64 64 64H256c35.3 0 64-28.7 64-64V416H272v32c0 8.8-7.2 16-16 16H64c-8.8 0-16-7.2-16-16V192c0-8.8 7.2-16 16-16H96V128H64z" />
  </symbol>
  <symbol id="empty-set" viewBox="0 0 512 512">
    <path
      d="M435.4 121.9l67.2-67.2c12.5-12.5 12.5-32.8 0-45.3s-32.8-12.5-45.3 0L390.2 76.6C352.8 48.6 306.3 32 256 32C132.3 32 32 132.3 32 256c0 50.3 16.6 96.8 44.6 134.2L9.4 457.4c-12.5 12.5-12.5 32.8 0 45.3s32.8 12.5 45.3 0l67.2-67.2c37.4 28 83.8 44.6 134.1 44.6c123.7 0 224-100.3 224-224c0-50.3-16.6-96.8-44.6-134.1zm-91.2 .7L122.5 344.2C105.8 318.9 96 288.6 96 256c0-88.4 71.6-160 160-160c32.6 0 62.9 9.8 88.2 26.5zm-176.5 267L389.5 167.8C406.2 193.1 416 223.4 416 256c0 88.4-71.6 160-160 160c-32.6 0-62.9-9.8-88.2-26.5z" />
  </symbol>
  <symbol id="arrow-down-left" viewBox="0 0 384 512">
    <path
      d="M32 384c0 17.7 14.3 32 32 32l224 0c17.7 0 32-14.3 32-32s-14.3-32-32-32l-146.7 0L342.6 150.6c12.5-12.5 12.5-32.8 0-45.3s-32.8-12.5-45.3 0L96 306.7 96 160c0-17.7-14.3-32-32-32s-32 14.3-32 32l0 224z" />
  </symbol>
  <symbol id="arrow-up-right" viewBox="0 0 384 512">
    <path
      d="M352 128c0-17.7-14.3-32-32-32L96 96c-17.7 0-32 14.3-32 32s14.3 32 32 32l146.7 0L41.4 361.4c-12.5 12.5-12.5 32.8 0 45.3s32.8 12.5 45.3 0L288 205.3 288 352c0 17.7 14.3 32 32 32s32-14.3 32-32l0-224z" />
  </symbol>
  <symbol id="circle-check" viewBox="0 0 512 512">
    <path
      d="M256 48a208 208 0 1 1 0 416 208 208 0 1 1 0-416zm0 464A256 256 0 1 0 256 0a256 256 0 1 0 0 512zM369 209c9.4-9.4 9.4-24.6 0-33.9s-24.6-9.4-33.9 0l-111 111-47-47c-9.4-9.4-24.6-9.4-33.9 0s-9.4 24.6 0 33.9l64 64c9.4 9.4 24.6 9.4 33.9 0L369 209z" />
  </symbol>
  <symbol id="objects-column" viewBox="0 0 448 512"><!--!Font
    Awesome Pro 6.5.2 by @fontawesome - https://fontawesome.com License -
    https://fontawesome.com/license (Commercial License) Copyright 2024 Fonticons, Inc.-->
    <path
      d="M48 32C21.5 32 0 53.5 0 80V240c0 26.5 21.5 48 48 48h96c26.5 0 48-21.5 48-48V80c0-26.5-21.5-48-48-48H48zM304 224c-26.5 0-48 21.5-48 48V432c0 26.5 21.5 48 48 48h96c26.5 0 48-21.5 48-48V272c0-26.5-21.5-48-48-48H304zM0 400v32c0 26.5 21.5 48 48 48h96c26.5 0 48-21.5 48-48V400c0-26.5-21.5-48-48-48H48c-26.5 0-48 21.5-48 48zM304 32c-26.5 0-48 21.5-48 48v32c0 26.5 21.5 48 48 48h96c26.5 0 48-21.5 48-48V80c0-26.5-21.5-48-48-48H304z" />
  </symbol>
  <symbol id="xmark" viewBox="0 0 384 512"><!--!Font
    Awesome Free 6.5.2 by @fontawesome - https://fontawesome.com License -
    https://fontawesome.com/license/free Copyright 2024 Fonticons, Inc.-->
    <path
      d="M342.6 150.6c12.5-12.5 12.5-32.8 0-45.3s-32.8-12.5-45.3 0L192 210.7 86.6 105.4c-12.5-12.5-32.8-12.5-45.3 0s-12.5 32.8 0 45.3L146.7 256 41.4 361.4c-12.5 12.5-12.5 32.8 0 45.3s32.8 12.5 45.3 0L192 301.3 297.4 406.6c12.5 12.5 32.8 12.5 45.3 0s12.5-32.8 0-45.3L237.3 256 342.6 150.6z" />
  </symbol>
  <symbol id="plus" viewBox="0 0 448 512"><!--!Font
    Awesome Free 6.5.2 by @fontawesome - https://fontawesome.com License -
    https://fontawesome.com/license/free Copyright 2024 Fonticons, Inc.-->
    <path
      d="M256 80c0-17.7-14.3-32-32-32s-32 14.3-32 32V224H48c-17.7 0-32 14.3-32 32s14.3 32 32 32H192V432c0 17.7 14.3 32 32 32s32-14.3 32-32V288H400c17.7 0 32-14.3 32-32s-14.3-32-32-32H256V80z" />
  </symbol>
  <symbol id="grip-dots-vertical" viewBox="0 0 256 512"><!--!Font
    Awesome Pro 6.5.2 by @fontawesome - https://fontawesome.com License -
    https://fontawesome.com/license (Commercial License) Copyright 2024 Fonticons, Inc.-->
    <path
      d="M48 144a48 48 0 1 0 0-96 48 48 0 1 0 0 96zm0 160a48 48 0 1 0 0-96 48 48 0 1 0 0 96zM96 416A48 48 0 1 0 0 416a48 48 0 1 0 96 0zM208 144a48 48 0 1 0 0-96 48 48 0 1 0 0 96zm48 112a48 48 0 1 0 -96 0 48 48 0 1 0 96 0zM208 464a48 48 0 1 0 0-96 48 48 0 1 0 0 96z" />
  </symbol>
  <symbol id="icon-checkmark4" viewBox="0 0 16 16">
    <path
      d="M15.36 1c-5.227 3.956-10.239 9.247-10.239 9.247l-3.612-3.247-1.509 1.537c1.485 1.395 4.924 5.081 6.088 6.463 3.275-5.472 6.679-9.552 9.912-13.284l-0.64-0.716z" />
  </symbol>
  <symbol id="check" viewBox="0 0 448 512">
    <path
      d="M438.6 105.4c12.5 12.5 12.5 32.8 0 45.3l-256 256c-12.5 12.5-32.8 12.5-45.3 0l-128-128c-12.5-12.5-12.5-32.8 0-45.3s32.8-12.5 45.3 0L160 338.7 393.4 105.4c12.5-12.5 32.8-12.5 45.3 0z" />
  </symbol>
  <symbol id="sort" viewBox="0 0 320 512">
    <path
      d="M137.4 41.4c12.5-12.5 32.8-12.5 45.3 0l128 128c9.2 9.2 11.9 22.9 6.9 34.9s-16.6 19.8-29.6 19.8H32c-12.9 0-24.6-7.8-29.6-19.8s-2.2-25.7 6.9-34.9l128-128zm0 429.3l-128-128c-9.2-9.2-11.9-22.9-6.9-34.9s16.6-19.8 29.6-19.8H288c12.9 0 24.6 7.8 29.6 19.8s2.2 25.7-6.9 34.9l-128 128c-12.5 12.5-32.8 12.5-45.3 0z" />
  </symbol>
  <symbol id="upload" viewBox="0 0 512 512">
    <path
      d="M288 109.3V352c0 17.7-14.3 32-32 32s-32-14.3-32-32V109.3l-73.4 73.4c-12.5 12.5-32.8 12.5-45.3 0s-12.5-32.8 0-45.3l128-128c12.5-12.5 32.8-12.5 45.3 0l128 128c12.5 12.5 12.5 32.8 0 45.3s-32.8 12.5-45.3 0L288 109.3zM64 352H192c0 35.3 28.7 64 64 64s64-28.7 64-64H448c35.3 0 64 28.7 64 64v32c0 35.3-28.7 64-64 64H64c-35.3 0-64-28.7-64-64V416c0-35.3 28.7-64 64-64zM432 456a24 24 0 1 0 0-48 24 24 0 1 0 0 48z" />
  </symbol>
  <symbol id="download" viewBox="0 0 512 512">
    <path
      d="M288 32c0-17.7-14.3-32-32-32s-32 14.3-32 32V274.7l-73.4-73.4c-12.5-12.5-32.8-12.5-45.3 0s-12.5 32.8 0 45.3l128 128c12.5 12.5 32.8 12.5 45.3 0l128-128c12.5-12.5 12.5-32.8 0-45.3s-32.8-12.5-45.3 0L288 274.7V32zM64 352c-35.3 0-64 28.7-64 64v32c0 35.3 28.7 64 64 64H448c35.3 0 64-28.7 64-64V416c0-35.3-28.7-64-64-64H346.5l-45.3 45.3c-25 25-65.5 25-90.5 0L165.5 352H64zm368 56a24 24 0 1 1 0 48 24 24 0 1 1 0-48z" />
  </symbol>
  <symbol viewBox="0 0 576 512" id="layer-group">
    <path
      d="M264.5 5.2c14.9-6.9 32.1-6.9 47 0l218.6 101c8.5 3.9 13.9 12.4 13.9 21.8s-5.4 17.9-13.9 21.8l-218.6 101c-14.9 6.9-32.1 6.9-47 0L45.9 149.8C37.4 145.8 32 137.3 32 128s5.4-17.9 13.9-21.8L264.5 5.2zM476.9 209.6l53.2 24.6c8.5 3.9 13.9 12.4 13.9 21.8s-5.4 17.9-13.9 21.8l-218.6 101c-14.9 6.9-32.1 6.9-47 0L45.9 277.8C37.4 273.8 32 265.3 32 256s5.4-17.9 13.9-21.8l53.2-24.6 152 70.2c23.4 10.8 50.4 10.8 73.8 0l152-70.2zm-152 198.2l152-70.2 53.2 24.6c8.5 3.9 13.9 12.4 13.9 21.8s-5.4 17.9-13.9 21.8l-218.6 101c-14.9 6.9-32.1 6.9-47 0L45.9 405.8C37.4 401.8 32 393.3 32 384s5.4-17.9 13.9-21.8l53.2-24.6 152 70.2c23.4 10.8 50.4 10.8 73.8 0z" />
  </symbol>
  <symbol viewBox="0 0 320 512" id="pause">
    <path
      d="M48 64C21.5 64 0 85.5 0 112L0 400c0 26.5 21.5 48 48 48l32 0c26.5 0 48-21.5 48-48l0-288c0-26.5-21.5-48-48-48L48 64zm192 0c-26.5 0-48 21.5-48 48l0 288c0 26.5 21.5 48 48 48l32 0c26.5 0 48-21.5 48-48l0-288c0-26.5-21.5-48-48-48l-32 0z" />
  </symbol>
  <symbol viewBox="0 0 448 512" id="user">
    <path
      d="M224 256A128 128 0 1 0 224 0a128 128 0 1 0 0 256zm-45.7 48C79.8 304 0 383.8 0 482.3C0 498.7 13.3 512 29.7 512l388.6 0c16.4 0 29.7-13.3 29.7-29.7C448 383.8 368.2 304 269.7 304l-91.4 0z" />
  </symbol>
  <symbol viewBox="0 0 640 512" id="users">
    <path
      d="M144 0a80 80 0 1 1 0 160A80 80 0 1 1 144 0zM512 0a80 80 0 1 1 0 160A80 80 0 1 1 512 0zM0 298.7C0 239.8 47.8 192 106.7 192l42.7 0c15.9 0 31 3.5 44.6 9.7c-1.3 7.2-1.9 14.7-1.9 22.3c0 38.2 16.8 72.5 43.3 96c-.2 0-.4 0-.7 0L21.3 320C9.6 320 0 310.4 0 298.7zM405.3 320c-.2 0-.4 0-.7 0c26.6-23.5 43.3-57.8 43.3-96c0-7.6-.7-15-1.9-22.3c13.6-6.3 28.7-9.7 44.6-9.7l42.7 0C592.2 192 640 239.8 640 298.7c0 11.8-9.6 21.3-21.3 21.3l-213.3 0zM224 224a96 96 0 1 1 192 0 96 96 0 1 1 -192 0zM128 485.3C128 411.7 187.7 352 261.3 352l117.3 0C452.3 352 512 411.7 512 485.3c0 14.7-11.9 26.7-26.7 26.7l-330.7 0c-14.7 0-26.7-11.9-26.7-26.7z" />
  </symbol>
  <symbol viewBox="0 0 576 512" id="star">
    <path
      d="M316.9 18C311.6 7 300.4 0 288.1 0s-23.4 7-28.8 18L195 150.3 51.4 171.5c-12 1.8-22 10.2-25.7 21.7s-.7 24.2 7.9 32.7L137.8 329 113.2 474.7c-2 12 3 24.2 12.9 31.3s23 8 33.8 2.3l128.3-68.5 128.3 68.5c10.8 5.7 23.9 4.9 33.8-2.3s14.9-19.3 12.9-31.3L438.5 329 542.7 225.9c8.6-8.5 11.7-21.2 7.9-32.7s-13.7-19.9-25.7-21.7L381.2 150.3 316.9 18z" />
  </symbol>
  <symbol id="envelope" viewBox="0 0 512 512">
    <path
      d="M48 64C21.5 64 0 85.5 0 112c0 15.1 7.1 29.3 19.2 38.4L236.8 313.6c11.4 8.5 27 8.5 38.4 0L492.8 150.4c12.1-9.1 19.2-23.3 19.2-38.4c0-26.5-21.5-48-48-48L48 64zM0 176L0 384c0 35.3 28.7 64 64 64l384 0c35.3 0 64-28.7 64-64l0-208L294.4 339.2c-22.8 17.1-54 17.1-76.8 0L0 176z" />
  </symbol>

  <symbol id="discord" viewBox="0 0 640 512">
    <path
      d="M524.5 69.8a1.5 1.5 0 0 0 -.8-.7A485.1 485.1 0 0 0 404.1 32a1.8 1.8 0 0 0 -1.9 .9 337.5 337.5 0 0 0 -14.9 30.6 447.8 447.8 0 0 0 -134.4 0 309.5 309.5 0 0 0 -15.1-30.6 1.9 1.9 0 0 0 -1.9-.9A483.7 483.7 0 0 0 116.1 69.1a1.7 1.7 0 0 0 -.8 .7C39.1 183.7 18.2 294.7 28.4 404.4a2 2 0 0 0 .8 1.4A487.7 487.7 0 0 0 176 479.9a1.9 1.9 0 0 0 2.1-.7A348.2 348.2 0 0 0 208.1 430.4a1.9 1.9 0 0 0 -1-2.6 321.2 321.2 0 0 1 -45.9-21.9 1.9 1.9 0 0 1 -.2-3.1c3.1-2.3 6.2-4.7 9.1-7.1a1.8 1.8 0 0 1 1.9-.3c96.2 43.9 200.4 43.9 295.5 0a1.8 1.8 0 0 1 1.9 .2c2.9 2.4 6 4.9 9.1 7.2a1.9 1.9 0 0 1 -.2 3.1 301.4 301.4 0 0 1 -45.9 21.8 1.9 1.9 0 0 0 -1 2.6 391.1 391.1 0 0 0 30 48.8 1.9 1.9 0 0 0 2.1 .7A486 486 0 0 0 610.7 405.7a1.9 1.9 0 0 0 .8-1.4C623.7 277.6 590.9 167.5 524.5 69.8zM222.5 337.6c-29 0-52.8-26.6-52.8-59.2S193.1 219.1 222.5 219.1c29.7 0 53.3 26.8 52.8 59.2C275.3 311 251.9 337.6 222.5 337.6zm195.4 0c-29 0-52.8-26.6-52.8-59.2S388.4 219.1 417.9 219.1c29.7 0 53.3 26.8 52.8 59.2C470.7 311 447.5 337.6 417.9 337.6z" />
  </symbol>

  <symbol id="slack" viewBox="0 0 448 512">
    <path
      d="M94.1 315.1c0 25.9-21.2 47.1-47.1 47.1S0 341 0 315.1c0-25.9 21.2-47.1 47.1-47.1h47.1v47.1zm23.7 0c0-25.9 21.2-47.1 47.1-47.1s47.1 21.2 47.1 47.1v117.8c0 25.9-21.2 47.1-47.1 47.1s-47.1-21.2-47.1-47.1V315.1zm47.1-189c-25.9 0-47.1-21.2-47.1-47.1S139 32 164.9 32s47.1 21.2 47.1 47.1v47.1H164.9zm0 23.7c25.9 0 47.1 21.2 47.1 47.1s-21.2 47.1-47.1 47.1H47.1C21.2 244 0 222.8 0 196.9s21.2-47.1 47.1-47.1H164.9zm189 47.1c0-25.9 21.2-47.1 47.1-47.1 25.9 0 47.1 21.2 47.1 47.1s-21.2 47.1-47.1 47.1h-47.1V196.9zm-23.7 0c0 25.9-21.2 47.1-47.1 47.1-25.9 0-47.1-21.2-47.1-47.1V79.1c0-25.9 21.2-47.1 47.1-47.1 25.9 0 47.1 21.2 47.1 47.1V196.9zM283.1 385.9c25.9 0 47.1 21.2 47.1 47.1 0 25.9-21.2 47.1-47.1 47.1-25.9 0-47.1-21.2-47.1-47.1v-47.1h47.1zm0-23.7c-25.9 0-47.1-21.2-47.1-47.1 0-25.9 21.2-47.1 47.1-47.1h117.8c25.9 0 47.1 21.2 47.1 47.1 0 25.9-21.2 47.1-47.1 47.1H283.1z" />
  </symbol>

  <symbol id="whatsapp" viewBox="0 0 175.216 175.552">
    <defs>
      <linearGradient id="b" x1="85.915" x2="86.535" y1="32.567" y2="137.092"
        gradientUnits="userSpaceOnUse">
        <stop offset="0" stop-color="#57d163" />
        <stop offset="1" stop-color="#23b33a" />
      </linearGradient>
      <filter id="a" width="1.115" height="1.114" x="-.057" y="-.057"
        color-interpolation-filters="sRGB">
        <feGaussianBlur stdDeviation="3.531" />
      </filter>
    </defs>
    <path fill="#b3b3b3"
      d="m54.532 138.45 2.235 1.324c9.387 5.571 20.15 8.518 31.126 8.523h.023c33.707 0 61.139-27.426 61.153-61.135.006-16.335-6.349-31.696-17.895-43.251A60.75 60.75 0 0 0 87.94 25.983c-33.733 0-61.166 27.423-61.178 61.13a60.98 60.98 0 0 0 9.349 32.535l1.455 2.312-6.179 22.558zm-40.811 23.544L24.16 123.88c-6.438-11.154-9.825-23.808-9.821-36.772.017-40.556 33.021-73.55 73.578-73.55 19.681.01 38.154 7.669 52.047 21.572s21.537 32.383 21.53 52.037c-.018 40.553-33.027 73.553-73.578 73.553h-.032c-12.313-.005-24.412-3.094-35.159-8.954zm0 0"
      filter="url(#a)" />
    <path fill="#fff"
      d="m12.966 161.238 10.439-38.114a73.42 73.42 0 0 1-9.821-36.772c.017-40.556 33.021-73.55 73.578-73.55 19.681.01 38.154 7.669 52.047 21.572s21.537 32.383 21.53 52.037c-.018 40.553-33.027 73.553-73.578 73.553h-.032c-12.313-.005-24.412-3.094-35.159-8.954z" />
    <path fill="url(#linearGradient1780)"
      d="M87.184 25.227c-33.733 0-61.166 27.423-61.178 61.13a60.98 60.98 0 0 0 9.349 32.535l1.455 2.312-6.179 22.559 23.146-6.069 2.235 1.324c9.387 5.571 20.15 8.518 31.126 8.524h.023c33.707 0 61.14-27.426 61.153-61.135a60.75 60.75 0 0 0-17.895-43.251 60.75 60.75 0 0 0-43.235-17.929z" />
    <path fill="url(#b)"
      d="M87.184 25.227c-33.733 0-61.166 27.423-61.178 61.13a60.98 60.98 0 0 0 9.349 32.535l1.455 2.313-6.179 22.558 23.146-6.069 2.235 1.324c9.387 5.571 20.15 8.517 31.126 8.523h.023c33.707 0 61.14-27.426 61.153-61.135a60.75 60.75 0 0 0-17.895-43.251 60.75 60.75 0 0 0-43.235-17.928z" />
    <path fill="#fff" fill-rule="evenodd"
      d="M68.772 55.603c-1.378-3.061-2.828-3.123-4.137-3.176l-3.524-.043c-1.226 0-3.218.46-4.902 2.3s-6.435 6.287-6.435 15.332 6.588 17.785 7.506 19.013 12.718 20.381 31.405 27.75c15.529 6.124 18.689 4.906 22.061 4.6s10.877-4.447 12.408-8.74 1.532-7.971 1.073-8.74-1.685-1.226-3.525-2.146-10.877-5.367-12.562-5.981-2.91-.919-4.137.921-4.746 5.979-5.819 7.206-2.144 1.381-3.984.462-7.76-2.861-14.784-9.124c-5.465-4.873-9.154-10.891-10.228-12.73s-.114-2.835.808-3.751c.825-.824 1.838-2.147 2.759-3.22s1.224-1.84 1.836-3.065.307-2.301-.153-3.22-4.032-10.011-5.666-13.647" />
  </symbol>
  <symbol viewBox="0 0 640 640" id="github">
    <path d="M237.9 461.4C237.9 463.4 235.6 465 232.7 465C229.4 465.3 227.1 463.7 227.1 461.4C227.1 459.4 229.4 457.8 232.3 457.8C235.3 457.5 237.9 459.1 237.9 461.4zM206.8 456.9C206.1 458.9 208.1 461.2 211.1 461.8C213.7 462.8 216.7 461.8 217.3 459.8C217.9 457.8 216 455.5 213 454.6C210.4 453.9 207.5 454.9 206.8 456.9zM251 455.2C248.1 455.9 246.1 457.8 246.4 460.1C246.7 462.1 249.3 463.4 252.3 462.7C255.2 462 257.2 460.1 256.9 458.1C256.6 456.2 253.9 454.9 251 455.2zM316.8 72C178.1 72 72 177.3 72 316C72 426.9 141.8 521.8 241.5 555.2C254.3 557.5 258.8 549.6 258.8 543.1C258.8 536.9 258.5 502.7 258.5 481.7C258.5 481.7 188.5 496.7 173.8 451.9C173.8 451.9 162.4 422.8 146 415.3C146 415.3 123.1 399.6 147.6 399.9C147.6 399.9 172.5 401.9 186.2 425.7C208.1 464.3 244.8 453.2 259.1 446.6C261.4 430.6 267.9 419.5 275.1 412.9C219.2 406.7 162.8 398.6 162.8 302.4C162.8 274.9 170.4 261.1 186.4 243.5C183.8 237 175.3 210.2 189 175.6C209.9 169.1 258 202.6 258 202.6C278 197 299.5 194.1 320.8 194.1C342.1 194.1 363.6 197 383.6 202.6C383.6 202.6 431.7 169 452.6 175.6C466.3 210.3 457.8 237 455.2 243.5C471.2 261.2 481 275 481 302.4C481 398.9 422.1 406.6 366.2 412.9C375.4 420.8 383.2 435.8 383.2 459.3C383.2 493 382.9 534.7 382.9 542.9C382.9 549.4 387.5 557.3 400.2 555C500.2 521.8 568 426.9 568 316C568 177.3 455.5 72 316.8 72zM169.2 416.9C167.9 417.9 168.2 420.2 169.9 422.1C171.5 423.7 173.8 424.4 175.1 423.1C176.4 422.1 176.1 419.8 174.4 417.9C172.8 416.3 170.5 415.6 169.2 416.9zM158.4 408.8C157.7 410.1 158.7 411.7 160.7 412.7C162.3 413.7 164.3 413.4 165 412C165.7 410.7 164.7 409.1 162.7 408.1C160.7 407.5 159.1 407.8 158.4 408.8zM190.8 444.4C189.2 445.7 189.8 448.7 192.1 450.6C194.4 452.9 197.3 453.2 198.6 451.6C199.9 450.3 199.3 447.3 197.3 445.4C195.1 443.1 192.1 442.8 190.8 444.4zM179.4 429.7C177.8 430.7 177.8 433.3 179.4 435.6C181 437.9 183.7 438.9 185 437.9C186.6 436.6 186.6 434 185 431.7C183.6 429.4 181 428.4 179.4 429.7z"/>
  </symbol>
</svg>