<?xml version="1.0" encoding="UTF-8"?>
<svg xmlns="http://www.w3.org/2000/svg" style="display: none;">
<symbol id="inbox-full" viewBox="0 0 512 512">
<path d="M58.9 80.5C66 52 91.6 32 121 32H391c29.4 0 55 20 62.1 48.5l57 227.9c1.3 5.1 1.9 10.3 1.9 15.5V416c0 35.3-28.7 64-64 64H64c-35.3 0-64-28.7-64-64V323.9c0-5.2 .6-10.4 1.9-15.5l57-227.9zM391 96H121L73 288h51.2c12.1 0 23.2 6.8 28.6 17.7l14.3 28.6c5.4 10.8 16.5 17.7 28.6 17.7H316.2c12.1 0 23.2-6.8 28.6-17.7l14.3-28.6c5.4-10.8 16.5-17.7 28.6-17.7H439L391 96zM176 144H336c8.8 0 16 7.2 16 16s-7.2 16-16 16H176c-8.8 0-16-7.2-16-16s7.2-16 16-16zm-32 80H368c8.8 0 16 7.2 16 16s-7.2 16-16 16H144c-8.8 0-16-7.2-16-16s7.2-16 16-16z"/>
</symbol>
<symbol id="link" viewBox="0 0 640 512">
<path d="M579.8 267.7c56.5-56.5 56.5-148 0-204.5c-50-50-128.8-56.5-186.3-15.4l-1.6 1.1c-14.4 10.3-17.7 30.3-7.4 44.6s30.3 17.7 44.6 7.4l1.6-1.1c32.1-22.9 76-19.3 103.8 8.6c31.5 31.5 31.5 82.5 0 114L422.3 334.8c-31.5 31.5-82.5 31.5-114 0c-27.9-27.9-31.5-71.8-8.6-103.8l1.1-1.6c10.3-14.4 6.9-34.4-7.4-44.6s-34.4-6.9-44.6 7.4l-1.1 1.6C206.5 251.2 213 330 263 380c56.5 56.5 148 56.5 204.5 0L579.8 267.7zM60.2 244.3c-56.5 56.5-56.5 148 0 204.5c50 50 128.8 56.5 186.3 15.4l1.6-1.1c14.4-10.3 17.7-30.3 7.4-44.6s-30.3-17.7-44.6-7.4l-1.6 1.1c-32.1 22.9-76 19.3-103.8-8.6C74 372 74 321 105.5 289.5L217.7 177.2c31.5-31.5 82.5-31.5 114 0c27.9 27.9 31.5 71.8 8.6 103.9l-1.1 1.6c-10.3 14.4-6.9 34.4 7.4 44.6s34.4 6.9 44.6-7.4l1.1-1.6C433.5 260.8 427 182 377 132c-56.5-56.5-148-56.5-204.5 0L60.2 244.3z"/>
</symbol>
<symbol id="inbox-in" viewBox="0 0 512 512">
<path d="M288 32V210.7l41.4-41.4c12.5-12.5 32.8-12.5 45.3 0s12.5 32.8 0 45.3l-96 96c-12.5 12.5-32.8 12.5-45.3 0l-96-96c-12.5-12.5-12.5-32.8 0-45.3s32.8-12.5 45.3 0L224 210.7V32c0-17.7 14.3-32 32-32s32 14.3 32 32zM48 320h76.2c12.1 0 23.2 6.8 28.6 17.7l14.3 28.6c5.4 10.8 16.5 17.7 28.6 17.7H316.2c12.1 0 23.2-6.8 28.6-17.7l14.3-28.6c5.4-10.8 16.5-17.7 28.6-17.7H464c26.5 0 48 21.5 48 48v96c0 26.5-21.5 48-48 48H48c-26.5 0-48-21.5-48-48V368c0-26.5 21.5-48 48-48z"/>
</symbol>
<symbol id="chevron-right" viewBox="0 0 320 512">
<path d="M310.6 233.4c12.5 12.5 12.5 32.8 0 45.3l-192 192c-12.5 12.5-32.8 12.5-45.3 0s-12.5-32.8 0-45.3L242.7 256 73.4 86.6c-12.5-12.5-12.5-32.8 0-45.3s32.8-12.5 45.3 0l192 192z"/>
</symbol>
<symbol id="arrow-up-arrow-down" viewBox="0 0 576 512">
<path d="M182.6 41.4c-12.5-12.5-32.8-12.5-45.3 0l-96 96c-12.5 12.5-12.5 32.8 0 45.3s32.8 12.5 45.3 0L128 141.3V448c0 17.7 14.3 32 32 32s32-14.3 32-32V141.3l41.4 41.4c12.5 12.5 32.8 12.5 45.3 0s12.5-32.8 0-45.3l-96-96zm352 333.3c12.5-12.5 12.5-32.8 0-45.3s-32.8-12.5-45.3 0L448 370.7V64c0-17.7-14.3-32-32-32s-32 14.3-32 32V370.7l-41.4-41.4c-12.5-12.5-32.8-12.5-45.3 0s-12.5 32.8 0 45.3l96 96c12.5 12.5 32.8 12.5 45.3 0l96-96z"/>
</symbol>
<symbol id="inbox" viewBox="0 0 512 512">
<path d="M121 32C91.6 32 66 52 58.9 80.5L1.9 308.4C.6 313.5 0 318.7 0 323.9V416c0 35.3 28.7 64 64 64H448c35.3 0 64-28.7 64-64V323.9c0-5.2-.6-10.4-1.9-15.5l-57-227.9C446 52 420.4 32 391 32H121zm0 64H391l48 192H387.8c-12.1 0-23.2 6.8-28.6 17.7l-14.3 28.6c-5.4 10.8-16.5 17.7-28.6 17.7H195.8c-12.1 0-23.2-6.8-28.6-17.7l-14.3-28.6c-5.4-10.8-16.5-17.7-28.6-17.7H73L121 96z"/>
</symbol>
<symbol id="caret-down" viewBox="0 0 320 512">
<path d="M137.4 374.6c12.5 12.5 32.8 12.5 45.3 0l128-128c9.2-9.2 11.9-22.9 6.9-34.9s-16.6-19.8-29.6-19.8L32 192c-12.9 0-24.6 7.8-29.6 19.8s-2.2 25.7 6.9 34.9l128 128z"/>
</symbol>
<symbol id="caret-up" viewBox="0 0 320 512">
<path d="M182.6 137.4c-12.5-12.5-32.8-12.5-45.3 0l-128 128c-9.2 9.2-11.9 22.9-6.9 34.9s16.6 19.8 29.6 19.8H288c12.9 0 24.6-7.8 29.6-19.8s2.2-25.7-6.9-34.9l-128-128z"/>
</symbol>
</svg>