<svg width="21" height="20" viewBox="0 0 21 20" fill="none" xmlns="http://www.w3.org/2000/svg">
  <path fill-rule="evenodd" clip-rule="evenodd" d="M9.4501 7.96667C10.7803 7.96667 11.8328 6.95327 11.8328 5.73333C11.8328 4.5134 10.7803 3.5 9.4501 3.5C8.11993 3.5 7.06741 4.5134 7.06741 5.73333C7.06741 6.95327 8.11993 7.96667 9.4501 7.96667ZM9.4501 9.46667C11.6359 9.46667 13.4078 7.7952 13.4078 5.73333C13.4078 3.67147 11.6359 2 9.4501 2C7.26433 2 5.49241 3.67147 5.49241 5.73333C5.49241 7.7952 7.26433 9.46667 9.4501 9.46667ZM10.7836 12.0333H7.83669C5.59773 12.0333 3.6751 13.851 3.6751 16.2222C3.6751 16.3188 3.71332 16.3929 3.76114 16.4403C3.80789 16.4867 3.85363 16.5 3.89278 16.5H10.8676C10.8676 16.5 11.5501 16.5977 11.5501 17.25C11.5501 17.9023 10.8676 18 10.8676 18H3.89278C2.90271 18 2.1001 17.2041 2.1001 16.2222C2.1001 13.0803 4.66846 10.5333 7.83669 10.5333H10.7836C11.3112 10.5333 11.5501 10.9727 11.5501 11.3C11.5501 11.6 11.3136 12.0333 10.7836 12.0333ZM16.2751 11.75C16.2751 11.3358 15.9225 11 15.4876 11C15.0527 11 14.7001 11.3358 14.7001 11.75V13.5H12.8626C12.4277 13.5 12.0751 13.8358 12.0751 14.25C12.0751 14.6642 12.4277 15 12.8626 15H14.7001V16.75C14.7001 17.1642 15.0527 17.5 15.4876 17.5C15.9225 17.5 16.2751 17.1642 16.2751 16.75V15H18.1126C18.5475 15 18.9001 14.6642 18.9001 14.25C18.9001 13.8358 18.5475 13.5 18.1126 13.5H16.2751V11.75Z" fill="#3F434A" />
</svg>
