<svg width="18" height="18" viewBox="0 0 18 18" fill="none" xmlns="http://www.w3.org/2000/svg">
<path d="M11.6667 4.55556C12.6485 4.55556 13.4444 5.35149 13.4444 6.33333M17 6.33333C17 9.27885 14.6122 11.6667 11.6667 11.6667C11.1278 11.6667 10.6077 11.5868 10.1174 11.4382L8.11111 13.4444H6.33333V15.2222H4.55556V17H1.88889C1.39797 17 1 16.602 1 16.1111V13.8126C1 13.5769 1.09365 13.3508 1.26035 13.1841L6.56184 7.8826C6.41324 7.39231 6.33333 6.87215 6.33333 6.33333C6.33333 3.38781 8.72115 1 11.6667 1C14.6122 1 17 3.38781 17 6.33333Z" stroke="#8A9099" stroke-width="1.5" stroke-linecap="round" stroke-linejoin="round"/>
</svg>
