<svg width="18" height="20" viewBox="0 0 18 20" fill="none" xmlns="http://www.w3.org/2000/svg">
  <path fill-rule="evenodd" clip-rule="evenodd" d="M15.9554 5.58711C16.2813 5.24285 16.2813 4.6832 15.9554 4.33894C15.6304 3.99379 15.1029 3.99379 14.7771 4.33894L5.9818 13.6552L3.22255 10.7334C2.89754 10.3882 2.3692 10.3882 2.04419 10.7334C1.71834 11.0785 1.71834 11.6373 2.04419 11.9816L5.35095 15.4851C5.36428 15.5001 5.37678 15.5151 5.39095 15.5292C5.55345 15.7022 5.76679 15.7879 5.98013 15.7879C6.02013 15.7879 6.06014 15.7852 6.10014 15.779C6.27264 15.7534 6.43931 15.6705 6.57182 15.5292C6.58598 15.5151 6.59932 15.5001 6.61182 15.4842L15.9554 5.58711Z" fill="#304FFD" />
</svg>
