<svg width="16" height="16" viewBox="0 0 16 16" fill="none" xmlns="http://www.w3.org/2000/svg">
<path fill-rule="evenodd" clip-rule="evenodd" d="M6.05024 1.70503C6.18151 1.57375 6.35956 1.5 6.54521 1.5H9.44521C9.63086 1.5 9.80891 1.57375 9.94019 1.70503C10.0715 1.8363 10.1452 2.01435 10.1452 2.2V2.9L5.84521 2.89999V2.2C5.84521 2.01435 5.91896 1.8363 6.05024 1.70503ZM4.34521 2.89999V2.2C4.34521 1.61652 4.577 1.05694 4.98958 0.644365C5.40216 0.231785 5.96174 0 6.54521 0H9.44521C10.0287 0 10.5883 0.231785 11.0008 0.644365C11.4134 1.05694 11.6452 1.61652 11.6452 2.2V2.9L14.5202 2.89999C14.9344 2.89999 15.2702 3.23578 15.2702 3.64999C15.2702 4.06421 14.9344 4.39999 14.5202 4.39999H13.8202V13.8C13.8202 14.3835 13.5884 14.9431 13.1758 15.3556C12.7633 15.7682 12.2037 16 11.6202 16H4.37021C3.78674 16 3.22716 15.7682 2.81458 15.3556C2.402 14.9431 2.17021 14.3835 2.17021 13.8V4.39999H1.47021C1.056 4.39999 0.720215 4.06421 0.720215 3.64999C0.720215 3.23578 1.056 2.89999 1.47021 2.89999H4.34521ZM3.67021 13.8V4.4H12.3202V13.8C12.3202 13.9857 12.2465 14.1637 12.1152 14.295C11.9839 14.4263 11.8059 14.5 11.6202 14.5H4.37021C4.18456 14.5 4.00651 14.4263 3.87524 14.295C3.74396 14.1637 3.67021 13.9857 3.67021 13.8ZM6.54523 6.52502C6.95944 6.52502 7.29523 6.86081 7.29523 7.27502V11.625C7.29523 12.0392 6.95944 12.375 6.54523 12.375C6.13101 12.375 5.79523 12.0392 5.79523 11.625V7.27502C5.79523 6.86081 6.13101 6.52502 6.54523 6.52502ZM10.1952 7.27502C10.1952 6.86081 9.8594 6.52502 9.44519 6.52502C9.03098 6.52502 8.69519 6.86081 8.69519 7.27502V11.625C8.69519 12.0392 9.03098 12.375 9.44519 12.375C9.8594 12.375 10.1952 12.0392 10.1952 11.625V7.27502Z" fill="#3F434A"/>
</svg>
