<svg width="21" height="20" viewBox="0 0 21 20" fill="none" xmlns="http://www.w3.org/2000/svg">
  <path fill-rule="evenodd" clip-rule="evenodd" d="M11.2922 2.75C11.2922 2.33579 10.9396 2 10.5047 2C10.0698 2 9.7172 2.33579 9.7172 2.75V4.63635H8.7746C7.92335 4.63635 7.10696 4.95841 6.50503 5.53167C5.9031 6.10494 5.56494 6.88245 5.56494 7.69317C5.56494 8.50389 5.9031 9.2814 6.50503 9.85467C7.10696 10.4279 7.92335 10.75 8.7746 10.75H9.7172V13.8636H6.35244C5.91752 13.8636 5.56494 14.1994 5.56494 14.6136C5.56494 15.0278 5.91752 15.3636 6.35244 15.3636H9.7172V17.25C9.7172 17.6642 10.0698 18 10.5047 18C10.9396 18 11.2922 17.6642 11.2922 17.25V15.3636H12.2348C13.0861 15.3636 13.9025 15.0416 14.5044 14.4683C15.1063 13.895 15.4445 13.1175 15.4445 12.3068C15.4445 11.4961 15.1063 10.7186 14.5044 10.1453C13.9025 9.57205 13.0861 9.24999 12.2348 9.24999H11.2922V6.13635H13.9649C14.3999 6.13635 14.7524 5.80057 14.7524 5.38635C14.7524 4.97214 14.3999 4.63635 13.9649 4.63635H11.2922V2.75ZM9.7172 6.13635H8.7746C8.34106 6.13635 7.92528 6.30037 7.61872 6.59233C7.31216 6.88429 7.13994 7.28028 7.13994 7.69317C7.13994 8.10606 7.31216 8.50205 7.61872 8.79401C7.92528 9.08597 8.34106 9.24999 8.7746 9.24999H9.7172V6.13635ZM11.2922 10.75V13.8636H12.2348C12.6684 13.8636 13.0841 13.6996 13.3907 13.4076C13.6973 13.1157 13.8695 12.7197 13.8695 12.3068C13.8695 11.8939 13.6973 11.4979 13.3907 11.206C13.0841 10.914 12.6684 10.75 12.2348 10.75H11.2922Z" fill="#3F434A" />
</svg>
