<svg width="18" height="20" viewBox="0 0 18 20" fill="none" xmlns="http://www.w3.org/2000/svg">
<path fill-rule="evenodd" clip-rule="evenodd" d="M2.61722 12.5153C2.25267 12.5153 1.95715 12.8569 1.95715 13.2783C1.95715 13.6997 2.25267 14.0414 2.61722 14.0414H7.57992C7.94446 14.0414 8.23998 13.6997 8.23998 13.2783C8.23998 12.8569 7.94446 12.5153 7.57992 12.5153H2.61722ZM15.3778 14.0414H11.0755V15.737C11.0755 16.1584 10.78 16.5 10.4154 16.5C10.0509 16.5 9.75534 16.1584 9.75534 15.737V13.3024C9.75513 13.2944 9.75502 13.2864 9.75502 13.2783C9.75502 13.2703 9.75513 13.2622 9.75534 13.2542V10.8196C9.75534 10.3981 10.0509 10.0565 10.4154 10.0565C10.78 10.0565 11.0755 10.3981 11.0755 10.8196V12.5153H15.3778C15.7423 12.5153 16.0379 12.8569 16.0379 13.2783C16.0379 13.6997 15.7423 14.0414 15.3778 14.0414ZM8.33777 6.72163C8.33777 6.30022 8.6333 5.95859 8.99784 5.95859L15.3785 5.95859C15.743 5.95859 16.0385 6.30022 16.0385 6.72163C16.0385 7.14305 15.743 7.48468 15.3785 7.48468L8.99784 7.48468C8.6333 7.48468 8.33777 7.14305 8.33777 6.72163ZM2.61722 5.95859C2.25267 5.95859 1.95715 6.30022 1.95715 6.72163C1.95715 7.14305 2.25267 7.48468 2.61722 7.48468H5.50156V9.18041C5.50156 9.60182 5.79708 9.94345 6.16163 9.94345C6.52617 9.94345 6.82169 9.60182 6.82169 9.18041L6.82169 6.74774C6.82194 6.73907 6.82207 6.73037 6.82207 6.72163C6.82207 6.7129 6.82194 6.7042 6.82169 6.69553V4.26301C6.82169 3.84159 6.52617 3.49996 6.16163 3.49996C5.79708 3.49996 5.50156 3.84159 5.50156 4.26301V5.95859H2.61722Z" fill="#3F434A"/>
</svg>
