<svg width="20" height="20" viewBox="0 0 20 20" fill="none" xmlns="http://www.w3.org/2000/svg">
<path d="M7.25837 6.42518C7.18111 6.34809 7.11982 6.25651 7.078 6.1557C7.03619 6.05489 7.01466 5.94682 7.01466 5.83768C7.01466 5.72854 7.03619 5.62047 7.078 5.51966C7.11982 5.41885 7.18111 5.32728 7.25837 5.25018L9.4167 3.09185C9.49379 3.01459 9.58537 2.95331 9.68618 2.91149C9.78699 2.86967 9.89506 2.84814 10.0042 2.84814C10.1133 2.84814 10.2214 2.86967 10.3222 2.91149C10.423 2.95331 10.5146 3.01459 10.5917 3.09185L12.75 5.25018C12.8272 5.32733 12.8884 5.41893 12.9301 5.51973C12.9719 5.62053 12.9934 5.72857 12.9934 5.83768C12.9934 5.94679 12.9719 6.05483 12.9301 6.15563C12.8884 6.25644 12.8272 6.34803 12.75 6.42518C12.6729 6.50233 12.5813 6.56353 12.4805 6.60529C12.3797 6.64704 12.2716 6.66853 12.1625 6.66853C12.0534 6.66853 11.9454 6.64704 11.8446 6.60529C11.7438 6.56353 11.6522 6.50233 11.575 6.42518L10.8334 5.69185V9.94185C10.8334 10.8252 11.1834 11.6752 11.8084 12.3002L15.2417 15.7335C15.3189 15.8107 15.38 15.9023 15.4218 16.0031C15.4636 16.1039 15.485 16.2119 15.485 16.321C15.485 16.4301 15.4636 16.5382 15.4218 16.639C15.38 16.7398 15.3189 16.8314 15.2417 16.9085C15.1645 16.9857 15.073 17.0469 14.9722 17.0886C14.8713 17.1304 14.7633 17.1519 14.6542 17.1519C14.5451 17.1519 14.437 17.1304 14.3362 17.0886C14.2354 17.0469 14.1438 16.9857 14.0667 16.9085L10 12.8418L5.93337 16.9085C5.77755 17.0643 5.56622 17.1519 5.34587 17.1519C5.12551 17.1519 4.91418 17.0643 4.75837 16.9085C4.60255 16.7527 4.51501 16.5414 4.51501 16.321C4.51501 16.1007 4.60255 15.8893 4.75837 15.7335L8.1917 12.3002C8.8167 11.6752 9.1667 10.8252 9.1667 9.94185V5.69185L8.43337 6.42518C8.35627 6.50243 8.2647 6.56372 8.16389 6.60554C8.06307 6.64736 7.95501 6.66888 7.84587 6.66888C7.73672 6.66888 7.62866 6.64736 7.52784 6.60554C7.42703 6.56372 7.33546 6.50243 7.25837 6.42518V6.42518Z" fill="#304FFD"/>
</svg>
