<svg width="22" height="22" viewBox="0 0 22 22" fill="none" xmlns="http://www.w3.org/2000/svg">
  <path d="M17.8751 14.6537C17.2584 13.94 16.1045 12.8665 16.1045 9.34995C16.1045 6.67901 14.3656 4.54089 12.0208 4.01633V3.29995C12.0208 2.69254 11.5637 2.19995 11 2.19995C10.4363 2.19995 9.97919 2.69254 9.97919 3.29995V4.01633C7.63438 4.54089 5.8954 6.67901 5.8954 9.34995C5.8954 12.8665 4.74151 13.94 4.12482 14.6537C3.93331 14.8754 3.8484 15.1404 3.85 15.4C3.85351 15.9637 4.26431 16.5 4.87461 16.5H17.1253C17.7356 16.5 18.1468 15.9637 18.15 15.4C18.1515 15.1404 18.0666 14.875 17.8751 14.6537ZM6.00552 14.85C6.68286 13.8885 7.42339 12.2949 7.4269 9.36989C7.4269 9.36301 7.42499 9.35683 7.42499 9.34995C7.42499 7.22351 9.02543 5.49995 11 5.49995C12.9745 5.49995 14.575 7.22351 14.575 9.34995C14.575 9.35683 14.573 9.36301 14.573 9.36989C14.5766 12.2952 15.3171 13.8888 15.9944 14.85H6.00552ZM11 19.8C12.1274 19.8 13.0419 18.8151 13.0419 17.6H8.95808C8.95808 18.8151 9.87258 19.8 11 19.8Z" fill="#3F434A" />
  <path d="M15.95 8.19995C17.7449 8.19995 19.2 6.74488 19.2 4.94995C19.2 3.15503 17.7449 1.69995 15.95 1.69995C14.155 1.69995 12.7 3.15503 12.7 4.94995C12.7 6.74488 14.155 8.19995 15.95 8.19995Z" fill="#FD7972" stroke="white" />
</svg>
