<svg width="10" height="10" viewBox="0 0 10 10" fill="none" xmlns="http://www.w3.org/2000/svg">
  <path fill-rule="evenodd" clip-rule="evenodd" d="M5.8002 1.0002C5.8002 0.558367 5.44202 0.200195 5.0002 0.200195C4.55837 0.200195 4.2002 0.558367 4.2002 1.0002V4.2002H1.0002C0.558367 4.2002 0.200195 4.55837 0.200195 5.0002C0.200195 5.44202 0.558367 5.8002 1.0002 5.8002H4.2002V9.0002C4.2002 9.44202 4.55837 9.8002 5.0002 9.8002C5.44202 9.8002 5.8002 9.44202 5.8002 9.0002V5.8002H9.0002C9.44202 5.8002 9.8002 5.44202 9.8002 5.0002C9.8002 4.55837 9.44202 4.2002 9.0002 4.2002H5.8002V1.0002Z" fill="white" />
</svg>
