<svg width="20" height="22" viewBox="0 0 20 22" fill="none" xmlns="http://www.w3.org/2000/svg">
  <path fill-rule="evenodd" clip-rule="evenodd" d="M9.66459 2.20252C9.87574 2.0907 10.1243 2.0907 10.3354 2.20252L17.5854 6.04226C17.8395 6.17683 18 6.45191 18 6.75282C18 7.05372 17.8395 7.32881 17.5854 7.46338L10.3354 11.3031C10.1243 11.4149 9.87574 11.4149 9.66459 11.3031L2.41459 7.46338C2.1605 7.32881 2 7.05372 2 6.75282C2 6.45191 2.1605 6.17683 2.41459 6.04226L9.66459 2.20252ZM4.42705 6.75282L10 9.70436L15.5729 6.75282L10 3.80128L4.42705 6.75282ZM2.07934 14.0772C2.26459 13.6848 2.71509 13.5257 3.08557 13.7219L10.0002 17.384L16.9148 13.7219C17.2852 13.5257 17.7357 13.6848 17.921 14.0772C18.1062 14.4696 17.9561 14.9468 17.5856 15.143L10.3356 18.9828C10.1244 19.0946 9.8759 19.0946 9.66475 18.9828L2.41475 15.143C2.04427 14.9468 1.8941 14.4696 2.07934 14.0772ZM3.08557 9.88217C2.71509 9.68595 2.26459 9.84502 2.07934 10.2374C1.8941 10.6299 2.04427 11.1071 2.41475 11.3033L9.66475 15.143C9.8759 15.2549 10.1244 15.2549 10.3356 15.143L17.5856 11.3033C17.9561 11.1071 18.1062 10.6299 17.921 10.2374C17.7357 9.84502 17.2852 9.68595 16.9148 9.88217L10.0002 13.5443L3.08557 9.88217Z" fill="#8A9099" />
</svg>
