<svg width="21" height="20" viewBox="0 0 21 20" fill="none" xmlns="http://www.w3.org/2000/svg">
  <path fill-rule="evenodd" clip-rule="evenodd" d="M2.4248 6.77161C1.65106 7.98318 2.39027 9.23475 3.28161 9.69965L3.46455 9.79476C3.46175 9.86409 3.45988 9.93343 3.45895 10.0001C3.45988 10.0668 3.46175 10.1361 3.46455 10.2054L3.28161 10.3005C2.39027 10.7654 1.65106 12.017 2.4248 13.2286L3.45801 14.8446C4.18042 15.9744 5.58791 16.0251 6.44845 15.5762L6.61458 15.489C6.82179 15.6171 7.03739 15.7362 7.25766 15.8464V15.8766C7.25766 16.9628 8.15834 18.0002 9.46688 18.0002H11.5333C12.8419 18.0002 13.7425 16.9628 13.7425 15.8766V15.8464C13.9628 15.7362 14.1784 15.6171 14.3856 15.489L14.5517 15.5762C15.4123 16.0251 16.8198 15.9744 17.5422 14.8446L18.5754 13.2286C19.3491 12.017 18.6099 10.7654 17.7186 10.3005L17.5356 10.2054C17.5384 10.1361 17.5403 10.0668 17.5412 10.0001C17.5403 9.93343 17.5384 9.86409 17.5356 9.79476L17.7186 9.69965C18.6099 9.23475 19.3491 7.98318 18.5754 6.77161L17.5422 5.15559C16.8198 4.0258 15.4123 3.97602 14.5517 4.42403L14.3856 4.51114C14.1784 4.38314 13.9628 4.26403 13.7425 4.1538V4.12358C13.7425 3.03735 12.8419 2 11.5333 2H9.46688C8.15834 2 7.25766 3.03735 7.25766 4.12358V4.1538C7.03739 4.26403 6.82179 4.38314 6.61458 4.51114L6.44845 4.42403C5.58791 3.97602 4.18042 4.0258 3.45801 5.15559L2.4248 6.77161ZM6.78725 6.62761L5.55431 5.98405C5.37137 5.88894 5.1455 5.9316 5.0503 6.08094L4.01709 7.69696C3.92189 7.84629 3.99282 8.04363 4.17576 8.13963L5.4787 8.81875C5.3779 9.19653 5.32377 9.59298 5.32377 10.0001C5.32377 10.4072 5.3779 10.8037 5.4787 11.1814L4.17576 11.8606C3.99282 11.9566 3.92189 12.1539 4.01709 12.3032L5.0503 13.9193C5.1455 14.0686 5.37137 14.1113 5.55431 14.0161L6.78725 13.3726C7.42006 13.9815 8.2218 14.4348 9.12248 14.6668V15.8766C9.12248 16.0677 9.27648 16.2224 9.46689 16.2224H11.5333C11.7237 16.2224 11.8777 16.0677 11.8777 15.8766V14.6668C12.7784 14.4348 13.5801 13.9815 14.2129 13.3726L15.4459 14.0161C15.6288 14.1113 15.8547 14.0686 15.9499 13.9193L16.9831 12.3032C17.0783 12.1539 17.0074 11.9566 16.8244 11.8606L15.5215 11.1814C15.6223 10.8037 15.6764 10.4072 15.6764 10.0001C15.6764 9.59298 15.6223 9.19653 15.5215 8.81875L16.8244 8.13963C17.0074 8.04363 17.0783 7.84629 16.9831 7.69696L15.9499 6.08094C15.8547 5.9316 15.6288 5.88894 15.4459 5.98405L14.2129 6.62761C13.5801 6.01871 12.7784 5.56538 11.8777 5.33426V4.12358C11.8777 3.93247 11.7237 3.7778 11.5333 3.7778H9.46689C9.27648 3.7778 9.12248 3.93247 9.12248 4.12358V5.33426C8.2218 5.56538 7.42006 6.01871 6.78725 6.62761ZM10.4965 12.6668C12.0411 12.6668 13.2928 11.473 13.2928 10.0001C13.2928 8.52719 12.0411 7.3334 10.4965 7.3334C8.95178 7.3334 7.70016 8.52719 7.70016 10.0001C7.70016 11.473 8.95178 12.6668 10.4965 12.6668ZM11.5501 10C11.5501 10.552 11.0803 11 10.5001 11C9.91992 11 9.4501 10.552 9.4501 10C9.4501 9.448 9.91992 9 10.5001 9C11.0803 9 11.5501 9.448 11.5501 10Z" fill="#3F434A" />
</svg>
