<svg width="70" height="70" viewBox="0 0 70 70" fill="none" xmlns="http://www.w3.org/2000/svg">
<rect width="70" height="70" rx="35" fill="#FFE89F"/>
<path fill-rule="evenodd" clip-rule="evenodd" d="M26.1704 15.5492C26.5221 15.1975 26.999 15 27.4963 15H42.5038C43.001 15 43.4779 15.1975 43.8296 15.5492L54.4508 26.1704C54.8025 26.5221 55 26.999 55 27.4963V42.5038C55 43.001 54.8025 43.4779 54.4508 43.8296L43.8296 54.4508C43.4779 54.8025 43.001 55 42.5038 55H27.4963C26.999 55 26.5221 54.8025 26.1704 54.4508L15.5492 43.8296C15.1975 43.4779 15 43.001 15 42.5038V27.4963C15 26.999 15.1975 26.5221 15.5492 26.1704L26.1704 15.5492ZM28.2729 18.75L18.75 28.2729V41.7271L28.2729 51.25H41.7271L51.25 41.7271V28.2729L41.7271 18.75H28.2729ZM35 25.875C36.0355 25.875 36.875 26.7145 36.875 27.75V35C36.875 36.0355 36.0355 36.875 35 36.875C33.9645 36.875 33.125 36.0355 33.125 35V27.75C33.125 26.7145 33.9645 25.875 35 25.875ZM35 40.375C33.9645 40.375 33.125 41.2145 33.125 42.25C33.125 43.2855 33.9645 44.125 35 44.125H35.0181C36.0537 44.125 36.8931 43.2855 36.8931 42.25C36.8931 41.2145 36.0537 40.375 35.0181 40.375H35Z" fill="#E6B823"/>
</svg>
