<svg width="16" height="16" viewBox="0 0 16 16" fill="none" xmlns="http://www.w3.org/2000/svg">
<g id="vscode-icons:file-type-ng-controller-js" clip-path="url(#clip0_4669_10653)">
<path id="Vector" d="M1.96343 12.3537L8.08643 15.7192L14.2409 12.3077L15.3884 2.79224L8.07893 0.281738L0.81543 2.83774L1.96343 12.3537Z" fill="#B3B3B3"/>
<path id="Vector_2" d="M8.06152 14.9143L13.5945 11.8523L14.6635 3.34183L8.06152 1.09033V14.9143Z" fill="#A6120D"/>
<path id="Vector_3" d="M8.06186 14.9143V1.09033L1.63086 3.38233L2.61436 11.8928L8.06186 14.9143Z" fill="#DD1B16"/>
<path id="Vector_4" d="M9.87879 8.44982L8.06129 9.29982H6.14629L5.24629 11.5498L3.57129 11.5808L8.06179 1.59082L9.87879 8.44982ZM9.70329 8.02182L8.07379 4.79582L6.73729 7.96632H8.06179L9.70329 8.02182Z" fill="#F2F2F2"/>
<path id="Vector_5" d="M9.59052 7.96879H8.06502L8.06152 9.29729L10.171 9.29929L11.157 11.5828L12.7595 11.6128L8.06152 1.59229L8.07402 4.79579L9.59052 7.96879Z" fill="#B3B3B3"/>
<path id="Vector_6" d="M7.81992 13.9652L8.65492 13.4652C8.69823 13.6096 8.78375 13.7377 8.90048 13.8331C9.01722 13.9284 9.15981 13.9866 9.30992 14.0002C9.64492 14.0002 9.85992 13.8702 9.85992 13.3552V9.85524H10.8599V13.3552C10.8844 13.5627 10.8619 13.7731 10.7939 13.9707C10.7259 14.1682 10.6142 14.3479 10.4672 14.4964C10.3202 14.6448 10.1416 14.7583 9.94467 14.8282C9.74777 14.8981 9.53765 14.9227 9.32992 14.9002C9.00961 14.9174 8.69159 14.8373 8.41763 14.6704C8.14368 14.5036 7.9266 14.2577 7.79492 13.9652M11.4399 13.8552L12.2749 13.3552C12.3672 13.5415 12.5098 13.6983 12.6865 13.8079C12.8632 13.9174 13.067 13.9754 13.2749 13.9752C13.3501 13.994 13.4283 13.9978 13.5049 13.9864C13.5816 13.975 13.6552 13.9486 13.7216 13.9087C13.7881 13.8688 13.846 13.8162 13.8921 13.754C13.9383 13.6917 13.9717 13.6209 13.9904 13.5457C13.9941 13.5307 13.9973 13.5156 13.9999 13.5002C13.9999 13.1502 13.7199 13.0002 13.2549 12.8202L12.9999 12.7102C12.2599 12.3952 11.7699 12.0002 11.7699 11.1652C11.7711 10.9852 11.8077 10.8072 11.8777 10.6414C11.9477 10.4756 12.0497 10.3252 12.1779 10.1988C12.3061 10.0724 12.4579 9.97248 12.6246 9.90478C12.7914 9.83708 12.9699 9.80292 13.1499 9.80424C13.1903 9.80424 13.2306 9.80624 13.2709 9.81024C13.5674 9.78729 13.864 9.853 14.1231 9.999C14.3822 10.145 14.592 10.3647 14.7259 10.6302L13.9309 11.1302C13.8789 10.9983 13.7878 10.8855 13.6699 10.8068C13.5519 10.7282 13.4127 10.6875 13.2709 10.6902C13.2085 10.6825 13.1451 10.688 13.0849 10.7066C13.0247 10.7251 12.9692 10.7562 12.9219 10.7978C12.8747 10.8393 12.8368 10.8905 12.8108 10.9478C12.7847 11.0051 12.7711 11.0673 12.7709 11.1302C12.7709 11.4352 12.9609 11.5602 13.4009 11.7502L13.6559 11.8602C14.4999 12.2352 14.9999 12.6152 14.9999 13.4752C14.9999 14.3352 14.2749 14.9002 13.3049 14.9002C12.9264 14.9247 12.5488 14.839 12.2179 14.6536C11.8869 14.4681 11.6167 14.1909 11.4399 13.8552Z" fill="#F7DF1E"/>
</g>
<defs>
<clipPath id="clip0_4669_10653">
<rect width="16" height="16" fill="white"/>
</clipPath>
</defs>
</svg>
