<svg xmlns="http://www.w3.org/2000/svg" width="40" height="31" fill="none" viewBox="0 0 40 31">
  <g clip-path="url(#a)">
    <path fill="#4285F4" d="M9.09 30.008V14.553l-4.792-4.385L0 7.735V27.28a2.727 2.727 0 0 0 2.727 2.728h6.364Z"/>
    <path fill="#34A853" d="M30.909 30.008h6.364A2.727 2.727 0 0 0 40 27.281V7.735l-4.868 2.787-4.223 4.031v15.455Z"/>
    <path fill="#EA4335" d="m9.09 14.553-.65-6.039.652-5.78L20 10.918l10.909-8.182.73 5.467-.73 6.351L20 22.735 9.09 14.553Z"/>
    <path fill="#FBBC04" d="M30.909 2.735v11.818l9.09-6.818V4.099c0-3.373-3.85-5.296-6.544-3.273l-2.546 1.909Z"/>
    <path fill="#C5221F" d="m0 7.735 4.181 3.136 4.91 3.682V2.735L6.545.826C3.845-1.197 0 .726 0 4.098v3.637Z"/>
  </g>
  <defs>
    <clipPath id="a">
      <path fill="#fff" d="M0 0h40v30.156H0z"/>
    </clipPath>
  </defs>
</svg>
