<svg width="18" height="8" viewBox="0 0 18 8" fill="none" xmlns="http://www.w3.org/2000/svg">
<g id="logos:go" clip-path="url(#clip0_4669_10693)">
<path id="Vector" d="M10.213 1.25393L10.2503 1.27883C10.689 1.56853 11.0035 1.96584 11.2105 2.44592C11.2601 2.5204 11.227 2.5618 11.1277 2.58661L10.9596 2.62964C10.5795 2.72755 10.2779 2.8099 9.90283 2.90781L9.6889 2.96353C9.61187 2.98259 9.59062 2.97458 9.50867 2.88128L9.49712 2.86804C9.38027 2.73562 9.29275 2.64717 9.13796 2.56821L9.10811 2.5535C8.58665 2.29694 8.08177 2.37142 7.60998 2.67768C7.04712 3.04185 6.75743 3.57988 6.76569 4.25031C6.77399 4.91245 7.22921 5.45874 7.88311 5.54978C8.44594 5.62429 8.91772 5.42564 9.29019 5.00353C9.3647 4.91245 9.43091 4.81314 9.51365 4.69726H7.91625C7.74243 4.69726 7.70106 4.58968 7.759 4.44897L7.78769 4.3814C7.89407 4.1339 8.05906 3.77817 8.1662 3.57476L8.18958 3.53097C8.2182 3.48136 8.2763 3.41433 8.38803 3.41433H11.0517C11.1714 3.03531 11.3655 2.67718 11.6243 2.33831C12.2286 1.54373 12.9569 1.12985 13.9419 0.956066C14.7862 0.807051 15.5808 0.889826 16.3009 1.37818C16.9548 1.82512 17.3603 2.42939 17.468 3.22394C17.6086 4.34136 17.2858 5.25182 16.5161 6.02987C15.9698 6.58443 15.2994 6.93206 14.5296 7.08931C14.3061 7.13072 14.0826 7.13899 13.8674 7.16382C13.1142 7.14725 12.4272 6.93206 11.8478 6.43545C11.4403 6.08316 11.1596 5.65026 11.0201 5.14623C10.9223 5.34374 10.8059 5.53151 10.6725 5.70704C10.0765 6.49338 9.29853 6.9817 8.31356 7.11418C7.50241 7.22176 6.74919 7.06448 6.08702 6.56786C5.47452 6.10434 5.12689 5.49185 5.03581 4.7304C4.92823 3.82817 5.19309 3.01702 5.73939 2.30521C6.32708 1.53543 7.1051 1.04711 8.05696 0.873291C8.8206 0.735166 9.55233 0.820332 10.213 1.25393M14.1505 2.44001L14.124 2.44592C13.3542 2.61974 12.8576 3.10806 12.6755 3.88611C12.5265 4.53171 12.841 5.18561 13.437 5.45047C13.8922 5.64913 14.3475 5.62429 14.7861 5.4008C15.44 5.06147 15.7959 4.53171 15.8374 3.8199C15.8291 3.71232 15.8291 3.62952 15.8125 3.54674C15.6652 2.73655 14.9272 2.27426 14.1505 2.44001ZM4.36537 3.95232C4.39848 3.95232 4.41505 3.97715 4.41505 4.01026L4.39848 4.20891C4.39848 4.24201 4.36537 4.26685 4.34054 4.26685L2.53615 4.25858C2.50304 4.25858 2.49478 4.23375 2.51131 4.20891L2.62719 4.00199C2.64376 3.97715 2.67686 3.95232 2.70997 3.95232H4.36537ZM4.54746 3.19084C4.58056 3.19084 4.59713 3.21567 4.58886 3.24051L4.52262 3.43916C4.51436 3.47227 4.48125 3.4888 4.44815 3.4888L0.533102 3.4971C0.499999 3.4971 0.491731 3.48053 0.508266 3.4557L0.682085 3.23224C0.698653 3.2074 0.740024 3.19084 0.773128 3.19084H4.54746ZM4.97787 2.42936C5.01098 2.42936 5.01924 2.45419 5.00271 2.47903L4.86199 2.69422C4.84542 2.71905 4.80405 2.74389 4.77922 2.74389L1.78297 2.73559C1.74983 2.73559 1.74156 2.71905 1.7581 2.69422L1.93192 2.47076C1.94849 2.44592 1.98986 2.42936 2.02296 2.42936H4.97787Z" fill="#00ACD7"/>
</g>
<defs>
<clipPath id="clip0_4669_10693">
<rect width="17" height="6.375" fill="white" transform="translate(0.5 0.8125)"/>
</clipPath>
</defs>
</svg>
