<svg xmlns="http://www.w3.org/2000/svg" width="35" height="31" fill="none" viewBox="0 0 35 31">
  <g clip-path="url(#a)">
    <path fill="#0068FF" d="M32.75 18.756c-.225.241-.469.477-.666.662-.197.185-.428.41-.63.623 0 0 0 .023-.012.036-.013.916-.013 1.854-.013 2.765v1.752a6.262 6.262 0 0 1-.433 2.434 6.115 6.115 0 0 1-1.336 2.057 5.771 5.771 0 0 1-4.073 1.59c-.12 0-.25 0-.361-.012a2.09 2.09 0 0 1-.819-.178 2.144 2.144 0 0 1-.69-.488 2.213 2.213 0 0 1-.456-.722 2.263 2.263 0 0 1-.153-.847c.023-1.2.93-2.095 2.16-2.131h.451c.894-.026 1.428-.564 1.457-1.48.013-.351 0-.713 0-1.054v-1.585c0-.875 0-1.796-.012-2.714a2.732 2.732 0 0 1 .211-1.22 2.65 2.65 0 0 1 .726-.99c.306-.257.613-.573.91-.86l.21-.21.287-.283c.304-.294.34-.474.34-.538 0-.064-.036-.257-.35-.552l-.36-.354c-.375-.366-.76-.746-1.147-1.097a2.463 2.463 0 0 1-.622-.87 2.527 2.527 0 0 1-.2-1.062v-5.43c0-.825-.396-1.38-1.079-1.539a2.877 2.877 0 0 0-.54-.03h-.25c-1.267-.031-2.21-.99-2.192-2.224.018-1.234.94-2.111 2.19-2.152 2.666-.087 4.544 1.057 5.593 3.396.298.771.472 1.587.516 2.416.044.528.055 1.058.032 1.588v1.521c0 .549 0 1.113.013 1.66a.123.123 0 0 0 .022.048c.2.215.431.436.635.63l.057.055c.185.177.377.361.564.559a4.948 4.948 0 0 1 1.366 3.41 4.95 4.95 0 0 1-1.346 3.42Zm-21.612 9.629a2.18 2.18 0 0 1-.488 1.5 2.06 2.06 0 0 1-1.356.744 6.163 6.163 0 0 1-.73.044 5.647 5.647 0 0 1-3.736-1.344 5.513 5.513 0 0 1-1.346-1.7 5.665 5.665 0 0 1-.6-2.104 49.569 49.569 0 0 1-.052-4.896v-.023c.012-.513-.112-.716-.362-.919a7.975 7.975 0 0 1-1.295-1.318 4.927 4.927 0 0 1-1.02-3.251 4.902 4.902 0 0 1 1.324-3.133c.217-.23.443-.446.643-.636a9.24 9.24 0 0 0 .642-.641.292.292 0 0 0 .04-.072c.013-.649 0-1.303 0-1.94 0-1.117 0-2.272.06-3.426C3.026 2.477 5.423.14 8.208.071c.3 0 .563-.013.822 0a2.084 2.084 0 0 1 1.52.583c.411.395.654.94.674 1.52a2.22 2.22 0 0 1-.566 1.564 2.093 2.093 0 0 1-1.476.693 4.327 4.327 0 0 1-.538.018H8.43c-.34-.011-.67.114-.92.348-.252.235-.405.56-.428.91-.04.535-.035 1.1-.03 1.643v4.097a2.49 2.49 0 0 1-.194 1.041c-.139.328-.346.62-.608.857a78.226 78.226 0 0 0-1.587 1.538l-.04.039a.724.724 0 0 0-.249.454.736.736 0 0 0 .287.451l.15.146c.483.47.983.96 1.479 1.427.256.23.46.517.595.838.135.322.2.67.187 1.021v5.463c0 1.003.556 1.563 1.54 1.573h.55a2.085 2.085 0 0 1 1.38.653c.365.386.577.898.596 1.437Z"/>
    <path fill="#0068FF" d="M25.587 15.366a2.81 2.81 0 0 1-.789 1.948 2.649 2.649 0 0 1-1.894.81 2.645 2.645 0 0 1-1.887-.813 2.804 2.804 0 0 1-.783-1.945 2.807 2.807 0 0 1 .204-1.062c.136-.337.336-.642.588-.898.246-.255.54-.457.862-.595a2.58 2.58 0 0 1 1.019-.207 2.65 2.65 0 0 1 1.892.813c.503.517.786 1.218.788 1.949Zm-11.577-.021a2.818 2.818 0 0 1-.453 1.53 2.7 2.7 0 0 1-1.2 1.015 2.61 2.61 0 0 1-1.547.158 2.658 2.658 0 0 1-1.371-.752 2.785 2.785 0 0 1-.737-1.408 2.836 2.836 0 0 1 .147-1.593c.2-.504.54-.936.98-1.241a2.627 2.627 0 0 1 2.509-.275 2.765 2.765 0 0 1 1.464 1.496c.138.34.209.703.208 1.07Zm5.8.02a2.826 2.826 0 0 1-.458 1.534 2.706 2.706 0 0 1-1.209 1.014 2.618 2.618 0 0 1-1.55.153 2.665 2.665 0 0 1-1.374-.76 2.779 2.779 0 0 1-.663-1.153 2.84 2.84 0 0 1-.058-1.339c.088-.444.28-.86.561-1.21a2.69 2.69 0 0 1 1.049-.794 2.612 2.612 0 0 1 2.513.26c.366.253.666.595.873.995.208.4.316.847.316 1.3Z"/>
  </g>
  <defs>
    <clipPath id="a">
      <path fill="#fff" d="M0 0h35v30.8H0z"/>
    </clipPath>
  </defs>
</svg>
