<svg xmlns="http://www.w3.org/2000/svg" width="40" height="40" fill="none" viewBox="0 0 40 40">
  <path fill="#0072C6" d="M24.355 9.921v6.847l2.395 1.506a.624.624 0 0 0 .262 0L37.31 11.33a1.467 1.467 0 0 0-1.199-1.41H24.355Z"/>
  <path fill="#0072C6" d="m24.355 19.321 2.184 1.5a.65.65 0 0 0 .678 0c-.375.226 10.092-6.722 10.092-6.722V26.68a1.761 1.761 0 0 1-1.863 1.944H24.354V19.32ZM13.05 16.165a2.012 2.012 0 0 0-1.775 1.047 5.163 5.163 0 0 0-.658 2.773c-.049.965.18 1.925.658 2.765a2.001 2.001 0 0 0 3.464.027 5 5 0 0 0 .643-2.75 5.462 5.462 0 0 0-.625-2.85 1.925 1.925 0 0 0-1.707-1.012Z"/>
  <path fill="#0072C6" d="M2.691 6.444v26.783L23.066 37.5v-35L2.691 6.444Zm13.635 17.92a4.039 4.039 0 0 1-3.375 1.701 3.987 3.987 0 0 1-3.3-1.648 6.825 6.825 0 0 1-1.269-4.292 7.338 7.338 0 0 1 1.295-4.52 4.088 4.088 0 0 1 3.43-1.73 3.9 3.9 0 0 1 3.263 1.651 7.05 7.05 0 0 1 1.25 4.355 7.2 7.2 0 0 1-1.294 4.483Z"/>
</svg>
