<svg xmlns="http://www.w3.org/2000/svg" width="99" height="99" fill="none" viewBox="0 0 99 99">
  <path fill="#067CFF" d="M47.761 62.839 30.937 92.81 65.934 71.7l-18.173-8.86Z"/>
  <path fill="#1E9CFF" d="M97.84.687a3.119 3.119 0 0 0-3.087-.464L1.94 37.348a3.094 3.094 0 0 0-.142 5.68l80.438 37.125a3.143 3.143 0 0 0 2.734-.074 3.087 3.087 0 0 0 1.61-2.227l12.374-74.25A3.095 3.095 0 0 0 97.841.687Z"/>
  <path fill="#83D6FF" d="M95.906 3.094 30.937 56.48v36.333L47.953 64.33 95.906 3.094Z"/>
</svg>
