<svg width="64" height="16" viewBox="0 0 64 16" fill="none" xmlns="http://www.w3.org/2000/svg">
<g id="logos:slack" clip-path="url(#clip0_4669_10296)">
<path id="Vector" d="M20.1348 12.5396L20.9209 10.7137C21.7703 11.3477 22.8987 11.6774 24.0145 11.6774C24.8386 11.6774 25.3585 11.3604 25.3585 10.8786C25.3458 9.53463 20.4263 10.5869 20.3883 7.21426C20.3756 5.50263 21.8972 4.18398 24.0526 4.18398C25.3332 4.18398 26.6138 4.50091 27.5266 5.22362L26.7913 7.08749C25.9545 6.55494 24.9148 6.17463 23.9258 6.17463C23.2538 6.17463 22.8101 6.49155 22.8101 6.89734C22.8228 8.21598 27.7803 7.49328 27.831 10.7137C27.831 12.4635 26.3476 13.6934 24.2175 13.6934C22.6578 13.6934 21.2251 13.3256 20.1348 12.5396ZM50.2985 10.0544L52.4666 11.2589C51.6551 12.717 50.1083 13.6934 48.3205 13.6934C45.6959 13.6934 43.5658 11.5633 43.5658 8.93869C43.5658 6.31408 45.6959 4.18398 48.3205 4.18398C50.0956 4.18398 51.6551 5.17291 52.4666 6.61845L50.2985 7.82288C49.9054 7.1382 49.17 6.66915 48.3205 6.66915C47.0652 6.66915 46.051 7.68343 46.051 8.93869C46.051 10.194 47.0652 11.2082 48.3205 11.2082C49.17 11.2082 49.9054 10.7391 50.2983 10.0544M28.9214 0.240723H31.6347V13.5158H28.9214V0.240723ZM53.5316 0.240723H56.2449V8.03838L59.3132 4.37414H62.6352L58.8442 8.78645L62.9396 13.5158H59.4655L56.2449 9.53463V13.5158H53.5316V0.240723ZM39.6987 10.0799V7.83555C39.3056 7.17623 38.4942 6.66915 37.5813 6.66915C36.3259 6.66915 35.3118 7.68343 35.3118 8.93869C35.3118 10.194 36.3259 11.2082 37.5813 11.2082C38.4942 11.2082 39.3056 10.7265 39.6987 10.0799ZM39.6987 4.37414H42.4121V13.5031H39.6987V12.4255C39.2549 13.1735 38.1518 13.6934 36.998 13.6934C34.6143 13.6934 32.7378 11.5633 32.7378 8.92602C32.7378 6.28872 34.6143 4.18398 36.998 4.18398C38.1518 4.18398 39.2549 4.70386 39.6987 5.45192V4.37414Z" fill="black"/>
<path id="Vector_2" d="M3.36002 10.0672C3.36002 10.9927 2.61196 11.7409 1.6863 11.7409C1.46645 11.7411 1.24871 11.6979 1.04556 11.6139C0.842406 11.5299 0.657821 11.4066 0.502369 11.2511C0.346918 11.0957 0.223652 10.9111 0.139627 10.7079C0.0556029 10.5047 0.0124695 10.287 0.0126962 10.0672C0.0126962 9.14162 0.760758 8.39355 1.6863 8.39355H3.36002V10.0672ZM4.19682 10.0672C4.19682 9.14162 4.94488 8.39355 5.87042 8.39355C6.79596 8.39355 7.54414 9.14162 7.54414 10.0672V14.2513C7.54414 15.1768 6.79608 15.925 5.87042 15.925C5.65058 15.9252 5.43286 15.882 5.22972 15.798C5.02658 15.7139 4.84201 15.5907 4.68657 15.4352C4.53113 15.2797 4.40788 15.0951 4.32386 14.892C4.23985 14.6888 4.19672 14.4711 4.19694 14.2513L4.19682 10.0672Z" fill="#E01E5A"/>
<path id="Vector_3" d="M5.8704 3.34732C5.65056 3.34752 5.43284 3.30436 5.2297 3.22031C5.02656 3.13626 4.84199 3.01298 4.68655 2.85752C4.53112 2.70206 4.40786 2.51747 4.32384 2.31432C4.23983 2.11117 4.1967 1.89344 4.19692 1.6736C4.1968 0.748061 4.94486 0 5.8704 0C6.79594 0 7.54412 0.748061 7.54412 1.6736V3.34732H5.8704ZM5.8704 4.1968C6.79594 4.1968 7.54412 4.94486 7.54412 5.8704C7.54412 6.79594 6.79606 7.54412 5.8704 7.54412H1.6736C1.45375 7.54433 1.23602 7.50118 1.03286 7.41714C0.829711 7.33311 0.645126 7.20983 0.489674 7.05436C0.334222 6.8989 0.210957 6.71431 0.126932 6.51115C0.0429076 6.30799 -0.000225778 6.09025 8.88729e-07 5.8704C8.88729e-07 4.94486 0.748062 4.19692 1.6736 4.19692L5.8704 4.1968Z" fill="#36C5F0"/>
<path id="Vector_4" d="M12.5777 5.8704C12.5777 4.94486 13.3257 4.1968 14.2513 4.1968C15.1768 4.1968 15.925 4.94486 15.925 5.8704C15.925 6.79594 15.1769 7.54412 14.2513 7.54412H12.5777V5.8704ZM11.7408 5.8704C11.7408 6.79594 10.9928 7.54412 10.0672 7.54412C9.84731 7.54433 9.62957 7.50118 9.42642 7.41714C9.22327 7.33311 9.03868 7.20983 8.88323 7.05436C8.72778 6.8989 8.60451 6.71431 8.52049 6.51115C8.43646 6.30799 8.39333 6.09025 8.39356 5.8704V1.6736C8.39356 0.748061 9.14162 0 10.0672 0C10.9927 0 11.7409 0.748061 11.7409 1.6736L11.7408 5.8704Z" fill="#2EB67D"/>
<path id="Vector_5" d="M10.0672 12.5777C10.9927 12.5777 11.7409 13.3257 11.7409 14.2513C11.7409 15.1768 10.9928 15.925 10.0672 15.925C9.84731 15.9252 9.62957 15.8821 9.42642 15.798C9.22327 15.714 9.03868 15.5907 8.88323 15.4352C8.72778 15.2798 8.60451 15.0952 8.52049 14.892C8.43646 14.6889 8.39333 14.4711 8.39356 14.2513V12.5777H10.0672ZM10.0672 11.7408C9.84732 11.741 9.62959 11.6978 9.42645 11.6138C9.2233 11.5298 9.03872 11.4065 8.88327 11.251C8.72782 11.0956 8.60455 10.911 8.52052 10.7079C8.43649 10.5047 8.39335 10.287 8.39356 10.0672C8.39356 9.14162 9.14162 8.39355 10.0672 8.39355H14.2641C15.1896 8.39355 15.9377 9.14162 15.9377 10.0672C15.9377 10.9927 15.1896 11.7409 14.264 11.7409L10.0672 11.7408Z" fill="#ECB22E"/>
</g>
<defs>
<clipPath id="clip0_4669_10296">
<rect width="63.0154" height="16" fill="white"/>
</clipPath>
</defs>
</svg>
